<?xml version="1.0" encoding="utf-8"?>
<svg xmlns="http://www.w3.org/2000/svg" xmlns:xlink="http://www.w3.org/1999/xlink" width="600" height="400" viewBox="0 0 2400 1600">
<defs>
  <clipPath id="clip070">
    <rect x="0" y="0" width="2400" height="1600"/>
  </clipPath>
</defs>
<path clip-path="url(#clip070)" d="
M0 1600 L2400 1600 L2400 0 L0 0  Z
  " fill="#ffffff" fill-rule="evenodd" fill-opacity="1"/>
<defs>
  <clipPath id="clip071">
    <rect x="480" y="0" width="1681" height="1600"/>
  </clipPath>
</defs>
<path clip-path="url(#clip070)" d="
M294.069 1423.18 L2352.76 1423.18 L2352.76 123.472 L294.069 123.472  Z
  " fill="#ffffff" fill-rule="evenodd" fill-opacity="1"/>
<defs>
  <clipPath id="clip072">
    <rect x="294" y="123" width="2060" height="1301"/>
  </clipPath>
</defs>
<polyline clip-path="url(#clip072)" style="stroke:#000000; stroke-linecap:butt; stroke-linejoin:round; stroke-width:2; stroke-opacity:0.1; fill:none" points="
  546.55,1423.18 546.55,123.472 
  "/>
<polyline clip-path="url(#clip072)" style="stroke:#000000; stroke-linecap:butt; stroke-linejoin:round; stroke-width:2; stroke-opacity:0.1; fill:none" points="
  934.981,1423.18 934.981,123.472 
  "/>
<polyline clip-path="url(#clip072)" style="stroke:#000000; stroke-linecap:butt; stroke-linejoin:round; stroke-width:2; stroke-opacity:0.1; fill:none" points="
  1323.41,1423.18 1323.41,123.472 
  "/>
<polyline clip-path="url(#clip072)" style="stroke:#000000; stroke-linecap:butt; stroke-linejoin:round; stroke-width:2; stroke-opacity:0.1; fill:none" points="
  1711.84,1423.18 1711.84,123.472 
  "/>
<polyline clip-path="url(#clip072)" style="stroke:#000000; stroke-linecap:butt; stroke-linejoin:round; stroke-width:2; stroke-opacity:0.1; fill:none" points="
  2100.28,1423.18 2100.28,123.472 
  "/>
<polyline clip-path="url(#clip070)" style="stroke:#000000; stroke-linecap:butt; stroke-linejoin:round; stroke-width:4; stroke-opacity:1; fill:none" points="
  294.069,1423.18 2352.76,1423.18 
  "/>
<polyline clip-path="url(#clip070)" style="stroke:#000000; stroke-linecap:butt; stroke-linejoin:round; stroke-width:4; stroke-opacity:1; fill:none" points="
  546.55,1423.18 546.55,1404.28 
  "/>
<polyline clip-path="url(#clip070)" style="stroke:#000000; stroke-linecap:butt; stroke-linejoin:round; stroke-width:4; stroke-opacity:1; fill:none" points="
  934.981,1423.18 934.981,1404.28 
  "/>
<polyline clip-path="url(#clip070)" style="stroke:#000000; stroke-linecap:butt; stroke-linejoin:round; stroke-width:4; stroke-opacity:1; fill:none" points="
  1323.41,1423.18 1323.41,1404.28 
  "/>
<polyline clip-path="url(#clip070)" style="stroke:#000000; stroke-linecap:butt; stroke-linejoin:round; stroke-width:4; stroke-opacity:1; fill:none" points="
  1711.84,1423.18 1711.84,1404.28 
  "/>
<polyline clip-path="url(#clip070)" style="stroke:#000000; stroke-linecap:butt; stroke-linejoin:round; stroke-width:4; stroke-opacity:1; fill:none" points="
  2100.28,1423.18 2100.28,1404.28 
  "/>
<path clip-path="url(#clip070)" d="M523.853 1454.1 Q520.242 1454.1 518.413 1457.66 Q516.608 1461.2 516.608 1468.33 Q516.608 1475.44 518.413 1479.01 Q520.242 1482.55 523.853 1482.55 Q527.487 1482.55 529.293 1479.01 Q531.122 1475.44 531.122 1468.33 Q531.122 1461.2 529.293 1457.66 Q527.487 1454.1 523.853 1454.1 M523.853 1450.39 Q529.663 1450.39 532.719 1455 Q535.797 1459.58 535.797 1468.33 Q535.797 1477.06 532.719 1481.67 Q529.663 1486.25 523.853 1486.25 Q518.043 1486.25 514.964 1481.67 Q511.909 1477.06 511.909 1468.33 Q511.909 1459.58 514.964 1455 Q518.043 1450.39 523.853 1450.39 Z" fill="#000000" fill-rule="evenodd" fill-opacity="1" /><path clip-path="url(#clip070)" d="M544.015 1479.7 L548.899 1479.7 L548.899 1485.58 L544.015 1485.58 L544.015 1479.7 Z" fill="#000000" fill-rule="evenodd" fill-opacity="1" /><path clip-path="url(#clip070)" d="M569.663 1466.44 Q566.515 1466.44 564.663 1468.59 Q562.834 1470.74 562.834 1474.49 Q562.834 1478.22 564.663 1480.39 Q566.515 1482.55 569.663 1482.55 Q572.811 1482.55 574.64 1480.39 Q576.492 1478.22 576.492 1474.49 Q576.492 1470.74 574.64 1468.59 Q572.811 1466.44 569.663 1466.44 M578.945 1451.78 L578.945 1456.04 Q577.186 1455.21 575.381 1454.77 Q573.598 1454.33 571.839 1454.33 Q567.209 1454.33 564.756 1457.45 Q562.325 1460.58 561.978 1466.9 Q563.344 1464.89 565.404 1463.82 Q567.464 1462.73 569.941 1462.73 Q575.149 1462.73 578.158 1465.9 Q581.191 1469.05 581.191 1474.49 Q581.191 1479.82 578.043 1483.03 Q574.894 1486.25 569.663 1486.25 Q563.668 1486.25 560.496 1481.67 Q557.325 1477.06 557.325 1468.33 Q557.325 1460.14 561.214 1455.28 Q565.103 1450.39 571.654 1450.39 Q573.413 1450.39 575.195 1450.74 Q577.001 1451.09 578.945 1451.78 Z" fill="#000000" fill-rule="evenodd" fill-opacity="1" /><path clip-path="url(#clip070)" d="M912.412 1454.1 Q908.801 1454.1 906.972 1457.66 Q905.166 1461.2 905.166 1468.33 Q905.166 1475.44 906.972 1479.01 Q908.801 1482.55 912.412 1482.55 Q916.046 1482.55 917.852 1479.01 Q919.68 1475.44 919.68 1468.33 Q919.68 1461.2 917.852 1457.66 Q916.046 1454.1 912.412 1454.1 M912.412 1450.39 Q918.222 1450.39 921.278 1455 Q924.356 1459.58 924.356 1468.33 Q924.356 1477.06 921.278 1481.67 Q918.222 1486.25 912.412 1486.25 Q906.602 1486.25 903.523 1481.67 Q900.467 1477.06 900.467 1468.33 Q900.467 1459.58 903.523 1455 Q906.602 1450.39 912.412 1450.39 Z" fill="#000000" fill-rule="evenodd" fill-opacity="1" /><path clip-path="url(#clip070)" d="M932.574 1479.7 L937.458 1479.7 L937.458 1485.58 L932.574 1485.58 L932.574 1479.7 Z" fill="#000000" fill-rule="evenodd" fill-opacity="1" /><path clip-path="url(#clip070)" d="M957.643 1469.17 Q954.31 1469.17 952.388 1470.95 Q950.49 1472.73 950.49 1475.86 Q950.49 1478.98 952.388 1480.77 Q954.31 1482.55 957.643 1482.55 Q960.976 1482.55 962.898 1480.77 Q964.819 1478.96 964.819 1475.86 Q964.819 1472.73 962.898 1470.95 Q961 1469.17 957.643 1469.17 M952.967 1467.18 Q949.958 1466.44 948.268 1464.38 Q946.601 1462.32 946.601 1459.35 Q946.601 1455.21 949.541 1452.8 Q952.504 1450.39 957.643 1450.39 Q962.805 1450.39 965.745 1452.8 Q968.685 1455.21 968.685 1459.35 Q968.685 1462.32 966.995 1464.38 Q965.328 1466.44 962.342 1467.18 Q965.722 1467.96 967.597 1470.26 Q969.495 1472.55 969.495 1475.86 Q969.495 1480.88 966.416 1483.57 Q963.361 1486.25 957.643 1486.25 Q951.925 1486.25 948.847 1483.57 Q945.791 1480.88 945.791 1475.86 Q945.791 1472.55 947.689 1470.26 Q949.588 1467.96 952.967 1467.18 M951.254 1459.79 Q951.254 1462.48 952.921 1463.98 Q954.611 1465.49 957.643 1465.49 Q960.652 1465.49 962.342 1463.98 Q964.055 1462.48 964.055 1459.79 Q964.055 1457.11 962.342 1455.6 Q960.652 1454.1 957.643 1454.1 Q954.611 1454.1 952.921 1455.6 Q951.254 1457.11 951.254 1459.79 Z" fill="#000000" fill-rule="evenodd" fill-opacity="1" /><path clip-path="url(#clip070)" d="M1290.57 1481.64 L1298.2 1481.64 L1298.2 1455.28 L1289.89 1456.95 L1289.89 1452.69 L1298.16 1451.02 L1302.83 1451.02 L1302.83 1481.64 L1310.47 1481.64 L1310.47 1485.58 L1290.57 1485.58 L1290.57 1481.64 Z" fill="#000000" fill-rule="evenodd" fill-opacity="1" /><path clip-path="url(#clip070)" d="M1319.92 1479.7 L1324.8 1479.7 L1324.8 1485.58 L1319.92 1485.58 L1319.92 1479.7 Z" fill="#000000" fill-rule="evenodd" fill-opacity="1" /><path clip-path="url(#clip070)" d="M1344.99 1454.1 Q1341.38 1454.1 1339.55 1457.66 Q1337.74 1461.2 1337.74 1468.33 Q1337.74 1475.44 1339.55 1479.01 Q1341.38 1482.55 1344.99 1482.55 Q1348.62 1482.55 1350.43 1479.01 Q1352.26 1475.44 1352.26 1468.33 Q1352.26 1461.2 1350.43 1457.66 Q1348.62 1454.1 1344.99 1454.1 M1344.99 1450.39 Q1350.8 1450.39 1353.85 1455 Q1356.93 1459.58 1356.93 1468.33 Q1356.93 1477.06 1353.85 1481.67 Q1350.8 1486.25 1344.99 1486.25 Q1339.18 1486.25 1336.1 1481.67 Q1333.04 1477.06 1333.04 1468.33 Q1333.04 1459.58 1336.1 1455 Q1339.18 1450.39 1344.99 1450.39 Z" fill="#000000" fill-rule="evenodd" fill-opacity="1" /><path clip-path="url(#clip070)" d="M1679.8 1481.64 L1687.43 1481.64 L1687.43 1455.28 L1679.12 1456.95 L1679.12 1452.69 L1687.39 1451.02 L1692.06 1451.02 L1692.06 1481.64 L1699.7 1481.64 L1699.7 1485.58 L1679.8 1485.58 L1679.8 1481.64 Z" fill="#000000" fill-rule="evenodd" fill-opacity="1" /><path clip-path="url(#clip070)" d="M1709.15 1479.7 L1714.03 1479.7 L1714.03 1485.58 L1709.15 1485.58 L1709.15 1479.7 Z" fill="#000000" fill-rule="evenodd" fill-opacity="1" /><path clip-path="url(#clip070)" d="M1728.24 1481.64 L1744.56 1481.64 L1744.56 1485.58 L1722.62 1485.58 L1722.62 1481.64 Q1725.28 1478.89 1729.86 1474.26 Q1734.47 1469.61 1735.65 1468.27 Q1737.9 1465.74 1738.78 1464.01 Q1739.68 1462.25 1739.68 1460.56 Q1739.68 1457.8 1737.74 1456.07 Q1735.81 1454.33 1732.71 1454.33 Q1730.51 1454.33 1728.06 1455.09 Q1725.63 1455.86 1722.85 1457.41 L1722.85 1452.69 Q1725.67 1451.55 1728.13 1450.97 Q1730.58 1450.39 1732.62 1450.39 Q1737.99 1450.39 1741.18 1453.08 Q1744.38 1455.77 1744.38 1460.26 Q1744.38 1462.39 1743.57 1464.31 Q1742.78 1466.2 1740.67 1468.8 Q1740.1 1469.47 1736.99 1472.69 Q1733.89 1475.88 1728.24 1481.64 Z" fill="#000000" fill-rule="evenodd" fill-opacity="1" /><path clip-path="url(#clip070)" d="M2067.19 1481.64 L2074.82 1481.64 L2074.82 1455.28 L2066.51 1456.95 L2066.51 1452.69 L2074.78 1451.02 L2079.45 1451.02 L2079.45 1481.64 L2087.09 1481.64 L2087.09 1485.58 L2067.19 1485.58 L2067.19 1481.64 Z" fill="#000000" fill-rule="evenodd" fill-opacity="1" /><path clip-path="url(#clip070)" d="M2096.54 1479.7 L2101.42 1479.7 L2101.42 1485.58 L2096.54 1485.58 L2096.54 1479.7 Z" fill="#000000" fill-rule="evenodd" fill-opacity="1" /><path clip-path="url(#clip070)" d="M2124.45 1455.09 L2112.65 1473.54 L2124.45 1473.54 L2124.45 1455.09 M2123.23 1451.02 L2129.11 1451.02 L2129.11 1473.54 L2134.04 1473.54 L2134.04 1477.43 L2129.11 1477.43 L2129.11 1485.58 L2124.45 1485.58 L2124.45 1477.43 L2108.85 1477.43 L2108.85 1472.92 L2123.23 1451.02 Z" fill="#000000" fill-rule="evenodd" fill-opacity="1" /><path clip-path="url(#clip070)" d="M1287.46 1554.11 Q1287.46 1558.88 1285.01 1563.35 Q1282.6 1567.83 1278.8 1570.54 Q1275.03 1573.24 1271.23 1573.24 Q1266.94 1573.24 1264.72 1568.8 Q1260.7 1584.93 1260.47 1585.35 Q1259.54 1586.73 1258.18 1586.73 Q1257.35 1586.73 1256.83 1586.22 Q1256.32 1585.74 1256.32 1584.96 Q1256.35 1584.71 1256.54 1583.9 L1262.98 1557.97 Q1264.46 1551.95 1268.94 1547.67 Q1273.45 1543.35 1278.28 1543.35 Q1282.11 1543.35 1284.79 1546.22 Q1287.46 1549.09 1287.46 1554.11 M1282.73 1551.28 Q1282.73 1548.06 1281.44 1546.45 Q1280.15 1544.8 1278.15 1544.8 Q1276.32 1544.8 1274.09 1546.28 Q1271.9 1547.77 1269.97 1551.05 Q1268.94 1552.95 1268.2 1555.3 Q1267.46 1557.65 1266.01 1563.45 Q1265.5 1565.77 1265.5 1565.9 Q1265.5 1566.16 1265.62 1566.73 Q1265.79 1567.31 1266.17 1568.22 Q1266.59 1569.09 1267.17 1569.86 Q1267.75 1570.63 1268.81 1571.21 Q1269.88 1571.76 1271.16 1571.76 Q1273.16 1571.76 1275.29 1570.15 Q1277.44 1568.51 1279.02 1565.51 Q1280.34 1563.1 1281.53 1558.55 Q1282.73 1553.98 1282.73 1551.28 Z" fill="#000000" fill-rule="evenodd" fill-opacity="1" /><path clip-path="url(#clip070)" d="M1294.29 1556.01 Q1294.29 1544.87 1298.44 1535.88 Q1300.22 1532.11 1302.7 1528.96 Q1305.18 1525.8 1306.82 1524.42 Q1308.46 1523.03 1308.91 1523.03 Q1309.56 1523.03 1309.59 1523.68 Q1309.59 1524 1308.72 1524.8 Q1298.09 1535.62 1298.12 1556.01 Q1298.12 1576.46 1308.46 1586.86 Q1309.59 1587.99 1309.59 1588.35 Q1309.59 1588.99 1308.91 1588.99 Q1308.46 1588.99 1306.88 1587.67 Q1305.3 1586.35 1302.86 1583.32 Q1300.41 1580.29 1298.64 1576.59 Q1294.29 1567.6 1294.29 1556.01 Z" fill="#000000" fill-rule="evenodd" fill-opacity="1" /><path clip-path="url(#clip070)" d="M1359.85 1571.18 Q1359.85 1571.79 1359.59 1572.11 Q1359.37 1572.4 1359.14 1572.47 Q1358.95 1572.5 1358.66 1572.5 Q1357.82 1572.5 1354.92 1572.4 Q1352.02 1572.31 1351.19 1572.31 Q1349.83 1572.31 1347.06 1572.4 Q1344.29 1572.5 1342.94 1572.5 Q1342.04 1572.5 1342.04 1571.76 Q1342.04 1571.28 1342.14 1571.02 Q1342.23 1570.73 1342.49 1570.63 Q1342.78 1570.5 1342.94 1570.5 Q1343.14 1570.47 1343.62 1570.47 Q1344.26 1570.47 1344.94 1570.41 Q1345.62 1570.31 1346.45 1570.12 Q1347.29 1569.92 1347.81 1569.44 Q1348.35 1568.96 1348.35 1568.28 Q1348.35 1567.99 1348.13 1565.61 Q1347.9 1563.22 1347.61 1560.45 Q1347.32 1557.65 1347.29 1557.27 L1330.74 1557.27 Q1329.22 1559.88 1328.16 1561.68 Q1327.1 1563.48 1326.71 1564.09 Q1326.32 1564.71 1326.1 1565.09 Q1325.87 1565.48 1325.74 1565.7 Q1324.81 1567.41 1324.81 1568.15 Q1324.81 1570.21 1327.9 1570.47 Q1328.96 1570.47 1328.96 1571.24 Q1328.96 1571.82 1328.71 1572.15 Q1328.45 1572.44 1328.22 1572.47 Q1328.03 1572.5 1327.71 1572.5 Q1326.65 1572.5 1324.42 1572.4 Q1322.2 1572.31 1321.11 1572.31 Q1320.17 1572.31 1318.24 1572.4 Q1316.31 1572.5 1315.44 1572.5 Q1315.05 1572.5 1314.83 1572.27 Q1314.6 1572.05 1314.6 1571.76 Q1314.6 1571.31 1314.67 1571.05 Q1314.76 1570.79 1315.02 1570.66 Q1315.28 1570.54 1315.41 1570.54 Q1315.53 1570.5 1315.99 1570.47 Q1318.43 1570.31 1320.33 1569.15 Q1322.27 1567.96 1324.1 1564.9 L1347.03 1526.38 Q1347.26 1525.99 1347.42 1525.8 Q1347.58 1525.61 1347.9 1525.45 Q1348.26 1525.29 1348.77 1525.29 Q1349.58 1525.29 1349.74 1525.54 Q1349.9 1525.77 1350 1526.86 L1354.02 1568.09 Q1354.12 1568.96 1354.18 1569.31 Q1354.28 1569.63 1354.7 1569.99 Q1355.15 1570.31 1355.95 1570.41 Q1356.79 1570.47 1358.34 1570.47 Q1358.92 1570.47 1359.14 1570.5 Q1359.37 1570.5 1359.59 1570.66 Q1359.85 1570.83 1359.85 1571.18 M1347.1 1555.21 L1345 1533.47 L1331.99 1555.21 L1347.1 1555.21 Z" fill="#000000" fill-rule="evenodd" fill-opacity="1" /><path clip-path="url(#clip070)" d="M1365.18 1588.35 Q1365.18 1588.02 1366.02 1587.22 Q1376.65 1576.4 1376.65 1556.01 Q1376.65 1535.56 1366.44 1525.22 Q1365.18 1524.03 1365.18 1523.68 Q1365.18 1523.03 1365.83 1523.03 Q1366.28 1523.03 1367.85 1524.35 Q1369.46 1525.67 1371.88 1528.7 Q1374.33 1531.73 1376.13 1535.43 Q1380.48 1544.42 1380.48 1556.01 Q1380.48 1567.15 1376.32 1576.14 Q1374.55 1579.91 1372.07 1583.06 Q1369.59 1586.22 1367.95 1587.6 Q1366.31 1588.99 1365.83 1588.99 Q1365.18 1588.99 1365.18 1588.35 Z" fill="#000000" fill-rule="evenodd" fill-opacity="1" /><polyline clip-path="url(#clip072)" style="stroke:#000000; stroke-linecap:butt; stroke-linejoin:round; stroke-width:2; stroke-opacity:0.1; fill:none" points="
  294.069,1116.48 2352.76,1116.48 
  "/>
<polyline clip-path="url(#clip072)" style="stroke:#000000; stroke-linecap:butt; stroke-linejoin:round; stroke-width:2; stroke-opacity:0.1; fill:none" points="
  294.069,554.805 2352.76,554.805 
  "/>
<polyline clip-path="url(#clip070)" style="stroke:#000000; stroke-linecap:butt; stroke-linejoin:round; stroke-width:4; stroke-opacity:1; fill:none" points="
  294.069,1423.18 294.069,123.472 
  "/>
<polyline clip-path="url(#clip070)" style="stroke:#000000; stroke-linecap:butt; stroke-linejoin:round; stroke-width:4; stroke-opacity:1; fill:none" points="
  294.069,1116.48 312.967,1116.48 
  "/>
<polyline clip-path="url(#clip070)" style="stroke:#000000; stroke-linecap:butt; stroke-linejoin:round; stroke-width:4; stroke-opacity:1; fill:none" points="
  294.069,554.805 312.967,554.805 
  "/>
<path clip-path="url(#clip070)" d="M132.125 1136.27 L139.764 1136.27 L139.764 1109.9 L131.454 1111.57 L131.454 1107.31 L139.718 1105.64 L144.394 1105.64 L144.394 1136.27 L152.033 1136.27 L152.033 1140.2 L132.125 1140.2 L132.125 1136.27 Z" fill="#000000" fill-rule="evenodd" fill-opacity="1" /><path clip-path="url(#clip070)" d="M171.477 1108.72 Q167.866 1108.72 166.037 1112.29 Q164.232 1115.83 164.232 1122.96 Q164.232 1130.06 166.037 1133.63 Q167.866 1137.17 171.477 1137.17 Q175.111 1137.17 176.917 1133.63 Q178.745 1130.06 178.745 1122.96 Q178.745 1115.83 176.917 1112.29 Q175.111 1108.72 171.477 1108.72 M171.477 1105.02 Q177.287 1105.02 180.343 1109.63 Q183.421 1114.21 183.421 1122.96 Q183.421 1131.69 180.343 1136.29 Q177.287 1140.88 171.477 1140.88 Q165.667 1140.88 162.588 1136.29 Q159.532 1131.69 159.532 1122.96 Q159.532 1114.21 162.588 1109.63 Q165.667 1105.02 171.477 1105.02 Z" fill="#000000" fill-rule="evenodd" fill-opacity="1" /><path clip-path="url(#clip070)" d="M183.421 1099.12 L207.533 1099.12 L207.533 1102.32 L183.421 1102.32 L183.421 1099.12 Z" fill="#000000" fill-rule="evenodd" fill-opacity="1" /><path clip-path="url(#clip070)" d="M216.391 1109.6 L222.598 1109.6 L222.598 1088.17 L215.846 1089.53 L215.846 1086.07 L222.56 1084.71 L226.359 1084.71 L226.359 1109.6 L232.566 1109.6 L232.566 1112.79 L216.391 1112.79 L216.391 1109.6 Z" fill="#000000" fill-rule="evenodd" fill-opacity="1" /><path clip-path="url(#clip070)" d="M248.364 1087.21 Q245.43 1087.21 243.945 1090.11 Q242.478 1092.99 242.478 1098.78 Q242.478 1104.56 243.945 1107.45 Q245.43 1110.33 248.364 1110.33 Q251.317 1110.33 252.784 1107.45 Q254.27 1104.56 254.27 1098.78 Q254.27 1092.99 252.784 1090.11 Q251.317 1087.21 248.364 1087.21 M248.364 1084.21 Q253.085 1084.21 255.568 1087.95 Q258.069 1091.67 258.069 1098.78 Q258.069 1105.87 255.568 1109.61 Q253.085 1113.34 248.364 1113.34 Q243.644 1113.34 241.142 1109.61 Q238.66 1105.87 238.66 1098.78 Q238.66 1091.67 241.142 1087.95 Q243.644 1084.21 248.364 1084.21 Z" fill="#000000" fill-rule="evenodd" fill-opacity="1" /><path clip-path="url(#clip070)" d="M187.364 574.597 L195.002 574.597 L195.002 548.232 L186.692 549.898 L186.692 545.639 L194.956 543.973 L199.632 543.973 L199.632 574.597 L207.271 574.597 L207.271 578.533 L187.364 578.533 L187.364 574.597 Z" fill="#000000" fill-rule="evenodd" fill-opacity="1" /><path clip-path="url(#clip070)" d="M226.715 547.051 Q223.104 547.051 221.275 550.616 Q219.47 554.158 219.47 561.287 Q219.47 568.394 221.275 571.959 Q223.104 575.5 226.715 575.5 Q230.35 575.5 232.155 571.959 Q233.984 568.394 233.984 561.287 Q233.984 554.158 232.155 550.616 Q230.35 547.051 226.715 547.051 M226.715 543.348 Q232.525 543.348 235.581 547.954 Q238.66 552.537 238.66 561.287 Q238.66 570.014 235.581 574.621 Q232.525 579.204 226.715 579.204 Q220.905 579.204 217.826 574.621 Q214.771 570.014 214.771 561.287 Q214.771 552.537 217.826 547.954 Q220.905 543.348 226.715 543.348 Z" fill="#000000" fill-rule="evenodd" fill-opacity="1" /><path clip-path="url(#clip070)" d="M248.364 525.544 Q245.43 525.544 243.945 528.44 Q242.478 531.318 242.478 537.11 Q242.478 542.884 243.945 545.781 Q245.43 548.658 248.364 548.658 Q251.317 548.658 252.784 545.781 Q254.27 542.884 254.27 537.11 Q254.27 531.318 252.784 528.44 Q251.317 525.544 248.364 525.544 M248.364 522.534 Q253.085 522.534 255.568 526.277 Q258.069 530.001 258.069 537.11 Q258.069 544.201 255.568 547.944 Q253.085 551.668 248.364 551.668 Q243.644 551.668 241.142 547.944 Q238.66 544.201 238.66 537.11 Q238.66 530.001 241.142 526.277 Q243.644 522.534 248.364 522.534 Z" fill="#000000" fill-rule="evenodd" fill-opacity="1" /><path clip-path="url(#clip070)" d="M82.1658 914.994 L20.2662 914.994 Q18.3016 914.994 18.3016 913.674 Q18.3016 912.353 20.3628 912.353 L82.0048 912.353 Q84.1304 912.353 84.1304 913.674 Q84.1304 914.994 82.1658 914.994 M82.1658 907.715 L20.7493 907.715 Q18.3016 907.715 18.3016 906.395 Q18.3016 905.075 20.3628 905.075 L82.0048 905.075 Q84.1304 905.075 84.1304 906.395 Q84.1304 907.715 82.1658 907.715 Z" fill="#000000" fill-rule="evenodd" fill-opacity="1" /><path clip-path="url(#clip070)" d="M13.4212 845.642 L14.3455 846.206 Q12.8351 849.7 10.4228 854.051 Q12.8351 858.402 14.3455 861.896 L13.4212 862.437 Q10.1072 858.627 7.55975 854.051 Q10.1298 849.429 13.4212 845.642 Z" fill="#000000" fill-rule="evenodd" fill-opacity="1" /><path clip-path="url(#clip070)" d="M21.8765 835.503 L38.6879 839.657 Q39.7507 839.947 39.8795 840.14 Q40.0084 840.301 40.0084 840.817 Q40.0084 841.815 39.332 841.815 Q39.2676 841.815 38.4303 841.718 Q37.5607 841.622 35.9826 841.622 Q30.1534 841.622 26.7073 844.456 Q23.2613 847.258 23.2613 852.25 Q23.2613 856.92 25.709 861.396 Q28.1566 865.873 31.7637 868.739 Q34.7266 871.155 38.3337 872.829 Q41.9407 874.472 45.0969 875.148 Q48.2209 875.824 50.121 876.082 Q52.0212 876.307 53.245 876.307 Q56.852 876.307 59.6539 875.148 Q62.4236 873.989 64.0017 872.056 Q65.5798 870.092 66.3528 867.837 Q67.1257 865.551 67.1257 863.071 Q67.1257 862.137 66.9969 861.01 Q66.8681 859.882 66.385 858.143 Q65.9019 856.372 65.0967 854.923 Q64.2916 853.441 62.7457 852.153 Q61.1998 850.833 59.1386 850.317 Q53.8891 848.932 53.1162 848.932 Q52.472 848.932 52.2466 849.319 Q52.0212 849.705 51.8601 850.994 L51.7313 854.472 Q51.7313 854.536 51.7313 854.633 Q51.7313 855.245 51.7313 855.502 Q51.6991 855.76 51.6347 856.05 Q51.5703 856.308 51.4414 856.404 Q51.2804 856.469 51.0228 856.469 Q50.4109 856.469 50.121 856.211 Q49.7989 855.953 49.7667 855.728 Q49.7023 855.502 49.7023 855.084 L49.8956 845.841 Q49.8956 845.1 49.7989 842.395 Q49.7023 839.689 49.7023 838.916 Q49.7023 838.047 50.4109 838.047 Q51.7313 838.047 51.7313 839.11 Q51.7635 840.172 51.7957 840.72 Q51.7957 841.267 51.9567 841.815 Q52.1178 842.33 52.2466 842.523 Q52.3432 842.717 52.8263 842.974 Q53.2772 843.232 53.6637 843.329 Q54.0179 843.425 54.9197 843.651 Q55.4994 843.78 56.5944 844.102 Q57.6894 844.391 58.2691 844.52 L63.3576 845.776 Q67.1257 846.646 67.3833 846.903 Q67.641 847.032 67.641 847.354 Q67.641 847.837 66.2239 848.868 Q64.8069 849.866 63.5509 850.317 Q64.4204 851.122 64.9357 851.638 Q65.4188 852.153 66.1917 853.345 Q66.9647 854.504 67.5766 856.05 Q69.1547 859.818 69.1547 864.295 Q69.1547 872.282 64.0984 877.306 Q59.0098 882.33 51.0872 882.33 Q45.4834 882.33 39.9762 879.753 Q34.469 877.177 30.3788 873.087 Q26.2887 868.997 23.7444 863.586 Q21.2001 858.176 21.2001 852.765 Q21.2001 850.704 21.7476 848.868 Q22.2951 847.032 22.9715 845.937 Q23.6478 844.81 24.6462 843.812 Q25.6123 842.813 26.0632 842.491 Q26.5141 842.137 27.0616 841.815 L22.0053 837.21 Q21.2001 836.404 21.2001 836.211 Q21.2001 835.825 21.4256 835.664 Q21.651 835.503 21.8765 835.503 Z" fill="#000000" fill-rule="evenodd" fill-opacity="1" /><path clip-path="url(#clip070)" d="M50.282 774.11 Q50.6685 773.724 51.216 773.724 Q51.7635 773.724 52.15 774.11 Q52.5364 774.496 52.5364 775.044 L52.5364 816.332 Q52.5364 816.879 52.15 817.266 Q51.7635 817.652 51.216 817.652 Q50.6685 817.652 50.282 817.266 Q49.8956 816.879 49.8956 816.332 L49.8956 775.044 Q49.8956 774.496 50.282 774.11 Z" fill="#000000" fill-rule="evenodd" fill-opacity="1" /><path clip-path="url(#clip070)" d="M21.8765 701.708 L38.6879 705.863 Q39.7507 706.152 39.8795 706.346 Q40.0084 706.507 40.0084 707.022 Q40.0084 708.02 39.332 708.02 Q39.2676 708.02 38.4303 707.924 Q37.5607 707.827 35.9826 707.827 Q30.1534 707.827 26.7073 710.661 Q23.2613 713.463 23.2613 718.455 Q23.2613 723.125 25.709 727.602 Q28.1566 732.078 31.7637 734.945 Q34.7266 737.36 38.3337 739.035 Q41.9407 740.677 45.0969 741.353 Q48.2209 742.03 50.121 742.287 Q52.0212 742.513 53.245 742.513 Q56.852 742.513 59.6539 741.353 Q62.4236 740.194 64.0017 738.262 Q65.5798 736.297 66.3528 734.043 Q67.1257 731.756 67.1257 729.276 Q67.1257 728.342 66.9969 727.215 Q66.8681 726.088 66.385 724.349 Q65.9019 722.577 65.0967 721.128 Q64.2916 719.647 62.7457 718.359 Q61.1998 717.038 59.1386 716.523 Q53.8891 715.138 53.1162 715.138 Q52.472 715.138 52.2466 715.524 Q52.0212 715.911 51.8601 717.199 L51.7313 720.677 Q51.7313 720.742 51.7313 720.838 Q51.7313 721.45 51.7313 721.708 Q51.6991 721.966 51.6347 722.255 Q51.5703 722.513 51.4414 722.61 Q51.2804 722.674 51.0228 722.674 Q50.4109 722.674 50.121 722.416 Q49.7989 722.159 49.7667 721.933 Q49.7023 721.708 49.7023 721.289 L49.8956 712.046 Q49.8956 711.305 49.7989 708.6 Q49.7023 705.895 49.7023 705.122 Q49.7023 704.252 50.4109 704.252 Q51.7313 704.252 51.7313 705.315 Q51.7635 706.378 51.7957 706.925 Q51.7957 707.473 51.9567 708.02 Q52.1178 708.536 52.2466 708.729 Q52.3432 708.922 52.8263 709.18 Q53.2772 709.437 53.6637 709.534 Q54.0179 709.631 54.9197 709.856 Q55.4994 709.985 56.5944 710.307 Q57.6894 710.597 58.2691 710.726 L63.3576 711.982 Q67.1257 712.851 67.3833 713.109 Q67.641 713.238 67.641 713.56 Q67.641 714.043 66.2239 715.074 Q64.8069 716.072 63.5509 716.523 Q64.4204 717.328 64.9357 717.843 Q65.4188 718.359 66.1917 719.55 Q66.9647 720.71 67.5766 722.255 Q69.1547 726.024 69.1547 730.5 Q69.1547 738.487 64.0984 743.511 Q59.0098 748.535 51.0872 748.535 Q45.4834 748.535 39.9762 745.959 Q34.469 743.382 30.3788 739.292 Q26.2887 735.202 23.7444 729.792 Q21.2001 724.381 21.2001 718.97 Q21.2001 716.909 21.7476 715.074 Q22.2951 713.238 22.9715 712.143 Q23.6478 711.016 24.6462 710.017 Q25.6123 709.019 26.0632 708.697 Q26.5141 708.342 27.0616 708.02 L22.0053 703.415 Q21.2001 702.61 21.2001 702.417 Q21.2001 702.03 21.4256 701.869 Q21.651 701.708 21.8765 701.708 Z" fill="#000000" fill-rule="evenodd" fill-opacity="1" /><path clip-path="url(#clip070)" d="M82.1658 697.211 L20.2662 697.211 Q18.3016 697.211 18.3016 695.89 Q18.3016 694.57 20.3628 694.57 L82.0048 694.57 Q84.1304 694.57 84.1304 695.89 Q84.1304 697.211 82.1658 697.211 M82.1658 689.932 L20.7493 689.932 Q18.3016 689.932 18.3016 688.612 Q18.3016 687.291 20.3628 687.291 L82.0048 687.291 Q84.1304 687.291 84.1304 688.612 Q84.1304 689.932 82.1658 689.932 Z" fill="#000000" fill-rule="evenodd" fill-opacity="1" /><path clip-path="url(#clip070)" d="M83.4964 660.587 Q85.9537 660.587 88.3884 661.669 Q90.8007 662.751 92.6042 664.487 Q94.3852 666.201 95.5124 668.455 Q96.617 670.709 96.617 672.964 Q96.617 676.188 94.4303 678.284 Q92.2209 680.358 88.7942 680.358 Q85.593 680.358 82.5495 678.577 Q79.4835 676.774 77.5898 673.888 Q75.6961 671.002 75.6961 667.982 Q75.6961 664.803 77.8378 662.706 Q79.9795 660.587 83.4964 660.587 M81.6929 663.969 Q79.5061 663.969 78.1083 665.028 Q76.7106 666.088 76.7106 668.027 Q76.7106 668.59 76.891 669.244 Q77.0488 669.898 77.4771 670.754 Q77.9054 671.589 78.8072 672.535 Q79.6864 673.46 80.9489 674.271 Q82.6172 675.331 85.6832 676.142 Q88.7266 676.932 90.5527 676.932 Q93.0776 676.932 94.3401 675.759 Q95.58 674.587 95.58 672.919 Q95.58 671.296 94.4528 669.582 Q93.3031 667.846 91.3417 666.651 Q89.3128 665.457 86.3369 664.713 Q83.3386 663.969 81.6929 663.969 Z" fill="#000000" fill-rule="evenodd" fill-opacity="1" /><path clip-path="url(#clip070)" d="M83.068 637.575 Q86.3595 637.575 89.5382 639.243 Q92.7169 640.889 94.6783 643.481 Q96.617 646.074 96.617 648.711 Q96.617 650.289 95.7604 651.349 Q94.8812 652.386 93.6412 652.95 Q95.1742 653.378 98.8489 654.302 Q102.524 655.227 102.884 655.227 Q103.087 655.227 103.177 655.182 Q103.268 655.136 103.38 654.934 Q103.516 654.731 103.561 654.235 Q103.628 653.739 103.628 652.905 Q103.628 652.476 103.628 652.318 Q103.651 652.138 103.764 651.98 Q103.876 651.8 104.124 651.8 Q105.049 651.8 105.049 652.634 Q105.049 653.378 104.981 654.911 Q104.913 656.444 104.913 657.211 Q104.913 657.864 104.981 659.172 Q105.049 660.479 105.049 661.088 Q105.049 661.697 104.507 661.697 Q104.192 661.697 103.989 661.607 Q103.809 661.539 103.718 661.359 Q103.651 661.178 103.628 661.02 Q103.628 660.885 103.628 660.615 Q103.628 659.578 103.448 659.127 Q103.29 658.676 102.952 658.518 Q102.636 658.338 101.735 658.135 L81.1743 652.95 Q79.7991 652.634 78.8297 652.634 Q77.6124 652.634 77.1615 653.017 Q76.7106 653.401 76.7106 654.077 Q76.7106 655.249 78.1083 656.016 Q79.5061 656.782 82.2114 657.436 Q82.9553 657.639 83.1131 657.774 Q83.2709 657.887 83.2709 658.225 Q83.2484 658.789 82.7975 658.789 Q82.6848 658.789 81.9634 658.608 Q81.2194 658.428 80.1373 658.09 Q79.0326 657.729 78.3338 657.346 Q77.8604 657.12 77.5447 656.917 Q77.2291 656.715 76.7331 656.309 Q76.2372 655.88 75.9666 655.272 Q75.6961 654.663 75.6961 653.919 Q75.6961 652.476 76.5528 651.281 Q77.4095 650.087 79.1454 649.771 Q77.6349 648.486 76.6655 646.908 Q75.6961 645.33 75.6961 643.729 Q75.6961 641.069 77.7702 639.333 Q79.8217 637.575 83.068 637.575 M81.0391 640.911 Q78.9876 640.911 77.8604 641.7 Q76.7106 642.467 76.7106 643.864 Q76.7106 645.6 78.469 647.607 Q80.1373 649.591 81.6929 649.996 L90.733 652.273 L91.477 652.409 Q91.6123 652.409 92.018 652.341 Q92.4013 652.251 93.0325 652.003 Q93.6638 651.732 94.2274 651.372 Q94.7684 650.988 95.1742 650.312 Q95.58 649.613 95.58 648.756 Q95.58 647.381 94.3626 645.893 Q93.1453 644.383 90.8458 643.256 Q89.3578 642.557 86.1566 641.745 Q82.9328 640.911 81.0391 640.911 Z" fill="#000000" fill-rule="evenodd" fill-opacity="1" /><path clip-path="url(#clip070)" d="M314.353 48.0275 L314.353 51.6733 L280.082 51.6733 Q280.568 59.3701 284.7 63.421 Q288.872 67.4314 296.286 67.4314 Q300.58 67.4314 304.59 66.3781 Q308.641 65.3249 312.611 63.2184 L312.611 70.267 Q308.6 71.9684 304.387 72.8596 Q300.174 73.7508 295.84 73.7508 Q284.984 73.7508 278.624 67.4314 Q272.304 61.1119 272.304 50.3365 Q272.304 39.1965 278.3 32.6746 Q284.335 26.1121 294.544 26.1121 Q303.699 26.1121 309.005 32.0264 Q314.353 37.9003 314.353 48.0275 M306.899 45.84 Q306.818 39.7232 303.456 36.0774 Q300.134 32.4315 294.625 32.4315 Q288.386 32.4315 284.619 35.9558 Q280.892 39.4801 280.325 45.8805 L306.899 45.84 Z" fill="#000000" fill-rule="evenodd" fill-opacity="1" /><path clip-path="url(#clip070)" d="M352.877 34.1734 Q351.621 33.4443 350.122 33.1202 Q348.664 32.7556 346.881 32.7556 Q340.562 32.7556 337.159 36.8875 Q333.797 40.9789 333.797 48.6757 L333.797 72.576 L326.303 72.576 L326.303 27.2059 L333.797 27.2059 L333.797 34.2544 Q336.146 30.1225 339.914 28.1376 Q343.681 26.1121 349.069 26.1121 Q349.839 26.1121 350.77 26.2337 Q351.702 26.3147 352.836 26.5172 L352.877 34.1734 Z" fill="#000000" fill-rule="evenodd" fill-opacity="1" /><path clip-path="url(#clip070)" d="M385.527 34.1734 Q384.271 33.4443 382.772 33.1202 Q381.314 32.7556 379.532 32.7556 Q373.212 32.7556 369.809 36.8875 Q366.447 40.9789 366.447 48.6757 L366.447 72.576 L358.953 72.576 L358.953 27.2059 L366.447 27.2059 L366.447 34.2544 Q368.797 30.1225 372.564 28.1376 Q376.331 26.1121 381.719 26.1121 Q382.489 26.1121 383.421 26.2337 Q384.352 26.3147 385.486 26.5172 L385.527 34.1734 Z" fill="#000000" fill-rule="evenodd" fill-opacity="1" /><path clip-path="url(#clip070)" d="M409.103 32.4315 Q403.108 32.4315 399.624 37.1306 Q396.14 41.7891 396.14 49.9314 Q396.14 58.0738 399.584 62.7728 Q403.067 67.4314 409.103 67.4314 Q415.058 67.4314 418.542 62.7323 Q422.026 58.0333 422.026 49.9314 Q422.026 41.8701 418.542 37.1711 Q415.058 32.4315 409.103 32.4315 M409.103 26.1121 Q418.825 26.1121 424.375 32.4315 Q429.925 38.7509 429.925 49.9314 Q429.925 61.0714 424.375 67.4314 Q418.825 73.7508 409.103 73.7508 Q399.341 73.7508 393.791 67.4314 Q388.282 61.0714 388.282 49.9314 Q388.282 38.7509 393.791 32.4315 Q399.341 26.1121 409.103 26.1121 Z" fill="#000000" fill-rule="evenodd" fill-opacity="1" /><path clip-path="url(#clip070)" d="M468.571 34.1734 Q467.315 33.4443 465.816 33.1202 Q464.358 32.7556 462.575 32.7556 Q456.256 32.7556 452.853 36.8875 Q449.491 40.9789 449.491 48.6757 L449.491 72.576 L441.997 72.576 L441.997 27.2059 L449.491 27.2059 L449.491 34.2544 Q451.84 30.1225 455.608 28.1376 Q459.375 26.1121 464.763 26.1121 Q465.532 26.1121 466.464 26.2337 Q467.396 26.3147 468.53 26.5172 L468.571 34.1734 Z" fill="#000000" fill-rule="evenodd" fill-opacity="1" /><path clip-path="url(#clip070)" d="M520.341 32.4315 Q514.346 32.4315 510.862 37.1306 Q507.378 41.7891 507.378 49.9314 Q507.378 58.0738 510.821 62.7728 Q514.305 67.4314 520.341 67.4314 Q526.296 67.4314 529.78 62.7323 Q533.263 58.0333 533.263 49.9314 Q533.263 41.8701 529.78 37.1711 Q526.296 32.4315 520.341 32.4315 M520.341 26.1121 Q530.063 26.1121 535.613 32.4315 Q541.163 38.7509 541.163 49.9314 Q541.163 61.0714 535.613 67.4314 Q530.063 73.7508 520.341 73.7508 Q510.578 73.7508 505.029 67.4314 Q499.519 61.0714 499.519 49.9314 Q499.519 38.7509 505.029 32.4315 Q510.578 26.1121 520.341 26.1121 Z" fill="#000000" fill-rule="evenodd" fill-opacity="1" /><path clip-path="url(#clip070)" d="M576.487 9.54393 L576.487 15.7418 L569.357 15.7418 Q565.347 15.7418 563.767 17.3622 Q562.227 18.9825 562.227 23.1955 L562.227 27.2059 L574.502 27.2059 L574.502 32.9987 L562.227 32.9987 L562.227 72.576 L554.733 72.576 L554.733 32.9987 L547.604 32.9987 L547.604 27.2059 L554.733 27.2059 L554.733 24.0462 Q554.733 16.471 558.258 13.0277 Q561.782 9.54393 569.438 9.54393 L576.487 9.54393 Z" fill="#000000" fill-rule="evenodd" fill-opacity="1" /><path clip-path="url(#clip070)" d="M609.42 12.096 L617.603 12.096 L617.603 36.8875 L647.337 36.8875 L647.337 12.096 L655.52 12.096 L655.52 72.576 L647.337 72.576 L647.337 43.7741 L617.603 43.7741 L617.603 72.576 L609.42 72.576 L609.42 12.096 Z" fill="#000000" fill-rule="evenodd" fill-opacity="1" /><path clip-path="url(#clip070)" d="M689.061 32.4315 Q683.066 32.4315 679.582 37.1306 Q676.098 41.7891 676.098 49.9314 Q676.098 58.0738 679.542 62.7728 Q683.025 67.4314 689.061 67.4314 Q695.016 67.4314 698.5 62.7323 Q701.984 58.0333 701.984 49.9314 Q701.984 41.8701 698.5 37.1711 Q695.016 32.4315 689.061 32.4315 M689.061 26.1121 Q698.783 26.1121 704.333 32.4315 Q709.883 38.7509 709.883 49.9314 Q709.883 61.0714 704.333 67.4314 Q698.783 73.7508 689.061 73.7508 Q679.299 73.7508 673.749 67.4314 Q668.24 61.0714 668.24 49.9314 Q668.24 38.7509 673.749 32.4315 Q679.299 26.1121 689.061 26.1121 Z" fill="#000000" fill-rule="evenodd" fill-opacity="1" /><path clip-path="url(#clip070)" d="M720.01 46.5287 L741.845 46.5287 L741.845 53.1722 L720.01 53.1722 L720.01 46.5287 Z" fill="#000000" fill-rule="evenodd" fill-opacity="1" /><path clip-path="url(#clip070)" d="M754.038 12.096 L762.221 12.096 L762.221 37.6572 L789.362 12.096 L799.894 12.096 L769.877 40.2903 L802.041 72.576 L791.266 72.576 L762.221 43.45 L762.221 72.576 L754.038 72.576 L754.038 12.096 Z" fill="#000000" fill-rule="evenodd" fill-opacity="1" /><path clip-path="url(#clip070)" d="M827.278 49.7694 Q818.245 49.7694 814.761 51.8354 Q811.277 53.9013 811.277 58.8839 Q811.277 62.8538 813.87 65.2034 Q816.503 67.5124 820.999 67.5124 Q827.197 67.5124 830.924 63.1374 Q834.691 58.7219 834.691 51.4303 L834.691 49.7694 L827.278 49.7694 M842.145 46.6907 L842.145 72.576 L834.691 72.576 L834.691 65.6895 Q832.139 69.8214 828.331 71.8063 Q824.523 73.7508 819.014 73.7508 Q812.047 73.7508 807.915 69.8619 Q803.823 65.9325 803.823 59.3701 Q803.823 51.7138 808.927 47.825 Q814.072 43.9361 824.24 43.9361 L834.691 43.9361 L834.691 43.2069 Q834.691 38.0623 831.288 35.2672 Q827.926 32.4315 821.809 32.4315 Q817.92 32.4315 814.234 33.3632 Q810.548 34.295 807.145 36.1584 L807.145 29.2718 Q811.237 27.692 815.085 26.9223 Q818.933 26.1121 822.579 26.1121 Q832.423 26.1121 837.284 31.2163 Q842.145 36.3204 842.145 46.6907 Z" fill="#000000" fill-rule="evenodd" fill-opacity="1" /><path clip-path="url(#clip070)" d="M857.498 9.54393 L864.951 9.54393 L864.951 72.576 L857.498 72.576 L857.498 9.54393 Z" fill="#000000" fill-rule="evenodd" fill-opacity="1" /><path clip-path="url(#clip070)" d="M915.871 35.9153 Q918.666 30.8922 922.555 28.5022 Q926.444 26.1121 931.71 26.1121 Q938.799 26.1121 942.648 31.0947 Q946.496 36.0368 946.496 45.1919 L946.496 72.576 L939.002 72.576 L939.002 45.4349 Q939.002 38.913 936.693 35.7533 Q934.384 32.5936 929.644 32.5936 Q923.852 32.5936 920.489 36.4419 Q917.127 40.2903 917.127 46.9338 L917.127 72.576 L909.633 72.576 L909.633 45.4349 Q909.633 38.8725 907.324 35.7533 Q905.015 32.5936 900.194 32.5936 Q894.483 32.5936 891.12 36.4824 Q887.758 40.3308 887.758 46.9338 L887.758 72.576 L880.264 72.576 L880.264 27.2059 L887.758 27.2059 L887.758 34.2544 Q890.31 30.082 893.875 28.0971 Q897.44 26.1121 902.341 26.1121 Q907.283 26.1121 910.727 28.6237 Q914.21 31.1352 915.871 35.9153 Z" fill="#000000" fill-rule="evenodd" fill-opacity="1" /><path clip-path="url(#clip070)" d="M981.982 49.7694 Q972.949 49.7694 969.465 51.8354 Q965.981 53.9013 965.981 58.8839 Q965.981 62.8538 968.574 65.2034 Q971.207 67.5124 975.703 67.5124 Q981.901 67.5124 985.628 63.1374 Q989.395 58.7219 989.395 51.4303 L989.395 49.7694 L981.982 49.7694 M996.849 46.6907 L996.849 72.576 L989.395 72.576 L989.395 65.6895 Q986.843 69.8214 983.035 71.8063 Q979.228 73.7508 973.718 73.7508 Q966.751 73.7508 962.619 69.8619 Q958.527 65.9325 958.527 59.3701 Q958.527 51.7138 963.632 47.825 Q968.776 43.9361 978.944 43.9361 L989.395 43.9361 L989.395 43.2069 Q989.395 38.0623 985.993 35.2672 Q982.63 32.4315 976.513 32.4315 Q972.625 32.4315 968.938 33.3632 Q965.252 34.295 961.849 36.1584 L961.849 29.2718 Q965.941 27.692 969.789 26.9223 Q973.637 26.1121 977.283 26.1121 Q987.127 26.1121 991.988 31.2163 Q996.849 36.3204 996.849 46.6907 Z" fill="#000000" fill-rule="evenodd" fill-opacity="1" /><path clip-path="url(#clip070)" d="M1049.92 45.1919 L1049.92 72.576 L1042.46 72.576 L1042.46 45.4349 Q1042.46 38.994 1039.95 35.7938 Q1037.44 32.5936 1032.42 32.5936 Q1026.38 32.5936 1022.9 36.4419 Q1019.41 40.2903 1019.41 46.9338 L1019.41 72.576 L1011.92 72.576 L1011.92 27.2059 L1019.41 27.2059 L1019.41 34.2544 Q1022.09 30.163 1025.69 28.1376 Q1029.34 26.1121 1034.08 26.1121 Q1041.89 26.1121 1045.91 30.9732 Q1049.92 35.7938 1049.92 45.1919 Z" fill="#000000" fill-rule="evenodd" fill-opacity="1" /><path clip-path="url(#clip070)" d="M1111.77 49.7694 Q1102.74 49.7694 1099.26 51.8354 Q1095.77 53.9013 1095.77 58.8839 Q1095.77 62.8538 1098.36 65.2034 Q1101 67.5124 1105.49 67.5124 Q1111.69 67.5124 1115.42 63.1374 Q1119.19 58.7219 1119.19 51.4303 L1119.19 49.7694 L1111.77 49.7694 M1126.64 46.6907 L1126.64 72.576 L1119.19 72.576 L1119.19 65.6895 Q1116.63 69.8214 1112.83 71.8063 Q1109.02 73.7508 1103.51 73.7508 Q1096.54 73.7508 1092.41 69.8619 Q1088.32 65.9325 1088.32 59.3701 Q1088.32 51.7138 1093.42 47.825 Q1098.57 43.9361 1108.73 43.9361 L1119.19 43.9361 L1119.19 43.2069 Q1119.19 38.0623 1115.78 35.2672 Q1112.42 32.4315 1106.3 32.4315 Q1102.42 32.4315 1098.73 33.3632 Q1095.04 34.295 1091.64 36.1584 L1091.64 29.2718 Q1095.73 27.692 1099.58 26.9223 Q1103.43 26.1121 1107.07 26.1121 Q1116.92 26.1121 1121.78 31.2163 Q1126.64 36.3204 1126.64 46.6907 Z" fill="#000000" fill-rule="evenodd" fill-opacity="1" /><path clip-path="url(#clip070)" d="M1141.99 9.54393 L1149.45 9.54393 L1149.45 72.576 L1141.99 72.576 L1141.99 9.54393 Z" fill="#000000" fill-rule="evenodd" fill-opacity="1" /><path clip-path="url(#clip070)" d="M1194.9 49.3643 Q1194.9 41.2625 1191.54 36.8065 Q1188.21 32.3505 1182.18 32.3505 Q1176.18 32.3505 1172.82 36.8065 Q1169.5 41.2625 1169.5 49.3643 Q1169.5 57.4256 1172.82 61.8816 Q1176.18 66.3376 1182.18 66.3376 Q1188.21 66.3376 1191.54 61.8816 Q1194.9 57.4256 1194.9 49.3643 M1202.35 66.9452 Q1202.35 78.5308 1197.21 84.1616 Q1192.06 89.8329 1181.45 89.8329 Q1177.52 89.8329 1174.04 89.2252 Q1170.55 88.6581 1167.27 87.4428 L1167.27 80.1917 Q1170.55 81.9741 1173.75 82.8248 Q1176.95 83.6755 1180.27 83.6755 Q1187.61 83.6755 1191.25 79.8271 Q1194.9 76.0193 1194.9 68.282 L1194.9 64.5957 Q1192.59 68.6061 1188.98 70.5911 Q1185.38 72.576 1180.35 72.576 Q1172.01 72.576 1166.91 66.2161 Q1161.8 59.8562 1161.8 49.3643 Q1161.8 38.832 1166.91 32.472 Q1172.01 26.1121 1180.35 26.1121 Q1185.38 26.1121 1188.98 28.0971 Q1192.59 30.082 1194.9 34.0924 L1194.9 27.2059 L1202.35 27.2059 L1202.35 66.9452 Z" fill="#000000" fill-rule="evenodd" fill-opacity="1" /><path clip-path="url(#clip070)" d="M1235.29 32.4315 Q1229.29 32.4315 1225.81 37.1306 Q1222.32 41.7891 1222.32 49.9314 Q1222.32 58.0738 1225.77 62.7728 Q1229.25 67.4314 1235.29 67.4314 Q1241.24 67.4314 1244.72 62.7323 Q1248.21 58.0333 1248.21 49.9314 Q1248.21 41.8701 1244.72 37.1711 Q1241.24 32.4315 1235.29 32.4315 M1235.29 26.1121 Q1245.01 26.1121 1250.56 32.4315 Q1256.11 38.7509 1256.11 49.9314 Q1256.11 61.0714 1250.56 67.4314 Q1245.01 73.7508 1235.29 73.7508 Q1225.52 73.7508 1219.97 67.4314 Q1214.46 61.0714 1214.46 49.9314 Q1214.46 38.7509 1219.97 32.4315 Q1225.52 26.1121 1235.29 26.1121 Z" fill="#000000" fill-rule="evenodd" fill-opacity="1" /><path clip-path="url(#clip070)" d="M1294.75 34.1734 Q1293.5 33.4443 1292 33.1202 Q1290.54 32.7556 1288.76 32.7556 Q1282.44 32.7556 1279.03 36.8875 Q1275.67 40.9789 1275.67 48.6757 L1275.67 72.576 L1268.18 72.576 L1268.18 27.2059 L1275.67 27.2059 L1275.67 34.2544 Q1278.02 30.1225 1281.79 28.1376 Q1285.56 26.1121 1290.94 26.1121 Q1291.71 26.1121 1292.65 26.2337 Q1293.58 26.3147 1294.71 26.5172 L1294.75 34.1734 Z" fill="#000000" fill-rule="evenodd" fill-opacity="1" /><path clip-path="url(#clip070)" d="M1302.57 27.2059 L1310.02 27.2059 L1310.02 72.576 L1302.57 72.576 L1302.57 27.2059 M1302.57 9.54393 L1310.02 9.54393 L1310.02 18.9825 L1302.57 18.9825 L1302.57 9.54393 Z" fill="#000000" fill-rule="evenodd" fill-opacity="1" /><path clip-path="url(#clip070)" d="M1332.99 14.324 L1332.99 27.2059 L1348.35 27.2059 L1348.35 32.9987 L1332.99 32.9987 L1332.99 57.6282 Q1332.99 63.1779 1334.49 64.7578 Q1336.03 66.3376 1340.69 66.3376 L1348.35 66.3376 L1348.35 72.576 L1340.69 72.576 Q1332.06 72.576 1328.78 69.3758 Q1325.5 66.1351 1325.5 57.6282 L1325.5 32.9987 L1320.03 32.9987 L1320.03 27.2059 L1325.5 27.2059 L1325.5 14.324 L1332.99 14.324 Z" fill="#000000" fill-rule="evenodd" fill-opacity="1" /><path clip-path="url(#clip070)" d="M1395.86 45.1919 L1395.86 72.576 L1388.41 72.576 L1388.41 45.4349 Q1388.41 38.994 1385.9 35.7938 Q1383.39 32.5936 1378.36 32.5936 Q1372.33 32.5936 1368.84 36.4419 Q1365.36 40.2903 1365.36 46.9338 L1365.36 72.576 L1357.87 72.576 L1357.87 9.54393 L1365.36 9.54393 L1365.36 34.2544 Q1368.03 30.163 1371.64 28.1376 Q1375.28 26.1121 1380.02 26.1121 Q1387.84 26.1121 1391.85 30.9732 Q1395.86 35.7938 1395.86 45.1919 Z" fill="#000000" fill-rule="evenodd" fill-opacity="1" /><path clip-path="url(#clip070)" d="M1446.05 35.9153 Q1448.85 30.8922 1452.74 28.5022 Q1456.63 26.1121 1461.89 26.1121 Q1468.98 26.1121 1472.83 31.0947 Q1476.68 36.0368 1476.68 45.1919 L1476.68 72.576 L1469.18 72.576 L1469.18 45.4349 Q1469.18 38.913 1466.88 35.7533 Q1464.57 32.5936 1459.83 32.5936 Q1454.03 32.5936 1450.67 36.4419 Q1447.31 40.2903 1447.31 46.9338 L1447.31 72.576 L1439.82 72.576 L1439.82 45.4349 Q1439.82 38.8725 1437.51 35.7533 Q1435.2 32.5936 1430.38 32.5936 Q1424.66 32.5936 1421.3 36.4824 Q1417.94 40.3308 1417.94 46.9338 L1417.94 72.576 L1410.45 72.576 L1410.45 27.2059 L1417.94 27.2059 L1417.94 34.2544 Q1420.49 30.082 1424.06 28.0971 Q1427.62 26.1121 1432.52 26.1121 Q1437.47 26.1121 1440.91 28.6237 Q1444.39 31.1352 1446.05 35.9153 Z" fill="#000000" fill-rule="evenodd" fill-opacity="1" /><path clip-path="url(#clip070)" d="M1540.89 9.54393 L1540.89 15.7418 L1533.76 15.7418 Q1529.75 15.7418 1528.17 17.3622 Q1526.63 18.9825 1526.63 23.1955 L1526.63 27.2059 L1538.9 27.2059 L1538.9 32.9987 L1526.63 32.9987 L1526.63 72.576 L1519.13 72.576 L1519.13 32.9987 L1512 32.9987 L1512 27.2059 L1519.13 27.2059 L1519.13 24.0462 Q1519.13 16.471 1522.66 13.0277 Q1526.18 9.54393 1533.84 9.54393 L1540.89 9.54393 Z" fill="#000000" fill-rule="evenodd" fill-opacity="1" /><path clip-path="url(#clip070)" d="M1564.7 32.4315 Q1558.71 32.4315 1555.23 37.1306 Q1551.74 41.7891 1551.74 49.9314 Q1551.74 58.0738 1555.19 62.7728 Q1558.67 67.4314 1564.7 67.4314 Q1570.66 67.4314 1574.14 62.7323 Q1577.63 58.0333 1577.63 49.9314 Q1577.63 41.8701 1574.14 37.1711 Q1570.66 32.4315 1564.7 32.4315 M1564.7 26.1121 Q1574.43 26.1121 1579.98 32.4315 Q1585.53 38.7509 1585.53 49.9314 Q1585.53 61.0714 1579.98 67.4314 Q1574.43 73.7508 1564.7 73.7508 Q1554.94 73.7508 1549.39 67.4314 Q1543.88 61.0714 1543.88 49.9314 Q1543.88 38.7509 1549.39 32.4315 Q1554.94 26.1121 1564.7 26.1121 Z" fill="#000000" fill-rule="evenodd" fill-opacity="1" /><path clip-path="url(#clip070)" d="M1624.17 34.1734 Q1622.92 33.4443 1621.42 33.1202 Q1619.96 32.7556 1618.18 32.7556 Q1611.86 32.7556 1608.45 36.8875 Q1605.09 40.9789 1605.09 48.6757 L1605.09 72.576 L1597.6 72.576 L1597.6 27.2059 L1605.09 27.2059 L1605.09 34.2544 Q1607.44 30.1225 1611.21 28.1376 Q1614.98 26.1121 1620.36 26.1121 Q1621.13 26.1121 1622.07 26.2337 Q1623 26.3147 1624.13 26.5172 L1624.17 34.1734 Z" fill="#000000" fill-rule="evenodd" fill-opacity="1" /><path clip-path="url(#clip070)" d="M1657.59 54.671 L1657.59 27.2059 L1665.05 27.2059 L1665.05 54.3874 Q1665.05 60.8284 1667.56 64.0691 Q1670.07 67.2693 1675.09 67.2693 Q1681.13 67.2693 1684.61 63.421 Q1688.14 59.5726 1688.14 52.9291 L1688.14 27.2059 L1695.59 27.2059 L1695.59 72.576 L1688.14 72.576 L1688.14 65.6084 Q1685.42 69.7404 1681.82 71.7658 Q1678.25 73.7508 1673.51 73.7508 Q1665.69 73.7508 1661.64 68.8897 Q1657.59 64.0286 1657.59 54.671 M1676.35 26.1121 L1676.35 26.1121 Z" fill="#000000" fill-rule="evenodd" fill-opacity="1" /><path clip-path="url(#clip070)" d="M1748.66 45.1919 L1748.66 72.576 L1741.2 72.576 L1741.2 45.4349 Q1741.2 38.994 1738.69 35.7938 Q1736.18 32.5936 1731.16 32.5936 Q1725.12 32.5936 1721.64 36.4419 Q1718.15 40.2903 1718.15 46.9338 L1718.15 72.576 L1710.66 72.576 L1710.66 27.2059 L1718.15 27.2059 L1718.15 34.2544 Q1720.83 30.163 1724.43 28.1376 Q1728.08 26.1121 1732.82 26.1121 Q1740.64 26.1121 1744.65 30.9732 Q1748.66 35.7938 1748.66 45.1919 Z" fill="#000000" fill-rule="evenodd" fill-opacity="1" /><path clip-path="url(#clip070)" d="M1792.45 28.5427 L1792.45 35.5912 Q1789.29 33.9709 1785.88 33.1607 Q1782.48 32.3505 1778.84 32.3505 Q1773.29 32.3505 1770.49 34.0519 Q1767.74 35.7533 1767.74 39.156 Q1767.74 41.7486 1769.72 43.2475 Q1771.71 44.7058 1777.7 46.0426 L1780.25 46.6097 Q1788.19 48.3111 1791.51 51.4303 Q1794.88 54.509 1794.88 60.0587 Q1794.88 66.3781 1789.85 70.0644 Q1784.87 73.7508 1776.12 73.7508 Q1772.48 73.7508 1768.51 73.0216 Q1764.58 72.3329 1760.2 70.9151 L1760.2 63.2184 Q1764.33 65.3654 1768.34 66.4591 Q1772.35 67.5124 1776.28 67.5124 Q1781.55 67.5124 1784.39 65.73 Q1787.22 63.9071 1787.22 60.6258 Q1787.22 57.5877 1785.15 55.9673 Q1783.13 54.3469 1776.2 52.8481 L1773.61 52.2405 Q1766.68 50.7821 1763.6 47.7845 Q1760.53 44.7463 1760.53 39.4801 Q1760.53 33.0797 1765.06 29.5959 Q1769.6 26.1121 1777.94 26.1121 Q1782.08 26.1121 1785.72 26.7198 Q1789.37 27.3274 1792.45 28.5427 Z" fill="#000000" fill-rule="evenodd" fill-opacity="1" /><path clip-path="url(#clip070)" d="M1814.12 14.324 L1814.12 27.2059 L1829.47 27.2059 L1829.47 32.9987 L1814.12 32.9987 L1814.12 57.6282 Q1814.12 63.1779 1815.62 64.7578 Q1817.16 66.3376 1821.82 66.3376 L1829.47 66.3376 L1829.47 72.576 L1821.82 72.576 Q1813.19 72.576 1809.91 69.3758 Q1806.62 66.1351 1806.62 57.6282 L1806.62 32.9987 L1801.16 32.9987 L1801.16 27.2059 L1806.62 27.2059 L1806.62 14.324 L1814.12 14.324 Z" fill="#000000" fill-rule="evenodd" fill-opacity="1" /><path clip-path="url(#clip070)" d="M1859.89 49.7694 Q1850.86 49.7694 1847.38 51.8354 Q1843.89 53.9013 1843.89 58.8839 Q1843.89 62.8538 1846.49 65.2034 Q1849.12 67.5124 1853.62 67.5124 Q1859.81 67.5124 1863.54 63.1374 Q1867.31 58.7219 1867.31 51.4303 L1867.31 49.7694 L1859.89 49.7694 M1874.76 46.6907 L1874.76 72.576 L1867.31 72.576 L1867.31 65.6895 Q1864.76 69.8214 1860.95 71.8063 Q1857.14 73.7508 1851.63 73.7508 Q1844.66 73.7508 1840.53 69.8619 Q1836.44 65.9325 1836.44 59.3701 Q1836.44 51.7138 1841.54 47.825 Q1846.69 43.9361 1856.86 43.9361 L1867.31 43.9361 L1867.31 43.2069 Q1867.31 38.0623 1863.9 35.2672 Q1860.54 32.4315 1854.43 32.4315 Q1850.54 32.4315 1846.85 33.3632 Q1843.16 34.295 1839.76 36.1584 L1839.76 29.2718 Q1843.85 27.692 1847.7 26.9223 Q1851.55 26.1121 1855.2 26.1121 Q1865.04 26.1121 1869.9 31.2163 Q1874.76 36.3204 1874.76 46.6907 Z" fill="#000000" fill-rule="evenodd" fill-opacity="1" /><path clip-path="url(#clip070)" d="M1922.68 49.9314 Q1922.68 41.7081 1919.28 37.0496 Q1915.92 32.3505 1910 32.3505 Q1904.09 32.3505 1900.69 37.0496 Q1897.32 41.7081 1897.32 49.9314 Q1897.32 58.1548 1900.69 62.8538 Q1904.09 67.5124 1910 67.5124 Q1915.92 67.5124 1919.28 62.8538 Q1922.68 58.1548 1922.68 49.9314 M1897.32 34.0924 Q1899.67 30.0415 1903.24 28.0971 Q1906.84 26.1121 1911.83 26.1121 Q1920.09 26.1121 1925.24 32.6746 Q1930.42 39.2371 1930.42 49.9314 Q1930.42 60.6258 1925.24 67.1883 Q1920.09 73.7508 1911.83 73.7508 Q1906.84 73.7508 1903.24 71.8063 Q1899.67 69.8214 1897.32 65.7705 L1897.32 72.576 L1889.83 72.576 L1889.83 9.54393 L1897.32 9.54393 L1897.32 34.0924 Z" fill="#000000" fill-rule="evenodd" fill-opacity="1" /><path clip-path="url(#clip070)" d="M1942.78 9.54393 L1950.23 9.54393 L1950.23 72.576 L1942.78 72.576 L1942.78 9.54393 Z" fill="#000000" fill-rule="evenodd" fill-opacity="1" /><path clip-path="url(#clip070)" d="M2004.63 48.0275 L2004.63 51.6733 L1970.36 51.6733 Q1970.85 59.3701 1974.98 63.421 Q1979.15 67.4314 1986.57 67.4314 Q1990.86 67.4314 1994.87 66.3781 Q1998.92 65.3249 2002.89 63.2184 L2002.89 70.267 Q1998.88 71.9684 1994.67 72.8596 Q1990.45 73.7508 1986.12 73.7508 Q1975.26 73.7508 1968.9 67.4314 Q1962.58 61.1119 1962.58 50.3365 Q1962.58 39.1965 1968.58 32.6746 Q1974.62 26.1121 1984.82 26.1121 Q1993.98 26.1121 1999.29 32.0264 Q2004.63 37.9003 2004.63 48.0275 M1997.18 45.84 Q1997.1 39.7232 1993.74 36.0774 Q1990.41 32.4315 1984.9 32.4315 Q1978.67 32.4315 1974.9 35.9558 Q1971.17 39.4801 1970.61 45.8805 L1997.18 45.84 Z" fill="#000000" fill-rule="evenodd" fill-opacity="1" /><path clip-path="url(#clip070)" d="M2072.16 28.5427 L2072.16 35.5912 Q2069 33.9709 2065.6 33.1607 Q2062.2 32.3505 2058.55 32.3505 Q2053 32.3505 2050.21 34.0519 Q2047.45 35.7533 2047.45 39.156 Q2047.45 41.7486 2049.44 43.2475 Q2051.42 44.7058 2057.42 46.0426 L2059.97 46.6097 Q2067.91 48.3111 2071.23 51.4303 Q2074.59 54.509 2074.59 60.0587 Q2074.59 66.3781 2069.57 70.0644 Q2064.59 73.7508 2055.84 73.7508 Q2052.19 73.7508 2048.22 73.0216 Q2044.29 72.3329 2039.92 70.9151 L2039.92 63.2184 Q2044.05 65.3654 2048.06 66.4591 Q2052.07 67.5124 2056 67.5124 Q2061.26 67.5124 2064.1 65.73 Q2066.94 63.9071 2066.94 60.6258 Q2066.94 57.5877 2064.87 55.9673 Q2062.84 54.3469 2055.92 52.8481 L2053.32 52.2405 Q2046.4 50.7821 2043.32 47.7845 Q2040.24 44.7463 2040.24 39.4801 Q2040.24 33.0797 2044.78 29.5959 Q2049.31 26.1121 2057.66 26.1121 Q2061.79 26.1121 2065.44 26.7198 Q2069.08 27.3274 2072.16 28.5427 Z" fill="#000000" fill-rule="evenodd" fill-opacity="1" /><path clip-path="url(#clip070)" d="M2105.34 76.7889 Q2102.18 84.8907 2099.18 87.3618 Q2096.18 89.8329 2091.16 89.8329 L2085.21 89.8329 L2085.21 83.5945 L2089.58 83.5945 Q2092.66 83.5945 2094.36 82.1361 Q2096.06 80.6778 2098.13 75.2496 L2099.46 71.8468 L2081.11 27.2059 L2089.01 27.2059 L2103.19 62.6918 L2117.37 27.2059 L2125.27 27.2059 L2105.34 76.7889 Z" fill="#000000" fill-rule="evenodd" fill-opacity="1" /><path clip-path="url(#clip070)" d="M2164.48 28.5427 L2164.48 35.5912 Q2161.32 33.9709 2157.92 33.1607 Q2154.52 32.3505 2150.87 32.3505 Q2145.32 32.3505 2142.53 34.0519 Q2139.77 35.7533 2139.77 39.156 Q2139.77 41.7486 2141.76 43.2475 Q2143.74 44.7058 2149.74 46.0426 L2152.29 46.6097 Q2160.23 48.3111 2163.55 51.4303 Q2166.91 54.509 2166.91 60.0587 Q2166.91 66.3781 2161.89 70.0644 Q2156.91 73.7508 2148.16 73.7508 Q2144.51 73.7508 2140.54 73.0216 Q2136.61 72.3329 2132.24 70.9151 L2132.24 63.2184 Q2136.37 65.3654 2140.38 66.4591 Q2144.39 67.5124 2148.32 67.5124 Q2153.58 67.5124 2156.42 65.73 Q2159.26 63.9071 2159.26 60.6258 Q2159.26 57.5877 2157.19 55.9673 Q2155.16 54.3469 2148.24 52.8481 L2145.64 52.2405 Q2138.72 50.7821 2135.64 47.7845 Q2132.56 44.7463 2132.56 39.4801 Q2132.56 33.0797 2137.1 29.5959 Q2141.63 26.1121 2149.98 26.1121 Q2154.11 26.1121 2157.76 26.7198 Q2161.4 27.3274 2164.48 28.5427 Z" fill="#000000" fill-rule="evenodd" fill-opacity="1" /><path clip-path="url(#clip070)" d="M2186.15 14.324 L2186.15 27.2059 L2201.51 27.2059 L2201.51 32.9987 L2186.15 32.9987 L2186.15 57.6282 Q2186.15 63.1779 2187.65 64.7578 Q2189.19 66.3376 2193.85 66.3376 L2201.51 66.3376 L2201.51 72.576 L2193.85 72.576 Q2185.22 72.576 2181.94 69.3758 Q2178.66 66.1351 2178.66 57.6282 L2178.66 32.9987 L2173.19 32.9987 L2173.19 27.2059 L2178.66 27.2059 L2178.66 14.324 L2186.15 14.324 Z" fill="#000000" fill-rule="evenodd" fill-opacity="1" /><path clip-path="url(#clip070)" d="M2250.12 48.0275 L2250.12 51.6733 L2215.85 51.6733 Q2216.33 59.3701 2220.47 63.421 Q2224.64 67.4314 2232.05 67.4314 Q2236.34 67.4314 2240.36 66.3781 Q2244.41 65.3249 2248.38 63.2184 L2248.38 70.267 Q2244.37 71.9684 2240.15 72.8596 Q2235.94 73.7508 2231.61 73.7508 Q2220.75 73.7508 2214.39 67.4314 Q2208.07 61.1119 2208.07 50.3365 Q2208.07 39.1965 2214.06 32.6746 Q2220.1 26.1121 2230.31 26.1121 Q2239.46 26.1121 2244.77 32.0264 Q2250.12 37.9003 2250.12 48.0275 M2242.66 45.84 Q2242.58 39.7232 2239.22 36.0774 Q2235.9 32.4315 2230.39 32.4315 Q2224.15 32.4315 2220.38 35.9558 Q2216.66 39.4801 2216.09 45.8805 L2242.66 45.84 Z" fill="#000000" fill-rule="evenodd" fill-opacity="1" /><path clip-path="url(#clip070)" d="M2297.68 35.9153 Q2300.47 30.8922 2304.36 28.5022 Q2308.25 26.1121 2313.51 26.1121 Q2320.6 26.1121 2324.45 31.0947 Q2328.3 36.0368 2328.3 45.1919 L2328.3 72.576 L2320.81 72.576 L2320.81 45.4349 Q2320.81 38.913 2318.5 35.7533 Q2316.19 32.5936 2311.45 32.5936 Q2305.66 32.5936 2302.29 36.4419 Q2298.93 40.2903 2298.93 46.9338 L2298.93 72.576 L2291.44 72.576 L2291.44 45.4349 Q2291.44 38.8725 2289.13 35.7533 Q2286.82 32.5936 2282 32.5936 Q2276.29 32.5936 2272.92 36.4824 Q2269.56 40.3308 2269.56 46.9338 L2269.56 72.576 L2262.07 72.576 L2262.07 27.2059 L2269.56 27.2059 L2269.56 34.2544 Q2272.11 30.082 2275.68 28.0971 Q2279.24 26.1121 2284.15 26.1121 Q2289.09 26.1121 2292.53 28.6237 Q2296.01 31.1352 2297.68 35.9153 Z" fill="#000000" fill-rule="evenodd" fill-opacity="1" /><path clip-path="url(#clip070)" d="M2372.09 28.5427 L2372.09 35.5912 Q2368.93 33.9709 2365.53 33.1607 Q2362.13 32.3505 2358.48 32.3505 Q2352.93 32.3505 2350.13 34.0519 Q2347.38 35.7533 2347.38 39.156 Q2347.38 41.7486 2349.36 43.2475 Q2351.35 44.7058 2357.35 46.0426 L2359.9 46.6097 Q2367.84 48.3111 2371.16 51.4303 Q2374.52 54.509 2374.52 60.0587 Q2374.52 66.3781 2369.5 70.0644 Q2364.52 73.7508 2355.77 73.7508 Q2352.12 73.7508 2348.15 73.0216 Q2344.22 72.3329 2339.85 70.9151 L2339.85 63.2184 Q2343.98 65.3654 2347.99 66.4591 Q2352 67.5124 2355.93 67.5124 Q2361.19 67.5124 2364.03 65.73 Q2366.86 63.9071 2366.86 60.6258 Q2366.86 57.5877 2364.8 55.9673 Q2362.77 54.3469 2355.85 52.8481 L2353.25 52.2405 Q2346.33 50.7821 2343.25 47.7845 Q2340.17 44.7463 2340.17 39.4801 Q2340.17 33.0797 2344.71 29.5959 Q2349.24 26.1121 2357.59 26.1121 Q2361.72 26.1121 2365.37 26.7198 Q2369.01 27.3274 2372.09 28.5427 Z" fill="#000000" fill-rule="evenodd" fill-opacity="1" /><polyline clip-path="url(#clip072)" style="stroke:#009af9; stroke-linecap:butt; stroke-linejoin:round; stroke-width:4; stroke-opacity:1; fill:none" points="
  352.334,1384.89 371.952,1385.13 391.569,1383.88 411.187,1384.51 430.805,1380.37 450.423,1386.4 470.04,1385.41 489.658,1383.44 509.276,1382.34 528.894,1384.57 
  548.511,1381.53 568.129,1381.96 587.747,1382.57 607.365,1378.06 626.982,1379.23 646.6,1378.36 666.218,1373.6 685.836,1376.39 705.453,1373.02 725.071,1372.63 
  744.689,1375.06 764.307,1375.77 783.924,1368.81 803.542,1370.85 823.16,1369.64 842.778,1367.56 862.395,1366.33 882.013,1362.38 901.631,1366.09 921.249,1360.5 
  940.866,1360.31 960.484,1364.24 980.102,1362.41 999.72,1358.53 1019.34,1353.25 1038.96,1352.99 1058.57,1348.6 1078.19,1346.53 1097.81,1347.02 1117.43,1336.54 
  1137.04,1335.57 1156.66,1332.42 1176.28,1326.9 1195.9,1327.3 1215.51,1318.56 1235.13,1310.97 1254.75,1301.46 1274.37,1293.58 1293.99,1282.84 1313.6,1262.73 
  1333.22,1251.7 1352.84,1235.25 1372.46,1214.34 1392.07,1207.23 1411.69,1184.27 1431.31,1165.2 1450.93,1135.76 1470.55,1125.38 1490.16,1101.23 1509.78,1087.46 
  1529.4,1066.67 1549.02,1033.44 1568.63,1016.84 1588.25,993.733 1607.87,968.213 1627.49,939.415 1647.11,917.398 1666.72,876.756 1686.34,858.743 1705.96,825.608 
  1725.58,816.736 1745.19,788.937 1764.81,766.603 1784.43,741.647 1804.05,721.493 1823.67,694.166 1843.28,668.83 1862.9,644.378 1882.52,622.008 1902.14,601.886 
  1921.75,578.028 1941.37,553.219 1960.99,529.48 1980.61,503.535 2000.22,477.541 2019.84,464.357 2039.46,434.95 2059.08,414.423 2078.7,390.599 2098.31,369.901 
  2117.93,351.409 2137.55,321.931 2157.17,302.632 2176.78,283.647 2196.4,257.181 2216.02,245.193 2235.64,217.879 2255.26,190.203 2274.87,178.629 2294.49,160.256 
  
  "/>
</svg>
