<?xml version="1.0" encoding="utf-8"?>
<svg xmlns="http://www.w3.org/2000/svg" xmlns:xlink="http://www.w3.org/1999/xlink" width="600" height="400" viewBox="0 0 2400 1600">
<defs>
  <clipPath id="clip300">
    <rect x="0" y="0" width="2400" height="1600"/>
  </clipPath>
</defs>
<path clip-path="url(#clip300)" d="
M0 1600 L2400 1600 L2400 0 L0 0  Z
  " fill="#ffffff" fill-rule="evenodd" fill-opacity="1"/>
<defs>
  <clipPath id="clip301">
    <rect x="480" y="0" width="1681" height="1600"/>
  </clipPath>
</defs>
<path clip-path="url(#clip300)" d="
M268.566 1410.9 L2352.76 1410.9 L2352.76 123.472 L268.566 123.472  Z
  " fill="#ffffff" fill-rule="evenodd" fill-opacity="1"/>
<defs>
  <clipPath id="clip302">
    <rect x="268" y="123" width="2085" height="1288"/>
  </clipPath>
</defs>
<polyline clip-path="url(#clip302)" style="stroke:#000000; stroke-linecap:butt; stroke-linejoin:round; stroke-width:2; stroke-opacity:0.1; fill:none" points="
  307.692,1410.9 307.692,123.472 
  "/>
<polyline clip-path="url(#clip302)" style="stroke:#000000; stroke-linecap:butt; stroke-linejoin:round; stroke-width:2; stroke-opacity:0.1; fill:none" points="
  804.211,1410.9 804.211,123.472 
  "/>
<polyline clip-path="url(#clip302)" style="stroke:#000000; stroke-linecap:butt; stroke-linejoin:round; stroke-width:2; stroke-opacity:0.1; fill:none" points="
  1300.73,1410.9 1300.73,123.472 
  "/>
<polyline clip-path="url(#clip302)" style="stroke:#000000; stroke-linecap:butt; stroke-linejoin:round; stroke-width:2; stroke-opacity:0.1; fill:none" points="
  1797.25,1410.9 1797.25,123.472 
  "/>
<polyline clip-path="url(#clip302)" style="stroke:#000000; stroke-linecap:butt; stroke-linejoin:round; stroke-width:2; stroke-opacity:0.1; fill:none" points="
  2293.77,1410.9 2293.77,123.472 
  "/>
<polyline clip-path="url(#clip300)" style="stroke:#000000; stroke-linecap:butt; stroke-linejoin:round; stroke-width:4; stroke-opacity:1; fill:none" points="
  268.566,1410.9 2352.76,1410.9 
  "/>
<polyline clip-path="url(#clip300)" style="stroke:#000000; stroke-linecap:butt; stroke-linejoin:round; stroke-width:4; stroke-opacity:1; fill:none" points="
  307.692,1410.9 307.692,1392 
  "/>
<polyline clip-path="url(#clip300)" style="stroke:#000000; stroke-linecap:butt; stroke-linejoin:round; stroke-width:4; stroke-opacity:1; fill:none" points="
  804.211,1410.9 804.211,1392 
  "/>
<polyline clip-path="url(#clip300)" style="stroke:#000000; stroke-linecap:butt; stroke-linejoin:round; stroke-width:4; stroke-opacity:1; fill:none" points="
  1300.73,1410.9 1300.73,1392 
  "/>
<polyline clip-path="url(#clip300)" style="stroke:#000000; stroke-linecap:butt; stroke-linejoin:round; stroke-width:4; stroke-opacity:1; fill:none" points="
  1797.25,1410.9 1797.25,1392 
  "/>
<polyline clip-path="url(#clip300)" style="stroke:#000000; stroke-linecap:butt; stroke-linejoin:round; stroke-width:4; stroke-opacity:1; fill:none" points="
  2293.77,1410.9 2293.77,1392 
  "/>
<path clip-path="url(#clip300)" d="M307.692 1441.82 Q304.081 1441.82 302.252 1445.38 Q300.446 1448.92 300.446 1456.05 Q300.446 1463.16 302.252 1466.72 Q304.081 1470.26 307.692 1470.26 Q311.326 1470.26 313.131 1466.72 Q314.96 1463.16 314.96 1456.05 Q314.96 1448.92 313.131 1445.38 Q311.326 1441.82 307.692 1441.82 M307.692 1438.11 Q313.502 1438.11 316.557 1442.72 Q319.636 1447.3 319.636 1456.05 Q319.636 1464.78 316.557 1469.38 Q313.502 1473.97 307.692 1473.97 Q301.882 1473.97 298.803 1469.38 Q295.747 1464.78 295.747 1456.05 Q295.747 1447.3 298.803 1442.72 Q301.882 1438.11 307.692 1438.11 Z" fill="#000000" fill-rule="evenodd" fill-opacity="1" /><path clip-path="url(#clip300)" d="M697.028 1454.4 L715.384 1454.4 L715.384 1458.33 L701.31 1458.33 L701.31 1466.8 Q702.329 1466.46 703.347 1466.29 Q704.366 1466.11 705.384 1466.11 Q711.171 1466.11 714.551 1469.28 Q717.93 1472.45 717.93 1477.87 Q717.93 1483.45 714.458 1486.55 Q710.986 1489.63 704.667 1489.63 Q702.491 1489.63 700.222 1489.26 Q697.977 1488.89 695.569 1488.15 L695.569 1483.45 Q697.653 1484.58 699.875 1485.14 Q702.097 1485.69 704.574 1485.69 Q708.579 1485.69 710.917 1483.59 Q713.255 1481.48 713.255 1477.87 Q713.255 1474.26 710.917 1472.15 Q708.579 1470.04 704.574 1470.04 Q702.699 1470.04 700.824 1470.46 Q698.972 1470.88 697.028 1471.76 L697.028 1454.4 Z" fill="#000000" fill-rule="evenodd" fill-opacity="1" /><path clip-path="url(#clip300)" d="M727.143 1483.08 L732.028 1483.08 L732.028 1488.96 L727.143 1488.96 L727.143 1483.08 Z" fill="#000000" fill-rule="evenodd" fill-opacity="1" /><path clip-path="url(#clip300)" d="M752.213 1457.48 Q748.602 1457.48 746.773 1461.04 Q744.967 1464.58 744.967 1471.71 Q744.967 1478.82 746.773 1482.38 Q748.602 1485.92 752.213 1485.92 Q755.847 1485.92 757.652 1482.38 Q759.481 1478.82 759.481 1471.71 Q759.481 1464.58 757.652 1461.04 Q755.847 1457.48 752.213 1457.48 M752.213 1453.77 Q758.023 1453.77 761.078 1458.38 Q764.157 1462.96 764.157 1471.71 Q764.157 1480.44 761.078 1485.04 Q758.023 1489.63 752.213 1489.63 Q746.403 1489.63 743.324 1485.04 Q740.268 1480.44 740.268 1471.71 Q740.268 1462.96 743.324 1458.38 Q746.403 1453.77 752.213 1453.77 Z" fill="#000000" fill-rule="evenodd" fill-opacity="1" /><path clip-path="url(#clip300)" d="M782.375 1457.48 Q778.763 1457.48 776.935 1461.04 Q775.129 1464.58 775.129 1471.71 Q775.129 1478.82 776.935 1482.38 Q778.763 1485.92 782.375 1485.92 Q786.009 1485.92 787.814 1482.38 Q789.643 1478.82 789.643 1471.71 Q789.643 1464.58 787.814 1461.04 Q786.009 1457.48 782.375 1457.48 M782.375 1453.77 Q788.185 1453.77 791.24 1458.38 Q794.319 1462.96 794.319 1471.71 Q794.319 1480.44 791.24 1485.04 Q788.185 1489.63 782.375 1489.63 Q776.564 1489.63 773.486 1485.04 Q770.43 1480.44 770.43 1471.71 Q770.43 1462.96 773.486 1458.38 Q776.564 1453.77 782.375 1453.77 Z" fill="#000000" fill-rule="evenodd" fill-opacity="1" /><path clip-path="url(#clip300)" d="M830.708 1463.49 L820.129 1474.12 L830.708 1484.7 L827.953 1487.5 L817.328 1476.87 L806.703 1487.5 L803.972 1484.7 L814.527 1474.12 L803.972 1463.49 L806.703 1460.69 L817.328 1471.32 L827.953 1460.69 L830.708 1463.49 Z" fill="#000000" fill-rule="evenodd" fill-opacity="1" /><path clip-path="url(#clip300)" d="M843.069 1485.02 L850.708 1485.02 L850.708 1458.66 L842.397 1460.32 L842.397 1456.06 L850.661 1454.4 L855.337 1454.4 L855.337 1485.02 L862.976 1485.02 L862.976 1488.96 L843.069 1488.96 L843.069 1485.02 Z" fill="#000000" fill-rule="evenodd" fill-opacity="1" /><path clip-path="url(#clip300)" d="M882.42 1457.48 Q878.809 1457.48 876.981 1461.04 Q875.175 1464.58 875.175 1471.71 Q875.175 1478.82 876.981 1482.38 Q878.809 1485.92 882.42 1485.92 Q886.055 1485.92 887.86 1482.38 Q889.689 1478.82 889.689 1471.71 Q889.689 1464.58 887.86 1461.04 Q886.055 1457.48 882.42 1457.48 M882.42 1453.77 Q888.23 1453.77 891.286 1458.38 Q894.365 1462.96 894.365 1471.71 Q894.365 1480.44 891.286 1485.04 Q888.23 1489.63 882.42 1489.63 Q876.61 1489.63 873.531 1485.04 Q870.476 1480.44 870.476 1471.71 Q870.476 1462.96 873.531 1458.38 Q876.61 1453.77 882.42 1453.77 Z" fill="#000000" fill-rule="evenodd" fill-opacity="1" /><path clip-path="url(#clip300)" d="M907.06 1446.41 Q909.787 1446.99 911.31 1448.83 Q912.853 1450.68 912.853 1453.38 Q912.853 1457.54 909.994 1459.82 Q907.135 1462.09 901.869 1462.09 Q900.101 1462.09 898.22 1461.73 Q896.358 1461.4 894.365 1460.7 L894.365 1457.03 Q895.945 1457.95 897.825 1458.42 Q899.706 1458.89 901.756 1458.89 Q905.33 1458.89 907.192 1457.48 Q909.072 1456.07 909.072 1453.38 Q909.072 1450.9 907.323 1449.51 Q905.593 1448.1 902.49 1448.1 L899.217 1448.1 L899.217 1444.98 L902.64 1444.98 Q905.442 1444.98 906.928 1443.87 Q908.414 1442.74 908.414 1440.63 Q908.414 1438.47 906.872 1437.32 Q905.348 1436.16 902.49 1436.16 Q900.929 1436.16 899.142 1436.49 Q897.355 1436.83 895.211 1437.55 L895.211 1434.16 Q897.374 1433.56 899.255 1433.26 Q901.154 1432.96 902.828 1432.96 Q907.154 1432.96 909.674 1434.93 Q912.194 1436.89 912.194 1440.24 Q912.194 1442.57 910.859 1444.19 Q909.524 1445.79 907.06 1446.41 Z" fill="#000000" fill-rule="evenodd" fill-opacity="1" /><path clip-path="url(#clip300)" d="M1192.55 1485.02 L1200.19 1485.02 L1200.19 1458.66 L1191.88 1460.32 L1191.88 1456.06 L1200.14 1454.4 L1204.82 1454.4 L1204.82 1485.02 L1212.46 1485.02 L1212.46 1488.96 L1192.55 1488.96 L1192.55 1485.02 Z" fill="#000000" fill-rule="evenodd" fill-opacity="1" /><path clip-path="url(#clip300)" d="M1221.9 1483.08 L1226.78 1483.08 L1226.78 1488.96 L1221.9 1488.96 L1221.9 1483.08 Z" fill="#000000" fill-rule="evenodd" fill-opacity="1" /><path clip-path="url(#clip300)" d="M1246.97 1457.48 Q1243.36 1457.48 1241.53 1461.04 Q1239.72 1464.58 1239.72 1471.71 Q1239.72 1478.82 1241.53 1482.38 Q1243.36 1485.92 1246.97 1485.92 Q1250.6 1485.92 1252.41 1482.38 Q1254.24 1478.82 1254.24 1471.71 Q1254.24 1464.58 1252.41 1461.04 Q1250.6 1457.48 1246.97 1457.48 M1246.97 1453.77 Q1252.78 1453.77 1255.83 1458.38 Q1258.91 1462.96 1258.91 1471.71 Q1258.91 1480.44 1255.83 1485.04 Q1252.78 1489.63 1246.97 1489.63 Q1241.16 1489.63 1238.08 1485.04 Q1235.02 1480.44 1235.02 1471.71 Q1235.02 1462.96 1238.08 1458.38 Q1241.16 1453.77 1246.97 1453.77 Z" fill="#000000" fill-rule="evenodd" fill-opacity="1" /><path clip-path="url(#clip300)" d="M1277.13 1457.48 Q1273.52 1457.48 1271.69 1461.04 Q1269.89 1464.58 1269.89 1471.71 Q1269.89 1478.82 1271.69 1482.38 Q1273.52 1485.92 1277.13 1485.92 Q1280.77 1485.92 1282.57 1482.38 Q1284.4 1478.82 1284.4 1471.71 Q1284.4 1464.58 1282.57 1461.04 Q1280.77 1457.48 1277.13 1457.48 M1277.13 1453.77 Q1282.94 1453.77 1286 1458.38 Q1289.08 1462.96 1289.08 1471.71 Q1289.08 1480.44 1286 1485.04 Q1282.94 1489.63 1277.13 1489.63 Q1271.32 1489.63 1268.24 1485.04 Q1265.19 1480.44 1265.19 1471.71 Q1265.19 1462.96 1268.24 1458.38 Q1271.32 1453.77 1277.13 1453.77 Z" fill="#000000" fill-rule="evenodd" fill-opacity="1" /><path clip-path="url(#clip300)" d="M1325.46 1463.49 L1314.89 1474.12 L1325.46 1484.7 L1322.71 1487.5 L1312.08 1476.87 L1301.46 1487.5 L1298.73 1484.7 L1309.28 1474.12 L1298.73 1463.49 L1301.46 1460.69 L1312.08 1471.32 L1322.71 1460.69 L1325.46 1463.49 Z" fill="#000000" fill-rule="evenodd" fill-opacity="1" /><path clip-path="url(#clip300)" d="M1337.83 1485.02 L1345.46 1485.02 L1345.46 1458.66 L1337.15 1460.32 L1337.15 1456.06 L1345.42 1454.4 L1350.09 1454.4 L1350.09 1485.02 L1357.73 1485.02 L1357.73 1488.96 L1337.83 1488.96 L1337.83 1485.02 Z" fill="#000000" fill-rule="evenodd" fill-opacity="1" /><path clip-path="url(#clip300)" d="M1377.18 1457.48 Q1373.57 1457.48 1371.74 1461.04 Q1369.93 1464.58 1369.93 1471.71 Q1369.93 1478.82 1371.74 1482.38 Q1373.57 1485.92 1377.18 1485.92 Q1380.81 1485.92 1382.62 1482.38 Q1384.45 1478.82 1384.45 1471.71 Q1384.45 1464.58 1382.62 1461.04 Q1380.81 1457.48 1377.18 1457.48 M1377.18 1453.77 Q1382.99 1453.77 1386.04 1458.38 Q1389.12 1462.96 1389.12 1471.71 Q1389.12 1480.44 1386.04 1485.04 Q1382.99 1489.63 1377.18 1489.63 Q1371.37 1489.63 1368.29 1485.04 Q1365.23 1480.44 1365.23 1471.71 Q1365.23 1462.96 1368.29 1458.38 Q1371.37 1453.77 1377.18 1453.77 Z" fill="#000000" fill-rule="evenodd" fill-opacity="1" /><path clip-path="url(#clip300)" d="M1401.8 1436.78 L1392.21 1451.77 L1401.8 1451.77 L1401.8 1436.78 M1400.8 1433.47 L1405.58 1433.47 L1405.58 1451.77 L1409.58 1451.77 L1409.58 1454.93 L1405.58 1454.93 L1405.58 1461.55 L1401.8 1461.55 L1401.8 1454.93 L1389.12 1454.93 L1389.12 1451.26 L1400.8 1433.47 Z" fill="#000000" fill-rule="evenodd" fill-opacity="1" /><path clip-path="url(#clip300)" d="M1689.07 1485.02 L1696.71 1485.02 L1696.71 1458.66 L1688.4 1460.32 L1688.4 1456.06 L1696.66 1454.4 L1701.34 1454.4 L1701.34 1485.02 L1708.97 1485.02 L1708.97 1488.96 L1689.07 1488.96 L1689.07 1485.02 Z" fill="#000000" fill-rule="evenodd" fill-opacity="1" /><path clip-path="url(#clip300)" d="M1718.42 1483.08 L1723.3 1483.08 L1723.3 1488.96 L1718.42 1488.96 L1718.42 1483.08 Z" fill="#000000" fill-rule="evenodd" fill-opacity="1" /><path clip-path="url(#clip300)" d="M1733.54 1454.4 L1751.89 1454.4 L1751.89 1458.33 L1737.82 1458.33 L1737.82 1466.8 Q1738.84 1466.46 1739.85 1466.29 Q1740.87 1466.11 1741.89 1466.11 Q1747.68 1466.11 1751.06 1469.28 Q1754.44 1472.45 1754.44 1477.87 Q1754.44 1483.45 1750.97 1486.55 Q1747.49 1489.63 1741.17 1489.63 Q1739 1489.63 1736.73 1489.26 Q1734.48 1488.89 1732.08 1488.15 L1732.08 1483.45 Q1734.16 1484.58 1736.38 1485.14 Q1738.6 1485.69 1741.08 1485.69 Q1745.09 1485.69 1747.42 1483.59 Q1749.76 1481.48 1749.76 1477.87 Q1749.76 1474.26 1747.42 1472.15 Q1745.09 1470.04 1741.08 1470.04 Q1739.21 1470.04 1737.33 1470.46 Q1735.48 1470.88 1733.54 1471.76 L1733.54 1454.4 Z" fill="#000000" fill-rule="evenodd" fill-opacity="1" /><path clip-path="url(#clip300)" d="M1773.65 1457.48 Q1770.04 1457.48 1768.21 1461.04 Q1766.41 1464.58 1766.41 1471.71 Q1766.41 1478.82 1768.21 1482.38 Q1770.04 1485.92 1773.65 1485.92 Q1777.28 1485.92 1779.09 1482.38 Q1780.92 1478.82 1780.92 1471.71 Q1780.92 1464.58 1779.09 1461.04 Q1777.28 1457.48 1773.65 1457.48 M1773.65 1453.77 Q1779.46 1453.77 1782.52 1458.38 Q1785.59 1462.96 1785.59 1471.71 Q1785.59 1480.44 1782.52 1485.04 Q1779.46 1489.63 1773.65 1489.63 Q1767.84 1489.63 1764.76 1485.04 Q1761.71 1480.44 1761.71 1471.71 Q1761.71 1462.96 1764.76 1458.38 Q1767.84 1453.77 1773.65 1453.77 Z" fill="#000000" fill-rule="evenodd" fill-opacity="1" /><path clip-path="url(#clip300)" d="M1821.98 1463.49 L1811.4 1474.12 L1821.98 1484.7 L1819.23 1487.5 L1808.6 1476.87 L1797.98 1487.5 L1795.25 1484.7 L1805.8 1474.12 L1795.25 1463.49 L1797.98 1460.69 L1808.6 1471.32 L1819.23 1460.69 L1821.98 1463.49 Z" fill="#000000" fill-rule="evenodd" fill-opacity="1" /><path clip-path="url(#clip300)" d="M1834.34 1485.02 L1841.98 1485.02 L1841.98 1458.66 L1833.67 1460.32 L1833.67 1456.06 L1841.94 1454.4 L1846.61 1454.4 L1846.61 1485.02 L1854.25 1485.02 L1854.25 1488.96 L1834.34 1488.96 L1834.34 1485.02 Z" fill="#000000" fill-rule="evenodd" fill-opacity="1" /><path clip-path="url(#clip300)" d="M1873.7 1457.48 Q1870.09 1457.48 1868.26 1461.04 Q1866.45 1464.58 1866.45 1471.71 Q1866.45 1478.82 1868.26 1482.38 Q1870.09 1485.92 1873.7 1485.92 Q1877.33 1485.92 1879.14 1482.38 Q1880.96 1478.82 1880.96 1471.71 Q1880.96 1464.58 1879.14 1461.04 Q1877.33 1457.48 1873.7 1457.48 M1873.7 1453.77 Q1879.51 1453.77 1882.56 1458.38 Q1885.64 1462.96 1885.64 1471.71 Q1885.64 1480.44 1882.56 1485.04 Q1879.51 1489.63 1873.7 1489.63 Q1867.89 1489.63 1864.81 1485.04 Q1861.75 1480.44 1861.75 1471.71 Q1861.75 1462.96 1864.81 1458.38 Q1867.89 1453.77 1873.7 1453.77 Z" fill="#000000" fill-rule="evenodd" fill-opacity="1" /><path clip-path="url(#clip300)" d="M1898.32 1436.78 L1888.73 1451.77 L1898.32 1451.77 L1898.32 1436.78 M1897.32 1433.47 L1902.1 1433.47 L1902.1 1451.77 L1906.1 1451.77 L1906.1 1454.93 L1902.1 1454.93 L1902.1 1461.55 L1898.32 1461.55 L1898.32 1454.93 L1885.64 1454.93 L1885.64 1451.26 L1897.32 1433.47 Z" fill="#000000" fill-rule="evenodd" fill-opacity="1" /><path clip-path="url(#clip300)" d="M2189.67 1485.02 L2205.99 1485.02 L2205.99 1488.96 L2184.05 1488.96 L2184.05 1485.02 Q2186.71 1482.27 2191.29 1477.64 Q2195.9 1472.98 2197.08 1471.64 Q2199.33 1469.12 2200.21 1467.38 Q2201.11 1465.62 2201.11 1463.93 Q2201.11 1461.18 2199.16 1459.44 Q2197.24 1457.71 2194.14 1457.71 Q2191.94 1457.71 2189.49 1458.47 Q2187.06 1459.23 2184.28 1460.79 L2184.28 1456.06 Q2187.1 1454.93 2189.56 1454.35 Q2192.01 1453.77 2194.05 1453.77 Q2199.42 1453.77 2202.61 1456.46 Q2205.81 1459.14 2205.81 1463.63 Q2205.81 1465.76 2205 1467.68 Q2204.21 1469.58 2202.1 1472.17 Q2201.52 1472.85 2198.42 1476.06 Q2195.32 1479.26 2189.67 1485.02 Z" fill="#000000" fill-rule="evenodd" fill-opacity="1" /><path clip-path="url(#clip300)" d="M2215.81 1483.08 L2220.69 1483.08 L2220.69 1488.96 L2215.81 1488.96 L2215.81 1483.08 Z" fill="#000000" fill-rule="evenodd" fill-opacity="1" /><path clip-path="url(#clip300)" d="M2240.88 1457.48 Q2237.27 1457.48 2235.44 1461.04 Q2233.63 1464.58 2233.63 1471.71 Q2233.63 1478.82 2235.44 1482.38 Q2237.27 1485.92 2240.88 1485.92 Q2244.51 1485.92 2246.32 1482.38 Q2248.14 1478.82 2248.14 1471.71 Q2248.14 1464.58 2246.32 1461.04 Q2244.51 1457.48 2240.88 1457.48 M2240.88 1453.77 Q2246.69 1453.77 2249.74 1458.38 Q2252.82 1462.96 2252.82 1471.71 Q2252.82 1480.44 2249.74 1485.04 Q2246.69 1489.63 2240.88 1489.63 Q2235.07 1489.63 2231.99 1485.04 Q2228.93 1480.44 2228.93 1471.71 Q2228.93 1462.96 2231.99 1458.38 Q2235.07 1453.77 2240.88 1453.77 Z" fill="#000000" fill-rule="evenodd" fill-opacity="1" /><path clip-path="url(#clip300)" d="M2271.04 1457.48 Q2267.43 1457.48 2265.6 1461.04 Q2263.79 1464.58 2263.79 1471.71 Q2263.79 1478.82 2265.6 1482.38 Q2267.43 1485.92 2271.04 1485.92 Q2274.67 1485.92 2276.48 1482.38 Q2278.31 1478.82 2278.31 1471.71 Q2278.31 1464.58 2276.48 1461.04 Q2274.67 1457.48 2271.04 1457.48 M2271.04 1453.77 Q2276.85 1453.77 2279.9 1458.38 Q2282.98 1462.96 2282.98 1471.71 Q2282.98 1480.44 2279.9 1485.04 Q2276.85 1489.63 2271.04 1489.63 Q2265.23 1489.63 2262.15 1485.04 Q2259.09 1480.44 2259.09 1471.71 Q2259.09 1462.96 2262.15 1458.38 Q2265.23 1453.77 2271.04 1453.77 Z" fill="#000000" fill-rule="evenodd" fill-opacity="1" /><path clip-path="url(#clip300)" d="M2319.37 1463.49 L2308.79 1474.12 L2319.37 1484.7 L2316.62 1487.5 L2305.99 1476.87 L2295.37 1487.5 L2292.64 1484.7 L2303.19 1474.12 L2292.64 1463.49 L2295.37 1460.69 L2305.99 1471.32 L2316.62 1460.69 L2319.37 1463.49 Z" fill="#000000" fill-rule="evenodd" fill-opacity="1" /><path clip-path="url(#clip300)" d="M2331.73 1485.02 L2339.37 1485.02 L2339.37 1458.66 L2331.06 1460.32 L2331.06 1456.06 L2339.32 1454.4 L2344 1454.4 L2344 1485.02 L2351.64 1485.02 L2351.64 1488.96 L2331.73 1488.96 L2331.73 1485.02 Z" fill="#000000" fill-rule="evenodd" fill-opacity="1" /><path clip-path="url(#clip300)" d="M2371.08 1457.48 Q2367.47 1457.48 2365.64 1461.04 Q2363.84 1464.58 2363.84 1471.71 Q2363.84 1478.82 2365.64 1482.38 Q2367.47 1485.92 2371.08 1485.92 Q2374.72 1485.92 2376.52 1482.38 Q2378.35 1478.82 2378.35 1471.71 Q2378.35 1464.58 2376.52 1461.04 Q2374.72 1457.48 2371.08 1457.48 M2371.08 1453.77 Q2376.89 1453.77 2379.95 1458.38 Q2383.03 1462.96 2383.03 1471.71 Q2383.03 1480.44 2379.95 1485.04 Q2376.89 1489.63 2371.08 1489.63 Q2365.27 1489.63 2362.19 1485.04 Q2359.14 1480.44 2359.14 1471.71 Q2359.14 1462.96 2362.19 1458.38 Q2365.27 1453.77 2371.08 1453.77 Z" fill="#000000" fill-rule="evenodd" fill-opacity="1" /><path clip-path="url(#clip300)" d="M2395.7 1436.78 L2386.11 1451.77 L2395.7 1451.77 L2395.7 1436.78 M2394.71 1433.47 L2399.48 1433.47 L2399.48 1451.77 L2403.49 1451.77 L2403.49 1454.93 L2399.48 1454.93 L2399.48 1461.55 L2395.7 1461.55 L2395.7 1454.93 L2383.03 1454.93 L2383.03 1451.26 L2394.71 1433.47 Z" fill="#000000" fill-rule="evenodd" fill-opacity="1" /><path clip-path="url(#clip300)" d="M1339.96 1540.3 Q1339.96 1541.62 1338.84 1541.62 Q1335.2 1541.75 1333.72 1542.98 Q1332.27 1544.17 1331.72 1546.49 L1322.51 1583.23 Q1322.19 1584.39 1321.99 1584.52 Q1321.8 1584.62 1321.44 1584.62 Q1320.99 1584.62 1320.74 1584.39 Q1320.51 1584.17 1320.19 1583.36 L1303.76 1544.52 Q1303.64 1544.26 1303.47 1543.91 Q1303.31 1543.56 1303.18 1543.33 L1294.46 1578.14 Q1294.2 1579.14 1294.2 1579.66 Q1294.2 1580.91 1295.07 1581.72 Q1295.97 1582.49 1298.55 1582.59 Q1299.87 1582.59 1299.87 1583.3 Q1299.87 1584.62 1298.68 1584.62 Q1297.58 1584.62 1295.29 1584.52 Q1293.01 1584.42 1291.88 1584.42 Q1290.78 1584.42 1288.56 1584.52 Q1286.34 1584.62 1285.28 1584.62 Q1284.44 1584.62 1284.44 1583.88 Q1284.44 1583.3 1284.67 1583.01 Q1284.89 1582.69 1285.08 1582.65 Q1285.28 1582.59 1285.57 1582.59 Q1287.5 1582.52 1288.82 1582.14 Q1290.14 1581.75 1290.88 1581.01 Q1291.65 1580.27 1292.01 1579.53 Q1292.4 1578.76 1292.69 1577.63 L1301.51 1542.2 Q1301.51 1541.62 1297.03 1541.62 Q1296.26 1541.62 1295.94 1541.59 Q1295.65 1541.56 1295.42 1541.4 Q1295.2 1541.24 1295.2 1540.88 Q1295.2 1539.98 1295.58 1539.79 Q1295.97 1539.56 1297.1 1539.56 L1305.95 1539.56 Q1307.08 1539.56 1307.37 1539.76 Q1307.66 1539.92 1308.05 1540.82 L1322.64 1575.25 L1330.01 1545.91 Q1330.2 1545.33 1330.2 1544.52 Q1330.2 1543.23 1329.24 1542.46 Q1328.3 1541.66 1325.73 1541.62 Q1324.54 1541.62 1324.54 1540.88 Q1324.54 1540.27 1324.76 1539.98 Q1325.02 1539.66 1325.21 1539.63 Q1325.44 1539.56 1325.73 1539.56 Q1326.82 1539.56 1329.08 1539.66 Q1331.33 1539.76 1332.46 1539.76 Q1333.55 1539.76 1335.78 1539.66 Q1338.03 1539.56 1339.13 1539.56 Q1339.51 1539.56 1339.71 1539.76 Q1339.93 1539.92 1339.96 1540.11 L1339.96 1540.3 Z" fill="#000000" fill-rule="evenodd" fill-opacity="1" /><polyline clip-path="url(#clip302)" style="stroke:#000000; stroke-linecap:butt; stroke-linejoin:round; stroke-width:2; stroke-opacity:0.1; fill:none" points="
  268.566,1182.16 2352.76,1182.16 
  "/>
<polyline clip-path="url(#clip302)" style="stroke:#000000; stroke-linecap:butt; stroke-linejoin:round; stroke-width:2; stroke-opacity:0.1; fill:none" points="
  268.566,558.829 2352.76,558.829 
  "/>
<polyline clip-path="url(#clip300)" style="stroke:#000000; stroke-linecap:butt; stroke-linejoin:round; stroke-width:4; stroke-opacity:1; fill:none" points="
  268.566,1410.9 268.566,123.472 
  "/>
<polyline clip-path="url(#clip300)" style="stroke:#000000; stroke-linecap:butt; stroke-linejoin:round; stroke-width:4; stroke-opacity:1; fill:none" points="
  268.566,1182.16 287.464,1182.16 
  "/>
<polyline clip-path="url(#clip300)" style="stroke:#000000; stroke-linecap:butt; stroke-linejoin:round; stroke-width:4; stroke-opacity:1; fill:none" points="
  268.566,558.829 287.464,558.829 
  "/>
<path clip-path="url(#clip300)" d="M132.125 1201.95 L139.764 1201.95 L139.764 1175.59 L131.454 1177.25 L131.454 1172.99 L139.718 1171.33 L144.394 1171.33 L144.394 1201.95 L152.033 1201.95 L152.033 1205.89 L132.125 1205.89 L132.125 1201.95 Z" fill="#000000" fill-rule="evenodd" fill-opacity="1" /><path clip-path="url(#clip300)" d="M171.477 1174.41 Q167.866 1174.41 166.037 1177.97 Q164.232 1181.51 164.232 1188.64 Q164.232 1195.75 166.037 1199.31 Q167.866 1202.86 171.477 1202.86 Q175.111 1202.86 176.917 1199.31 Q178.745 1195.75 178.745 1188.64 Q178.745 1181.51 176.917 1177.97 Q175.111 1174.41 171.477 1174.41 M171.477 1170.7 Q177.287 1170.7 180.343 1175.31 Q183.421 1179.89 183.421 1188.64 Q183.421 1197.37 180.343 1201.98 Q177.287 1206.56 171.477 1206.56 Q165.667 1206.56 162.588 1201.98 Q159.532 1197.37 159.532 1188.64 Q159.532 1179.89 162.588 1175.31 Q165.667 1170.7 171.477 1170.7 Z" fill="#000000" fill-rule="evenodd" fill-opacity="1" /><path clip-path="url(#clip300)" d="M183.421 1164.8 L207.533 1164.8 L207.533 1168 L183.421 1168 L183.421 1164.8 Z" fill="#000000" fill-rule="evenodd" fill-opacity="1" /><path clip-path="url(#clip300)" d="M216.391 1175.28 L222.598 1175.28 L222.598 1153.86 L215.846 1155.21 L215.846 1151.75 L222.56 1150.4 L226.359 1150.4 L226.359 1175.28 L232.566 1175.28 L232.566 1178.48 L216.391 1178.48 L216.391 1175.28 Z" fill="#000000" fill-rule="evenodd" fill-opacity="1" /><path clip-path="url(#clip300)" d="M161.86 578.622 L169.499 578.622 L169.499 552.256 L161.189 553.923 L161.189 549.664 L169.453 547.997 L174.129 547.997 L174.129 578.622 L181.768 578.622 L181.768 582.557 L161.86 582.557 L161.86 578.622 Z" fill="#000000" fill-rule="evenodd" fill-opacity="1" /><path clip-path="url(#clip300)" d="M201.212 551.076 Q197.601 551.076 195.772 554.64 Q193.967 558.182 193.967 565.312 Q193.967 572.418 195.772 575.983 Q197.601 579.524 201.212 579.524 Q204.846 579.524 206.652 575.983 Q208.48 572.418 208.48 565.312 Q208.48 558.182 206.652 554.64 Q204.846 551.076 201.212 551.076 M201.212 547.372 Q207.022 547.372 210.078 551.978 Q213.156 556.562 213.156 565.312 Q213.156 574.038 210.078 578.645 Q207.022 583.228 201.212 583.228 Q195.402 583.228 192.323 578.645 Q189.268 574.038 189.268 565.312 Q189.268 556.562 192.323 551.978 Q195.402 547.372 201.212 547.372 Z" fill="#000000" fill-rule="evenodd" fill-opacity="1" /><path clip-path="url(#clip300)" d="M222.861 529.568 Q219.927 529.568 218.441 532.464 Q216.974 535.342 216.974 541.135 Q216.974 546.909 218.441 549.805 Q219.927 552.683 222.861 552.683 Q225.814 552.683 227.281 549.805 Q228.767 546.909 228.767 541.135 Q228.767 535.342 227.281 532.464 Q225.814 529.568 222.861 529.568 M222.861 526.559 Q227.582 526.559 230.064 530.301 Q232.566 534.025 232.566 541.135 Q232.566 548.225 230.064 551.968 Q227.582 555.692 222.861 555.692 Q218.14 555.692 215.639 551.968 Q213.156 548.225 213.156 541.135 Q213.156 534.025 215.639 530.301 Q218.14 526.559 222.861 526.559 Z" fill="#000000" fill-rule="evenodd" fill-opacity="1" /><path clip-path="url(#clip300)" d="M82.1658 908.852 L20.2662 908.852 Q18.3016 908.852 18.3016 907.532 Q18.3016 906.212 20.3628 906.212 L82.0048 906.212 Q84.1304 906.212 84.1304 907.532 Q84.1304 908.852 82.1658 908.852 M82.1658 901.574 L20.7493 901.574 Q18.3016 901.574 18.3016 900.253 Q18.3016 898.933 20.3628 898.933 L82.0048 898.933 Q84.1304 898.933 84.1304 900.253 Q84.1304 901.574 82.1658 901.574 Z" fill="#000000" fill-rule="evenodd" fill-opacity="1" /><path clip-path="url(#clip300)" d="M13.4212 839.5 L14.3455 840.064 Q12.8351 843.558 10.4228 847.909 Q12.8351 852.26 14.3455 855.755 L13.4212 856.296 Q10.1072 852.486 7.55975 847.909 Q10.1298 843.288 13.4212 839.5 Z" fill="#000000" fill-rule="evenodd" fill-opacity="1" /><path clip-path="url(#clip300)" d="M21.8765 829.361 L38.6879 833.516 Q39.7507 833.805 39.8795 833.999 Q40.0084 834.16 40.0084 834.675 Q40.0084 835.673 39.332 835.673 Q39.2676 835.673 38.4303 835.577 Q37.5607 835.48 35.9826 835.48 Q30.1534 835.48 26.7073 838.314 Q23.2613 841.116 23.2613 846.108 Q23.2613 850.778 25.709 855.255 Q28.1566 859.731 31.7637 862.597 Q34.7266 865.013 38.3337 866.688 Q41.9407 868.33 45.0969 869.006 Q48.2209 869.683 50.121 869.94 Q52.0212 870.166 53.245 870.166 Q56.852 870.166 59.6539 869.006 Q62.4236 867.847 64.0017 865.915 Q65.5798 863.95 66.3528 861.696 Q67.1257 859.409 67.1257 856.929 Q67.1257 855.995 66.9969 854.868 Q66.8681 853.741 66.385 852.002 Q65.9019 850.23 65.0967 848.781 Q64.2916 847.3 62.7457 846.011 Q61.1998 844.691 59.1386 844.176 Q53.8891 842.791 53.1162 842.791 Q52.472 842.791 52.2466 843.177 Q52.0212 843.564 51.8601 844.852 L51.7313 848.33 Q51.7313 848.395 51.7313 848.491 Q51.7313 849.103 51.7313 849.361 Q51.6991 849.618 51.6347 849.908 Q51.5703 850.166 51.4414 850.263 Q51.2804 850.327 51.0228 850.327 Q50.4109 850.327 50.121 850.069 Q49.7989 849.812 49.7667 849.586 Q49.7023 849.361 49.7023 848.942 L49.8956 839.699 Q49.8956 838.958 49.7989 836.253 Q49.7023 833.548 49.7023 832.775 Q49.7023 831.905 50.4109 831.905 Q51.7313 831.905 51.7313 832.968 Q51.7635 834.031 51.7957 834.578 Q51.7957 835.126 51.9567 835.673 Q52.1178 836.189 52.2466 836.382 Q52.3432 836.575 52.8263 836.833 Q53.2772 837.09 53.6637 837.187 Q54.0179 837.284 54.9197 837.509 Q55.4994 837.638 56.5944 837.96 Q57.6894 838.25 58.2691 838.379 L63.3576 839.635 Q67.1257 840.504 67.3833 840.762 Q67.641 840.891 67.641 841.213 Q67.641 841.696 66.2239 842.726 Q64.8069 843.725 63.5509 844.176 Q64.4204 844.981 64.9357 845.496 Q65.4188 846.011 66.1917 847.203 Q66.9647 848.362 67.5766 849.908 Q69.1547 853.676 69.1547 858.153 Q69.1547 866.14 64.0984 871.164 Q59.0098 876.188 51.0872 876.188 Q45.4834 876.188 39.9762 873.612 Q34.469 871.035 30.3788 866.945 Q26.2887 862.855 23.7444 857.445 Q21.2001 852.034 21.2001 846.623 Q21.2001 844.562 21.7476 842.726 Q22.2951 840.891 22.9715 839.796 Q23.6478 838.669 24.6462 837.67 Q25.6123 836.672 26.0632 836.35 Q26.5141 835.995 27.0616 835.673 L22.0053 831.068 Q21.2001 830.263 21.2001 830.07 Q21.2001 829.683 21.4256 829.522 Q21.651 829.361 21.8765 829.361 Z" fill="#000000" fill-rule="evenodd" fill-opacity="1" /><path clip-path="url(#clip300)" d="M50.282 767.968 Q50.6685 767.582 51.216 767.582 Q51.7635 767.582 52.15 767.968 Q52.5364 768.355 52.5364 768.902 L52.5364 810.19 Q52.5364 810.738 52.15 811.124 Q51.7635 811.511 51.216 811.511 Q50.6685 811.511 50.282 811.124 Q49.8956 810.738 49.8956 810.19 L49.8956 768.902 Q49.8956 768.355 50.282 767.968 Z" fill="#000000" fill-rule="evenodd" fill-opacity="1" /><path clip-path="url(#clip300)" d="M21.8765 695.566 L38.6879 699.721 Q39.7507 700.011 39.8795 700.204 Q40.0084 700.365 40.0084 700.88 Q40.0084 701.879 39.332 701.879 Q39.2676 701.879 38.4303 701.782 Q37.5607 701.686 35.9826 701.686 Q30.1534 701.686 26.7073 704.52 Q23.2613 707.322 23.2613 712.314 Q23.2613 716.983 25.709 721.46 Q28.1566 725.937 31.7637 728.803 Q34.7266 731.218 38.3337 732.893 Q41.9407 734.536 45.0969 735.212 Q48.2209 735.888 50.121 736.146 Q52.0212 736.371 53.245 736.371 Q56.852 736.371 59.6539 735.212 Q62.4236 734.052 64.0017 732.12 Q65.5798 730.156 66.3528 727.901 Q67.1257 725.615 67.1257 723.135 Q67.1257 722.201 66.9969 721.074 Q66.8681 719.946 66.385 718.207 Q65.9019 716.436 65.0967 714.987 Q64.2916 713.505 62.7457 712.217 Q61.1998 710.896 59.1386 710.381 Q53.8891 708.996 53.1162 708.996 Q52.472 708.996 52.2466 709.383 Q52.0212 709.769 51.8601 711.058 L51.7313 714.536 Q51.7313 714.6 51.7313 714.697 Q51.7313 715.309 51.7313 715.566 Q51.6991 715.824 51.6347 716.114 Q51.5703 716.371 51.4414 716.468 Q51.2804 716.532 51.0228 716.532 Q50.4109 716.532 50.121 716.275 Q49.7989 716.017 49.7667 715.792 Q49.7023 715.566 49.7023 715.148 L49.8956 705.905 Q49.8956 705.164 49.7989 702.459 Q49.7023 699.753 49.7023 698.98 Q49.7023 698.111 50.4109 698.111 Q51.7313 698.111 51.7313 699.174 Q51.7635 700.236 51.7957 700.784 Q51.7957 701.331 51.9567 701.879 Q52.1178 702.394 52.2466 702.587 Q52.3432 702.781 52.8263 703.038 Q53.2772 703.296 53.6637 703.393 Q54.0179 703.489 54.9197 703.715 Q55.4994 703.843 56.5944 704.165 Q57.6894 704.455 58.2691 704.584 L63.3576 705.84 Q67.1257 706.71 67.3833 706.967 Q67.641 707.096 67.641 707.418 Q67.641 707.901 66.2239 708.932 Q64.8069 709.93 63.5509 710.381 Q64.4204 711.186 64.9357 711.702 Q65.4188 712.217 66.1917 713.409 Q66.9647 714.568 67.5766 716.114 Q69.1547 719.882 69.1547 724.359 Q69.1547 732.346 64.0984 737.37 Q59.0098 742.394 51.0872 742.394 Q45.4834 742.394 39.9762 739.817 Q34.469 737.241 30.3788 733.151 Q26.2887 729.061 23.7444 723.65 Q21.2001 718.239 21.2001 712.829 Q21.2001 710.768 21.7476 708.932 Q22.2951 707.096 22.9715 706.001 Q23.6478 704.874 24.6462 703.876 Q25.6123 702.877 26.0632 702.555 Q26.5141 702.201 27.0616 701.879 L22.0053 697.273 Q21.2001 696.468 21.2001 696.275 Q21.2001 695.889 21.4256 695.728 Q21.651 695.566 21.8765 695.566 Z" fill="#000000" fill-rule="evenodd" fill-opacity="1" /><path clip-path="url(#clip300)" d="M82.1658 691.069 L20.2662 691.069 Q18.3016 691.069 18.3016 689.749 Q18.3016 688.428 20.3628 688.428 L82.0048 688.428 Q84.1304 688.428 84.1304 689.749 Q84.1304 691.069 82.1658 691.069 M82.1658 683.791 L20.7493 683.791 Q18.3016 683.791 18.3016 682.47 Q18.3016 681.15 20.3628 681.15 L82.0048 681.15 Q84.1304 681.15 84.1304 682.47 Q84.1304 683.791 82.1658 683.791 Z" fill="#000000" fill-rule="evenodd" fill-opacity="1" /><path clip-path="url(#clip300)" d="M83.4964 654.445 Q85.9537 654.445 88.3884 655.528 Q90.8007 656.61 92.6042 658.346 Q94.3852 660.059 95.5124 662.313 Q96.617 664.568 96.617 666.822 Q96.617 670.046 94.4303 672.143 Q92.2209 674.217 88.7942 674.217 Q85.593 674.217 82.5495 672.436 Q79.4835 670.632 77.5898 667.746 Q75.6961 664.861 75.6961 661.84 Q75.6961 658.661 77.8378 656.565 Q79.9795 654.445 83.4964 654.445 M81.6929 657.827 Q79.5061 657.827 78.1083 658.887 Q76.7106 659.946 76.7106 661.885 Q76.7106 662.449 76.891 663.102 Q77.0488 663.756 77.4771 664.613 Q77.9054 665.447 78.8072 666.394 Q79.6864 667.318 80.9489 668.13 Q82.6172 669.189 85.6832 670.001 Q88.7266 670.79 90.5527 670.79 Q93.0776 670.79 94.3401 669.618 Q95.58 668.445 95.58 666.777 Q95.58 665.154 94.4528 663.441 Q93.3031 661.705 91.3417 660.51 Q89.3128 659.315 86.3369 658.571 Q83.3386 657.827 81.6929 657.827 Z" fill="#000000" fill-rule="evenodd" fill-opacity="1" /><path clip-path="url(#clip300)" d="M83.068 631.433 Q86.3595 631.433 89.5382 633.101 Q92.7169 634.747 94.6783 637.34 Q96.617 639.932 96.617 642.57 Q96.617 644.148 95.7604 645.207 Q94.8812 646.244 93.6412 646.808 Q95.1742 647.236 98.8489 648.161 Q102.524 649.085 102.884 649.085 Q103.087 649.085 103.177 649.04 Q103.268 648.995 103.38 648.792 Q103.516 648.589 103.561 648.093 Q103.628 647.597 103.628 646.763 Q103.628 646.335 103.628 646.177 Q103.651 645.996 103.764 645.839 Q103.876 645.658 104.124 645.658 Q105.049 645.658 105.049 646.492 Q105.049 647.236 104.981 648.769 Q104.913 650.302 104.913 651.069 Q104.913 651.723 104.981 653.03 Q105.049 654.338 105.049 654.946 Q105.049 655.555 104.507 655.555 Q104.192 655.555 103.989 655.465 Q103.809 655.397 103.718 655.217 Q103.651 655.037 103.628 654.879 Q103.628 654.744 103.628 654.473 Q103.628 653.436 103.448 652.985 Q103.29 652.534 102.952 652.376 Q102.636 652.196 101.735 651.993 L81.1743 646.808 Q79.7991 646.492 78.8297 646.492 Q77.6124 646.492 77.1615 646.876 Q76.7106 647.259 76.7106 647.935 Q76.7106 649.108 78.1083 649.874 Q79.5061 650.641 82.2114 651.294 Q82.9553 651.497 83.1131 651.633 Q83.2709 651.745 83.2709 652.083 Q83.2484 652.647 82.7975 652.647 Q82.6848 652.647 81.9634 652.467 Q81.2194 652.286 80.1373 651.948 Q79.0326 651.587 78.3338 651.204 Q77.8604 650.979 77.5447 650.776 Q77.2291 650.573 76.7331 650.167 Q76.2372 649.739 75.9666 649.13 Q75.6961 648.521 75.6961 647.777 Q75.6961 646.335 76.5528 645.14 Q77.4095 643.945 79.1454 643.629 Q77.6349 642.344 76.6655 640.766 Q75.6961 639.188 75.6961 637.588 Q75.6961 634.927 77.7702 633.191 Q79.8217 631.433 83.068 631.433 M81.0391 634.77 Q78.9876 634.77 77.8604 635.559 Q76.7106 636.325 76.7106 637.723 Q76.7106 639.459 78.469 641.465 Q80.1373 643.449 81.6929 643.855 L90.733 646.132 L91.477 646.267 Q91.6123 646.267 92.018 646.199 Q92.4013 646.109 93.0325 645.861 Q93.6638 645.591 94.2274 645.23 Q94.7684 644.847 95.1742 644.17 Q95.58 643.472 95.58 642.615 Q95.58 641.24 94.3626 639.752 Q93.1453 638.241 90.8458 637.114 Q89.3578 636.415 86.1566 635.604 Q82.9328 634.77 81.0391 634.77 Z" fill="#000000" fill-rule="evenodd" fill-opacity="1" /><path clip-path="url(#clip300)" d="M600.318 53.6966 L600.318 57.3424 L566.048 57.3424 Q566.534 65.0391 570.666 69.09 Q574.838 73.1004 582.251 73.1004 Q586.545 73.1004 590.556 72.0472 Q594.606 70.9939 598.576 68.8875 L598.576 75.936 Q594.566 77.6374 590.353 78.5286 Q586.14 79.4198 581.806 79.4198 Q570.949 79.4198 564.589 73.1004 Q558.27 66.781 558.27 56.0056 Q558.27 44.8656 564.265 38.3437 Q570.301 31.7812 580.509 31.7812 Q589.664 31.7812 594.971 37.6955 Q600.318 43.5693 600.318 53.6966 M592.865 51.5091 Q592.784 45.3922 589.421 41.7464 Q586.1 38.1006 580.59 38.1006 Q574.352 38.1006 570.585 41.6249 Q566.858 45.1492 566.291 51.5496 L592.865 51.5091 Z" fill="#000000" fill-rule="evenodd" fill-opacity="1" /><path clip-path="url(#clip300)" d="M638.842 39.8425 Q637.587 39.1133 636.088 38.7893 Q634.629 38.4247 632.847 38.4247 Q626.528 38.4247 623.125 42.5566 Q619.763 46.648 619.763 54.3447 L619.763 78.2451 L612.268 78.2451 L612.268 32.8749 L619.763 32.8749 L619.763 39.9235 Q622.112 35.7916 625.879 33.8066 Q629.647 31.7812 635.034 31.7812 Q635.804 31.7812 636.736 31.9027 Q637.668 31.9837 638.802 32.1863 L638.842 39.8425 Z" fill="#000000" fill-rule="evenodd" fill-opacity="1" /><path clip-path="url(#clip300)" d="M671.493 39.8425 Q670.237 39.1133 668.738 38.7893 Q667.28 38.4247 665.497 38.4247 Q659.178 38.4247 655.775 42.5566 Q652.413 46.648 652.413 54.3447 L652.413 78.2451 L644.919 78.2451 L644.919 32.8749 L652.413 32.8749 L652.413 39.9235 Q654.762 35.7916 658.53 33.8066 Q662.297 31.7812 667.685 31.7812 Q668.454 31.7812 669.386 31.9027 Q670.318 31.9837 671.452 32.1863 L671.493 39.8425 Z" fill="#000000" fill-rule="evenodd" fill-opacity="1" /><path clip-path="url(#clip300)" d="M695.069 38.1006 Q689.074 38.1006 685.59 42.7997 Q682.106 47.4582 682.106 55.6005 Q682.106 63.7428 685.549 68.4419 Q689.033 73.1004 695.069 73.1004 Q701.024 73.1004 704.507 68.4014 Q707.991 63.7023 707.991 55.6005 Q707.991 47.5392 704.507 42.8402 Q701.024 38.1006 695.069 38.1006 M695.069 31.7812 Q704.791 31.7812 710.341 38.1006 Q715.891 44.42 715.891 55.6005 Q715.891 66.7405 710.341 73.1004 Q704.791 79.4198 695.069 79.4198 Q685.306 79.4198 679.756 73.1004 Q674.247 66.7405 674.247 55.6005 Q674.247 44.42 679.756 38.1006 Q685.306 31.7812 695.069 31.7812 Z" fill="#000000" fill-rule="evenodd" fill-opacity="1" /><path clip-path="url(#clip300)" d="M754.536 39.8425 Q753.28 39.1133 751.782 38.7893 Q750.323 38.4247 748.541 38.4247 Q742.221 38.4247 738.819 42.5566 Q735.456 46.648 735.456 54.3447 L735.456 78.2451 L727.962 78.2451 L727.962 32.8749 L735.456 32.8749 L735.456 39.9235 Q737.806 35.7916 741.573 33.8066 Q745.341 31.7812 750.728 31.7812 Q751.498 31.7812 752.43 31.9027 Q753.361 31.9837 754.496 32.1863 L754.536 39.8425 Z" fill="#000000" fill-rule="evenodd" fill-opacity="1" /><path clip-path="url(#clip300)" d="M784.391 32.8749 L791.845 32.8749 L801.162 68.2798 L810.439 32.8749 L819.229 32.8749 L828.546 68.2798 L837.823 32.8749 L845.276 32.8749 L833.407 78.2451 L824.617 78.2451 L814.854 41.0578 L805.051 78.2451 L796.26 78.2451 L784.391 32.8749 Z" fill="#000000" fill-rule="evenodd" fill-opacity="1" /><path clip-path="url(#clip300)" d="M856.578 32.8749 L864.032 32.8749 L864.032 78.2451 L856.578 78.2451 L856.578 32.8749 M856.578 15.213 L864.032 15.213 L864.032 24.6516 L856.578 24.6516 L856.578 15.213 Z" fill="#000000" fill-rule="evenodd" fill-opacity="1" /><path clip-path="url(#clip300)" d="M887.001 19.9931 L887.001 32.8749 L902.354 32.8749 L902.354 38.6677 L887.001 38.6677 L887.001 63.2972 Q887.001 68.847 888.5 70.4268 Q890.039 72.0067 894.697 72.0067 L902.354 72.0067 L902.354 78.2451 L894.697 78.2451 Q886.069 78.2451 882.788 75.0448 Q879.507 71.8041 879.507 63.2972 L879.507 38.6677 L874.038 38.6677 L874.038 32.8749 L879.507 32.8749 L879.507 19.9931 L887.001 19.9931 Z" fill="#000000" fill-rule="evenodd" fill-opacity="1" /><path clip-path="url(#clip300)" d="M949.871 50.8609 L949.871 78.2451 L942.417 78.2451 L942.417 51.104 Q942.417 44.6631 939.906 41.4629 Q937.394 38.2626 932.371 38.2626 Q926.335 38.2626 922.851 42.111 Q919.367 45.9594 919.367 52.6028 L919.367 78.2451 L911.873 78.2451 L911.873 15.213 L919.367 15.213 L919.367 39.9235 Q922.041 35.8321 925.646 33.8066 Q929.292 31.7812 934.032 31.7812 Q941.85 31.7812 945.86 36.6423 Q949.871 41.4629 949.871 50.8609 Z" fill="#000000" fill-rule="evenodd" fill-opacity="1" /><path clip-path="url(#clip300)" d="M1022.93 54.8402 Q1022.93 60.9066 1019.81 66.6041 Q1016.74 72.3016 1011.9 75.7447 Q1007.11 79.1878 1002.27 79.1878 Q996.817 79.1878 993.989 73.5313 Q988.865 94.0669 988.578 94.5998 Q987.39 96.3623 985.668 96.3623 Q984.602 96.3623 983.947 95.7065 Q983.291 95.0917 983.291 94.1079 Q983.332 93.78 983.578 92.7553 L991.776 59.7589 Q993.661 52.0939 999.359 46.6423 Q1005.1 41.1498 1011.25 41.1498 Q1016.12 41.1498 1019.53 44.7978 Q1022.93 48.4459 1022.93 54.8402 M1016.9 51.2331 Q1016.9 47.1342 1015.26 45.0847 Q1013.62 42.9943 1011.08 42.9943 Q1008.75 42.9943 1005.92 44.8798 Q1003.13 46.7653 1000.67 50.9462 Q999.359 53.3646 998.416 56.3568 Q997.473 59.349 995.629 66.7271 Q994.973 69.6783 994.973 69.8423 Q994.973 70.1702 995.137 70.908 Q995.342 71.6458 995.833 72.7935 Q996.366 73.9002 997.104 74.8839 Q997.842 75.8677 999.195 76.6055 Q1000.55 77.3023 1002.19 77.3023 Q1004.73 77.3023 1007.43 75.2528 Q1010.18 73.1624 1012.19 69.3504 Q1013.87 66.2762 1015.39 60.4967 Q1016.9 54.6762 1016.9 51.2331 Z" fill="#000000" fill-rule="evenodd" fill-opacity="1" /><path clip-path="url(#clip300)" d="M1031.62 57.2586 Q1031.62 43.0763 1036.9 31.6403 Q1039.16 26.8445 1042.32 22.8276 Q1045.47 18.8106 1047.56 17.0481 Q1049.65 15.2855 1050.23 15.2855 Q1051.05 15.2855 1051.09 16.1053 Q1051.09 16.5152 1049.98 17.5399 Q1036.45 31.3123 1036.5 57.2586 Q1036.5 83.2867 1049.65 96.5263 Q1051.09 97.9609 1051.09 98.4118 Q1051.09 99.2316 1050.23 99.2316 Q1049.65 99.2316 1047.64 97.551 Q1045.64 95.8705 1042.52 92.0175 Q1039.41 88.1645 1037.15 83.4507 Q1031.62 72.0147 1031.62 57.2586 Z" fill="#000000" fill-rule="evenodd" fill-opacity="1" /><path clip-path="url(#clip300)" d="M1115.06 76.5645 Q1115.06 77.3433 1114.73 77.7532 Q1114.44 78.1221 1114.15 78.2041 Q1113.91 78.2451 1113.54 78.2451 Q1112.47 78.2451 1108.79 78.1221 Q1105.1 77.9991 1104.03 77.9991 Q1102.31 77.9991 1098.78 78.1221 Q1095.26 78.2451 1093.54 78.2451 Q1092.39 78.2451 1092.39 77.3023 Q1092.39 76.6875 1092.51 76.3596 Q1092.64 75.9907 1092.96 75.8677 Q1093.33 75.7037 1093.54 75.7037 Q1093.78 75.6627 1094.4 75.6627 Q1095.22 75.6627 1096.08 75.5808 Q1096.94 75.4578 1098 75.2119 Q1099.07 74.9659 1099.73 74.3511 Q1100.42 73.7362 1100.42 72.8755 Q1100.42 72.5066 1100.14 69.4734 Q1099.85 66.4402 1099.48 62.9151 Q1099.11 59.349 1099.07 58.8571 L1078 58.8571 Q1076.08 62.1773 1074.72 64.4727 Q1073.37 66.7681 1072.88 67.5469 Q1072.39 68.3257 1072.1 68.8175 Q1071.81 69.3094 1071.65 69.5963 Q1070.46 71.7688 1070.46 72.7115 Q1070.46 75.3348 1074.4 75.6627 Q1075.75 75.6627 1075.75 76.6465 Q1075.75 77.3843 1075.42 77.7942 Q1075.09 78.1631 1074.8 78.2041 Q1074.56 78.2451 1074.15 78.2451 Q1072.8 78.2451 1069.97 78.1221 Q1067.14 77.9991 1065.75 77.9991 Q1064.56 77.9991 1062.1 78.1221 Q1059.64 78.2451 1058.53 78.2451 Q1058.04 78.2451 1057.75 77.9581 Q1057.47 77.6712 1057.47 77.3023 Q1057.47 76.7285 1057.55 76.4005 Q1057.67 76.0726 1058 75.9087 Q1058.33 75.7447 1058.49 75.7447 Q1058.66 75.7037 1059.23 75.6627 Q1062.34 75.4578 1064.76 73.9822 Q1067.22 72.4656 1069.56 68.5716 L1098.74 19.5484 Q1099.03 19.0565 1099.23 18.8106 Q1099.44 18.5647 1099.85 18.3597 Q1100.3 18.1548 1100.96 18.1548 Q1101.98 18.1548 1102.19 18.4827 Q1102.39 18.7696 1102.51 20.1633 L1107.64 72.6295 Q1107.76 73.7362 1107.84 74.1871 Q1107.97 74.597 1108.5 75.0479 Q1109.07 75.4578 1110.1 75.5808 Q1111.16 75.6627 1113.13 75.6627 Q1113.87 75.6627 1114.15 75.7037 Q1114.44 75.7037 1114.73 75.9087 Q1115.06 76.1136 1115.06 76.5645 M1098.82 56.2338 L1096.16 28.5661 L1079.6 56.2338 L1098.82 56.2338 Z" fill="#000000" fill-rule="evenodd" fill-opacity="1" /><path clip-path="url(#clip300)" d="M1121.84 98.4118 Q1121.84 98.0019 1122.9 96.9772 Q1136.43 83.2048 1136.43 57.2586 Q1136.43 31.2304 1123.44 18.0728 Q1121.84 16.5562 1121.84 16.1053 Q1121.84 15.2855 1122.66 15.2855 Q1123.23 15.2855 1125.24 16.9661 Q1127.29 18.6467 1130.36 22.4996 Q1133.48 26.3526 1135.77 31.0664 Q1141.31 42.5024 1141.31 57.2586 Q1141.31 71.4408 1136.02 82.8769 Q1133.77 87.6726 1130.61 91.6895 Q1127.45 95.7065 1125.36 97.469 Q1123.27 99.2316 1122.66 99.2316 Q1121.84 99.2316 1121.84 98.4118 Z" fill="#000000" fill-rule="evenodd" fill-opacity="1" /><path clip-path="url(#clip300)" d="M1177.36 65.4974 Q1177.44 64.4727 1179.04 64.4727 L1230.48 64.4727 Q1232.9 64.4727 1232.94 65.4154 Q1232.94 66.4402 1230.65 66.3992 L1179.62 66.3992 Q1177.36 66.4402 1177.36 65.4974 M1177.36 49.1017 Q1177.36 48.077 1179.12 48.1179 L1230.4 48.1179 Q1232.9 48.1179 1232.94 49.1017 Q1232.94 50.0444 1230.81 50.0444 L1179.04 50.0444 Q1177.36 50.0444 1177.36 49.1017 Z" fill="#000000" fill-rule="evenodd" fill-opacity="1" /><path clip-path="url(#clip300)" d="M1265.32 51.3971 Q1265.32 39.0593 1268.44 32.3371 Q1272.78 22.3357 1283.03 22.3357 Q1285.2 22.3357 1287.46 22.9505 Q1289.75 23.5244 1292.62 25.7788 Q1295.53 28.0332 1297.29 31.7222 Q1300.65 38.8544 1300.65 51.3971 Q1300.65 63.6529 1297.54 70.3341 Q1292.99 80.0896 1282.95 80.0896 Q1279.18 80.0896 1275.32 78.1631 Q1271.51 76.2366 1269.09 71.6048 Q1265.32 64.6776 1265.32 51.3971 M1272.29 50.3724 Q1272.29 63.038 1273.19 68.0797 Q1274.22 73.5313 1277 75.9087 Q1279.83 78.2451 1282.95 78.2451 Q1286.31 78.2451 1289.1 75.7447 Q1291.92 73.2034 1292.78 67.7518 Q1293.73 62.3822 1293.69 50.3724 Q1293.69 38.6904 1292.87 34.0176 Q1291.76 28.5661 1288.81 26.3936 Q1285.9 24.1802 1282.95 24.1802 Q1281.84 24.1802 1280.65 24.5081 Q1279.5 24.836 1277.82 25.7788 Q1276.14 26.7215 1274.83 29.0579 Q1273.56 31.3943 1272.95 34.9194 Q1272.29 39.4692 1272.29 50.3724 Z" fill="#000000" fill-rule="evenodd" fill-opacity="1" /><path clip-path="url(#clip300)" d="M1308.16 76.8924 Q1306.89 75.5398 1306.89 73.7772 Q1306.89 72.0147 1308.16 70.744 Q1309.43 69.4324 1311.36 69.4324 Q1313.2 69.4324 1314.43 70.662 Q1315.7 71.8507 1315.7 73.8182 Q1315.7 75.7447 1314.35 77.0154 Q1313.04 78.2451 1311.36 78.2451 Q1309.43 78.2451 1308.16 76.8924 Z" fill="#000000" fill-rule="evenodd" fill-opacity="1" /><path clip-path="url(#clip300)" d="M1329.99 41.2317 Q1329.99 36.7639 1331.3 33.7307 Q1332.61 30.6565 1335.36 27.6233 Q1340.4 22.3357 1347.7 22.3357 Q1350.81 22.3357 1353.56 23.6473 Q1356.35 24.959 1358.97 27.9512 Q1361.63 30.9024 1363.23 36.7639 Q1364.83 42.5844 1364.83 50.6183 Q1364.83 63.6119 1358.52 71.8507 Q1352.25 80.0896 1343.76 80.0896 Q1338.39 80.0896 1335.24 77.6712 Q1332.08 75.2119 1332.08 71.0309 Q1332.08 68.8585 1333.31 67.9568 Q1334.54 67.014 1335.93 67.014 Q1337.45 67.014 1338.64 68.0387 Q1339.83 69.0225 1339.83 70.867 Q1339.83 72.3836 1338.84 73.5723 Q1337.9 74.72 1335.44 74.72 Q1337.86 77.7532 1343.68 77.7532 Q1345.77 77.7532 1347.86 76.8104 Q1349.95 75.8267 1352.21 73.4903 Q1354.5 71.1129 1355.9 66.1532 Q1357.29 61.1935 1357.29 54.2253 L1357.29 51.561 Q1353.93 59.9638 1346.8 59.9638 Q1339.75 59.9638 1334.87 54.5533 Q1329.99 49.1427 1329.99 41.2317 M1337.53 41.3137 Q1337.53 49.6345 1339.05 52.7087 Q1341.63 57.9964 1346.88 57.9964 Q1352 57.9964 1354.54 53.4465 Q1357.13 48.8558 1357.13 42.9123 Q1357.13 34.6735 1355.77 31.0664 Q1353.27 24.4261 1347.7 24.4261 Q1342.16 24.4261 1339.3 29.7138 Q1337.53 32.8289 1337.53 41.3137 Z" fill="#000000" fill-rule="evenodd" fill-opacity="1" /><path clip-path="url(#clip300)" d="M1426.37 55.4385 Q1417.34 55.4385 1413.85 57.5044 Q1410.37 59.5704 1410.37 64.553 Q1410.37 68.5229 1412.96 70.8724 Q1415.59 73.1814 1420.09 73.1814 Q1426.29 73.1814 1430.02 68.8065 Q1433.78 64.391 1433.78 57.0993 L1433.78 55.4385 L1426.37 55.4385 M1441.24 52.3598 L1441.24 78.2451 L1433.78 78.2451 L1433.78 71.3585 Q1431.23 75.4904 1427.42 77.4754 Q1423.62 79.4198 1418.11 79.4198 Q1411.14 79.4198 1407.01 75.531 Q1402.92 71.6016 1402.92 65.0391 Q1402.92 57.3829 1408.02 53.494 Q1413.16 49.6052 1423.33 49.6052 L1433.78 49.6052 L1433.78 48.876 Q1433.78 43.7314 1430.38 40.9362 Q1427.02 38.1006 1420.9 38.1006 Q1417.01 38.1006 1413.33 39.0323 Q1409.64 39.964 1406.24 41.8274 L1406.24 34.9409 Q1410.33 33.361 1414.18 32.5914 Q1418.03 31.7812 1421.67 31.7812 Q1431.51 31.7812 1436.38 36.8853 Q1441.24 41.9895 1441.24 52.3598 Z" fill="#000000" fill-rule="evenodd" fill-opacity="1" /><path clip-path="url(#clip300)" d="M1494.3 50.8609 L1494.3 78.2451 L1486.85 78.2451 L1486.85 51.104 Q1486.85 44.6631 1484.34 41.4629 Q1481.83 38.2626 1476.8 38.2626 Q1470.77 38.2626 1467.28 42.111 Q1463.8 45.9594 1463.8 52.6028 L1463.8 78.2451 L1456.31 78.2451 L1456.31 32.8749 L1463.8 32.8749 L1463.8 39.9235 Q1466.47 35.8321 1470.08 33.8066 Q1473.73 31.7812 1478.46 31.7812 Q1486.28 31.7812 1490.29 36.6423 Q1494.3 41.4629 1494.3 50.8609 Z" fill="#000000" fill-rule="evenodd" fill-opacity="1" /><path clip-path="url(#clip300)" d="M1539.03 39.7615 L1539.03 15.213 L1546.48 15.213 L1546.48 78.2451 L1539.03 78.2451 L1539.03 71.4395 Q1536.68 75.4904 1533.07 77.4754 Q1529.51 79.4198 1524.48 79.4198 Q1516.26 79.4198 1511.07 72.8574 Q1505.93 66.2949 1505.93 55.6005 Q1505.93 44.9061 1511.07 38.3437 Q1516.26 31.7812 1524.48 31.7812 Q1529.51 31.7812 1533.07 33.7661 Q1536.68 35.7106 1539.03 39.7615 M1513.63 55.6005 Q1513.63 63.8238 1516.99 68.5229 Q1520.39 73.1814 1526.31 73.1814 Q1532.22 73.1814 1535.62 68.5229 Q1539.03 63.8238 1539.03 55.6005 Q1539.03 47.3772 1535.62 42.7186 Q1532.22 38.0196 1526.31 38.0196 Q1520.39 38.0196 1516.99 42.7186 Q1513.63 47.3772 1513.63 55.6005 Z" fill="#000000" fill-rule="evenodd" fill-opacity="1" /><path clip-path="url(#clip300)" d="M1624.78 42.4473 Q1624.78 45.3166 1620.68 45.3166 L1611.46 45.3166 Q1614.04 49.0056 1614.04 54.4572 Q1614.04 59.13 1612.11 63.5158 Q1610.23 67.8607 1607.19 70.8939 Q1604.2 73.9271 1600.43 75.7716 Q1596.66 77.5752 1592.97 77.5752 Q1587.35 77.5752 1583.87 73.7632 Q1580.39 69.9512 1580.39 64.2946 Q1580.39 61.3024 1581.41 57.9823 Q1582.48 54.6622 1584.48 51.588 Q1586.49 48.4728 1589.12 45.9724 Q1591.78 43.4721 1595.22 41.9555 Q1598.71 40.4389 1602.36 40.4389 L1621.5 40.4389 Q1622.52 40.4389 1623.06 40.5209 Q1623.63 40.5618 1624.2 41.0537 Q1624.78 41.5046 1624.78 42.4473 M1608.67 53.4735 Q1608.67 52.4897 1608.55 51.6289 Q1608.42 50.7272 1607.97 49.5385 Q1607.52 48.3088 1606.74 47.448 Q1605.96 46.5463 1604.45 45.9314 Q1602.97 45.3166 1600.96 45.3166 Q1598.13 45.3166 1595.02 46.8742 Q1591.9 48.4318 1589.53 52.2848 Q1587.56 55.5639 1586.57 59.8268 Q1585.59 64.0897 1585.59 66.631 Q1585.59 70.9759 1587.68 73.3533 Q1589.81 75.6897 1593.05 75.6897 Q1595.72 75.6897 1598.75 73.8861 Q1601.78 72.0416 1604.12 68.5575 Q1606.17 65.5243 1607.4 61.0975 Q1608.67 56.6706 1608.67 53.4735 Z" fill="#000000" fill-rule="evenodd" fill-opacity="1" /><path clip-path="url(#clip300)" d="M1672.21 71.1347 Q1672.21 73.344 1671 78.2217 Q1669.8 83.0994 1668.33 86.4278 Q1665.2 93.6583 1659.81 93.6583 Q1659.15 93.6583 1658.49 93.6009 Q1657.86 93.5435 1656.91 93.2853 Q1655.97 93.027 1655.19 92.6253 Q1654.42 92.195 1653.64 91.3916 Q1652.9 90.5882 1652.47 89.5266 Q1650.08 93.6583 1646.35 93.6583 Q1642.74 93.6583 1640.36 91.822 Q1638 89.9856 1638 86.2269 Q1638 84.5341 1638.69 82.0378 Q1639.38 79.5416 1641.3 74.3769 Q1642.37 71.7085 1642.37 70.2452 Q1642.37 69.5853 1642.22 69.1549 Q1642.08 68.7245 1641.79 68.581 Q1641.53 68.4089 1641.36 68.3802 Q1641.19 68.3228 1640.9 68.3228 Q1639.18 68.3228 1637.63 70.073 Q1636.08 71.7946 1634.96 75.6107 Q1634.73 76.328 1634.59 76.5002 Q1634.45 76.6723 1634.02 76.6723 Q1633.3 76.6436 1633.3 76.0698 Q1633.3 75.8402 1633.56 74.9508 Q1633.82 74.0326 1634.42 72.6841 Q1635.05 71.3068 1635.91 70.073 Q1636.77 68.8106 1638.12 67.9211 Q1639.5 67.0316 1641.07 67.0316 Q1643.2 67.0316 1644.55 68.4376 Q1645.89 69.8435 1645.89 71.852 Q1645.89 72.4258 1645.75 73.0571 Q1645.61 73.6596 1645.46 74.0613 Q1645.35 74.4343 1644.89 75.6107 Q1643 80.5745 1642.39 82.956 Q1641.82 85.3374 1641.82 87.0016 Q1641.82 87.5468 1641.85 87.9772 Q1641.88 88.4075 1642.11 89.297 Q1642.37 90.1865 1642.82 90.789 Q1643.28 91.3629 1644.23 91.8506 Q1645.21 92.3384 1646.53 92.3384 Q1649.83 92.3384 1651.95 87.4033 Q1651.89 87.1164 1651.89 86.3704 Q1651.89 84.7062 1652.41 82.4682 Q1652.55 81.9517 1653.38 78.6521 Q1654.22 75.3238 1654.93 72.4258 Q1655.68 69.4992 1655.76 69.327 Q1656.05 68.5236 1656.68 68.0933 Q1657.31 67.6629 1657.95 67.6629 Q1658.66 67.6629 1659.15 68.0933 Q1659.64 68.5236 1659.64 69.2697 Q1659.64 69.4131 1659.47 70.073 Q1659.32 70.7043 1659.09 71.6511 Q1658.86 72.598 1658.75 73.0858 L1656.28 82.956 Q1655.65 85.2514 1655.65 87.2312 Q1655.65 89.7274 1656.77 91.0473 Q1657.89 92.3384 1659.98 92.3384 Q1663.91 92.3384 1666.44 87.1738 Q1667.59 84.9358 1668.62 81.4353 Q1669.68 77.9348 1669.68 76.4141 Q1669.68 73.5448 1667.56 71.4216 Q1667.1 71.0199 1666.9 70.7043 Q1666.7 70.36 1666.7 69.8435 Q1666.7 68.868 1667.61 67.9498 Q1668.53 67.0316 1669.62 67.0316 Q1670.6 67.0316 1671.4 68.0072 Q1672.21 68.954 1672.21 71.1347 Z" fill="#000000" fill-rule="evenodd" fill-opacity="1" /><path clip-path="url(#clip300)" d="M1681.98 75.2798 Q1680.79 73.9271 1680.79 72.1646 Q1680.79 70.402 1681.94 69.0904 Q1683.13 67.7377 1685.26 67.7377 Q1687.76 67.7377 1689.19 70.1561 Q1690.63 72.5335 1690.63 76.5504 Q1690.63 80.8953 1688.87 84.9122 Q1687.1 88.9702 1685.38 90.8967 Q1683.66 92.8232 1682.96 92.8232 Q1682.14 92.8232 1682.14 91.9214 Q1682.14 91.5935 1682.72 90.9787 Q1688.74 84.5023 1688.78 76.5504 Q1688.78 75.2798 1688.62 75.2798 L1688.42 75.4437 Q1686.98 76.6324 1685.26 76.6324 Q1683.17 76.6324 1681.98 75.2798 Z" fill="#000000" fill-rule="evenodd" fill-opacity="1" /><path clip-path="url(#clip300)" d="M1761.51 42.4473 Q1761.51 45.3166 1757.41 45.3166 L1748.19 45.3166 Q1750.77 49.0056 1750.77 54.4572 Q1750.77 59.13 1748.84 63.5158 Q1746.96 67.8607 1743.93 70.8939 Q1740.93 73.9271 1737.16 75.7716 Q1733.39 77.5752 1729.7 77.5752 Q1724.09 77.5752 1720.6 73.7632 Q1717.12 69.9512 1717.12 64.2946 Q1717.12 61.3024 1718.14 57.9823 Q1719.21 54.6622 1721.22 51.588 Q1723.23 48.4728 1725.85 45.9724 Q1728.51 43.4721 1731.96 41.9555 Q1735.44 40.4389 1739.09 40.4389 L1758.23 40.4389 Q1759.26 40.4389 1759.79 40.5209 Q1760.36 40.5618 1760.94 41.0537 Q1761.51 41.5046 1761.51 42.4473 M1745.4 53.4735 Q1745.4 52.4897 1745.28 51.6289 Q1745.15 50.7272 1744.7 49.5385 Q1744.25 48.3088 1743.47 47.448 Q1742.7 46.5463 1741.18 45.9314 Q1739.7 45.3166 1737.69 45.3166 Q1734.87 45.3166 1731.75 46.8742 Q1728.64 48.4318 1726.26 52.2848 Q1724.29 55.5639 1723.31 59.8268 Q1722.32 64.0897 1722.32 66.631 Q1722.32 70.9759 1724.41 73.3533 Q1726.55 75.6897 1729.78 75.6897 Q1732.45 75.6897 1735.48 73.8861 Q1738.51 72.0416 1740.85 68.5575 Q1742.9 65.5243 1744.13 61.0975 Q1745.4 56.6706 1745.4 53.4735 Z" fill="#000000" fill-rule="evenodd" fill-opacity="1" /><path clip-path="url(#clip300)" d="M1794.94 67.6055 Q1794.94 67.8063 1794.45 68.6671 Q1793.99 69.4992 1792.3 71.5937 Q1790.6 73.6883 1788.08 76.1272 Q1787.13 77.074 1785.7 78.3939 Q1784.26 79.7137 1783.29 80.5745 L1782.31 81.4353 Q1778.58 84.5914 1775.31 88.1206 Q1775.54 88.0345 1775.94 88.0058 Q1776.34 87.9485 1776.63 87.9485 L1776.92 87.9485 Q1778.41 87.9485 1781.02 88.9527 Q1783.32 89.6987 1784.49 89.6987 Q1785.64 89.6987 1786.9 89.297 Q1788.17 88.8953 1789.54 87.7189 Q1790.92 86.5425 1791.55 84.7636 Q1791.67 84.4767 1791.72 84.3906 Q1791.78 84.2758 1791.95 84.1611 Q1792.12 84.0176 1792.35 84.0176 Q1792.67 84.0176 1792.87 84.1897 Q1793.07 84.3619 1793.07 84.5914 Q1793.07 85.1079 1792.67 86.1408 Q1792.3 87.1738 1791.46 88.4649 Q1790.66 89.7561 1789.6 90.9325 Q1788.57 92.0802 1787.02 92.8836 Q1785.47 93.6583 1783.83 93.6583 Q1782.66 93.6583 1781.8 93.0844 Q1780.93 92.5393 1780.07 91.4776 Q1778.9 90.1291 1778.27 89.6987 Q1777.63 89.2396 1776.66 89.2396 Q1774.05 89.2396 1771.67 92.8836 Q1771.41 93.4 1771.24 93.5148 Q1771.09 93.6583 1770.75 93.6583 Q1770.03 93.6296 1770.03 93.0557 Q1770.03 92.8262 1770.66 91.822 Q1771.32 90.789 1772.79 88.9814 Q1774.28 87.1738 1776.09 85.3661 L1781.36 80.431 Q1787.22 75.4959 1789.54 72.7128 Q1788.57 72.7128 1788.14 72.6841 Q1787.73 72.6554 1786.93 72.4832 Q1786.13 72.2824 1785.01 71.852 Q1782.4 70.9625 1781.31 70.9625 Q1781.02 70.9625 1780.71 70.9912 Q1780.39 71.0199 1779.67 71.1634 Q1778.98 71.3068 1778.41 71.5937 Q1777.84 71.852 1777.23 72.4258 Q1776.63 72.971 1776.32 73.717 Q1776.23 73.9465 1776.17 74.0613 Q1776.11 74.1761 1775.94 74.2908 Q1775.8 74.3769 1775.57 74.3769 Q1775.22 74.3769 1775.02 74.1761 Q1774.85 73.9752 1774.85 73.717 Q1774.85 73.2005 1775.37 72.1389 Q1775.88 71.0773 1776.75 69.9296 Q1777.61 68.7532 1779.01 67.8924 Q1780.42 67.0316 1781.97 67.0316 Q1782.89 67.0316 1783.66 67.4333 Q1784.46 67.835 1784.87 68.2654 Q1785.3 68.6671 1786.01 69.5566 Q1786.62 70.2452 1786.9 70.5321 Q1787.19 70.819 1787.76 71.1347 Q1788.37 71.4216 1789.03 71.4216 Q1790.12 71.4216 1791.12 70.5895 Q1792.12 69.7287 1793.42 67.6629 Q1793.76 67.0316 1794.31 67.0316 Q1794.94 67.0316 1794.94 67.6055 Z" fill="#000000" fill-rule="evenodd" fill-opacity="1" /><path clip-path="url(#clip300)" d="M1826.95 63.8847 Q1827.03 62.86 1828.63 62.86 L1880.07 62.86 Q1882.49 62.86 1882.53 63.8028 Q1882.53 64.8275 1880.23 64.7865 L1829.2 64.7865 Q1826.95 64.8275 1826.95 63.8847 M1826.95 47.489 Q1826.95 46.4643 1828.71 46.5053 L1879.99 46.5053 Q1882.49 46.5053 1882.53 47.489 Q1882.53 48.4318 1880.4 48.4318 L1828.63 48.4318 Q1826.95 48.4318 1826.95 47.489 Z" fill="#000000" fill-rule="evenodd" fill-opacity="1" /><path clip-path="url(#clip300)" d="M1914.91 49.7844 Q1914.91 37.4467 1918.02 30.7244 Q1922.37 20.723 1932.61 20.723 Q1934.79 20.723 1937.04 21.3379 Q1939.34 21.9117 1942.2 24.1661 Q1945.12 26.4205 1946.88 30.1096 Q1950.24 37.2417 1950.24 49.7844 Q1950.24 62.0402 1947.12 68.7215 Q1942.57 78.4769 1932.53 78.4769 Q1928.76 78.4769 1924.91 76.5504 Q1921.1 74.6239 1918.68 69.9921 Q1914.91 63.065 1914.91 49.7844 M1921.87 48.7597 Q1921.87 61.4254 1922.78 66.4671 Q1923.8 71.9186 1926.59 74.296 Q1929.42 76.6324 1932.53 76.6324 Q1935.89 76.6324 1938.68 74.1321 Q1941.51 71.5907 1942.37 66.1392 Q1943.31 60.7696 1943.27 48.7597 Q1943.27 37.0778 1942.45 32.405 Q1941.34 26.9534 1938.39 24.781 Q1935.48 22.5675 1932.53 22.5675 Q1931.42 22.5675 1930.24 22.8955 Q1929.09 23.2234 1927.41 24.1661 Q1925.73 25.1089 1924.42 27.4453 Q1923.14 29.7817 1922.53 33.3067 Q1921.87 37.8565 1921.87 48.7597 Z" fill="#000000" fill-rule="evenodd" fill-opacity="1" /><path clip-path="url(#clip300)" d="M1957.75 75.2798 Q1956.48 73.9271 1956.48 72.1646 Q1956.48 70.402 1957.75 69.1314 Q1959.02 67.8197 1960.94 67.8197 Q1962.79 67.8197 1964.02 69.0494 Q1965.29 70.2381 1965.29 72.2056 Q1965.29 74.1321 1963.94 75.4027 Q1962.62 76.6324 1960.94 76.6324 Q1959.02 76.6324 1957.75 75.2798 Z" fill="#000000" fill-rule="evenodd" fill-opacity="1" /><path clip-path="url(#clip300)" d="M1979.58 76.6324 Q1979.58 75.1158 1979.7 74.6649 Q1979.86 74.214 1980.52 73.5172 L1996.63 55.5639 Q2005.44 45.6445 2005.44 36.9958 Q2005.44 31.3802 2002.49 27.3633 Q1999.58 23.3463 1994.21 23.3463 Q1990.52 23.3463 1987.4 25.6008 Q1984.29 27.8552 1982.85 31.8721 Q1983.1 31.7901 1983.96 31.7901 Q1986.05 31.7901 1987.2 33.1018 Q1988.39 34.4134 1988.39 36.176 Q1988.39 38.4304 1986.91 39.5371 Q1985.48 40.6028 1984.04 40.6028 Q1983.47 40.6028 1982.69 40.4799 Q1981.95 40.3569 1980.76 39.2092 Q1979.58 38.0205 1979.58 35.9301 Q1979.58 30.0686 1984 25.3958 Q1988.47 20.723 1995.27 20.723 Q2002.98 20.723 2008.02 25.3138 Q2013.1 29.8636 2013.1 36.9958 Q2013.1 39.4961 2012.33 41.7915 Q2011.59 44.0459 2010.56 45.8085 Q2009.58 47.571 2006.87 50.3993 Q2004.17 53.2275 2002 55.236 Q1999.82 57.2445 1994.95 61.5074 L1986.05 70.1561 L2001.18 70.1561 Q2008.55 70.1561 2009.13 69.5003 Q2009.95 68.3116 2010.97 62.0402 L2013.1 62.0402 L2010.73 76.6324 L1979.58 76.6324 Z" fill="#000000" fill-rule="evenodd" fill-opacity="1" /><path clip-path="url(#clip300)" d="M2021.48 63.1059 Q2021.48 60.6056 2022.83 59.6628 Q2024.19 58.6791 2025.62 58.6791 Q2027.55 58.6791 2028.65 59.9088 Q2029.8 61.0975 2029.8 62.778 Q2029.8 64.4586 2028.65 65.6883 Q2027.55 66.877 2025.62 66.877 Q2024.68 66.877 2024.19 66.713 Q2025.29 70.566 2028.65 73.3533 Q2032.06 76.1405 2036.52 76.1405 Q2042.14 76.1405 2045.5 70.689 Q2047.51 67.1639 2047.51 59.171 Q2047.51 52.1208 2045.99 48.5957 Q2043.66 43.2261 2038.86 43.2261 Q2032.06 43.2261 2028.04 49.0876 Q2027.55 49.8254 2026.97 49.8664 Q2026.15 49.8664 2025.95 49.4155 Q2025.79 48.9237 2025.79 47.653 L2025.79 22.8135 Q2025.79 20.805 2026.61 20.805 Q2026.93 20.805 2027.63 21.0509 Q2032.92 23.3873 2038.78 23.4283 Q2044.8 23.4283 2050.22 20.969 Q2050.63 20.723 2050.87 20.723 Q2051.69 20.723 2051.73 21.6658 Q2051.73 21.9937 2051.03 22.9774 Q2050.38 23.9202 2048.94 25.1909 Q2047.51 26.4205 2045.67 27.6092 Q2043.82 28.7979 2041.12 29.6177 Q2038.45 30.3965 2035.5 30.3965 Q2031.97 30.3965 2028.37 29.2898 L2028.37 45.6445 Q2032.71 41.3816 2039.03 41.3816 Q2045.75 41.3816 2050.38 46.7922 Q2055.01 52.2028 2055.01 59.7448 Q2055.01 67.6558 2049.52 73.0663 Q2044.07 78.4769 2036.69 78.4769 Q2029.97 78.4769 2025.7 73.6812 Q2021.48 68.8854 2021.48 63.1059 Z" fill="#000000" fill-rule="evenodd" fill-opacity="1" /><polyline clip-path="url(#clip302)" style="stroke:#009af9; stroke-linecap:butt; stroke-linejoin:round; stroke-width:4; stroke-opacity:1; fill:none" points="
  327.552,329.162 337.483,450.725 347.413,425.059 357.344,496.356 367.274,544.4 377.204,547.241 387.135,597.528 397.065,562.79 406.996,569.45 416.926,640.716 
  426.856,590.043 436.787,610.834 446.717,618.329 456.647,670.64 466.578,670.817 476.508,671.166 486.439,710.672 496.369,713.514 506.299,732.417 516.23,742.861 
  526.16,696.303 536.091,683.435 546.021,704.158 555.951,751.88 565.882,741.857 575.812,789.071 585.743,775.838 595.673,761.45 605.603,773.986 615.534,745.666 
  625.464,731.69 635.394,749.253 645.325,723.772 655.255,766.628 665.186,740.752 675.116,756.718 685.046,746.738 694.977,814.689 704.907,750.17 714.838,763.429 
  724.768,790.745 734.698,815.199 744.629,755.879 754.559,814.804 764.49,822.464 774.42,774.376 784.35,720.032 794.281,866.624 804.211,785.168 814.141,796.058 
  824.072,813.891 834.002,818.499 843.933,842.007 853.863,854.836 863.793,822.476 873.724,753.703 883.654,826.935 893.585,840.365 903.515,867.85 913.445,870.69 
  923.376,858.46 933.306,868.724 943.237,843.013 953.167,827.606 963.097,867.304 973.028,839.401 982.958,931.046 992.888,857.61 1002.82,851.183 1012.75,867.131 
  1022.68,840.555 1032.61,900.594 1042.54,927.106 1052.47,881.298 1062.4,820.794 1072.33,908.1 1082.26,867.195 1092.19,919.664 1102.12,878.16 1112.05,865.483 
  1121.98,917.609 1131.91,957.933 1141.84,901.989 1151.77,908.461 1161.71,908.294 1171.64,934.749 1181.57,915.589 1191.5,881.611 1201.43,958.078 1211.36,882.988 
  1221.29,945.511 1231.22,939.025 1241.15,932.353 1251.08,879.318 1261.01,840.392 1270.94,879.892 1280.87,964.175 1290.8,931.516 1300.73,911.608 1310.66,943.465 
  1320.59,955.255 1330.52,942.325 1340.45,938.444 1350.38,918.846 1360.31,926.084 1370.24,909.189 1380.17,902.95 1390.1,848.956 1400.03,954.585 1409.96,874.061 
  1419.9,916.497 1429.83,928.283 1439.76,969.933 1449.69,901.73 1459.62,987.801 1469.55,918.325 1479.48,914.676 1489.41,944.757 1499.34,952.261 1509.27,949.922 
  1519.2,967.015 1529.13,962.596 1539.06,922.962 1548.99,923.969 1558.92,945.769 1568.85,945.712 1578.78,930.169 1588.71,927.741 1598.64,944.28 1608.57,935.739 
  1618.5,915.557 1628.43,911.55 1638.36,929.421 1648.29,941.212 1658.22,968.911 1668.15,978.71 1678.09,961.948 1688.02,971.338 1697.95,965.056 1707.88,885.906 
  1717.81,953.475 1727.74,912.483 1737.67,984.291 1747.6,942.429 1757.53,1004.49 1767.46,958.32 1777.39,974.308 1787.32,881.394 1797.25,990.958 1807.18,965.03 
  1817.11,979.692 1827.04,980.958 1836.97,1029.9 1846.9,971.89 1856.83,963.727 1866.76,1030.9 1876.69,938.973 1886.62,950.646 1896.55,970.497 1906.48,943.597 
  1916.41,1012.72 1926.35,959.321 1936.28,969.005 1946.21,959.601 1956.14,941.506 1966.07,965.675 1976,969.693 1985.93,940.856 1995.86,963.214 2005.79,1018.12 
  2015.72,1003.09 2025.65,960.208 2035.58,1017.28 2045.51,941.601 2055.44,903.62 2065.37,978.785 2075.3,1002.57 2085.23,986.664 2095.16,1038.52 2105.09,968.936 
  2115.02,979.337 2124.95,921.563 2134.88,976.689 2144.81,993.505 2154.74,999.023 2164.67,992.038 2174.6,999.101 2184.54,1010 2194.47,970.109 2204.4,1018.75 
  2214.33,1010.99 2224.26,1022.49 2234.19,990.341 2244.12,1003.7 2254.05,998.375 2263.98,1020.17 2273.91,1024.83 2283.84,995.015 2293.77,1032.57 
  "/>
<polyline clip-path="url(#clip302)" style="stroke:#e26f46; stroke-linecap:butt; stroke-linejoin:round; stroke-width:4; stroke-opacity:1; fill:none" points="
  327.552,602.801 337.483,729.034 347.413,730.779 357.344,794.092 367.274,845.513 377.204,826.602 387.135,889.326 397.065,871.236 406.996,900.783 416.926,965.283 
  426.856,934.252 436.787,932.576 446.717,937.487 456.647,951.977 466.578,984.825 476.508,956.826 486.439,987.428 496.369,1024.93 506.299,1060.38 516.23,1067 
  526.16,996.865 536.091,974.765 546.021,1022.8 555.951,1047.51 565.882,1048.37 575.812,1055.82 585.743,1064.81 595.673,1055.66 605.603,1081.66 615.534,1046.48 
  625.464,1030.33 635.394,1032.8 645.325,1021.35 655.255,1090.07 665.186,1058.12 675.116,1035.16 685.046,1095.03 694.977,1123.89 704.907,1056.93 714.838,1050.16 
  724.768,1092.69 734.698,1126.02 744.629,1123.16 754.559,1116.33 764.49,1133.73 774.42,1098.9 784.35,1019.17 794.281,1167.11 804.211,1081.22 814.141,1101.82 
  824.072,1099.7 834.002,1144.56 843.933,1139.86 853.863,1133.78 863.793,1121.23 873.724,1115.45 883.654,1140.87 893.585,1094.91 903.515,1194.53 913.445,1182.86 
  923.376,1122.41 933.306,1183.82 943.237,1161.74 953.167,1130.18 963.097,1191.19 973.028,1143.42 982.958,1234.19 992.888,1176.69 1002.82,1190.27 1012.75,1179.68 
  1022.68,1135.49 1032.61,1210.31 1042.54,1215.93 1052.47,1163.46 1062.4,1135.83 1072.33,1220.15 1082.26,1181.73 1092.19,1220.08 1102.12,1160.43 1112.05,1150.34 
  1121.98,1240.06 1131.91,1278.29 1141.84,1206.59 1151.77,1203.29 1161.71,1202.63 1171.64,1252.87 1181.57,1209.3 1191.5,1175.74 1201.43,1268.96 1211.36,1198.87 
  1221.29,1247.65 1231.22,1244.85 1241.15,1244.62 1251.08,1192.18 1261.01,1139.76 1270.94,1136.53 1280.87,1238.88 1290.8,1231.97 1300.73,1204.87 1310.66,1255.62 
  1320.59,1215.94 1330.52,1207.89 1340.45,1238.2 1350.38,1227.87 1360.31,1196.01 1370.24,1233.55 1380.17,1229.41 1390.1,1202.32 1400.03,1287.61 1409.96,1193.91 
  1419.9,1201.25 1429.83,1242 1439.76,1299.89 1449.69,1218.85 1459.62,1287.02 1469.55,1225.59 1479.48,1246.5 1489.41,1207.8 1499.34,1274.41 1509.27,1277.41 
  1519.2,1249.7 1529.13,1271.1 1539.06,1219.73 1548.99,1232.83 1558.92,1232.52 1568.85,1270.07 1578.78,1214.74 1588.71,1252.91 1598.64,1263.4 1608.57,1192.93 
  1618.5,1223.54 1628.43,1272.71 1638.36,1253.54 1648.29,1222.02 1658.22,1268.37 1668.15,1306.58 1678.09,1285.39 1688.02,1273.81 1697.95,1289.87 1707.88,1190.64 
  1717.81,1253.71 1727.74,1260.23 1737.67,1280.31 1747.6,1250.5 1757.53,1323.16 1767.46,1250.23 1777.39,1271.86 1787.32,1214.91 1797.25,1321.71 1807.18,1274.52 
  1817.11,1252.66 1827.04,1273.42 1836.97,1335.51 1846.9,1281.09 1856.83,1310.92 1866.76,1347.11 1876.69,1271.71 1886.62,1260.9 1896.55,1281.25 1906.48,1265.79 
  1916.41,1321.16 1926.35,1259.21 1936.28,1287.22 1946.21,1291.14 1956.14,1271.53 1966.07,1311.52 1976,1242.45 1985.93,1267.72 1995.86,1288.4 2005.79,1339.4 
  2015.72,1304.28 2025.65,1263.26 2035.58,1296.39 2045.51,1204.17 2055.44,1249.32 2065.37,1293.02 2075.3,1333.12 2085.23,1296.61 2095.16,1374.46 2105.09,1251.44 
  2115.02,1296.57 2124.95,1251.43 2134.88,1310.17 2144.81,1302.59 2154.74,1303.97 2164.67,1314.98 2174.6,1315.13 2184.54,1290.26 2194.47,1320.22 2204.4,1340.35 
  2214.33,1326.4 2224.26,1328.47 2234.19,1326.47 2244.12,1329.94 2254.05,1298.1 2263.98,1312.19 2273.91,1338.32 2283.84,1325.9 2293.77,1303.12 
  "/>
<polyline clip-path="url(#clip302)" style="stroke:#3da44d; stroke-linecap:butt; stroke-linejoin:round; stroke-width:4; stroke-opacity:1; fill:none" points="
  327.552,159.909 337.483,450.092 347.413,517.063 357.344,633.205 367.274,665.028 377.204,711.786 387.135,820.051 397.065,771.633 406.996,806.156 416.926,862.891 
  426.856,783.622 436.787,863.456 446.717,844.973 456.647,882.063 466.578,924.215 476.508,918.389 486.439,936.356 496.369,986.296 506.299,1039.13 516.23,1019.52 
  526.16,959.592 536.091,931.46 546.021,1005.04 555.951,1020.22 565.882,1017.9 575.812,1038.82 585.743,1030.48 595.673,1024.79 605.603,1048.01 615.534,998.217 
  625.464,991.246 635.394,1001.77 645.325,993.197 655.255,1079.14 665.186,1024.01 675.116,1022.21 685.046,1056.82 694.977,1118 704.907,1032.79 714.838,1034.45 
  724.768,1070.08 734.698,1100.62 744.629,1091.21 754.559,1096.3 764.49,1135.69 774.42,1100.53 784.35,1014.56 794.281,1153.14 804.211,1062.31 814.141,1086.67 
  824.072,1102.91 834.002,1110.78 843.933,1139.88 853.863,1128.6 863.793,1108.69 873.724,1118.45 883.654,1138.38 893.585,1104.52 903.515,1178.25 913.445,1180.8 
  923.376,1108.23 933.306,1175.28 943.237,1174.58 953.167,1133.07 963.097,1188.57 973.028,1134.89 982.958,1220.64 992.888,1179.99 1002.82,1182.08 1012.75,1161.64 
  1022.68,1148.53 1032.61,1202.72 1042.54,1206.97 1052.47,1154.68 1062.4,1138.24 1072.33,1217.69 1082.26,1173.14 1092.19,1219.66 1102.12,1169.53 1112.05,1156.65 
  1121.98,1239.75 1131.91,1265.75 1141.84,1198.29 1151.77,1204.83 1161.71,1200.78 1171.64,1250.6 1181.57,1202.74 1191.5,1162.97 1201.43,1270.78 1211.36,1185.21 
  1221.29,1253.23 1231.22,1232.78 1241.15,1248.65 1251.08,1202.56 1261.01,1148.91 1270.94,1136 1280.87,1227.8 1290.8,1235.56 1300.73,1191.25 1310.66,1251.88 
  1320.59,1215.86 1330.52,1212.61 1340.45,1229.69 1350.38,1222.13 1360.31,1197.12 1370.24,1224.62 1380.17,1228.44 1390.1,1185.28 1400.03,1295.88 1409.96,1212.42 
  1419.9,1211.83 1429.83,1244.34 1439.76,1297.39 1449.69,1219.32 1459.62,1291.66 1469.55,1224.3 1479.48,1249.08 1489.41,1213.73 1499.34,1269.6 1509.27,1276.74 
  1519.2,1260.4 1529.13,1265.73 1539.06,1233.75 1548.99,1233.84 1558.92,1240.9 1568.85,1263.99 1578.78,1215.01 1588.71,1249.18 1598.64,1266.39 1608.57,1203.94 
  1618.5,1232.92 1628.43,1267.23 1638.36,1270.66 1648.29,1231.76 1658.22,1278.49 1668.15,1304.98 1678.09,1278.38 1688.02,1265.05 1697.95,1297.62 1707.88,1211.24 
  1717.81,1256.95 1727.74,1261.21 1737.67,1283.23 1747.6,1255.23 1757.53,1327.85 1767.46,1260.72 1777.39,1268.6 1787.32,1216.24 1797.25,1335.63 1807.18,1276.91 
  1817.11,1263.48 1827.04,1274.25 1836.97,1346.11 1846.9,1283.93 1856.83,1318.47 1866.76,1361.85 1876.69,1273.45 1886.62,1279.86 1896.55,1288.09 1906.48,1261.49 
  1916.41,1323.87 1926.35,1262.52 1936.28,1283.35 1946.21,1299.44 1956.14,1285.09 1966.07,1308.47 1976,1279.43 1985.93,1291.4 1995.86,1289.66 2005.79,1331.08 
  2015.72,1307.78 2025.65,1262.29 2035.58,1335.42 2045.51,1225.06 2055.44,1258.67 2065.37,1299.87 2075.3,1335.32 2085.23,1310.4 2095.16,1372.75 2105.09,1252.74 
  2115.02,1298.71 2124.95,1252.57 2134.88,1313.8 2144.81,1310.82 2154.74,1313.64 2164.67,1318.2 2174.6,1322.42 2184.54,1291.63 2194.47,1331.42 2204.4,1356.8 
  2214.33,1329.25 2224.26,1338.56 2234.19,1340.21 2244.12,1338.99 2254.05,1306.89 2263.98,1304.17 2273.91,1347.63 2283.84,1325.65 2293.77,1317.24 
  "/>
<path clip-path="url(#clip300)" d="
M1963.19 373.746 L2283.28 373.746 L2283.28 166.386 L1963.19 166.386  Z
  " fill="#ffffff" fill-rule="evenodd" fill-opacity="1"/>
<polyline clip-path="url(#clip300)" style="stroke:#000000; stroke-linecap:butt; stroke-linejoin:round; stroke-width:4; stroke-opacity:1; fill:none" points="
  1963.19,373.746 2283.28,373.746 2283.28,166.386 1963.19,166.386 1963.19,373.746 
  "/>
<polyline clip-path="url(#clip300)" style="stroke:#009af9; stroke-linecap:butt; stroke-linejoin:round; stroke-width:4; stroke-opacity:1; fill:none" points="
  1986.35,218.226 2125.29,218.226 
  "/>
<path clip-path="url(#clip300)" d="M2161.85 222.474 Q2156.69 222.474 2154.7 223.654 Q2152.71 224.835 2152.71 227.682 Q2152.71 229.951 2154.19 231.293 Q2155.69 232.613 2158.26 232.613 Q2161.81 232.613 2163.94 230.113 Q2166.09 227.59 2166.09 223.423 L2166.09 222.474 L2161.85 222.474 M2170.35 220.715 L2170.35 235.506 L2166.09 235.506 L2166.09 231.571 Q2164.63 233.932 2162.45 235.066 Q2160.28 236.178 2157.13 236.178 Q2153.15 236.178 2150.79 233.955 Q2148.45 231.71 2148.45 227.96 Q2148.45 223.585 2151.37 221.363 Q2154.31 219.141 2160.12 219.141 L2166.09 219.141 L2166.09 218.724 Q2166.09 215.784 2164.14 214.187 Q2162.22 212.567 2158.73 212.567 Q2156.51 212.567 2154.4 213.099 Q2152.29 213.631 2150.35 214.696 L2150.35 210.761 Q2152.69 209.858 2154.88 209.418 Q2157.08 208.955 2159.17 208.955 Q2164.79 208.955 2167.57 211.872 Q2170.35 214.789 2170.35 220.715 Z" fill="#000000" fill-rule="evenodd" fill-opacity="1" /><path clip-path="url(#clip300)" d="M2176.07 209.58 L2180.58 209.58 L2188.68 231.34 L2196.78 209.58 L2201.3 209.58 L2191.57 235.506 L2185.79 235.506 L2176.07 209.58 Z" fill="#000000" fill-rule="evenodd" fill-opacity="1" /><path clip-path="url(#clip300)" d="M2224.24 222.242 Q2224.24 217.613 2222.31 215.067 Q2220.42 212.52 2216.97 212.52 Q2213.54 212.52 2211.62 215.067 Q2209.72 217.613 2209.72 222.242 Q2209.72 226.849 2211.62 229.395 Q2213.54 231.941 2216.97 231.941 Q2220.42 231.941 2222.31 229.395 Q2224.24 226.849 2224.24 222.242 M2228.5 232.289 Q2228.5 238.909 2225.56 242.127 Q2222.62 245.367 2216.55 245.367 Q2214.31 245.367 2212.31 245.02 Q2210.32 244.696 2208.45 244.002 L2208.45 239.858 Q2210.32 240.877 2212.15 241.363 Q2213.98 241.849 2215.88 241.849 Q2220.07 241.849 2222.15 239.65 Q2224.24 237.474 2224.24 233.053 L2224.24 230.946 Q2222.92 233.238 2220.86 234.372 Q2218.8 235.506 2215.93 235.506 Q2211.16 235.506 2208.24 231.872 Q2205.32 228.238 2205.32 222.242 Q2205.32 216.224 2208.24 212.59 Q2211.16 208.955 2215.93 208.955 Q2218.8 208.955 2220.86 210.09 Q2222.92 211.224 2224.24 213.516 L2224.24 209.58 L2228.5 209.58 L2228.5 232.289 Z" fill="#000000" fill-rule="evenodd" fill-opacity="1" /><polyline clip-path="url(#clip300)" style="stroke:#e26f46; stroke-linecap:butt; stroke-linejoin:round; stroke-width:4; stroke-opacity:1; fill:none" points="
  1986.35,270.066 2125.29,270.066 
  "/>
<path clip-path="url(#clip300)" d="M2164.47 255.958 Q2159.38 255.958 2156.37 259.754 Q2153.38 263.55 2153.38 270.101 Q2153.38 276.629 2156.37 280.425 Q2159.38 284.221 2164.47 284.221 Q2169.56 284.221 2172.52 280.425 Q2175.51 276.629 2175.51 270.101 Q2175.51 263.55 2172.52 259.754 Q2169.56 255.958 2164.47 255.958 M2164.47 252.161 Q2171.74 252.161 2176.09 257.046 Q2180.44 261.907 2180.44 270.101 Q2180.44 278.272 2176.09 283.156 Q2171.74 288.018 2164.47 288.018 Q2157.18 288.018 2152.8 283.156 Q2148.45 278.295 2148.45 270.101 Q2148.45 261.907 2152.8 257.046 Q2157.18 252.161 2164.47 252.161 Z" fill="#000000" fill-rule="evenodd" fill-opacity="1" /><path clip-path="url(#clip300)" d="M2187.75 252.786 L2192.43 252.786 L2192.43 283.411 L2209.26 283.411 L2209.26 287.346 L2187.75 287.346 L2187.75 252.786 Z" fill="#000000" fill-rule="evenodd" fill-opacity="1" /><path clip-path="url(#clip300)" d="M2234.88 253.921 L2234.88 258.481 Q2232.22 257.208 2229.86 256.583 Q2227.5 255.958 2225.3 255.958 Q2221.48 255.958 2219.4 257.439 Q2217.34 258.921 2217.34 261.652 Q2217.34 263.944 2218.7 265.124 Q2220.09 266.282 2223.94 266.999 L2226.76 267.578 Q2231.99 268.573 2234.47 271.096 Q2236.97 273.596 2236.97 277.809 Q2236.97 282.832 2233.59 285.425 Q2230.23 288.018 2223.73 288.018 Q2221.27 288.018 2218.5 287.462 Q2215.74 286.906 2212.78 285.819 L2212.78 281.004 Q2215.63 282.601 2218.36 283.411 Q2221.09 284.221 2223.73 284.221 Q2227.73 284.221 2229.91 282.647 Q2232.08 281.073 2232.08 278.157 Q2232.08 275.61 2230.51 274.175 Q2228.96 272.74 2225.39 272.022 L2222.55 271.467 Q2217.31 270.425 2214.98 268.203 Q2212.64 265.981 2212.64 262.022 Q2212.64 257.439 2215.86 254.8 Q2219.1 252.161 2224.77 252.161 Q2227.2 252.161 2229.72 252.601 Q2232.25 253.041 2234.88 253.921 Z" fill="#000000" fill-rule="evenodd" fill-opacity="1" /><polyline clip-path="url(#clip300)" style="stroke:#3da44d; stroke-linecap:butt; stroke-linejoin:round; stroke-width:4; stroke-opacity:1; fill:none" points="
  1986.35,321.906 2125.29,321.906 
  "/>
<path clip-path="url(#clip300)" d="M2153.13 308.469 L2153.13 321.455 L2159.01 321.455 Q2162.27 321.455 2164.05 319.765 Q2165.83 318.075 2165.83 314.95 Q2165.83 311.848 2164.05 310.159 Q2162.27 308.469 2159.01 308.469 L2153.13 308.469 M2148.45 304.626 L2159.01 304.626 Q2164.82 304.626 2167.78 307.265 Q2170.76 309.881 2170.76 314.95 Q2170.76 320.066 2167.78 322.682 Q2164.82 325.297 2159.01 325.297 L2153.13 325.297 L2153.13 339.186 L2148.45 339.186 L2148.45 304.626 Z" fill="#000000" fill-rule="evenodd" fill-opacity="1" /><path clip-path="url(#clip300)" d="M2177.04 304.626 L2181.71 304.626 L2181.71 335.251 L2198.54 335.251 L2198.54 339.186 L2177.04 339.186 L2177.04 304.626 Z" fill="#000000" fill-rule="evenodd" fill-opacity="1" /><path clip-path="url(#clip300)" d="M2224.17 305.761 L2224.17 310.321 Q2221.5 309.048 2219.14 308.423 Q2216.78 307.798 2214.58 307.798 Q2210.76 307.798 2208.68 309.279 Q2206.62 310.761 2206.62 313.492 Q2206.62 315.784 2207.99 316.964 Q2209.38 318.122 2213.22 318.839 L2216.04 319.418 Q2221.27 320.413 2223.75 322.936 Q2226.25 325.436 2226.25 329.649 Q2226.25 334.672 2222.87 337.265 Q2219.51 339.858 2213.01 339.858 Q2210.56 339.858 2207.78 339.302 Q2205.02 338.746 2202.06 337.659 L2202.06 332.844 Q2204.91 334.441 2207.64 335.251 Q2210.37 336.061 2213.01 336.061 Q2217.01 336.061 2219.19 334.487 Q2221.37 332.913 2221.37 329.997 Q2221.37 327.45 2219.79 326.015 Q2218.24 324.58 2214.68 323.862 L2211.83 323.307 Q2206.6 322.265 2204.26 320.043 Q2201.92 317.821 2201.92 313.862 Q2201.92 309.279 2205.14 306.64 Q2208.38 304.001 2214.05 304.001 Q2216.48 304.001 2219 304.441 Q2221.53 304.881 2224.17 305.761 Z" fill="#000000" fill-rule="evenodd" fill-opacity="1" /></svg>
