<?xml version="1.0" encoding="utf-8"?>
<svg xmlns="http://www.w3.org/2000/svg" xmlns:xlink="http://www.w3.org/1999/xlink" width="600" height="400" viewBox="0 0 2400 1600">
<defs>
  <clipPath id="clip860">
    <rect x="0" y="0" width="2400" height="1600"/>
  </clipPath>
</defs>
<path clip-path="url(#clip860)" d="
M0 1600 L2400 1600 L2400 0 L0 0  Z
  " fill="#ffffff" fill-rule="evenodd" fill-opacity="1"/>
<defs>
  <clipPath id="clip861">
    <rect x="480" y="0" width="1681" height="1600"/>
  </clipPath>
</defs>
<path clip-path="url(#clip860)" d="
M238.831 1410.9 L2352.76 1410.9 L2352.76 123.472 L238.831 123.472  Z
  " fill="#ffffff" fill-rule="evenodd" fill-opacity="1"/>
<defs>
  <clipPath id="clip862">
    <rect x="238" y="123" width="2115" height="1288"/>
  </clipPath>
</defs>
<polyline clip-path="url(#clip862)" style="stroke:#000000; stroke-linecap:butt; stroke-linejoin:round; stroke-width:2; stroke-opacity:0.1; fill:none" points="
  278.515,1410.9 278.515,123.472 
  "/>
<polyline clip-path="url(#clip862)" style="stroke:#000000; stroke-linecap:butt; stroke-linejoin:round; stroke-width:2; stroke-opacity:0.1; fill:none" points="
  782.118,1410.9 782.118,123.472 
  "/>
<polyline clip-path="url(#clip862)" style="stroke:#000000; stroke-linecap:butt; stroke-linejoin:round; stroke-width:2; stroke-opacity:0.1; fill:none" points="
  1285.72,1410.9 1285.72,123.472 
  "/>
<polyline clip-path="url(#clip862)" style="stroke:#000000; stroke-linecap:butt; stroke-linejoin:round; stroke-width:2; stroke-opacity:0.1; fill:none" points="
  1789.32,1410.9 1789.32,123.472 
  "/>
<polyline clip-path="url(#clip862)" style="stroke:#000000; stroke-linecap:butt; stroke-linejoin:round; stroke-width:2; stroke-opacity:0.1; fill:none" points="
  2292.93,1410.9 2292.93,123.472 
  "/>
<polyline clip-path="url(#clip860)" style="stroke:#000000; stroke-linecap:butt; stroke-linejoin:round; stroke-width:4; stroke-opacity:1; fill:none" points="
  238.831,1410.9 2352.76,1410.9 
  "/>
<polyline clip-path="url(#clip860)" style="stroke:#000000; stroke-linecap:butt; stroke-linejoin:round; stroke-width:4; stroke-opacity:1; fill:none" points="
  278.515,1410.9 278.515,1392 
  "/>
<polyline clip-path="url(#clip860)" style="stroke:#000000; stroke-linecap:butt; stroke-linejoin:round; stroke-width:4; stroke-opacity:1; fill:none" points="
  782.118,1410.9 782.118,1392 
  "/>
<polyline clip-path="url(#clip860)" style="stroke:#000000; stroke-linecap:butt; stroke-linejoin:round; stroke-width:4; stroke-opacity:1; fill:none" points="
  1285.72,1410.9 1285.72,1392 
  "/>
<polyline clip-path="url(#clip860)" style="stroke:#000000; stroke-linecap:butt; stroke-linejoin:round; stroke-width:4; stroke-opacity:1; fill:none" points="
  1789.32,1410.9 1789.32,1392 
  "/>
<polyline clip-path="url(#clip860)" style="stroke:#000000; stroke-linecap:butt; stroke-linejoin:round; stroke-width:4; stroke-opacity:1; fill:none" points="
  2292.93,1410.9 2292.93,1392 
  "/>
<path clip-path="url(#clip860)" d="M278.515 1441.82 Q274.904 1441.82 273.075 1445.38 Q271.269 1448.92 271.269 1456.05 Q271.269 1463.16 273.075 1466.72 Q274.904 1470.26 278.515 1470.26 Q282.149 1470.26 283.955 1466.72 Q285.783 1463.16 285.783 1456.05 Q285.783 1448.92 283.955 1445.38 Q282.149 1441.82 278.515 1441.82 M278.515 1438.11 Q284.325 1438.11 287.38 1442.72 Q290.459 1447.3 290.459 1456.05 Q290.459 1464.78 287.38 1469.38 Q284.325 1473.97 278.515 1473.97 Q272.705 1473.97 269.626 1469.38 Q266.57 1464.78 266.57 1456.05 Q266.57 1447.3 269.626 1442.72 Q272.705 1438.11 278.515 1438.11 Z" fill="#000000" fill-rule="evenodd" fill-opacity="1" /><path clip-path="url(#clip860)" d="M674.935 1454.4 L693.291 1454.4 L693.291 1458.33 L679.217 1458.33 L679.217 1466.8 Q680.236 1466.46 681.254 1466.29 Q682.273 1466.11 683.291 1466.11 Q689.078 1466.11 692.458 1469.28 Q695.837 1472.45 695.837 1477.87 Q695.837 1483.45 692.365 1486.55 Q688.893 1489.63 682.574 1489.63 Q680.398 1489.63 678.129 1489.26 Q675.884 1488.89 673.476 1488.15 L673.476 1483.45 Q675.56 1484.58 677.782 1485.14 Q680.004 1485.69 682.481 1485.69 Q686.486 1485.69 688.824 1483.59 Q691.161 1481.48 691.161 1477.87 Q691.161 1474.26 688.824 1472.15 Q686.486 1470.04 682.481 1470.04 Q680.606 1470.04 678.731 1470.46 Q676.879 1470.88 674.935 1471.76 L674.935 1454.4 Z" fill="#000000" fill-rule="evenodd" fill-opacity="1" /><path clip-path="url(#clip860)" d="M705.05 1483.08 L709.935 1483.08 L709.935 1488.96 L705.05 1488.96 L705.05 1483.08 Z" fill="#000000" fill-rule="evenodd" fill-opacity="1" /><path clip-path="url(#clip860)" d="M730.12 1457.48 Q726.509 1457.48 724.68 1461.04 Q722.874 1464.58 722.874 1471.71 Q722.874 1478.82 724.68 1482.38 Q726.509 1485.92 730.12 1485.92 Q733.754 1485.92 735.559 1482.38 Q737.388 1478.82 737.388 1471.71 Q737.388 1464.58 735.559 1461.04 Q733.754 1457.48 730.12 1457.48 M730.12 1453.77 Q735.93 1453.77 738.985 1458.38 Q742.064 1462.96 742.064 1471.71 Q742.064 1480.44 738.985 1485.04 Q735.93 1489.63 730.12 1489.63 Q724.309 1489.63 721.231 1485.04 Q718.175 1480.44 718.175 1471.71 Q718.175 1462.96 721.231 1458.38 Q724.309 1453.77 730.12 1453.77 Z" fill="#000000" fill-rule="evenodd" fill-opacity="1" /><path clip-path="url(#clip860)" d="M760.281 1457.48 Q756.67 1457.48 754.842 1461.04 Q753.036 1464.58 753.036 1471.71 Q753.036 1478.82 754.842 1482.38 Q756.67 1485.92 760.281 1485.92 Q763.916 1485.92 765.721 1482.38 Q767.55 1478.82 767.55 1471.71 Q767.55 1464.58 765.721 1461.04 Q763.916 1457.48 760.281 1457.48 M760.281 1453.77 Q766.092 1453.77 769.147 1458.38 Q772.226 1462.96 772.226 1471.71 Q772.226 1480.44 769.147 1485.04 Q766.092 1489.63 760.281 1489.63 Q754.471 1489.63 751.393 1485.04 Q748.337 1480.44 748.337 1471.71 Q748.337 1462.96 751.393 1458.38 Q754.471 1453.77 760.281 1453.77 Z" fill="#000000" fill-rule="evenodd" fill-opacity="1" /><path clip-path="url(#clip860)" d="M808.615 1463.49 L798.036 1474.12 L808.615 1484.7 L805.86 1487.5 L795.235 1476.87 L784.61 1487.5 L781.879 1484.7 L792.434 1474.12 L781.879 1463.49 L784.61 1460.69 L795.235 1471.32 L805.86 1460.69 L808.615 1463.49 Z" fill="#000000" fill-rule="evenodd" fill-opacity="1" /><path clip-path="url(#clip860)" d="M820.976 1485.02 L828.614 1485.02 L828.614 1458.66 L820.304 1460.32 L820.304 1456.06 L828.568 1454.4 L833.244 1454.4 L833.244 1485.02 L840.883 1485.02 L840.883 1488.96 L820.976 1488.96 L820.976 1485.02 Z" fill="#000000" fill-rule="evenodd" fill-opacity="1" /><path clip-path="url(#clip860)" d="M860.327 1457.48 Q856.716 1457.48 854.887 1461.04 Q853.082 1464.58 853.082 1471.71 Q853.082 1478.82 854.887 1482.38 Q856.716 1485.92 860.327 1485.92 Q863.961 1485.92 865.767 1482.38 Q867.596 1478.82 867.596 1471.71 Q867.596 1464.58 865.767 1461.04 Q863.961 1457.48 860.327 1457.48 M860.327 1453.77 Q866.137 1453.77 869.193 1458.38 Q872.272 1462.96 872.272 1471.71 Q872.272 1480.44 869.193 1485.04 Q866.137 1489.63 860.327 1489.63 Q854.517 1489.63 851.438 1485.04 Q848.383 1480.44 848.383 1471.71 Q848.383 1462.96 851.438 1458.38 Q854.517 1453.77 860.327 1453.77 Z" fill="#000000" fill-rule="evenodd" fill-opacity="1" /><path clip-path="url(#clip860)" d="M884.967 1446.41 Q887.694 1446.99 889.217 1448.83 Q890.76 1450.68 890.76 1453.38 Q890.76 1457.54 887.901 1459.82 Q885.042 1462.09 879.776 1462.09 Q878.008 1462.09 876.127 1461.73 Q874.265 1461.4 872.272 1460.7 L872.272 1457.03 Q873.851 1457.95 875.732 1458.42 Q877.613 1458.89 879.663 1458.89 Q883.237 1458.89 885.099 1457.48 Q886.979 1456.07 886.979 1453.38 Q886.979 1450.9 885.23 1449.51 Q883.5 1448.1 880.397 1448.1 L877.124 1448.1 L877.124 1444.98 L880.547 1444.98 Q883.349 1444.98 884.835 1443.87 Q886.321 1442.74 886.321 1440.63 Q886.321 1438.47 884.779 1437.32 Q883.255 1436.16 880.397 1436.16 Q878.836 1436.16 877.049 1436.49 Q875.262 1436.83 873.118 1437.55 L873.118 1434.16 Q875.281 1433.56 877.162 1433.26 Q879.061 1432.96 880.735 1432.96 Q885.061 1432.96 887.581 1434.93 Q890.101 1436.89 890.101 1440.24 Q890.101 1442.57 888.766 1444.19 Q887.431 1445.79 884.967 1446.41 Z" fill="#000000" fill-rule="evenodd" fill-opacity="1" /><path clip-path="url(#clip860)" d="M1177.54 1485.02 L1185.18 1485.02 L1185.18 1458.66 L1176.87 1460.32 L1176.87 1456.06 L1185.13 1454.4 L1189.81 1454.4 L1189.81 1485.02 L1197.45 1485.02 L1197.45 1488.96 L1177.54 1488.96 L1177.54 1485.02 Z" fill="#000000" fill-rule="evenodd" fill-opacity="1" /><path clip-path="url(#clip860)" d="M1206.89 1483.08 L1211.77 1483.08 L1211.77 1488.96 L1206.89 1488.96 L1206.89 1483.08 Z" fill="#000000" fill-rule="evenodd" fill-opacity="1" /><path clip-path="url(#clip860)" d="M1231.96 1457.48 Q1228.35 1457.48 1226.52 1461.04 Q1224.71 1464.58 1224.71 1471.71 Q1224.71 1478.82 1226.52 1482.38 Q1228.35 1485.92 1231.96 1485.92 Q1235.59 1485.92 1237.4 1482.38 Q1239.23 1478.82 1239.23 1471.71 Q1239.23 1464.58 1237.4 1461.04 Q1235.59 1457.48 1231.96 1457.48 M1231.96 1453.77 Q1237.77 1453.77 1240.83 1458.38 Q1243.9 1462.96 1243.9 1471.71 Q1243.9 1480.44 1240.83 1485.04 Q1237.77 1489.63 1231.96 1489.63 Q1226.15 1489.63 1223.07 1485.04 Q1220.02 1480.44 1220.02 1471.71 Q1220.02 1462.96 1223.07 1458.38 Q1226.15 1453.77 1231.96 1453.77 Z" fill="#000000" fill-rule="evenodd" fill-opacity="1" /><path clip-path="url(#clip860)" d="M1262.12 1457.48 Q1258.51 1457.48 1256.68 1461.04 Q1254.88 1464.58 1254.88 1471.71 Q1254.88 1478.82 1256.68 1482.38 Q1258.51 1485.92 1262.12 1485.92 Q1265.76 1485.92 1267.56 1482.38 Q1269.39 1478.82 1269.39 1471.71 Q1269.39 1464.58 1267.56 1461.04 Q1265.76 1457.48 1262.12 1457.48 M1262.12 1453.77 Q1267.93 1453.77 1270.99 1458.38 Q1274.07 1462.96 1274.07 1471.71 Q1274.07 1480.44 1270.99 1485.04 Q1267.93 1489.63 1262.12 1489.63 Q1256.31 1489.63 1253.23 1485.04 Q1250.18 1480.44 1250.18 1471.71 Q1250.18 1462.96 1253.23 1458.38 Q1256.31 1453.77 1262.12 1453.77 Z" fill="#000000" fill-rule="evenodd" fill-opacity="1" /><path clip-path="url(#clip860)" d="M1310.45 1463.49 L1299.88 1474.12 L1310.45 1484.7 L1307.7 1487.5 L1297.08 1476.87 L1286.45 1487.5 L1283.72 1484.7 L1294.27 1474.12 L1283.72 1463.49 L1286.45 1460.69 L1297.08 1471.32 L1307.7 1460.69 L1310.45 1463.49 Z" fill="#000000" fill-rule="evenodd" fill-opacity="1" /><path clip-path="url(#clip860)" d="M1322.82 1485.02 L1330.45 1485.02 L1330.45 1458.66 L1322.14 1460.32 L1322.14 1456.06 L1330.41 1454.4 L1335.08 1454.4 L1335.08 1485.02 L1342.72 1485.02 L1342.72 1488.96 L1322.82 1488.96 L1322.82 1485.02 Z" fill="#000000" fill-rule="evenodd" fill-opacity="1" /><path clip-path="url(#clip860)" d="M1362.17 1457.48 Q1358.56 1457.48 1356.73 1461.04 Q1354.92 1464.58 1354.92 1471.71 Q1354.92 1478.82 1356.73 1482.38 Q1358.56 1485.92 1362.17 1485.92 Q1365.8 1485.92 1367.61 1482.38 Q1369.44 1478.82 1369.44 1471.71 Q1369.44 1464.58 1367.61 1461.04 Q1365.8 1457.48 1362.17 1457.48 M1362.17 1453.77 Q1367.98 1453.77 1371.03 1458.38 Q1374.11 1462.96 1374.11 1471.71 Q1374.11 1480.44 1371.03 1485.04 Q1367.98 1489.63 1362.17 1489.63 Q1356.36 1489.63 1353.28 1485.04 Q1350.22 1480.44 1350.22 1471.71 Q1350.22 1462.96 1353.28 1458.38 Q1356.36 1453.77 1362.17 1453.77 Z" fill="#000000" fill-rule="evenodd" fill-opacity="1" /><path clip-path="url(#clip860)" d="M1386.79 1436.78 L1377.2 1451.77 L1386.79 1451.77 L1386.79 1436.78 M1385.79 1433.47 L1390.57 1433.47 L1390.57 1451.77 L1394.57 1451.77 L1394.57 1454.93 L1390.57 1454.93 L1390.57 1461.55 L1386.79 1461.55 L1386.79 1454.93 L1374.11 1454.93 L1374.11 1451.26 L1385.79 1433.47 Z" fill="#000000" fill-rule="evenodd" fill-opacity="1" /><path clip-path="url(#clip860)" d="M1681.14 1485.02 L1688.78 1485.02 L1688.78 1458.66 L1680.47 1460.32 L1680.47 1456.06 L1688.73 1454.4 L1693.41 1454.4 L1693.41 1485.02 L1701.05 1485.02 L1701.05 1488.96 L1681.14 1488.96 L1681.14 1485.02 Z" fill="#000000" fill-rule="evenodd" fill-opacity="1" /><path clip-path="url(#clip860)" d="M1710.49 1483.08 L1715.38 1483.08 L1715.38 1488.96 L1710.49 1488.96 L1710.49 1483.08 Z" fill="#000000" fill-rule="evenodd" fill-opacity="1" /><path clip-path="url(#clip860)" d="M1725.61 1454.4 L1743.97 1454.4 L1743.97 1458.33 L1729.89 1458.33 L1729.89 1466.8 Q1730.91 1466.46 1731.93 1466.29 Q1732.95 1466.11 1733.97 1466.11 Q1739.75 1466.11 1743.13 1469.28 Q1746.51 1472.45 1746.51 1477.87 Q1746.51 1483.45 1743.04 1486.55 Q1739.57 1489.63 1733.25 1489.63 Q1731.07 1489.63 1728.8 1489.26 Q1726.56 1488.89 1724.15 1488.15 L1724.15 1483.45 Q1726.23 1484.58 1728.46 1485.14 Q1730.68 1485.69 1733.16 1485.69 Q1737.16 1485.69 1739.5 1483.59 Q1741.84 1481.48 1741.84 1477.87 Q1741.84 1474.26 1739.5 1472.15 Q1737.16 1470.04 1733.16 1470.04 Q1731.28 1470.04 1729.41 1470.46 Q1727.55 1470.88 1725.61 1471.76 L1725.61 1454.4 Z" fill="#000000" fill-rule="evenodd" fill-opacity="1" /><path clip-path="url(#clip860)" d="M1765.73 1457.48 Q1762.11 1457.48 1760.29 1461.04 Q1758.48 1464.58 1758.48 1471.71 Q1758.48 1478.82 1760.29 1482.38 Q1762.11 1485.92 1765.73 1485.92 Q1769.36 1485.92 1771.16 1482.38 Q1772.99 1478.82 1772.99 1471.71 Q1772.99 1464.58 1771.16 1461.04 Q1769.36 1457.48 1765.73 1457.48 M1765.73 1453.77 Q1771.54 1453.77 1774.59 1458.38 Q1777.67 1462.96 1777.67 1471.71 Q1777.67 1480.44 1774.59 1485.04 Q1771.54 1489.63 1765.73 1489.63 Q1759.92 1489.63 1756.84 1485.04 Q1753.78 1480.44 1753.78 1471.71 Q1753.78 1462.96 1756.84 1458.38 Q1759.92 1453.77 1765.73 1453.77 Z" fill="#000000" fill-rule="evenodd" fill-opacity="1" /><path clip-path="url(#clip860)" d="M1814.06 1463.49 L1803.48 1474.12 L1814.06 1484.7 L1811.3 1487.5 L1800.68 1476.87 L1790.05 1487.5 L1787.32 1484.7 L1797.88 1474.12 L1787.32 1463.49 L1790.05 1460.69 L1800.68 1471.32 L1811.3 1460.69 L1814.06 1463.49 Z" fill="#000000" fill-rule="evenodd" fill-opacity="1" /><path clip-path="url(#clip860)" d="M1826.42 1485.02 L1834.06 1485.02 L1834.06 1458.66 L1825.75 1460.32 L1825.75 1456.06 L1834.01 1454.4 L1838.69 1454.4 L1838.69 1485.02 L1846.33 1485.02 L1846.33 1488.96 L1826.42 1488.96 L1826.42 1485.02 Z" fill="#000000" fill-rule="evenodd" fill-opacity="1" /><path clip-path="url(#clip860)" d="M1865.77 1457.48 Q1862.16 1457.48 1860.33 1461.04 Q1858.53 1464.58 1858.53 1471.71 Q1858.53 1478.82 1860.33 1482.38 Q1862.16 1485.92 1865.77 1485.92 Q1869.41 1485.92 1871.21 1482.38 Q1873.04 1478.82 1873.04 1471.71 Q1873.04 1464.58 1871.21 1461.04 Q1869.41 1457.48 1865.77 1457.48 M1865.77 1453.77 Q1871.58 1453.77 1874.64 1458.38 Q1877.72 1462.96 1877.72 1471.71 Q1877.72 1480.44 1874.64 1485.04 Q1871.58 1489.63 1865.77 1489.63 Q1859.96 1489.63 1856.88 1485.04 Q1853.83 1480.44 1853.83 1471.71 Q1853.83 1462.96 1856.88 1458.38 Q1859.96 1453.77 1865.77 1453.77 Z" fill="#000000" fill-rule="evenodd" fill-opacity="1" /><path clip-path="url(#clip860)" d="M1890.39 1436.78 L1880.8 1451.77 L1890.39 1451.77 L1890.39 1436.78 M1889.39 1433.47 L1894.17 1433.47 L1894.17 1451.77 L1898.18 1451.77 L1898.18 1454.93 L1894.17 1454.93 L1894.17 1461.55 L1890.39 1461.55 L1890.39 1454.93 L1877.72 1454.93 L1877.72 1451.26 L1889.39 1433.47 Z" fill="#000000" fill-rule="evenodd" fill-opacity="1" /><path clip-path="url(#clip860)" d="M2188.83 1485.02 L2205.15 1485.02 L2205.15 1488.96 L2183.21 1488.96 L2183.21 1485.02 Q2185.87 1482.27 2190.45 1477.64 Q2195.06 1472.98 2196.24 1471.64 Q2198.48 1469.12 2199.36 1467.38 Q2200.27 1465.62 2200.27 1463.93 Q2200.27 1461.18 2198.32 1459.44 Q2196.4 1457.71 2193.3 1457.71 Q2191.1 1457.71 2188.65 1458.47 Q2186.22 1459.23 2183.44 1460.79 L2183.44 1456.06 Q2186.26 1454.93 2188.72 1454.35 Q2191.17 1453.77 2193.21 1453.77 Q2198.58 1453.77 2201.77 1456.46 Q2204.97 1459.14 2204.97 1463.63 Q2204.97 1465.76 2204.16 1467.68 Q2203.37 1469.58 2201.26 1472.17 Q2200.68 1472.85 2197.58 1476.06 Q2194.48 1479.26 2188.83 1485.02 Z" fill="#000000" fill-rule="evenodd" fill-opacity="1" /><path clip-path="url(#clip860)" d="M2214.97 1483.08 L2219.85 1483.08 L2219.85 1488.96 L2214.97 1488.96 L2214.97 1483.08 Z" fill="#000000" fill-rule="evenodd" fill-opacity="1" /><path clip-path="url(#clip860)" d="M2240.03 1457.48 Q2236.42 1457.48 2234.59 1461.04 Q2232.79 1464.58 2232.79 1471.71 Q2232.79 1478.82 2234.59 1482.38 Q2236.42 1485.92 2240.03 1485.92 Q2243.67 1485.92 2245.47 1482.38 Q2247.3 1478.82 2247.3 1471.71 Q2247.3 1464.58 2245.47 1461.04 Q2243.67 1457.48 2240.03 1457.48 M2240.03 1453.77 Q2245.84 1453.77 2248.9 1458.38 Q2251.98 1462.96 2251.98 1471.71 Q2251.98 1480.44 2248.9 1485.04 Q2245.84 1489.63 2240.03 1489.63 Q2234.22 1489.63 2231.15 1485.04 Q2228.09 1480.44 2228.09 1471.71 Q2228.09 1462.96 2231.15 1458.38 Q2234.22 1453.77 2240.03 1453.77 Z" fill="#000000" fill-rule="evenodd" fill-opacity="1" /><path clip-path="url(#clip860)" d="M2270.2 1457.48 Q2266.59 1457.48 2264.76 1461.04 Q2262.95 1464.58 2262.95 1471.71 Q2262.95 1478.82 2264.76 1482.38 Q2266.59 1485.92 2270.2 1485.92 Q2273.83 1485.92 2275.64 1482.38 Q2277.46 1478.82 2277.46 1471.71 Q2277.46 1464.58 2275.64 1461.04 Q2273.83 1457.48 2270.2 1457.48 M2270.2 1453.77 Q2276.01 1453.77 2279.06 1458.38 Q2282.14 1462.96 2282.14 1471.71 Q2282.14 1480.44 2279.06 1485.04 Q2276.01 1489.63 2270.2 1489.63 Q2264.39 1489.63 2261.31 1485.04 Q2258.25 1480.44 2258.25 1471.71 Q2258.25 1462.96 2261.31 1458.38 Q2264.39 1453.77 2270.2 1453.77 Z" fill="#000000" fill-rule="evenodd" fill-opacity="1" /><path clip-path="url(#clip860)" d="M2318.53 1463.49 L2307.95 1474.12 L2318.53 1484.7 L2315.77 1487.5 L2305.15 1476.87 L2294.53 1487.5 L2291.79 1484.7 L2302.35 1474.12 L2291.79 1463.49 L2294.53 1460.69 L2305.15 1471.32 L2315.77 1460.69 L2318.53 1463.49 Z" fill="#000000" fill-rule="evenodd" fill-opacity="1" /><path clip-path="url(#clip860)" d="M2330.89 1485.02 L2338.53 1485.02 L2338.53 1458.66 L2330.22 1460.32 L2330.22 1456.06 L2338.48 1454.4 L2343.16 1454.4 L2343.16 1485.02 L2350.8 1485.02 L2350.8 1488.96 L2330.89 1488.96 L2330.89 1485.02 Z" fill="#000000" fill-rule="evenodd" fill-opacity="1" /><path clip-path="url(#clip860)" d="M2370.24 1457.48 Q2366.63 1457.48 2364.8 1461.04 Q2363 1464.58 2363 1471.71 Q2363 1478.82 2364.8 1482.38 Q2366.63 1485.92 2370.24 1485.92 Q2373.88 1485.92 2375.68 1482.38 Q2377.51 1478.82 2377.51 1471.71 Q2377.51 1464.58 2375.68 1461.04 Q2373.88 1457.48 2370.24 1457.48 M2370.24 1453.77 Q2376.05 1453.77 2379.11 1458.38 Q2382.19 1462.96 2382.19 1471.71 Q2382.19 1480.44 2379.11 1485.04 Q2376.05 1489.63 2370.24 1489.63 Q2364.43 1489.63 2361.35 1485.04 Q2358.3 1480.44 2358.3 1471.71 Q2358.3 1462.96 2361.35 1458.38 Q2364.43 1453.77 2370.24 1453.77 Z" fill="#000000" fill-rule="evenodd" fill-opacity="1" /><path clip-path="url(#clip860)" d="M2394.86 1436.78 L2385.27 1451.77 L2394.86 1451.77 L2394.86 1436.78 M2393.87 1433.47 L2398.64 1433.47 L2398.64 1451.77 L2402.65 1451.77 L2402.65 1454.93 L2398.64 1454.93 L2398.64 1461.55 L2394.86 1461.55 L2394.86 1454.93 L2382.19 1454.93 L2382.19 1451.26 L2393.87 1433.47 Z" fill="#000000" fill-rule="evenodd" fill-opacity="1" /><path clip-path="url(#clip860)" d="M1325.1 1540.3 Q1325.1 1541.62 1323.97 1541.62 Q1320.33 1541.75 1318.85 1542.98 Q1317.4 1544.17 1316.85 1546.49 L1307.64 1583.23 Q1307.32 1584.39 1307.12 1584.52 Q1306.93 1584.62 1306.58 1584.62 Q1306.13 1584.62 1305.87 1584.39 Q1305.64 1584.17 1305.32 1583.36 L1288.9 1544.52 Q1288.77 1544.26 1288.61 1543.91 Q1288.45 1543.56 1288.32 1543.33 L1279.59 1578.14 Q1279.33 1579.14 1279.33 1579.66 Q1279.33 1580.91 1280.2 1581.72 Q1281.1 1582.49 1283.68 1582.59 Q1285 1582.59 1285 1583.3 Q1285 1584.62 1283.81 1584.62 Q1282.71 1584.62 1280.43 1584.52 Q1278.14 1584.42 1277.01 1584.42 Q1275.92 1584.42 1273.7 1584.52 Q1271.47 1584.62 1270.41 1584.62 Q1269.57 1584.62 1269.57 1583.88 Q1269.57 1583.3 1269.8 1583.01 Q1270.02 1582.69 1270.22 1582.65 Q1270.41 1582.59 1270.7 1582.59 Q1272.63 1582.52 1273.95 1582.14 Q1275.27 1581.75 1276.01 1581.01 Q1276.79 1580.27 1277.14 1579.53 Q1277.53 1578.76 1277.82 1577.63 L1286.64 1542.2 Q1286.64 1541.62 1282.17 1541.62 Q1281.39 1541.62 1281.07 1541.59 Q1280.78 1541.56 1280.56 1541.4 Q1280.33 1541.24 1280.33 1540.88 Q1280.33 1539.98 1280.72 1539.79 Q1281.1 1539.56 1282.23 1539.56 L1291.09 1539.56 Q1292.21 1539.56 1292.5 1539.76 Q1292.79 1539.92 1293.18 1540.82 L1307.77 1575.25 L1315.14 1545.91 Q1315.34 1545.33 1315.34 1544.52 Q1315.34 1543.23 1314.37 1542.46 Q1313.44 1541.66 1310.86 1541.62 Q1309.67 1541.62 1309.67 1540.88 Q1309.67 1540.27 1309.89 1539.98 Q1310.15 1539.66 1310.35 1539.63 Q1310.57 1539.56 1310.86 1539.56 Q1311.96 1539.56 1314.21 1539.66 Q1316.46 1539.76 1317.59 1539.76 Q1318.69 1539.76 1320.91 1539.66 Q1323.16 1539.56 1324.26 1539.56 Q1324.64 1539.56 1324.84 1539.76 Q1325.06 1539.92 1325.1 1540.11 L1325.1 1540.3 Z" fill="#000000" fill-rule="evenodd" fill-opacity="1" /><polyline clip-path="url(#clip862)" style="stroke:#000000; stroke-linecap:butt; stroke-linejoin:round; stroke-width:2; stroke-opacity:0.1; fill:none" points="
  238.831,907.633 2352.76,907.633 
  "/>
<polyline clip-path="url(#clip862)" style="stroke:#000000; stroke-linecap:butt; stroke-linejoin:round; stroke-width:2; stroke-opacity:0.1; fill:none" points="
  238.831,319.824 2352.76,319.824 
  "/>
<polyline clip-path="url(#clip860)" style="stroke:#000000; stroke-linecap:butt; stroke-linejoin:round; stroke-width:4; stroke-opacity:1; fill:none" points="
  238.831,1410.9 238.831,123.472 
  "/>
<polyline clip-path="url(#clip860)" style="stroke:#000000; stroke-linecap:butt; stroke-linejoin:round; stroke-width:4; stroke-opacity:1; fill:none" points="
  238.831,907.633 257.728,907.633 
  "/>
<polyline clip-path="url(#clip860)" style="stroke:#000000; stroke-linecap:butt; stroke-linejoin:round; stroke-width:4; stroke-opacity:1; fill:none" points="
  238.831,319.824 257.728,319.824 
  "/>
<path clip-path="url(#clip860)" d="M132.125 927.426 L139.764 927.426 L139.764 901.06 L131.454 902.727 L131.454 898.467 L139.718 896.801 L144.394 896.801 L144.394 927.426 L152.033 927.426 L152.033 931.361 L132.125 931.361 L132.125 927.426 Z" fill="#000000" fill-rule="evenodd" fill-opacity="1" /><path clip-path="url(#clip860)" d="M171.477 899.879 Q167.866 899.879 166.037 903.444 Q164.232 906.986 164.232 914.115 Q164.232 921.222 166.037 924.787 Q167.866 928.328 171.477 928.328 Q175.111 928.328 176.917 924.787 Q178.745 921.222 178.745 914.115 Q178.745 906.986 176.917 903.444 Q175.111 899.879 171.477 899.879 M171.477 896.176 Q177.287 896.176 180.343 900.782 Q183.421 905.365 183.421 914.115 Q183.421 922.842 180.343 927.449 Q177.287 932.032 171.477 932.032 Q165.667 932.032 162.588 927.449 Q159.532 922.842 159.532 914.115 Q159.532 905.365 162.588 900.782 Q165.667 896.176 171.477 896.176 Z" fill="#000000" fill-rule="evenodd" fill-opacity="1" /><path clip-path="url(#clip860)" d="M193.126 878.372 Q190.192 878.372 188.706 881.268 Q187.239 884.146 187.239 889.939 Q187.239 895.712 188.706 898.609 Q190.192 901.486 193.126 901.486 Q196.079 901.486 197.546 898.609 Q199.032 895.712 199.032 889.939 Q199.032 884.146 197.546 881.268 Q196.079 878.372 193.126 878.372 M193.126 875.362 Q197.847 875.362 200.329 879.105 Q202.831 882.829 202.831 889.939 Q202.831 897.029 200.329 900.772 Q197.847 904.496 193.126 904.496 Q188.405 904.496 185.904 900.772 Q183.421 897.029 183.421 889.939 Q183.421 882.829 185.904 879.105 Q188.405 875.362 193.126 875.362 Z" fill="#000000" fill-rule="evenodd" fill-opacity="1" /><path clip-path="url(#clip860)" d="M134.815 339.616 L142.454 339.616 L142.454 313.251 L134.143 314.917 L134.143 310.658 L142.407 308.992 L147.083 308.992 L147.083 339.616 L154.722 339.616 L154.722 343.552 L134.815 343.552 L134.815 339.616 Z" fill="#000000" fill-rule="evenodd" fill-opacity="1" /><path clip-path="url(#clip860)" d="M174.166 312.07 Q170.555 312.07 168.727 315.635 Q166.921 319.177 166.921 326.306 Q166.921 333.413 168.727 336.978 Q170.555 340.519 174.166 340.519 Q177.801 340.519 179.606 336.978 Q181.435 333.413 181.435 326.306 Q181.435 319.177 179.606 315.635 Q177.801 312.07 174.166 312.07 M174.166 308.367 Q179.977 308.367 183.032 312.973 Q186.111 317.556 186.111 326.306 Q186.111 335.033 183.032 339.64 Q179.977 344.223 174.166 344.223 Q168.356 344.223 165.278 339.64 Q162.222 335.033 162.222 326.306 Q162.222 317.556 165.278 312.973 Q168.356 308.367 174.166 308.367 Z" fill="#000000" fill-rule="evenodd" fill-opacity="1" /><path clip-path="url(#clip860)" d="M186.656 312.944 L192.863 312.944 L192.863 291.522 L186.111 292.876 L186.111 289.415 L192.825 288.061 L196.624 288.061 L196.624 312.944 L202.831 312.944 L202.831 316.141 L186.656 316.141 L186.656 312.944 Z" fill="#000000" fill-rule="evenodd" fill-opacity="1" /><path clip-path="url(#clip860)" d="M82.1658 908.852 L20.2662 908.852 Q18.3016 908.852 18.3016 907.532 Q18.3016 906.212 20.3628 906.212 L82.0048 906.212 Q84.1304 906.212 84.1304 907.532 Q84.1304 908.852 82.1658 908.852 M82.1658 901.574 L20.7493 901.574 Q18.3016 901.574 18.3016 900.253 Q18.3016 898.933 20.3628 898.933 L82.0048 898.933 Q84.1304 898.933 84.1304 900.253 Q84.1304 901.574 82.1658 901.574 Z" fill="#000000" fill-rule="evenodd" fill-opacity="1" /><path clip-path="url(#clip860)" d="M13.4212 839.5 L14.3455 840.064 Q12.8351 843.558 10.4228 847.909 Q12.8351 852.26 14.3455 855.755 L13.4212 856.296 Q10.1072 852.486 7.55975 847.909 Q10.1298 843.288 13.4212 839.5 Z" fill="#000000" fill-rule="evenodd" fill-opacity="1" /><path clip-path="url(#clip860)" d="M21.8765 829.361 L38.6879 833.516 Q39.7507 833.805 39.8795 833.999 Q40.0084 834.16 40.0084 834.675 Q40.0084 835.673 39.332 835.673 Q39.2676 835.673 38.4303 835.577 Q37.5607 835.48 35.9826 835.48 Q30.1534 835.48 26.7073 838.314 Q23.2613 841.116 23.2613 846.108 Q23.2613 850.778 25.709 855.255 Q28.1566 859.731 31.7637 862.597 Q34.7266 865.013 38.3337 866.688 Q41.9407 868.33 45.0969 869.006 Q48.2209 869.683 50.121 869.94 Q52.0212 870.166 53.245 870.166 Q56.852 870.166 59.6539 869.006 Q62.4236 867.847 64.0017 865.915 Q65.5798 863.95 66.3528 861.696 Q67.1257 859.409 67.1257 856.929 Q67.1257 855.995 66.9969 854.868 Q66.8681 853.741 66.385 852.002 Q65.9019 850.23 65.0967 848.781 Q64.2916 847.3 62.7457 846.011 Q61.1998 844.691 59.1386 844.176 Q53.8891 842.791 53.1162 842.791 Q52.472 842.791 52.2466 843.177 Q52.0212 843.564 51.8601 844.852 L51.7313 848.33 Q51.7313 848.395 51.7313 848.491 Q51.7313 849.103 51.7313 849.361 Q51.6991 849.618 51.6347 849.908 Q51.5703 850.166 51.4414 850.263 Q51.2804 850.327 51.0228 850.327 Q50.4109 850.327 50.121 850.069 Q49.7989 849.812 49.7667 849.586 Q49.7023 849.361 49.7023 848.942 L49.8956 839.699 Q49.8956 838.958 49.7989 836.253 Q49.7023 833.548 49.7023 832.775 Q49.7023 831.905 50.4109 831.905 Q51.7313 831.905 51.7313 832.968 Q51.7635 834.031 51.7957 834.578 Q51.7957 835.126 51.9567 835.673 Q52.1178 836.189 52.2466 836.382 Q52.3432 836.575 52.8263 836.833 Q53.2772 837.09 53.6637 837.187 Q54.0179 837.284 54.9197 837.509 Q55.4994 837.638 56.5944 837.96 Q57.6894 838.25 58.2691 838.379 L63.3576 839.635 Q67.1257 840.504 67.3833 840.762 Q67.641 840.891 67.641 841.213 Q67.641 841.696 66.2239 842.726 Q64.8069 843.725 63.5509 844.176 Q64.4204 844.981 64.9357 845.496 Q65.4188 846.011 66.1917 847.203 Q66.9647 848.362 67.5766 849.908 Q69.1547 853.676 69.1547 858.153 Q69.1547 866.14 64.0984 871.164 Q59.0098 876.188 51.0872 876.188 Q45.4834 876.188 39.9762 873.612 Q34.469 871.035 30.3788 866.945 Q26.2887 862.855 23.7444 857.445 Q21.2001 852.034 21.2001 846.623 Q21.2001 844.562 21.7476 842.726 Q22.2951 840.891 22.9715 839.796 Q23.6478 838.669 24.6462 837.67 Q25.6123 836.672 26.0632 836.35 Q26.5141 835.995 27.0616 835.673 L22.0053 831.068 Q21.2001 830.263 21.2001 830.07 Q21.2001 829.683 21.4256 829.522 Q21.651 829.361 21.8765 829.361 Z" fill="#000000" fill-rule="evenodd" fill-opacity="1" /><path clip-path="url(#clip860)" d="M50.282 767.968 Q50.6685 767.582 51.216 767.582 Q51.7635 767.582 52.15 767.968 Q52.5364 768.355 52.5364 768.902 L52.5364 810.19 Q52.5364 810.738 52.15 811.124 Q51.7635 811.511 51.216 811.511 Q50.6685 811.511 50.282 811.124 Q49.8956 810.738 49.8956 810.19 L49.8956 768.902 Q49.8956 768.355 50.282 767.968 Z" fill="#000000" fill-rule="evenodd" fill-opacity="1" /><path clip-path="url(#clip860)" d="M21.8765 695.566 L38.6879 699.721 Q39.7507 700.011 39.8795 700.204 Q40.0084 700.365 40.0084 700.88 Q40.0084 701.879 39.332 701.879 Q39.2676 701.879 38.4303 701.782 Q37.5607 701.686 35.9826 701.686 Q30.1534 701.686 26.7073 704.52 Q23.2613 707.322 23.2613 712.314 Q23.2613 716.983 25.709 721.46 Q28.1566 725.937 31.7637 728.803 Q34.7266 731.218 38.3337 732.893 Q41.9407 734.536 45.0969 735.212 Q48.2209 735.888 50.121 736.146 Q52.0212 736.371 53.245 736.371 Q56.852 736.371 59.6539 735.212 Q62.4236 734.052 64.0017 732.12 Q65.5798 730.156 66.3528 727.901 Q67.1257 725.615 67.1257 723.135 Q67.1257 722.201 66.9969 721.074 Q66.8681 719.946 66.385 718.207 Q65.9019 716.436 65.0967 714.987 Q64.2916 713.505 62.7457 712.217 Q61.1998 710.896 59.1386 710.381 Q53.8891 708.996 53.1162 708.996 Q52.472 708.996 52.2466 709.383 Q52.0212 709.769 51.8601 711.058 L51.7313 714.536 Q51.7313 714.6 51.7313 714.697 Q51.7313 715.309 51.7313 715.566 Q51.6991 715.824 51.6347 716.114 Q51.5703 716.371 51.4414 716.468 Q51.2804 716.532 51.0228 716.532 Q50.4109 716.532 50.121 716.275 Q49.7989 716.017 49.7667 715.792 Q49.7023 715.566 49.7023 715.148 L49.8956 705.905 Q49.8956 705.164 49.7989 702.459 Q49.7023 699.753 49.7023 698.98 Q49.7023 698.111 50.4109 698.111 Q51.7313 698.111 51.7313 699.174 Q51.7635 700.236 51.7957 700.784 Q51.7957 701.331 51.9567 701.879 Q52.1178 702.394 52.2466 702.587 Q52.3432 702.781 52.8263 703.038 Q53.2772 703.296 53.6637 703.393 Q54.0179 703.489 54.9197 703.715 Q55.4994 703.843 56.5944 704.165 Q57.6894 704.455 58.2691 704.584 L63.3576 705.84 Q67.1257 706.71 67.3833 706.967 Q67.641 707.096 67.641 707.418 Q67.641 707.901 66.2239 708.932 Q64.8069 709.93 63.5509 710.381 Q64.4204 711.186 64.9357 711.702 Q65.4188 712.217 66.1917 713.409 Q66.9647 714.568 67.5766 716.114 Q69.1547 719.882 69.1547 724.359 Q69.1547 732.346 64.0984 737.37 Q59.0098 742.394 51.0872 742.394 Q45.4834 742.394 39.9762 739.817 Q34.469 737.241 30.3788 733.151 Q26.2887 729.061 23.7444 723.65 Q21.2001 718.239 21.2001 712.829 Q21.2001 710.768 21.7476 708.932 Q22.2951 707.096 22.9715 706.001 Q23.6478 704.874 24.6462 703.876 Q25.6123 702.877 26.0632 702.555 Q26.5141 702.201 27.0616 701.879 L22.0053 697.273 Q21.2001 696.468 21.2001 696.275 Q21.2001 695.889 21.4256 695.728 Q21.651 695.566 21.8765 695.566 Z" fill="#000000" fill-rule="evenodd" fill-opacity="1" /><path clip-path="url(#clip860)" d="M82.1658 691.069 L20.2662 691.069 Q18.3016 691.069 18.3016 689.749 Q18.3016 688.428 20.3628 688.428 L82.0048 688.428 Q84.1304 688.428 84.1304 689.749 Q84.1304 691.069 82.1658 691.069 M82.1658 683.791 L20.7493 683.791 Q18.3016 683.791 18.3016 682.47 Q18.3016 681.15 20.3628 681.15 L82.0048 681.15 Q84.1304 681.15 84.1304 682.47 Q84.1304 683.791 82.1658 683.791 Z" fill="#000000" fill-rule="evenodd" fill-opacity="1" /><path clip-path="url(#clip860)" d="M83.4964 654.445 Q85.9537 654.445 88.3884 655.528 Q90.8007 656.61 92.6042 658.346 Q94.3852 660.059 95.5124 662.313 Q96.617 664.568 96.617 666.822 Q96.617 670.046 94.4303 672.143 Q92.2209 674.217 88.7942 674.217 Q85.593 674.217 82.5495 672.436 Q79.4835 670.632 77.5898 667.746 Q75.6961 664.861 75.6961 661.84 Q75.6961 658.661 77.8378 656.565 Q79.9795 654.445 83.4964 654.445 M81.6929 657.827 Q79.5061 657.827 78.1083 658.887 Q76.7106 659.946 76.7106 661.885 Q76.7106 662.449 76.891 663.102 Q77.0488 663.756 77.4771 664.613 Q77.9054 665.447 78.8072 666.394 Q79.6864 667.318 80.9489 668.13 Q82.6172 669.189 85.6832 670.001 Q88.7266 670.79 90.5527 670.79 Q93.0776 670.79 94.3401 669.618 Q95.58 668.445 95.58 666.777 Q95.58 665.154 94.4528 663.441 Q93.3031 661.705 91.3417 660.51 Q89.3128 659.315 86.3369 658.571 Q83.3386 657.827 81.6929 657.827 Z" fill="#000000" fill-rule="evenodd" fill-opacity="1" /><path clip-path="url(#clip860)" d="M83.068 631.433 Q86.3595 631.433 89.5382 633.101 Q92.7169 634.747 94.6783 637.34 Q96.617 639.932 96.617 642.57 Q96.617 644.148 95.7604 645.207 Q94.8812 646.244 93.6412 646.808 Q95.1742 647.236 98.8489 648.161 Q102.524 649.085 102.884 649.085 Q103.087 649.085 103.177 649.04 Q103.268 648.995 103.38 648.792 Q103.516 648.589 103.561 648.093 Q103.628 647.597 103.628 646.763 Q103.628 646.335 103.628 646.177 Q103.651 645.996 103.764 645.839 Q103.876 645.658 104.124 645.658 Q105.049 645.658 105.049 646.492 Q105.049 647.236 104.981 648.769 Q104.913 650.302 104.913 651.069 Q104.913 651.723 104.981 653.03 Q105.049 654.338 105.049 654.946 Q105.049 655.555 104.507 655.555 Q104.192 655.555 103.989 655.465 Q103.809 655.397 103.718 655.217 Q103.651 655.037 103.628 654.879 Q103.628 654.744 103.628 654.473 Q103.628 653.436 103.448 652.985 Q103.29 652.534 102.952 652.376 Q102.636 652.196 101.735 651.993 L81.1743 646.808 Q79.7991 646.492 78.8297 646.492 Q77.6124 646.492 77.1615 646.876 Q76.7106 647.259 76.7106 647.935 Q76.7106 649.108 78.1083 649.874 Q79.5061 650.641 82.2114 651.294 Q82.9553 651.497 83.1131 651.633 Q83.2709 651.745 83.2709 652.083 Q83.2484 652.647 82.7975 652.647 Q82.6848 652.647 81.9634 652.467 Q81.2194 652.286 80.1373 651.948 Q79.0326 651.587 78.3338 651.204 Q77.8604 650.979 77.5447 650.776 Q77.2291 650.573 76.7331 650.167 Q76.2372 649.739 75.9666 649.13 Q75.6961 648.521 75.6961 647.777 Q75.6961 646.335 76.5528 645.14 Q77.4095 643.945 79.1454 643.629 Q77.6349 642.344 76.6655 640.766 Q75.6961 639.188 75.6961 637.588 Q75.6961 634.927 77.7702 633.191 Q79.8217 631.433 83.068 631.433 M81.0391 634.77 Q78.9876 634.77 77.8604 635.559 Q76.7106 636.325 76.7106 637.723 Q76.7106 639.459 78.469 641.465 Q80.1373 643.449 81.6929 643.855 L90.733 646.132 L91.477 646.267 Q91.6123 646.267 92.018 646.199 Q92.4013 646.109 93.0325 645.861 Q93.6638 645.591 94.2274 645.23 Q94.7684 644.847 95.1742 644.17 Q95.58 643.472 95.58 642.615 Q95.58 641.24 94.3626 639.752 Q93.1453 638.241 90.8458 637.114 Q89.3578 636.415 86.1566 635.604 Q82.9328 634.77 81.0391 634.77 Z" fill="#000000" fill-rule="evenodd" fill-opacity="1" /><path clip-path="url(#clip860)" d="M528.204 53.6966 L528.204 57.3424 L493.934 57.3424 Q494.42 65.0391 498.552 69.09 Q502.724 73.1004 510.137 73.1004 Q514.431 73.1004 518.442 72.0472 Q522.492 70.9939 526.462 68.8875 L526.462 75.936 Q522.452 77.6374 518.239 78.5286 Q514.026 79.4198 509.692 79.4198 Q498.835 79.4198 492.475 73.1004 Q486.156 66.781 486.156 56.0056 Q486.156 44.8656 492.151 38.3437 Q498.187 31.7812 508.395 31.7812 Q517.55 31.7812 522.857 37.6955 Q528.204 43.5693 528.204 53.6966 M520.751 51.5091 Q520.67 45.3922 517.307 41.7464 Q513.986 38.1006 508.476 38.1006 Q502.238 38.1006 498.471 41.6249 Q494.744 45.1492 494.177 51.5496 L520.751 51.5091 Z" fill="#000000" fill-rule="evenodd" fill-opacity="1" /><path clip-path="url(#clip860)" d="M566.728 39.8425 Q565.473 39.1133 563.974 38.7893 Q562.515 38.4247 560.733 38.4247 Q554.414 38.4247 551.011 42.5566 Q547.649 46.648 547.649 54.3447 L547.649 78.2451 L540.154 78.2451 L540.154 32.8749 L547.649 32.8749 L547.649 39.9235 Q549.998 35.7916 553.765 33.8066 Q557.533 31.7812 562.92 31.7812 Q563.69 31.7812 564.622 31.9027 Q565.554 31.9837 566.688 32.1863 L566.728 39.8425 Z" fill="#000000" fill-rule="evenodd" fill-opacity="1" /><path clip-path="url(#clip860)" d="M599.379 39.8425 Q598.123 39.1133 596.624 38.7893 Q595.166 38.4247 593.383 38.4247 Q587.064 38.4247 583.661 42.5566 Q580.299 46.648 580.299 54.3447 L580.299 78.2451 L572.805 78.2451 L572.805 32.8749 L580.299 32.8749 L580.299 39.9235 Q582.648 35.7916 586.416 33.8066 Q590.183 31.7812 595.571 31.7812 Q596.34 31.7812 597.272 31.9027 Q598.204 31.9837 599.338 32.1863 L599.379 39.8425 Z" fill="#000000" fill-rule="evenodd" fill-opacity="1" /><path clip-path="url(#clip860)" d="M622.955 38.1006 Q616.96 38.1006 613.476 42.7997 Q609.992 47.4582 609.992 55.6005 Q609.992 63.7428 613.435 68.4419 Q616.919 73.1004 622.955 73.1004 Q628.91 73.1004 632.393 68.4014 Q635.877 63.7023 635.877 55.6005 Q635.877 47.5392 632.393 42.8402 Q628.91 38.1006 622.955 38.1006 M622.955 31.7812 Q632.677 31.7812 638.227 38.1006 Q643.777 44.42 643.777 55.6005 Q643.777 66.7405 638.227 73.1004 Q632.677 79.4198 622.955 79.4198 Q613.192 79.4198 607.642 73.1004 Q602.133 66.7405 602.133 55.6005 Q602.133 44.42 607.642 38.1006 Q613.192 31.7812 622.955 31.7812 Z" fill="#000000" fill-rule="evenodd" fill-opacity="1" /><path clip-path="url(#clip860)" d="M682.422 39.8425 Q681.166 39.1133 679.668 38.7893 Q678.209 38.4247 676.427 38.4247 Q670.107 38.4247 666.705 42.5566 Q663.342 46.648 663.342 54.3447 L663.342 78.2451 L655.848 78.2451 L655.848 32.8749 L663.342 32.8749 L663.342 39.9235 Q665.692 35.7916 669.459 33.8066 Q673.227 31.7812 678.614 31.7812 Q679.384 31.7812 680.316 31.9027 Q681.247 31.9837 682.382 32.1863 L682.422 39.8425 Z" fill="#000000" fill-rule="evenodd" fill-opacity="1" /><path clip-path="url(#clip860)" d="M712.277 32.8749 L719.731 32.8749 L729.048 68.2798 L738.325 32.8749 L747.115 32.8749 L756.432 68.2798 L765.709 32.8749 L773.162 32.8749 L761.293 78.2451 L752.503 78.2451 L742.74 41.0578 L732.937 78.2451 L724.146 78.2451 L712.277 32.8749 Z" fill="#000000" fill-rule="evenodd" fill-opacity="1" /><path clip-path="url(#clip860)" d="M784.464 32.8749 L791.918 32.8749 L791.918 78.2451 L784.464 78.2451 L784.464 32.8749 M784.464 15.213 L791.918 15.213 L791.918 24.6516 L784.464 24.6516 L784.464 15.213 Z" fill="#000000" fill-rule="evenodd" fill-opacity="1" /><path clip-path="url(#clip860)" d="M814.887 19.9931 L814.887 32.8749 L830.24 32.8749 L830.24 38.6677 L814.887 38.6677 L814.887 63.2972 Q814.887 68.847 816.386 70.4268 Q817.925 72.0067 822.583 72.0067 L830.24 72.0067 L830.24 78.2451 L822.583 78.2451 Q813.955 78.2451 810.674 75.0448 Q807.393 71.8041 807.393 63.2972 L807.393 38.6677 L801.924 38.6677 L801.924 32.8749 L807.393 32.8749 L807.393 19.9931 L814.887 19.9931 Z" fill="#000000" fill-rule="evenodd" fill-opacity="1" /><path clip-path="url(#clip860)" d="M877.757 50.8609 L877.757 78.2451 L870.303 78.2451 L870.303 51.104 Q870.303 44.6631 867.792 41.4629 Q865.28 38.2626 860.257 38.2626 Q854.221 38.2626 850.737 42.111 Q847.253 45.9594 847.253 52.6028 L847.253 78.2451 L839.759 78.2451 L839.759 15.213 L847.253 15.213 L847.253 39.9235 Q849.927 35.8321 853.532 33.8066 Q857.178 31.7812 861.918 31.7812 Q869.736 31.7812 873.746 36.6423 Q877.757 41.4629 877.757 50.8609 Z" fill="#000000" fill-rule="evenodd" fill-opacity="1" /><path clip-path="url(#clip860)" d="M950.813 54.8402 Q950.813 60.9066 947.698 66.6041 Q944.624 72.3016 939.787 75.7447 Q934.991 79.1878 930.155 79.1878 Q924.703 79.1878 921.875 73.5313 Q916.751 94.0669 916.464 94.5998 Q915.276 96.3623 913.554 96.3623 Q912.488 96.3623 911.833 95.7065 Q911.177 95.0917 911.177 94.1079 Q911.218 93.78 911.464 92.7553 L919.661 59.7589 Q921.547 52.0939 927.245 46.6423 Q932.983 41.1498 939.131 41.1498 Q944.009 41.1498 947.411 44.7978 Q950.813 48.4459 950.813 54.8402 M944.788 51.2331 Q944.788 47.1342 943.148 45.0847 Q941.509 42.9943 938.967 42.9943 Q936.631 42.9943 933.803 44.8798 Q931.016 46.7653 928.556 50.9462 Q927.245 53.3646 926.302 56.3568 Q925.359 59.349 923.514 66.7271 Q922.859 69.6783 922.859 69.8423 Q922.859 70.1702 923.023 70.908 Q923.228 71.6458 923.719 72.7935 Q924.252 73.9002 924.99 74.8839 Q925.728 75.8677 927.081 76.6055 Q928.433 77.3023 930.073 77.3023 Q932.614 77.3023 935.319 75.2528 Q938.066 73.1624 940.074 69.3504 Q941.755 66.2762 943.271 60.4967 Q944.788 54.6762 944.788 51.2331 Z" fill="#000000" fill-rule="evenodd" fill-opacity="1" /><path clip-path="url(#clip860)" d="M959.503 57.2586 Q959.503 43.0763 964.791 31.6403 Q967.045 26.8445 970.201 22.8276 Q973.358 18.8106 975.448 17.0481 Q977.539 15.2855 978.112 15.2855 Q978.932 15.2855 978.973 16.1053 Q978.973 16.5152 977.866 17.5399 Q964.34 31.3123 964.381 57.2586 Q964.381 83.2867 977.539 96.5263 Q978.973 97.9609 978.973 98.4118 Q978.973 99.2316 978.112 99.2316 Q977.539 99.2316 975.53 97.551 Q973.522 95.8705 970.406 92.0175 Q967.291 88.1645 965.037 83.4507 Q959.503 72.0147 959.503 57.2586 Z" fill="#000000" fill-rule="evenodd" fill-opacity="1" /><path clip-path="url(#clip860)" d="M1042.94 76.5645 Q1042.94 77.3433 1042.61 77.7532 Q1042.33 78.1221 1042.04 78.2041 Q1041.79 78.2451 1041.43 78.2451 Q1040.36 78.2451 1036.67 78.1221 Q1032.98 77.9991 1031.92 77.9991 Q1030.19 77.9991 1026.67 78.1221 Q1023.14 78.2451 1021.42 78.2451 Q1020.28 78.2451 1020.28 77.3023 Q1020.28 76.6875 1020.4 76.3596 Q1020.52 75.9907 1020.85 75.8677 Q1021.22 75.7037 1021.42 75.7037 Q1021.67 75.6627 1022.28 75.6627 Q1023.1 75.6627 1023.96 75.5808 Q1024.83 75.4578 1025.89 75.2119 Q1026.96 74.9659 1027.61 74.3511 Q1028.31 73.7362 1028.31 72.8755 Q1028.31 72.5066 1028.02 69.4734 Q1027.74 66.4402 1027.37 62.9151 Q1027 59.349 1026.96 58.8571 L1005.89 58.8571 Q1003.96 62.1773 1002.61 64.4727 Q1001.26 66.7681 1000.76 67.5469 Q1000.27 68.3257 999.986 68.8175 Q999.699 69.3094 999.535 69.5963 Q998.346 71.7688 998.346 72.7115 Q998.346 75.3348 1002.28 75.6627 Q1003.63 75.6627 1003.63 76.6465 Q1003.63 77.3843 1003.31 77.7942 Q1002.98 78.1631 1002.69 78.2041 Q1002.45 78.2451 1002.04 78.2451 Q1000.68 78.2451 997.854 78.1221 Q995.026 77.9991 993.632 77.9991 Q992.444 77.9991 989.984 78.1221 Q987.525 78.2451 986.418 78.2451 Q985.926 78.2451 985.639 77.9581 Q985.353 77.6712 985.353 77.3023 Q985.353 76.7285 985.435 76.4005 Q985.557 76.0726 985.885 75.9087 Q986.213 75.7447 986.377 75.7447 Q986.541 75.7037 987.115 75.6627 Q990.23 75.4578 992.649 73.9822 Q995.108 72.4656 997.444 68.5716 L1026.63 19.5484 Q1026.92 19.0565 1027.12 18.8106 Q1027.33 18.5647 1027.74 18.3597 Q1028.19 18.1548 1028.84 18.1548 Q1029.87 18.1548 1030.07 18.4827 Q1030.28 18.7696 1030.4 20.1633 L1035.52 72.6295 Q1035.65 73.7362 1035.73 74.1871 Q1035.85 74.597 1036.38 75.0479 Q1036.96 75.4578 1037.98 75.5808 Q1039.05 75.6627 1041.02 75.6627 Q1041.75 75.6627 1042.04 75.7037 Q1042.33 75.7037 1042.61 75.9087 Q1042.94 76.1136 1042.94 76.5645 M1026.71 56.2338 L1024.05 28.5661 L1007.49 56.2338 L1026.71 56.2338 Z" fill="#000000" fill-rule="evenodd" fill-opacity="1" /><path clip-path="url(#clip860)" d="M1049.72 98.4118 Q1049.72 98.0019 1050.79 96.9772 Q1064.32 83.2048 1064.32 57.2586 Q1064.32 31.2304 1051.32 18.0728 Q1049.72 16.5562 1049.72 16.1053 Q1049.72 15.2855 1050.54 15.2855 Q1051.12 15.2855 1053.13 16.9661 Q1055.18 18.6467 1058.25 22.4996 Q1061.36 26.3526 1063.66 31.0664 Q1069.19 42.5024 1069.19 57.2586 Q1069.19 71.4408 1063.91 82.8769 Q1061.65 87.6726 1058.5 91.6895 Q1055.34 95.7065 1053.25 97.469 Q1051.16 99.2316 1050.54 99.2316 Q1049.72 99.2316 1049.72 98.4118 Z" fill="#000000" fill-rule="evenodd" fill-opacity="1" /><path clip-path="url(#clip860)" d="M1105.25 65.4974 Q1105.33 64.4727 1106.93 64.4727 L1158.37 64.4727 Q1160.79 64.4727 1160.83 65.4154 Q1160.83 66.4402 1158.53 66.3992 L1107.5 66.3992 Q1105.25 66.4402 1105.25 65.4974 M1105.25 49.1017 Q1105.25 48.077 1107.01 48.1179 L1158.29 48.1179 Q1160.79 48.1179 1160.83 49.1017 Q1160.83 50.0444 1158.7 50.0444 L1106.93 50.0444 Q1105.25 50.0444 1105.25 49.1017 Z" fill="#000000" fill-rule="evenodd" fill-opacity="1" /><path clip-path="url(#clip860)" d="M1193.21 30.3286 L1193.21 27.7053 Q1203.29 27.7053 1208.5 22.3357 Q1209.93 22.3357 1210.18 22.6636 Q1210.42 22.9915 1210.42 24.5081 L1210.42 71.6048 Q1210.42 74.1051 1211.65 74.8839 Q1212.88 75.6627 1218.25 75.6627 L1220.92 75.6627 L1220.92 78.2451 Q1217.97 77.9991 1207.31 77.9991 Q1196.65 77.9991 1193.74 78.2451 L1193.74 75.6627 L1196.4 75.6627 Q1201.69 75.6627 1202.96 74.9249 Q1204.23 74.1461 1204.23 71.6048 L1204.23 28.1152 Q1199.85 30.3286 1193.21 30.3286 Z" fill="#000000" fill-rule="evenodd" fill-opacity="1" /><path clip-path="url(#clip860)" d="M1227.55 76.8924 Q1226.28 75.5398 1226.28 73.7772 Q1226.28 72.0147 1227.55 70.744 Q1228.82 69.4324 1230.75 69.4324 Q1232.59 69.4324 1233.82 70.662 Q1235.09 71.8507 1235.09 73.8182 Q1235.09 75.7447 1233.74 77.0154 Q1232.43 78.2451 1230.75 78.2451 Q1228.82 78.2451 1227.55 76.8924 Z" fill="#000000" fill-rule="evenodd" fill-opacity="1" /><path clip-path="url(#clip860)" d="M1249.38 51.3971 Q1249.38 39.0593 1252.49 32.3371 Q1256.84 22.3357 1267.08 22.3357 Q1269.26 22.3357 1271.51 22.9505 Q1273.81 23.5244 1276.68 25.7788 Q1279.59 28.0332 1281.35 31.7222 Q1284.71 38.8544 1284.71 51.3971 Q1284.71 63.6529 1281.59 70.3341 Q1277.04 80.0896 1267 80.0896 Q1263.23 80.0896 1259.38 78.1631 Q1255.57 76.2366 1253.15 71.6048 Q1249.38 64.6776 1249.38 51.3971 M1256.35 50.3724 Q1256.35 63.038 1257.25 68.0797 Q1258.27 73.5313 1261.06 75.9087 Q1263.89 78.2451 1267 78.2451 Q1270.36 78.2451 1273.15 75.7447 Q1275.98 73.2034 1276.84 67.7518 Q1277.78 62.3822 1277.74 50.3724 Q1277.74 38.6904 1276.92 34.0176 Q1275.82 28.5661 1272.86 26.3936 Q1269.95 24.1802 1267 24.1802 Q1265.9 24.1802 1264.71 24.5081 Q1263.56 24.836 1261.88 25.7788 Q1260.2 26.7215 1258.89 29.0579 Q1257.62 31.3943 1257 34.9194 Q1256.35 39.4692 1256.35 50.3724 Z" fill="#000000" fill-rule="evenodd" fill-opacity="1" /><path clip-path="url(#clip860)" d="M1291.28 51.3971 Q1291.28 39.0593 1294.4 32.3371 Q1298.74 22.3357 1308.99 22.3357 Q1311.16 22.3357 1313.42 22.9505 Q1315.71 23.5244 1318.58 25.7788 Q1321.49 28.0332 1323.26 31.7222 Q1326.62 38.8544 1326.62 51.3971 Q1326.62 63.6529 1323.5 70.3341 Q1318.95 80.0896 1308.91 80.0896 Q1305.14 80.0896 1301.28 78.1631 Q1297.47 76.2366 1295.05 71.6048 Q1291.28 64.6776 1291.28 51.3971 M1298.25 50.3724 Q1298.25 63.038 1299.15 68.0797 Q1300.18 73.5313 1302.97 75.9087 Q1305.79 78.2451 1308.91 78.2451 Q1312.27 78.2451 1315.06 75.7447 Q1317.89 73.2034 1318.75 67.7518 Q1319.69 62.3822 1319.65 50.3724 Q1319.65 38.6904 1318.83 34.0176 Q1317.72 28.5661 1314.77 26.3936 Q1311.86 24.1802 1308.91 24.1802 Q1307.8 24.1802 1306.61 24.5081 Q1305.47 24.836 1303.79 25.7788 Q1302.1 26.7215 1300.79 29.0579 Q1299.52 31.3943 1298.91 34.9194 Q1298.25 39.4692 1298.25 50.3724 Z" fill="#000000" fill-rule="evenodd" fill-opacity="1" /><path clip-path="url(#clip860)" d="M1333.19 51.3971 Q1333.19 39.0593 1336.3 32.3371 Q1340.65 22.3357 1350.9 22.3357 Q1353.07 22.3357 1355.32 22.9505 Q1357.62 23.5244 1360.49 25.7788 Q1363.4 28.0332 1365.16 31.7222 Q1368.52 38.8544 1368.52 51.3971 Q1368.52 63.6529 1365.41 70.3341 Q1360.86 80.0896 1350.82 80.0896 Q1347.04 80.0896 1343.19 78.1631 Q1339.38 76.2366 1336.96 71.6048 Q1333.19 64.6776 1333.19 51.3971 M1340.16 50.3724 Q1340.16 63.038 1341.06 68.0797 Q1342.08 73.5313 1344.87 75.9087 Q1347.7 78.2451 1350.82 78.2451 Q1354.18 78.2451 1356.96 75.7447 Q1359.79 73.2034 1360.65 67.7518 Q1361.6 62.3822 1361.55 50.3724 Q1361.55 38.6904 1360.73 34.0176 Q1359.63 28.5661 1356.68 26.3936 Q1353.77 24.1802 1350.82 24.1802 Q1349.71 24.1802 1348.52 24.5081 Q1347.37 24.836 1345.69 25.7788 Q1344.01 26.7215 1342.7 29.0579 Q1341.43 31.3943 1340.81 34.9194 Q1340.16 39.4692 1340.16 50.3724 Z" fill="#000000" fill-rule="evenodd" fill-opacity="1" /><path clip-path="url(#clip860)" d="M1372.37 30.3286 L1372.37 27.7053 Q1382.45 27.7053 1387.66 22.3357 Q1389.09 22.3357 1389.34 22.6636 Q1389.59 22.9915 1389.59 24.5081 L1389.59 71.6048 Q1389.59 74.1051 1390.82 74.8839 Q1392.04 75.6627 1397.41 75.6627 L1400.08 75.6627 L1400.08 78.2451 Q1397.13 77.9991 1386.47 77.9991 Q1375.81 77.9991 1372.9 78.2451 L1372.9 75.6627 L1375.57 75.6627 Q1380.85 75.6627 1382.13 74.9249 Q1383.4 74.1461 1383.4 71.6048 L1383.4 28.1152 Q1379.01 30.3286 1372.37 30.3286 Z" fill="#000000" fill-rule="evenodd" fill-opacity="1" /><path clip-path="url(#clip860)" d="M1468.75 55.4385 Q1459.72 55.4385 1456.23 57.5044 Q1452.75 59.5704 1452.75 64.553 Q1452.75 68.5229 1455.34 70.8724 Q1457.97 73.1814 1462.47 73.1814 Q1468.67 73.1814 1472.39 68.8065 Q1476.16 64.391 1476.16 57.0993 L1476.16 55.4385 L1468.75 55.4385 M1483.62 52.3598 L1483.62 78.2451 L1476.16 78.2451 L1476.16 71.3585 Q1473.61 75.4904 1469.8 77.4754 Q1465.99 79.4198 1460.49 79.4198 Q1453.52 79.4198 1449.39 75.531 Q1445.29 71.6016 1445.29 65.0391 Q1445.29 57.3829 1450.4 53.494 Q1455.54 49.6052 1465.71 49.6052 L1476.16 49.6052 L1476.16 48.876 Q1476.16 43.7314 1472.76 40.9362 Q1469.4 38.1006 1463.28 38.1006 Q1459.39 38.1006 1455.71 39.0323 Q1452.02 39.964 1448.62 41.8274 L1448.62 34.9409 Q1452.71 33.361 1456.56 32.5914 Q1460.4 31.7812 1464.05 31.7812 Q1473.89 31.7812 1478.75 36.8853 Q1483.62 41.9895 1483.62 52.3598 Z" fill="#000000" fill-rule="evenodd" fill-opacity="1" /><path clip-path="url(#clip860)" d="M1536.68 50.8609 L1536.68 78.2451 L1529.23 78.2451 L1529.23 51.104 Q1529.23 44.6631 1526.72 41.4629 Q1524.21 38.2626 1519.18 38.2626 Q1513.15 38.2626 1509.66 42.111 Q1506.18 45.9594 1506.18 52.6028 L1506.18 78.2451 L1498.69 78.2451 L1498.69 32.8749 L1506.18 32.8749 L1506.18 39.9235 Q1508.85 35.8321 1512.46 33.8066 Q1516.1 31.7812 1520.84 31.7812 Q1528.66 31.7812 1532.67 36.6423 Q1536.68 41.4629 1536.68 50.8609 Z" fill="#000000" fill-rule="evenodd" fill-opacity="1" /><path clip-path="url(#clip860)" d="M1581.4 39.7615 L1581.4 15.213 L1588.86 15.213 L1588.86 78.2451 L1581.4 78.2451 L1581.4 71.4395 Q1579.06 75.4904 1575.45 77.4754 Q1571.89 79.4198 1566.86 79.4198 Q1558.64 79.4198 1553.45 72.8574 Q1548.31 66.2949 1548.31 55.6005 Q1548.31 44.9061 1553.45 38.3437 Q1558.64 31.7812 1566.86 31.7812 Q1571.89 31.7812 1575.45 33.7661 Q1579.06 35.7106 1581.4 39.7615 M1556.01 55.6005 Q1556.01 63.8238 1559.37 68.5229 Q1562.77 73.1814 1568.68 73.1814 Q1574.6 73.1814 1578 68.5229 Q1581.4 63.8238 1581.4 55.6005 Q1581.4 47.3772 1578 42.7186 Q1574.6 38.0196 1568.68 38.0196 Q1562.77 38.0196 1559.37 42.7186 Q1556.01 47.3772 1556.01 55.6005 Z" fill="#000000" fill-rule="evenodd" fill-opacity="1" /><path clip-path="url(#clip860)" d="M1667.16 42.4473 Q1667.16 45.3166 1663.06 45.3166 L1653.83 45.3166 Q1656.42 49.0056 1656.42 54.4572 Q1656.42 59.13 1654.49 63.5158 Q1652.6 67.8607 1649.57 70.8939 Q1646.58 73.9271 1642.81 75.7716 Q1639.04 77.5752 1635.35 77.5752 Q1629.73 77.5752 1626.25 73.7632 Q1622.76 69.9512 1622.76 64.2946 Q1622.76 61.3024 1623.79 57.9823 Q1624.85 54.6622 1626.86 51.588 Q1628.87 48.4728 1631.5 45.9724 Q1634.16 43.4721 1637.6 41.9555 Q1641.09 40.4389 1644.73 40.4389 L1663.88 40.4389 Q1664.9 40.4389 1665.43 40.5209 Q1666.01 40.5618 1666.58 41.0537 Q1667.16 41.5046 1667.16 42.4473 M1651.05 53.4735 Q1651.05 52.4897 1650.92 51.6289 Q1650.8 50.7272 1650.35 49.5385 Q1649.9 48.3088 1649.12 47.448 Q1648.34 46.5463 1646.83 45.9314 Q1645.35 45.3166 1643.34 45.3166 Q1640.51 45.3166 1637.4 46.8742 Q1634.28 48.4318 1631.91 52.2848 Q1629.94 55.5639 1628.95 59.8268 Q1627.97 64.0897 1627.97 66.631 Q1627.97 70.9759 1630.06 73.3533 Q1632.19 75.6897 1635.43 75.6897 Q1638.09 75.6897 1641.13 73.8861 Q1644.16 72.0416 1646.5 68.5575 Q1648.55 65.5243 1649.78 61.0975 Q1651.05 56.6706 1651.05 53.4735 Z" fill="#000000" fill-rule="evenodd" fill-opacity="1" /><path clip-path="url(#clip860)" d="M1714.58 71.1347 Q1714.58 73.344 1713.38 78.2217 Q1712.17 83.0994 1710.71 86.4278 Q1707.58 93.6583 1702.19 93.6583 Q1701.53 93.6583 1700.87 93.6009 Q1700.24 93.5435 1699.29 93.2853 Q1698.34 93.027 1697.57 92.6253 Q1696.8 92.195 1696.02 91.3916 Q1695.27 90.5882 1694.84 89.5266 Q1692.46 93.6583 1688.73 93.6583 Q1685.12 93.6583 1682.74 91.822 Q1680.38 89.9856 1680.38 86.2269 Q1680.38 84.5341 1681.07 82.0378 Q1681.76 79.5416 1683.68 74.3769 Q1684.74 71.7085 1684.74 70.2452 Q1684.74 69.5853 1684.6 69.1549 Q1684.46 68.7245 1684.17 68.581 Q1683.91 68.4089 1683.74 68.3802 Q1683.57 68.3228 1683.28 68.3228 Q1681.56 68.3228 1680.01 70.073 Q1678.46 71.7946 1677.34 75.6107 Q1677.11 76.328 1676.97 76.5002 Q1676.83 76.6723 1676.39 76.6723 Q1675.68 76.6436 1675.68 76.0698 Q1675.68 75.8402 1675.94 74.9508 Q1676.19 74.0326 1676.8 72.6841 Q1677.43 71.3068 1678.29 70.073 Q1679.15 68.8106 1680.5 67.9211 Q1681.88 67.0316 1683.45 67.0316 Q1685.58 67.0316 1686.93 68.4376 Q1688.27 69.8435 1688.27 71.852 Q1688.27 72.4258 1688.13 73.0571 Q1687.99 73.6596 1687.84 74.0613 Q1687.73 74.4343 1687.27 75.6107 Q1685.38 80.5745 1684.77 82.956 Q1684.2 85.3374 1684.2 87.0016 Q1684.2 87.5468 1684.23 87.9772 Q1684.26 88.4075 1684.49 89.297 Q1684.74 90.1865 1685.2 90.789 Q1685.66 91.3629 1686.61 91.8506 Q1687.58 92.3384 1688.9 92.3384 Q1692.2 92.3384 1694.33 87.4033 Q1694.27 87.1164 1694.27 86.3704 Q1694.27 84.7062 1694.79 82.4682 Q1694.93 81.9517 1695.76 78.6521 Q1696.59 75.3238 1697.31 72.4258 Q1698.06 69.4992 1698.14 69.327 Q1698.43 68.5236 1699.06 68.0933 Q1699.69 67.6629 1700.32 67.6629 Q1701.04 67.6629 1701.53 68.0933 Q1702.02 68.5236 1702.02 69.2697 Q1702.02 69.4131 1701.85 70.073 Q1701.7 70.7043 1701.47 71.6511 Q1701.24 72.598 1701.13 73.0858 L1698.66 82.956 Q1698.03 85.2514 1698.03 87.2312 Q1698.03 89.7274 1699.15 91.0473 Q1700.27 92.3384 1702.36 92.3384 Q1706.29 92.3384 1708.82 87.1738 Q1709.97 84.9358 1711 81.4353 Q1712.06 77.9348 1712.06 76.4141 Q1712.06 73.5448 1709.94 71.4216 Q1709.48 71.0199 1709.28 70.7043 Q1709.08 70.36 1709.08 69.8435 Q1709.08 68.868 1709.99 67.9498 Q1710.91 67.0316 1712 67.0316 Q1712.98 67.0316 1713.78 68.0072 Q1714.58 68.954 1714.58 71.1347 Z" fill="#000000" fill-rule="evenodd" fill-opacity="1" /><path clip-path="url(#clip860)" d="M1724.36 75.2798 Q1723.17 73.9271 1723.17 72.1646 Q1723.17 70.402 1724.32 69.0904 Q1725.51 67.7377 1727.64 67.7377 Q1730.14 67.7377 1731.57 70.1561 Q1733.01 72.5335 1733.01 76.5504 Q1733.01 80.8953 1731.25 84.9122 Q1729.48 88.9702 1727.76 90.8967 Q1726.04 92.8232 1725.34 92.8232 Q1724.52 92.8232 1724.52 91.9214 Q1724.52 91.5935 1725.1 90.9787 Q1731.12 84.5023 1731.16 76.5504 Q1731.16 75.2798 1731 75.2798 L1730.79 75.4437 Q1729.36 76.6324 1727.64 76.6324 Q1725.55 76.6324 1724.36 75.2798 Z" fill="#000000" fill-rule="evenodd" fill-opacity="1" /><path clip-path="url(#clip860)" d="M1803.89 42.4473 Q1803.89 45.3166 1799.79 45.3166 L1790.57 45.3166 Q1793.15 49.0056 1793.15 54.4572 Q1793.15 59.13 1791.22 63.5158 Q1789.34 67.8607 1786.3 70.8939 Q1783.31 73.9271 1779.54 75.7716 Q1775.77 77.5752 1772.08 77.5752 Q1766.47 77.5752 1762.98 73.7632 Q1759.5 69.9512 1759.5 64.2946 Q1759.5 61.3024 1760.52 57.9823 Q1761.59 54.6622 1763.6 51.588 Q1765.6 48.4728 1768.23 45.9724 Q1770.89 43.4721 1774.34 41.9555 Q1777.82 40.4389 1781.47 40.4389 L1800.61 40.4389 Q1801.63 40.4389 1802.17 40.5209 Q1802.74 40.5618 1803.31 41.0537 Q1803.89 41.5046 1803.89 42.4473 M1787.78 53.4735 Q1787.78 52.4897 1787.66 51.6289 Q1787.53 50.7272 1787.08 49.5385 Q1786.63 48.3088 1785.85 47.448 Q1785.07 46.5463 1783.56 45.9314 Q1782.08 45.3166 1780.07 45.3166 Q1777.25 45.3166 1774.13 46.8742 Q1771.02 48.4318 1768.64 52.2848 Q1766.67 55.5639 1765.69 59.8268 Q1764.7 64.0897 1764.7 66.631 Q1764.7 70.9759 1766.79 73.3533 Q1768.92 75.6897 1772.16 75.6897 Q1774.83 75.6897 1777.86 73.8861 Q1780.89 72.0416 1783.23 68.5575 Q1785.28 65.5243 1786.51 61.0975 Q1787.78 56.6706 1787.78 53.4735 Z" fill="#000000" fill-rule="evenodd" fill-opacity="1" /><path clip-path="url(#clip860)" d="M1837.32 67.6055 Q1837.32 67.8063 1836.83 68.6671 Q1836.37 69.4992 1834.68 71.5937 Q1832.98 73.6883 1830.46 76.1272 Q1829.51 77.074 1828.08 78.3939 Q1826.64 79.7137 1825.67 80.5745 L1824.69 81.4353 Q1820.96 84.5914 1817.69 88.1206 Q1817.92 88.0345 1818.32 88.0058 Q1818.72 87.9485 1819.01 87.9485 L1819.3 87.9485 Q1820.79 87.9485 1823.4 88.9527 Q1825.69 89.6987 1826.87 89.6987 Q1828.02 89.6987 1829.28 89.297 Q1830.54 88.8953 1831.92 87.7189 Q1833.3 86.5425 1833.93 84.7636 Q1834.04 84.4767 1834.1 84.3906 Q1834.16 84.2758 1834.33 84.1611 Q1834.5 84.0176 1834.73 84.0176 Q1835.05 84.0176 1835.25 84.1897 Q1835.45 84.3619 1835.45 84.5914 Q1835.45 85.1079 1835.05 86.1408 Q1834.68 87.1738 1833.84 88.4649 Q1833.04 89.7561 1831.98 90.9325 Q1830.95 92.0802 1829.4 92.8836 Q1827.85 93.6583 1826.21 93.6583 Q1825.04 93.6583 1824.17 93.0844 Q1823.31 92.5393 1822.45 91.4776 Q1821.28 90.1291 1820.65 89.6987 Q1820.01 89.2396 1819.04 89.2396 Q1816.43 89.2396 1814.05 92.8836 Q1813.79 93.4 1813.62 93.5148 Q1813.47 93.6583 1813.13 93.6583 Q1812.41 93.6296 1812.41 93.0557 Q1812.41 92.8262 1813.04 91.822 Q1813.7 90.789 1815.16 88.9814 Q1816.66 87.1738 1818.46 85.3661 L1823.74 80.431 Q1829.6 75.4959 1831.92 72.7128 Q1830.95 72.7128 1830.52 72.6841 Q1830.11 72.6554 1829.31 72.4832 Q1828.51 72.2824 1827.39 71.852 Q1824.78 70.9625 1823.69 70.9625 Q1823.4 70.9625 1823.08 70.9912 Q1822.77 71.0199 1822.05 71.1634 Q1821.36 71.3068 1820.79 71.5937 Q1820.21 71.852 1819.61 72.4258 Q1819.01 72.971 1818.69 73.717 Q1818.61 73.9465 1818.55 74.0613 Q1818.49 74.1761 1818.32 74.2908 Q1818.18 74.3769 1817.95 74.3769 Q1817.6 74.3769 1817.4 74.1761 Q1817.23 73.9752 1817.23 73.717 Q1817.23 73.2005 1817.75 72.1389 Q1818.26 71.0773 1819.12 69.9296 Q1819.99 68.7532 1821.39 67.8924 Q1822.8 67.0316 1824.35 67.0316 Q1825.26 67.0316 1826.04 67.4333 Q1826.84 67.835 1827.24 68.2654 Q1827.67 68.6671 1828.39 69.5566 Q1828.99 70.2452 1829.28 70.5321 Q1829.57 70.819 1830.14 71.1347 Q1830.74 71.4216 1831.4 71.4216 Q1832.5 71.4216 1833.5 70.5895 Q1834.5 69.7287 1835.79 67.6629 Q1836.14 67.0316 1836.68 67.0316 Q1837.32 67.0316 1837.32 67.6055 Z" fill="#000000" fill-rule="evenodd" fill-opacity="1" /><path clip-path="url(#clip860)" d="M1869.32 63.8847 Q1869.41 62.86 1871.01 62.86 L1922.45 62.86 Q1924.87 62.86 1924.91 63.8028 Q1924.91 64.8275 1922.61 64.7865 L1871.58 64.7865 Q1869.32 64.8275 1869.32 63.8847 M1869.32 47.489 Q1869.32 46.4643 1871.09 46.5053 L1922.37 46.5053 Q1924.87 46.5053 1924.91 47.489 Q1924.91 48.4318 1922.77 48.4318 L1871.01 48.4318 Q1869.32 48.4318 1869.32 47.489 Z" fill="#000000" fill-rule="evenodd" fill-opacity="1" /><path clip-path="url(#clip860)" d="M1957.28 49.7844 Q1957.28 37.4467 1960.4 30.7244 Q1964.74 20.723 1974.99 20.723 Q1977.16 20.723 1979.42 21.3379 Q1981.71 21.9117 1984.58 24.1661 Q1987.49 26.4205 1989.26 30.1096 Q1992.62 37.2417 1992.62 49.7844 Q1992.62 62.0402 1989.5 68.7215 Q1984.95 78.4769 1974.91 78.4769 Q1971.14 78.4769 1967.29 76.5504 Q1963.47 74.6239 1961.06 69.9921 Q1957.28 63.065 1957.28 49.7844 M1964.25 48.7597 Q1964.25 61.4254 1965.15 66.4671 Q1966.18 71.9186 1968.97 74.296 Q1971.8 76.6324 1974.91 76.6324 Q1978.27 76.6324 1981.06 74.1321 Q1983.89 71.5907 1984.75 66.1392 Q1985.69 60.7696 1985.65 48.7597 Q1985.65 37.0778 1984.83 32.405 Q1983.72 26.9534 1980.77 24.781 Q1977.86 22.5675 1974.91 22.5675 Q1973.8 22.5675 1972.61 22.8955 Q1971.47 23.2234 1969.79 24.1661 Q1968.11 25.1089 1966.79 27.4453 Q1965.52 29.7817 1964.91 33.3067 Q1964.25 37.8565 1964.25 48.7597 Z" fill="#000000" fill-rule="evenodd" fill-opacity="1" /><path clip-path="url(#clip860)" d="M2000.13 75.2798 Q1998.86 73.9271 1998.86 72.1646 Q1998.86 70.402 2000.13 69.1314 Q2001.4 67.8197 2003.32 67.8197 Q2005.17 67.8197 2006.4 69.0494 Q2007.67 70.2381 2007.67 72.2056 Q2007.67 74.1321 2006.32 75.4027 Q2005 76.6324 2003.32 76.6324 Q2001.4 76.6324 2000.13 75.2798 Z" fill="#000000" fill-rule="evenodd" fill-opacity="1" /><path clip-path="url(#clip860)" d="M2021.95 76.6324 Q2021.95 75.1158 2022.08 74.6649 Q2022.24 74.214 2022.9 73.5172 L2039.01 55.5639 Q2047.82 45.6445 2047.82 36.9958 Q2047.82 31.3802 2044.87 27.3633 Q2041.96 23.3463 2036.59 23.3463 Q2032.9 23.3463 2029.78 25.6008 Q2026.67 27.8552 2025.23 31.8721 Q2025.48 31.7901 2026.34 31.7901 Q2028.43 31.7901 2029.58 33.1018 Q2030.77 34.4134 2030.77 36.176 Q2030.77 38.4304 2029.29 39.5371 Q2027.86 40.6028 2026.42 40.6028 Q2025.85 40.6028 2025.07 40.4799 Q2024.33 40.3569 2023.14 39.2092 Q2021.95 38.0205 2021.95 35.9301 Q2021.95 30.0686 2026.38 25.3958 Q2030.85 20.723 2037.65 20.723 Q2045.36 20.723 2050.4 25.3138 Q2055.48 29.8636 2055.48 36.9958 Q2055.48 39.4961 2054.7 41.7915 Q2053.97 44.0459 2052.94 45.8085 Q2051.96 47.571 2049.25 50.3993 Q2046.55 53.2275 2044.38 55.236 Q2042.2 57.2445 2037.33 61.5074 L2028.43 70.1561 L2043.56 70.1561 Q2050.93 70.1561 2051.51 69.5003 Q2052.33 68.3116 2053.35 62.0402 L2055.48 62.0402 L2053.11 76.6324 L2021.95 76.6324 Z" fill="#000000" fill-rule="evenodd" fill-opacity="1" /><path clip-path="url(#clip860)" d="M2063.86 63.1059 Q2063.86 60.6056 2065.21 59.6628 Q2066.57 58.6791 2068 58.6791 Q2069.93 58.6791 2071.03 59.9088 Q2072.18 61.0975 2072.18 62.778 Q2072.18 64.4586 2071.03 65.6883 Q2069.93 66.877 2068 66.877 Q2067.06 66.877 2066.57 66.713 Q2067.67 70.566 2071.03 73.3533 Q2074.44 76.1405 2078.9 76.1405 Q2084.52 76.1405 2087.88 70.689 Q2089.89 67.1639 2089.89 59.171 Q2089.89 52.1208 2088.37 48.5957 Q2086.04 43.2261 2081.24 43.2261 Q2074.44 43.2261 2070.42 49.0876 Q2069.93 49.8254 2069.35 49.8664 Q2068.53 49.8664 2068.33 49.4155 Q2068.16 48.9237 2068.16 47.653 L2068.16 22.8135 Q2068.16 20.805 2068.98 20.805 Q2069.31 20.805 2070.01 21.0509 Q2075.3 23.3873 2081.16 23.4283 Q2087.18 23.4283 2092.59 20.969 Q2093 20.723 2093.25 20.723 Q2094.07 20.723 2094.11 21.6658 Q2094.11 21.9937 2093.41 22.9774 Q2092.76 23.9202 2091.32 25.1909 Q2089.89 26.4205 2088.04 27.6092 Q2086.2 28.7979 2083.49 29.6177 Q2080.83 30.3965 2077.88 30.3965 Q2074.35 30.3965 2070.75 29.2898 L2070.75 45.6445 Q2075.09 41.3816 2081.4 41.3816 Q2088.13 41.3816 2092.76 46.7922 Q2097.39 52.2028 2097.39 59.7448 Q2097.39 67.6558 2091.9 73.0663 Q2086.45 78.4769 2079.07 78.4769 Q2072.35 78.4769 2068.08 73.6812 Q2063.86 68.8854 2063.86 63.1059 Z" fill="#000000" fill-rule="evenodd" fill-opacity="1" /><polyline clip-path="url(#clip862)" style="stroke:#009af9; stroke-linecap:butt; stroke-linejoin:round; stroke-width:4; stroke-opacity:1; fill:none" points="
  298.659,443.013 308.731,431.359 318.803,468.302 328.875,419.851 338.947,468.307 349.019,488.675 359.091,457.013 369.163,366.979 379.235,471.874 389.307,473.352 
  399.38,165.614 409.452,515.331 419.524,318.544 429.596,586.43 439.668,451.944 449.74,536.106 459.812,472.698 469.884,473.339 479.956,475.817 490.028,544.997 
  500.1,459.423 510.172,503.099 520.244,453.501 530.316,440.219 540.388,467.5 550.461,476.903 560.533,522.394 570.605,473.914 580.677,390.692 590.749,438.316 
  600.821,420.24 610.893,459.996 620.965,366.928 631.037,477.319 641.109,541.302 651.181,585.805 661.253,417.131 671.325,305.157 681.397,418.623 691.469,352.277 
  701.542,422.7 711.614,446.229 721.686,356.531 731.758,386.48 741.83,359.627 751.902,308.031 761.974,538.187 772.046,424.573 782.118,320.633 792.19,313.594 
  802.262,424.354 812.334,380.479 822.406,357.822 832.478,538.225 842.55,384.199 852.622,380.686 862.695,497.808 872.767,395.096 882.839,309.399 892.911,527.855 
  902.983,459 913.055,403.706 923.127,381.887 933.199,483.442 943.271,423.927 953.343,475.372 963.415,386.826 973.487,368.917 983.559,413.318 993.631,357.19 
  1003.7,383.3 1013.78,375.437 1023.85,400.26 1033.92,448.122 1043.99,394.028 1054.06,302.855 1064.14,445.067 1074.21,372.862 1084.28,354.905 1094.35,486.037 
  1104.42,466.879 1114.5,342.561 1124.57,433.89 1134.64,271.197 1144.71,283.438 1154.78,394.714 1164.86,412.579 1174.93,448.339 1185,308.088 1195.07,414.187 
  1205.14,318.471 1215.22,280.29 1225.29,433.232 1235.36,486.938 1245.43,339.995 1255.51,290.348 1265.58,413.234 1275.65,376.236 1285.72,440.053 1295.79,417.572 
  1305.87,378.53 1315.94,428.542 1326.01,334.104 1336.08,273.526 1346.15,337.062 1356.23,306.718 1366.3,411.197 1376.37,276.276 1386.44,493.436 1396.51,425.272 
  1406.59,363.821 1416.66,308.424 1426.73,417.653 1436.8,473.145 1446.87,361.245 1456.95,386.793 1467.02,369.329 1477.09,284.593 1487.16,491.655 1497.23,335.787 
  1507.31,441.788 1517.38,428.18 1527.45,350.732 1537.52,409.261 1547.6,304.398 1557.67,320.172 1567.74,345.358 1577.81,386.841 1587.88,417.36 1597.96,294.29 
  1608.03,361.988 1618.1,401.694 1628.17,363.855 1638.24,250.607 1648.32,328.274 1658.39,314.98 1668.46,354.843 1678.53,354.795 1688.6,338.59 1698.68,434.084 
  1708.75,344.459 1718.82,307.49 1728.89,347.132 1738.96,305.218 1749.04,261.385 1759.11,386.877 1769.18,328.725 1779.25,321.573 1789.32,359.914 1799.4,352.564 
  1809.47,367.985 1819.54,368.262 1829.61,275.328 1839.68,379.738 1849.76,214.299 1859.83,313.627 1869.9,305.546 1879.97,378.659 1890.05,286.74 1900.12,288.459 
  1910.19,327.411 1920.26,319.207 1930.33,335.087 1940.41,299.956 1950.48,258.123 1960.55,328.337 1970.62,349.83 1980.69,249.473 1990.77,229.944 2000.84,229.357 
  2010.91,351.065 2020.98,258.372 2031.05,355.192 2041.13,477.038 2051.2,274.007 2061.27,293.851 2071.34,377.16 2081.41,228.313 2091.49,415.725 2101.56,288.123 
  2111.63,261.431 2121.7,205.826 2131.77,209.509 2141.85,172.499 2151.92,231.41 2161.99,261.349 2172.06,311.08 2182.14,300.325 2192.21,333.53 2202.28,281.164 
  2212.35,274.766 2222.42,227.979 2232.5,225.357 2242.57,238.959 2252.64,364.887 2262.71,194.404 2272.78,292.028 2282.86,272.226 2292.93,289.405 
  "/>
<polyline clip-path="url(#clip862)" style="stroke:#e26f46; stroke-linecap:butt; stroke-linejoin:round; stroke-width:4; stroke-opacity:1; fill:none" points="
  298.659,380.59 308.731,404.791 318.803,457.352 328.875,422.363 338.947,446.037 349.019,457.347 359.091,467.225 369.163,363.826 379.235,464.93 389.307,479.338 
  399.38,159.909 409.452,511.372 419.524,325.403 429.596,583.918 439.668,453.384 449.74,533.285 459.812,477.368 469.884,481.284 479.956,464.8 490.028,543.447 
  500.1,462.142 510.172,509.25 520.244,451.024 530.316,432.908 540.388,473.51 550.461,470.234 560.533,531.788 570.605,471.347 580.677,394.687 590.749,448.274 
  600.821,434.696 610.893,471.84 620.965,369.337 631.037,477.804 641.109,528.804 651.181,588.982 661.253,409.63 671.325,299.095 681.397,423.009 691.469,356.759 
  701.542,420.867 711.614,448.755 721.686,363.685 731.758,382.928 741.83,356.494 751.902,305.441 761.974,544.168 772.046,423.272 782.118,311.227 792.19,332.551 
  802.262,413.417 812.334,397.75 822.406,354.763 832.478,535.098 842.55,383.216 852.622,377.678 862.695,501.217 872.767,393.685 882.839,294.866 892.911,529.102 
  902.983,452.847 913.055,409.41 923.127,385.091 933.199,489.883 943.271,424.193 953.343,471.143 963.415,390.375 973.487,363.998 983.559,410.281 993.631,361.255 
  1003.7,377.152 1013.78,384.094 1023.85,398.264 1033.92,449.102 1043.99,392.746 1054.06,309.693 1064.14,445.794 1074.21,374.919 1084.28,353.118 1094.35,485.197 
  1104.42,465.334 1114.5,335.941 1124.57,435.648 1134.64,275.943 1144.71,285.239 1154.78,392.596 1164.86,414.268 1174.93,449.342 1185,305.259 1195.07,415.625 
  1205.14,322.386 1215.22,274.805 1225.29,427.969 1235.36,484.308 1245.43,337.155 1255.51,295.547 1265.58,410.391 1275.65,374.956 1285.72,434.997 1295.79,420.425 
  1305.87,381.601 1315.94,426.731 1326.01,335.559 1336.08,266.654 1346.15,334.515 1356.23,312.398 1366.3,409.902 1376.37,269.114 1386.44,492.769 1396.51,423.685 
  1406.59,365.877 1416.66,316.699 1426.73,415.716 1436.8,472.295 1446.87,358.292 1456.95,387.025 1467.02,363.4 1477.09,282.411 1487.16,484.83 1497.23,338.885 
  1507.31,439.098 1517.38,428.956 1527.45,348.441 1537.52,408.746 1547.6,304.442 1557.67,325.874 1567.74,344.52 1577.81,385.381 1587.88,416.04 1597.96,291.991 
  1608.03,364.221 1618.1,397.101 1628.17,363.886 1638.24,249.726 1648.32,329.777 1658.39,314.986 1668.46,355.951 1678.53,354.677 1688.6,334.211 1698.68,434.514 
  1708.75,342.944 1718.82,309.113 1728.89,341.935 1738.96,309.884 1749.04,259.854 1759.11,390.445 1769.18,329.291 1779.25,318.469 1789.32,364.351 1799.4,348.06 
  1809.47,367.745 1819.54,367.746 1829.61,274.952 1839.68,376.618 1849.76,209.943 1859.83,314.246 1869.9,297.866 1879.97,373.91 1890.05,285.446 1900.12,288.736 
  1910.19,328.938 1920.26,322.335 1930.33,338.281 1940.41,294.224 1950.48,265.244 1960.55,331.348 1970.62,347.873 1980.69,253.669 1990.77,232.826 2000.84,226.953 
  2010.91,351.155 2020.98,258.228 2031.05,358.023 2041.13,475.999 2051.2,272.287 2061.27,289.139 2071.34,378.625 2081.41,230.675 2091.49,415.682 2101.56,284.926 
  2111.63,261.559 2121.7,205.009 2131.77,209.151 2141.85,175.68 2151.92,232.554 2161.99,263.456 2172.06,310.553 2182.14,298.718 2192.21,335.35 2202.28,285.034 
  2212.35,272.929 2222.42,227.513 2232.5,225.741 2242.57,233.702 2252.64,362.759 2262.71,191.754 2272.78,292.617 2282.86,272.822 2292.93,286.009 
  "/>
<polyline clip-path="url(#clip862)" style="stroke:#3da44d; stroke-linecap:butt; stroke-linejoin:round; stroke-width:4; stroke-opacity:1; fill:none" points="
  298.659,456.293 308.731,466.596 318.803,664.63 328.875,676.443 338.947,743.146 349.019,792.521 359.091,808.88 369.163,755.62 379.235,878.385 389.307,846.949 
  399.38,630.868 409.452,928.664 419.524,817.36 429.596,936.082 439.668,964.264 449.74,1018.31 459.812,1023.22 469.884,962.835 479.956,1035.68 490.028,1044.21 
  500.1,1004.33 510.172,989.077 520.244,1070.48 530.316,1029.47 540.388,1094.86 550.461,1027.02 560.533,1084.67 570.605,1043.03 580.677,1064.1 590.749,1113.05 
  600.821,943.72 610.893,1079.85 620.965,1022.7 631.037,1102.32 641.109,1138.7 651.181,1141.41 661.253,1077.48 671.325,1021.02 681.397,1118.82 691.469,1061.23 
  701.542,1107.42 711.614,1145.71 721.686,1134.24 731.758,1068.05 741.83,1093.37 751.902,1091.33 761.974,1164.97 772.046,1100.3 782.118,1114.61 792.19,1110.52 
  802.262,1138.06 812.334,1131.44 822.406,1165.75 832.478,1169.82 842.55,1088.58 852.622,1159.26 862.695,1185.81 872.767,1133.63 882.839,1106.46 892.911,1168.29 
  902.983,1228.7 913.055,1228.38 923.127,1132.24 933.199,1255.23 943.271,1127.36 953.343,1193.48 963.415,1148.55 973.487,1193.15 983.559,1176.62 993.631,1164.61 
  1003.7,1121.95 1013.78,1196.78 1023.85,1139.96 1033.92,1221.27 1043.99,1173.24 1054.06,1057.39 1064.14,1209.23 1074.21,1168.07 1084.28,1127.06 1094.35,1250.46 
  1104.42,1163.26 1114.5,1152.93 1124.57,1220.3 1134.64,1210.75 1144.71,1226.25 1154.78,1227.58 1164.86,1196.03 1174.93,1201.82 1185,1180.54 1195.07,1200.21 
  1205.14,1146.18 1215.22,1149.92 1225.29,1209.06 1235.36,1304.46 1245.43,1205.32 1255.51,1183.39 1265.58,1208.28 1275.65,1170.83 1285.72,1247.55 1295.79,1258.95 
  1305.87,1282.95 1315.94,1240 1326.01,1194.52 1336.08,1086.87 1346.15,1214.47 1356.23,1232.97 1366.3,1275.36 1376.37,1206.75 1386.44,1277.87 1396.51,1234.77 
  1406.59,1226.62 1416.66,1205.44 1426.73,1330.48 1436.8,1326.7 1446.87,1262.71 1456.95,1267.28 1467.02,1261.76 1477.09,1260.47 1487.16,1258.74 1497.23,1247.66 
  1507.31,1277.3 1517.38,1291.31 1527.45,1271.02 1537.52,1303.24 1547.6,1197.98 1557.67,1253.71 1567.74,1346.85 1577.81,1281.86 1587.88,1260.73 1597.96,1265.42 
  1608.03,1271.62 1618.1,1268.83 1628.17,1296.77 1638.24,1246.48 1648.32,1264.23 1658.39,1266.08 1668.46,1265.96 1678.53,1298.6 1688.6,1280.74 1698.68,1235.18 
  1708.75,1248.5 1718.82,1173.58 1728.89,1255.37 1738.96,1243.94 1749.04,1213.43 1759.11,1281.7 1769.18,1267.47 1779.25,1221.87 1789.32,1233.57 1799.4,1285.1 
  1809.47,1331.13 1819.54,1299.85 1829.61,1311.38 1839.68,1290.59 1849.76,1239.1 1859.83,1294.34 1869.9,1338.51 1879.97,1304.34 1890.05,1302.45 1900.12,1279.02 
  1910.19,1258.09 1920.26,1362.3 1930.33,1309.91 1940.41,1329.52 1950.48,1286.6 1960.55,1289.25 1970.62,1271.13 1980.69,1233.71 1990.77,1279.02 2000.84,1211.12 
  2010.91,1302.4 2020.98,1277 2031.05,1362.3 2041.13,1374.46 2051.2,1280.03 2061.27,1293.83 2071.34,1307.16 2081.41,1259.42 2091.49,1360.68 2101.56,1291.56 
  2111.63,1329.86 2121.7,1251.17 2131.77,1237.87 2141.85,1165.86 2151.92,1338.36 2161.99,1264.07 2172.06,1355.37 2182.14,1286.76 2192.21,1307.78 2202.28,1299.39 
  2212.35,1347.85 2222.42,1316.06 2232.5,1302.01 2242.57,1292.75 2252.64,1285.91 2262.71,1291.84 2272.78,1285.35 2282.86,1340.08 2292.93,1301.33 
  "/>
<path clip-path="url(#clip860)" d="
M1958.89 373.746 L2282.29 373.746 L2282.29 166.386 L1958.89 166.386  Z
  " fill="#ffffff" fill-rule="evenodd" fill-opacity="1"/>
<polyline clip-path="url(#clip860)" style="stroke:#000000; stroke-linecap:butt; stroke-linejoin:round; stroke-width:4; stroke-opacity:1; fill:none" points="
  1958.89,373.746 2282.29,373.746 2282.29,166.386 1958.89,166.386 1958.89,373.746 
  "/>
<polyline clip-path="url(#clip860)" style="stroke:#009af9; stroke-linecap:butt; stroke-linejoin:round; stroke-width:4; stroke-opacity:1; fill:none" points="
  1982.38,218.226 2123.31,218.226 
  "/>
<path clip-path="url(#clip860)" d="M2160.2 222.474 Q2155.04 222.474 2153.05 223.654 Q2151.06 224.835 2151.06 227.682 Q2151.06 229.951 2152.54 231.293 Q2154.04 232.613 2156.61 232.613 Q2160.15 232.613 2162.28 230.113 Q2164.44 227.59 2164.44 223.423 L2164.44 222.474 L2160.2 222.474 M2168.7 220.715 L2168.7 235.506 L2164.44 235.506 L2164.44 231.571 Q2162.98 233.932 2160.8 235.066 Q2158.63 236.178 2155.48 236.178 Q2151.5 236.178 2149.14 233.955 Q2146.8 231.71 2146.8 227.96 Q2146.8 223.585 2149.71 221.363 Q2152.65 219.141 2158.46 219.141 L2164.44 219.141 L2164.44 218.724 Q2164.44 215.784 2162.49 214.187 Q2160.57 212.567 2157.08 212.567 Q2154.85 212.567 2152.75 213.099 Q2150.64 213.631 2148.7 214.696 L2148.7 210.761 Q2151.03 209.858 2153.23 209.418 Q2155.43 208.955 2157.52 208.955 Q2163.14 208.955 2165.92 211.872 Q2168.7 214.789 2168.7 220.715 Z" fill="#000000" fill-rule="evenodd" fill-opacity="1" /><path clip-path="url(#clip860)" d="M2174.41 209.58 L2178.93 209.58 L2187.03 231.34 L2195.13 209.58 L2199.64 209.58 L2189.92 235.506 L2184.14 235.506 L2174.41 209.58 Z" fill="#000000" fill-rule="evenodd" fill-opacity="1" /><path clip-path="url(#clip860)" d="M2222.58 222.242 Q2222.58 217.613 2220.66 215.067 Q2218.76 212.52 2215.32 212.52 Q2211.89 212.52 2209.97 215.067 Q2208.07 217.613 2208.07 222.242 Q2208.07 226.849 2209.97 229.395 Q2211.89 231.941 2215.32 231.941 Q2218.76 231.941 2220.66 229.395 Q2222.58 226.849 2222.58 222.242 M2226.84 232.289 Q2226.84 238.909 2223.9 242.127 Q2220.96 245.367 2214.9 245.367 Q2212.65 245.367 2210.66 245.02 Q2208.67 244.696 2206.8 244.002 L2206.8 239.858 Q2208.67 240.877 2210.5 241.363 Q2212.33 241.849 2214.23 241.849 Q2218.42 241.849 2220.5 239.65 Q2222.58 237.474 2222.58 233.053 L2222.58 230.946 Q2221.26 233.238 2219.2 234.372 Q2217.14 235.506 2214.27 235.506 Q2209.51 235.506 2206.59 231.872 Q2203.67 228.238 2203.67 222.242 Q2203.67 216.224 2206.59 212.59 Q2209.51 208.955 2214.27 208.955 Q2217.14 208.955 2219.2 210.09 Q2221.26 211.224 2222.58 213.516 L2222.58 209.58 L2226.84 209.58 L2226.84 232.289 Z" fill="#000000" fill-rule="evenodd" fill-opacity="1" /><polyline clip-path="url(#clip860)" style="stroke:#e26f46; stroke-linecap:butt; stroke-linejoin:round; stroke-width:4; stroke-opacity:1; fill:none" points="
  1982.38,270.066 2123.31,270.066 
  "/>
<path clip-path="url(#clip860)" d="M2162.82 255.958 Q2157.72 255.958 2154.71 259.754 Q2151.73 263.55 2151.73 270.101 Q2151.73 276.629 2154.71 280.425 Q2157.72 284.221 2162.82 284.221 Q2167.91 284.221 2170.87 280.425 Q2173.86 276.629 2173.86 270.101 Q2173.86 263.55 2170.87 259.754 Q2167.91 255.958 2162.82 255.958 M2162.82 252.161 Q2170.08 252.161 2174.44 257.046 Q2178.79 261.907 2178.79 270.101 Q2178.79 278.272 2174.44 283.156 Q2170.08 288.018 2162.82 288.018 Q2155.52 288.018 2151.15 283.156 Q2146.8 278.295 2146.8 270.101 Q2146.8 261.907 2151.15 257.046 Q2155.52 252.161 2162.82 252.161 Z" fill="#000000" fill-rule="evenodd" fill-opacity="1" /><path clip-path="url(#clip860)" d="M2186.1 252.786 L2190.78 252.786 L2190.78 283.411 L2207.61 283.411 L2207.61 287.346 L2186.1 287.346 L2186.1 252.786 Z" fill="#000000" fill-rule="evenodd" fill-opacity="1" /><path clip-path="url(#clip860)" d="M2233.23 253.921 L2233.23 258.481 Q2230.57 257.208 2228.21 256.583 Q2225.85 255.958 2223.65 255.958 Q2219.83 255.958 2217.75 257.439 Q2215.69 258.921 2215.69 261.652 Q2215.69 263.944 2217.05 265.124 Q2218.44 266.282 2222.28 266.999 L2225.11 267.578 Q2230.34 268.573 2232.82 271.096 Q2235.32 273.596 2235.32 277.809 Q2235.32 282.832 2231.94 285.425 Q2228.58 288.018 2222.07 288.018 Q2219.62 288.018 2216.84 287.462 Q2214.09 286.906 2211.13 285.819 L2211.13 281.004 Q2213.97 282.601 2216.7 283.411 Q2219.44 284.221 2222.07 284.221 Q2226.08 284.221 2228.26 282.647 Q2230.43 281.073 2230.43 278.157 Q2230.43 275.61 2228.86 274.175 Q2227.31 272.74 2223.74 272.022 L2220.89 271.467 Q2215.66 270.425 2213.33 268.203 Q2210.99 265.981 2210.99 262.022 Q2210.99 257.439 2214.2 254.8 Q2217.45 252.161 2223.12 252.161 Q2225.55 252.161 2228.07 252.601 Q2230.59 253.041 2233.23 253.921 Z" fill="#000000" fill-rule="evenodd" fill-opacity="1" /><polyline clip-path="url(#clip860)" style="stroke:#3da44d; stroke-linecap:butt; stroke-linejoin:round; stroke-width:4; stroke-opacity:1; fill:none" points="
  1982.38,321.906 2123.31,321.906 
  "/>
<path clip-path="url(#clip860)" d="M2151.47 308.469 L2151.47 321.455 L2157.35 321.455 Q2160.62 321.455 2162.4 319.765 Q2164.18 318.075 2164.18 314.95 Q2164.18 311.848 2162.4 310.159 Q2160.62 308.469 2157.35 308.469 L2151.47 308.469 M2146.8 304.626 L2157.35 304.626 Q2163.16 304.626 2166.13 307.265 Q2169.11 309.881 2169.11 314.95 Q2169.11 320.066 2166.13 322.682 Q2163.16 325.297 2157.35 325.297 L2151.47 325.297 L2151.47 339.186 L2146.8 339.186 L2146.8 304.626 Z" fill="#000000" fill-rule="evenodd" fill-opacity="1" /><path clip-path="url(#clip860)" d="M2175.39 304.626 L2180.06 304.626 L2180.06 335.251 L2196.89 335.251 L2196.89 339.186 L2175.39 339.186 L2175.39 304.626 Z" fill="#000000" fill-rule="evenodd" fill-opacity="1" /><path clip-path="url(#clip860)" d="M2222.51 305.761 L2222.51 310.321 Q2219.85 309.048 2217.49 308.423 Q2215.13 307.798 2212.93 307.798 Q2209.11 307.798 2207.03 309.279 Q2204.97 310.761 2204.97 313.492 Q2204.97 315.784 2206.33 316.964 Q2207.72 318.122 2211.57 318.839 L2214.39 319.418 Q2219.62 320.413 2222.1 322.936 Q2224.6 325.436 2224.6 329.649 Q2224.6 334.672 2221.22 337.265 Q2217.86 339.858 2211.36 339.858 Q2208.9 339.858 2206.13 339.302 Q2203.37 338.746 2200.41 337.659 L2200.41 332.844 Q2203.26 334.441 2205.99 335.251 Q2208.72 336.061 2211.36 336.061 Q2215.36 336.061 2217.54 334.487 Q2219.71 332.913 2219.71 329.997 Q2219.71 327.45 2218.14 326.015 Q2216.59 324.58 2213.02 323.862 L2210.18 323.307 Q2204.95 322.265 2202.61 320.043 Q2200.27 317.821 2200.27 313.862 Q2200.27 309.279 2203.49 306.64 Q2206.73 304.001 2212.4 304.001 Q2214.83 304.001 2217.35 304.441 Q2219.88 304.881 2222.51 305.761 Z" fill="#000000" fill-rule="evenodd" fill-opacity="1" /></svg>
