<?xml version="1.0" encoding="utf-8"?>
<svg xmlns="http://www.w3.org/2000/svg" xmlns:xlink="http://www.w3.org/1999/xlink" width="600" height="400" viewBox="0 0 2400 1600">
<defs>
  <clipPath id="clip280">
    <rect x="0" y="0" width="2400" height="1600"/>
  </clipPath>
</defs>
<path clip-path="url(#clip280)" d="
M0 1600 L2400 1600 L2400 0 L0 0  Z
  " fill="#ffffff" fill-rule="evenodd" fill-opacity="1"/>
<defs>
  <clipPath id="clip281">
    <rect x="480" y="0" width="1681" height="1600"/>
  </clipPath>
</defs>
<path clip-path="url(#clip280)" d="
M238.831 1410.9 L2352.76 1410.9 L2352.76 123.472 L238.831 123.472  Z
  " fill="#ffffff" fill-rule="evenodd" fill-opacity="1"/>
<defs>
  <clipPath id="clip282">
    <rect x="238" y="123" width="2115" height="1288"/>
  </clipPath>
</defs>
<polyline clip-path="url(#clip282)" style="stroke:#000000; stroke-linecap:butt; stroke-linejoin:round; stroke-width:2; stroke-opacity:0.1; fill:none" points="
  278.515,1410.9 278.515,123.472 
  "/>
<polyline clip-path="url(#clip282)" style="stroke:#000000; stroke-linecap:butt; stroke-linejoin:round; stroke-width:2; stroke-opacity:0.1; fill:none" points="
  782.118,1410.9 782.118,123.472 
  "/>
<polyline clip-path="url(#clip282)" style="stroke:#000000; stroke-linecap:butt; stroke-linejoin:round; stroke-width:2; stroke-opacity:0.1; fill:none" points="
  1285.72,1410.9 1285.72,123.472 
  "/>
<polyline clip-path="url(#clip282)" style="stroke:#000000; stroke-linecap:butt; stroke-linejoin:round; stroke-width:2; stroke-opacity:0.1; fill:none" points="
  1789.32,1410.9 1789.32,123.472 
  "/>
<polyline clip-path="url(#clip282)" style="stroke:#000000; stroke-linecap:butt; stroke-linejoin:round; stroke-width:2; stroke-opacity:0.1; fill:none" points="
  2292.93,1410.9 2292.93,123.472 
  "/>
<polyline clip-path="url(#clip280)" style="stroke:#000000; stroke-linecap:butt; stroke-linejoin:round; stroke-width:4; stroke-opacity:1; fill:none" points="
  238.831,1410.9 2352.76,1410.9 
  "/>
<polyline clip-path="url(#clip280)" style="stroke:#000000; stroke-linecap:butt; stroke-linejoin:round; stroke-width:4; stroke-opacity:1; fill:none" points="
  278.515,1410.9 278.515,1392 
  "/>
<polyline clip-path="url(#clip280)" style="stroke:#000000; stroke-linecap:butt; stroke-linejoin:round; stroke-width:4; stroke-opacity:1; fill:none" points="
  782.118,1410.9 782.118,1392 
  "/>
<polyline clip-path="url(#clip280)" style="stroke:#000000; stroke-linecap:butt; stroke-linejoin:round; stroke-width:4; stroke-opacity:1; fill:none" points="
  1285.72,1410.9 1285.72,1392 
  "/>
<polyline clip-path="url(#clip280)" style="stroke:#000000; stroke-linecap:butt; stroke-linejoin:round; stroke-width:4; stroke-opacity:1; fill:none" points="
  1789.32,1410.9 1789.32,1392 
  "/>
<polyline clip-path="url(#clip280)" style="stroke:#000000; stroke-linecap:butt; stroke-linejoin:round; stroke-width:4; stroke-opacity:1; fill:none" points="
  2292.93,1410.9 2292.93,1392 
  "/>
<path clip-path="url(#clip280)" d="M278.515 1441.82 Q274.904 1441.82 273.075 1445.38 Q271.269 1448.92 271.269 1456.05 Q271.269 1463.16 273.075 1466.72 Q274.904 1470.26 278.515 1470.26 Q282.149 1470.26 283.955 1466.72 Q285.783 1463.16 285.783 1456.05 Q285.783 1448.92 283.955 1445.38 Q282.149 1441.82 278.515 1441.82 M278.515 1438.11 Q284.325 1438.11 287.38 1442.72 Q290.459 1447.3 290.459 1456.05 Q290.459 1464.78 287.38 1469.38 Q284.325 1473.97 278.515 1473.97 Q272.705 1473.97 269.626 1469.38 Q266.57 1464.78 266.57 1456.05 Q266.57 1447.3 269.626 1442.72 Q272.705 1438.11 278.515 1438.11 Z" fill="#000000" fill-rule="evenodd" fill-opacity="1" /><path clip-path="url(#clip280)" d="M674.935 1454.4 L693.291 1454.4 L693.291 1458.33 L679.217 1458.33 L679.217 1466.8 Q680.236 1466.46 681.254 1466.29 Q682.273 1466.11 683.291 1466.11 Q689.078 1466.11 692.458 1469.28 Q695.837 1472.45 695.837 1477.87 Q695.837 1483.45 692.365 1486.55 Q688.893 1489.63 682.574 1489.63 Q680.398 1489.63 678.129 1489.26 Q675.884 1488.89 673.476 1488.15 L673.476 1483.45 Q675.56 1484.58 677.782 1485.14 Q680.004 1485.69 682.481 1485.69 Q686.486 1485.69 688.824 1483.59 Q691.161 1481.48 691.161 1477.87 Q691.161 1474.26 688.824 1472.15 Q686.486 1470.04 682.481 1470.04 Q680.606 1470.04 678.731 1470.46 Q676.879 1470.88 674.935 1471.76 L674.935 1454.4 Z" fill="#000000" fill-rule="evenodd" fill-opacity="1" /><path clip-path="url(#clip280)" d="M705.05 1483.08 L709.935 1483.08 L709.935 1488.96 L705.05 1488.96 L705.05 1483.08 Z" fill="#000000" fill-rule="evenodd" fill-opacity="1" /><path clip-path="url(#clip280)" d="M730.12 1457.48 Q726.509 1457.48 724.68 1461.04 Q722.874 1464.58 722.874 1471.71 Q722.874 1478.82 724.68 1482.38 Q726.509 1485.92 730.12 1485.92 Q733.754 1485.92 735.559 1482.38 Q737.388 1478.82 737.388 1471.71 Q737.388 1464.58 735.559 1461.04 Q733.754 1457.48 730.12 1457.48 M730.12 1453.77 Q735.93 1453.77 738.985 1458.38 Q742.064 1462.96 742.064 1471.71 Q742.064 1480.44 738.985 1485.04 Q735.93 1489.63 730.12 1489.63 Q724.309 1489.63 721.231 1485.04 Q718.175 1480.44 718.175 1471.71 Q718.175 1462.96 721.231 1458.38 Q724.309 1453.77 730.12 1453.77 Z" fill="#000000" fill-rule="evenodd" fill-opacity="1" /><path clip-path="url(#clip280)" d="M760.281 1457.48 Q756.67 1457.48 754.842 1461.04 Q753.036 1464.58 753.036 1471.71 Q753.036 1478.82 754.842 1482.38 Q756.67 1485.92 760.281 1485.92 Q763.916 1485.92 765.721 1482.38 Q767.55 1478.82 767.55 1471.71 Q767.55 1464.58 765.721 1461.04 Q763.916 1457.48 760.281 1457.48 M760.281 1453.77 Q766.092 1453.77 769.147 1458.38 Q772.226 1462.96 772.226 1471.71 Q772.226 1480.44 769.147 1485.04 Q766.092 1489.63 760.281 1489.63 Q754.471 1489.63 751.393 1485.04 Q748.337 1480.44 748.337 1471.71 Q748.337 1462.96 751.393 1458.38 Q754.471 1453.77 760.281 1453.77 Z" fill="#000000" fill-rule="evenodd" fill-opacity="1" /><path clip-path="url(#clip280)" d="M808.615 1463.49 L798.036 1474.12 L808.615 1484.7 L805.86 1487.5 L795.235 1476.87 L784.61 1487.5 L781.879 1484.7 L792.434 1474.12 L781.879 1463.49 L784.61 1460.69 L795.235 1471.32 L805.86 1460.69 L808.615 1463.49 Z" fill="#000000" fill-rule="evenodd" fill-opacity="1" /><path clip-path="url(#clip280)" d="M820.976 1485.02 L828.614 1485.02 L828.614 1458.66 L820.304 1460.32 L820.304 1456.06 L828.568 1454.4 L833.244 1454.4 L833.244 1485.02 L840.883 1485.02 L840.883 1488.96 L820.976 1488.96 L820.976 1485.02 Z" fill="#000000" fill-rule="evenodd" fill-opacity="1" /><path clip-path="url(#clip280)" d="M860.327 1457.48 Q856.716 1457.48 854.887 1461.04 Q853.082 1464.58 853.082 1471.71 Q853.082 1478.82 854.887 1482.38 Q856.716 1485.92 860.327 1485.92 Q863.961 1485.92 865.767 1482.38 Q867.596 1478.82 867.596 1471.71 Q867.596 1464.58 865.767 1461.04 Q863.961 1457.48 860.327 1457.48 M860.327 1453.77 Q866.137 1453.77 869.193 1458.38 Q872.272 1462.96 872.272 1471.71 Q872.272 1480.44 869.193 1485.04 Q866.137 1489.63 860.327 1489.63 Q854.517 1489.63 851.438 1485.04 Q848.383 1480.44 848.383 1471.71 Q848.383 1462.96 851.438 1458.38 Q854.517 1453.77 860.327 1453.77 Z" fill="#000000" fill-rule="evenodd" fill-opacity="1" /><path clip-path="url(#clip280)" d="M884.967 1446.41 Q887.694 1446.99 889.217 1448.83 Q890.76 1450.68 890.76 1453.38 Q890.76 1457.54 887.901 1459.82 Q885.042 1462.09 879.776 1462.09 Q878.008 1462.09 876.127 1461.73 Q874.265 1461.4 872.272 1460.7 L872.272 1457.03 Q873.851 1457.95 875.732 1458.42 Q877.613 1458.89 879.663 1458.89 Q883.237 1458.89 885.099 1457.48 Q886.979 1456.07 886.979 1453.38 Q886.979 1450.9 885.23 1449.51 Q883.5 1448.1 880.397 1448.1 L877.124 1448.1 L877.124 1444.98 L880.547 1444.98 Q883.349 1444.98 884.835 1443.87 Q886.321 1442.74 886.321 1440.63 Q886.321 1438.47 884.779 1437.32 Q883.255 1436.16 880.397 1436.16 Q878.836 1436.16 877.049 1436.49 Q875.262 1436.83 873.118 1437.55 L873.118 1434.16 Q875.281 1433.56 877.162 1433.26 Q879.061 1432.96 880.735 1432.96 Q885.061 1432.96 887.581 1434.93 Q890.101 1436.89 890.101 1440.24 Q890.101 1442.57 888.766 1444.19 Q887.431 1445.79 884.967 1446.41 Z" fill="#000000" fill-rule="evenodd" fill-opacity="1" /><path clip-path="url(#clip280)" d="M1177.54 1485.02 L1185.18 1485.02 L1185.18 1458.66 L1176.87 1460.32 L1176.87 1456.06 L1185.13 1454.4 L1189.81 1454.4 L1189.81 1485.02 L1197.45 1485.02 L1197.45 1488.96 L1177.54 1488.96 L1177.54 1485.02 Z" fill="#000000" fill-rule="evenodd" fill-opacity="1" /><path clip-path="url(#clip280)" d="M1206.89 1483.08 L1211.77 1483.08 L1211.77 1488.96 L1206.89 1488.96 L1206.89 1483.08 Z" fill="#000000" fill-rule="evenodd" fill-opacity="1" /><path clip-path="url(#clip280)" d="M1231.96 1457.48 Q1228.35 1457.48 1226.52 1461.04 Q1224.71 1464.58 1224.71 1471.71 Q1224.71 1478.82 1226.52 1482.38 Q1228.35 1485.92 1231.96 1485.92 Q1235.59 1485.92 1237.4 1482.38 Q1239.23 1478.82 1239.23 1471.71 Q1239.23 1464.58 1237.4 1461.04 Q1235.59 1457.48 1231.96 1457.48 M1231.96 1453.77 Q1237.77 1453.77 1240.83 1458.38 Q1243.9 1462.96 1243.9 1471.71 Q1243.9 1480.44 1240.83 1485.04 Q1237.77 1489.63 1231.96 1489.63 Q1226.15 1489.63 1223.07 1485.04 Q1220.02 1480.44 1220.02 1471.71 Q1220.02 1462.96 1223.07 1458.38 Q1226.15 1453.77 1231.96 1453.77 Z" fill="#000000" fill-rule="evenodd" fill-opacity="1" /><path clip-path="url(#clip280)" d="M1262.12 1457.48 Q1258.51 1457.48 1256.68 1461.04 Q1254.88 1464.58 1254.88 1471.71 Q1254.88 1478.82 1256.68 1482.38 Q1258.51 1485.92 1262.12 1485.92 Q1265.76 1485.92 1267.56 1482.38 Q1269.39 1478.82 1269.39 1471.71 Q1269.39 1464.58 1267.56 1461.04 Q1265.76 1457.48 1262.12 1457.48 M1262.12 1453.77 Q1267.93 1453.77 1270.99 1458.38 Q1274.07 1462.96 1274.07 1471.71 Q1274.07 1480.44 1270.99 1485.04 Q1267.93 1489.63 1262.12 1489.63 Q1256.31 1489.63 1253.23 1485.04 Q1250.18 1480.44 1250.18 1471.71 Q1250.18 1462.96 1253.23 1458.38 Q1256.31 1453.77 1262.12 1453.77 Z" fill="#000000" fill-rule="evenodd" fill-opacity="1" /><path clip-path="url(#clip280)" d="M1310.45 1463.49 L1299.88 1474.12 L1310.45 1484.7 L1307.7 1487.5 L1297.08 1476.87 L1286.45 1487.5 L1283.72 1484.7 L1294.27 1474.12 L1283.72 1463.49 L1286.45 1460.69 L1297.08 1471.32 L1307.7 1460.69 L1310.45 1463.49 Z" fill="#000000" fill-rule="evenodd" fill-opacity="1" /><path clip-path="url(#clip280)" d="M1322.82 1485.02 L1330.45 1485.02 L1330.45 1458.66 L1322.14 1460.32 L1322.14 1456.06 L1330.41 1454.4 L1335.08 1454.4 L1335.08 1485.02 L1342.72 1485.02 L1342.72 1488.96 L1322.82 1488.96 L1322.82 1485.02 Z" fill="#000000" fill-rule="evenodd" fill-opacity="1" /><path clip-path="url(#clip280)" d="M1362.17 1457.48 Q1358.56 1457.48 1356.73 1461.04 Q1354.92 1464.58 1354.92 1471.71 Q1354.92 1478.82 1356.73 1482.38 Q1358.56 1485.92 1362.17 1485.92 Q1365.8 1485.92 1367.61 1482.38 Q1369.44 1478.82 1369.44 1471.71 Q1369.44 1464.58 1367.61 1461.04 Q1365.8 1457.48 1362.17 1457.48 M1362.17 1453.77 Q1367.98 1453.77 1371.03 1458.38 Q1374.11 1462.96 1374.11 1471.71 Q1374.11 1480.44 1371.03 1485.04 Q1367.98 1489.63 1362.17 1489.63 Q1356.36 1489.63 1353.28 1485.04 Q1350.22 1480.44 1350.22 1471.71 Q1350.22 1462.96 1353.28 1458.38 Q1356.36 1453.77 1362.17 1453.77 Z" fill="#000000" fill-rule="evenodd" fill-opacity="1" /><path clip-path="url(#clip280)" d="M1386.79 1436.78 L1377.2 1451.77 L1386.79 1451.77 L1386.79 1436.78 M1385.79 1433.47 L1390.57 1433.47 L1390.57 1451.77 L1394.57 1451.77 L1394.57 1454.93 L1390.57 1454.93 L1390.57 1461.55 L1386.79 1461.55 L1386.79 1454.93 L1374.11 1454.93 L1374.11 1451.26 L1385.79 1433.47 Z" fill="#000000" fill-rule="evenodd" fill-opacity="1" /><path clip-path="url(#clip280)" d="M1681.14 1485.02 L1688.78 1485.02 L1688.78 1458.66 L1680.47 1460.32 L1680.47 1456.06 L1688.73 1454.4 L1693.41 1454.4 L1693.41 1485.02 L1701.05 1485.02 L1701.05 1488.96 L1681.14 1488.96 L1681.14 1485.02 Z" fill="#000000" fill-rule="evenodd" fill-opacity="1" /><path clip-path="url(#clip280)" d="M1710.49 1483.08 L1715.38 1483.08 L1715.38 1488.96 L1710.49 1488.96 L1710.49 1483.08 Z" fill="#000000" fill-rule="evenodd" fill-opacity="1" /><path clip-path="url(#clip280)" d="M1725.61 1454.4 L1743.97 1454.4 L1743.97 1458.33 L1729.89 1458.33 L1729.89 1466.8 Q1730.91 1466.46 1731.93 1466.29 Q1732.95 1466.11 1733.97 1466.11 Q1739.75 1466.11 1743.13 1469.28 Q1746.51 1472.45 1746.51 1477.87 Q1746.51 1483.45 1743.04 1486.55 Q1739.57 1489.63 1733.25 1489.63 Q1731.07 1489.63 1728.8 1489.26 Q1726.56 1488.89 1724.15 1488.15 L1724.15 1483.45 Q1726.23 1484.58 1728.46 1485.14 Q1730.68 1485.69 1733.16 1485.69 Q1737.16 1485.69 1739.5 1483.59 Q1741.84 1481.48 1741.84 1477.87 Q1741.84 1474.26 1739.5 1472.15 Q1737.16 1470.04 1733.16 1470.04 Q1731.28 1470.04 1729.41 1470.46 Q1727.55 1470.88 1725.61 1471.76 L1725.61 1454.4 Z" fill="#000000" fill-rule="evenodd" fill-opacity="1" /><path clip-path="url(#clip280)" d="M1765.73 1457.48 Q1762.11 1457.48 1760.29 1461.04 Q1758.48 1464.58 1758.48 1471.71 Q1758.48 1478.82 1760.29 1482.38 Q1762.11 1485.92 1765.73 1485.92 Q1769.36 1485.92 1771.16 1482.38 Q1772.99 1478.82 1772.99 1471.71 Q1772.99 1464.58 1771.16 1461.04 Q1769.36 1457.48 1765.73 1457.48 M1765.73 1453.77 Q1771.54 1453.77 1774.59 1458.38 Q1777.67 1462.96 1777.67 1471.71 Q1777.67 1480.44 1774.59 1485.04 Q1771.54 1489.63 1765.73 1489.63 Q1759.92 1489.63 1756.84 1485.04 Q1753.78 1480.44 1753.78 1471.71 Q1753.78 1462.96 1756.84 1458.38 Q1759.92 1453.77 1765.73 1453.77 Z" fill="#000000" fill-rule="evenodd" fill-opacity="1" /><path clip-path="url(#clip280)" d="M1814.06 1463.49 L1803.48 1474.12 L1814.06 1484.7 L1811.3 1487.5 L1800.68 1476.87 L1790.05 1487.5 L1787.32 1484.7 L1797.88 1474.12 L1787.32 1463.49 L1790.05 1460.69 L1800.68 1471.32 L1811.3 1460.69 L1814.06 1463.49 Z" fill="#000000" fill-rule="evenodd" fill-opacity="1" /><path clip-path="url(#clip280)" d="M1826.42 1485.02 L1834.06 1485.02 L1834.06 1458.66 L1825.75 1460.32 L1825.75 1456.06 L1834.01 1454.4 L1838.69 1454.4 L1838.69 1485.02 L1846.33 1485.02 L1846.33 1488.96 L1826.42 1488.96 L1826.42 1485.02 Z" fill="#000000" fill-rule="evenodd" fill-opacity="1" /><path clip-path="url(#clip280)" d="M1865.77 1457.48 Q1862.16 1457.48 1860.33 1461.04 Q1858.53 1464.58 1858.53 1471.71 Q1858.53 1478.82 1860.33 1482.38 Q1862.16 1485.92 1865.77 1485.92 Q1869.41 1485.92 1871.21 1482.38 Q1873.04 1478.82 1873.04 1471.71 Q1873.04 1464.58 1871.21 1461.04 Q1869.41 1457.48 1865.77 1457.48 M1865.77 1453.77 Q1871.58 1453.77 1874.64 1458.38 Q1877.72 1462.96 1877.72 1471.71 Q1877.72 1480.44 1874.64 1485.04 Q1871.58 1489.63 1865.77 1489.63 Q1859.96 1489.63 1856.88 1485.04 Q1853.83 1480.44 1853.83 1471.71 Q1853.83 1462.96 1856.88 1458.38 Q1859.96 1453.77 1865.77 1453.77 Z" fill="#000000" fill-rule="evenodd" fill-opacity="1" /><path clip-path="url(#clip280)" d="M1890.39 1436.78 L1880.8 1451.77 L1890.39 1451.77 L1890.39 1436.78 M1889.39 1433.47 L1894.17 1433.47 L1894.17 1451.77 L1898.18 1451.77 L1898.18 1454.93 L1894.17 1454.93 L1894.17 1461.55 L1890.39 1461.55 L1890.39 1454.93 L1877.72 1454.93 L1877.72 1451.26 L1889.39 1433.47 Z" fill="#000000" fill-rule="evenodd" fill-opacity="1" /><path clip-path="url(#clip280)" d="M2188.83 1485.02 L2205.15 1485.02 L2205.15 1488.96 L2183.21 1488.96 L2183.21 1485.02 Q2185.87 1482.27 2190.45 1477.64 Q2195.06 1472.98 2196.24 1471.64 Q2198.48 1469.12 2199.36 1467.38 Q2200.27 1465.62 2200.27 1463.93 Q2200.27 1461.18 2198.32 1459.44 Q2196.4 1457.71 2193.3 1457.71 Q2191.1 1457.71 2188.65 1458.47 Q2186.22 1459.23 2183.44 1460.79 L2183.44 1456.06 Q2186.26 1454.93 2188.72 1454.35 Q2191.17 1453.77 2193.21 1453.77 Q2198.58 1453.77 2201.77 1456.46 Q2204.97 1459.14 2204.97 1463.63 Q2204.97 1465.76 2204.16 1467.68 Q2203.37 1469.58 2201.26 1472.17 Q2200.68 1472.85 2197.58 1476.06 Q2194.48 1479.26 2188.83 1485.02 Z" fill="#000000" fill-rule="evenodd" fill-opacity="1" /><path clip-path="url(#clip280)" d="M2214.97 1483.08 L2219.85 1483.08 L2219.85 1488.96 L2214.97 1488.96 L2214.97 1483.08 Z" fill="#000000" fill-rule="evenodd" fill-opacity="1" /><path clip-path="url(#clip280)" d="M2240.03 1457.48 Q2236.42 1457.48 2234.59 1461.04 Q2232.79 1464.58 2232.79 1471.71 Q2232.79 1478.82 2234.59 1482.38 Q2236.42 1485.92 2240.03 1485.92 Q2243.67 1485.92 2245.47 1482.38 Q2247.3 1478.82 2247.3 1471.71 Q2247.3 1464.58 2245.47 1461.04 Q2243.67 1457.48 2240.03 1457.48 M2240.03 1453.77 Q2245.84 1453.77 2248.9 1458.38 Q2251.98 1462.96 2251.98 1471.71 Q2251.98 1480.44 2248.9 1485.04 Q2245.84 1489.63 2240.03 1489.63 Q2234.22 1489.63 2231.15 1485.04 Q2228.09 1480.44 2228.09 1471.71 Q2228.09 1462.96 2231.15 1458.38 Q2234.22 1453.77 2240.03 1453.77 Z" fill="#000000" fill-rule="evenodd" fill-opacity="1" /><path clip-path="url(#clip280)" d="M2270.2 1457.48 Q2266.59 1457.48 2264.76 1461.04 Q2262.95 1464.58 2262.95 1471.71 Q2262.95 1478.82 2264.76 1482.38 Q2266.59 1485.92 2270.2 1485.92 Q2273.83 1485.92 2275.64 1482.38 Q2277.46 1478.82 2277.46 1471.71 Q2277.46 1464.58 2275.64 1461.04 Q2273.83 1457.48 2270.2 1457.48 M2270.2 1453.77 Q2276.01 1453.77 2279.06 1458.38 Q2282.14 1462.96 2282.14 1471.71 Q2282.14 1480.44 2279.06 1485.04 Q2276.01 1489.63 2270.2 1489.63 Q2264.39 1489.63 2261.31 1485.04 Q2258.25 1480.44 2258.25 1471.71 Q2258.25 1462.96 2261.31 1458.38 Q2264.39 1453.77 2270.2 1453.77 Z" fill="#000000" fill-rule="evenodd" fill-opacity="1" /><path clip-path="url(#clip280)" d="M2318.53 1463.49 L2307.95 1474.12 L2318.53 1484.7 L2315.77 1487.5 L2305.15 1476.87 L2294.53 1487.5 L2291.79 1484.7 L2302.35 1474.12 L2291.79 1463.49 L2294.53 1460.69 L2305.15 1471.32 L2315.77 1460.69 L2318.53 1463.49 Z" fill="#000000" fill-rule="evenodd" fill-opacity="1" /><path clip-path="url(#clip280)" d="M2330.89 1485.02 L2338.53 1485.02 L2338.53 1458.66 L2330.22 1460.32 L2330.22 1456.06 L2338.48 1454.4 L2343.16 1454.4 L2343.16 1485.02 L2350.8 1485.02 L2350.8 1488.96 L2330.89 1488.96 L2330.89 1485.02 Z" fill="#000000" fill-rule="evenodd" fill-opacity="1" /><path clip-path="url(#clip280)" d="M2370.24 1457.48 Q2366.63 1457.48 2364.8 1461.04 Q2363 1464.58 2363 1471.71 Q2363 1478.82 2364.8 1482.38 Q2366.63 1485.92 2370.24 1485.92 Q2373.88 1485.92 2375.68 1482.38 Q2377.51 1478.82 2377.51 1471.71 Q2377.51 1464.58 2375.68 1461.04 Q2373.88 1457.48 2370.24 1457.48 M2370.24 1453.77 Q2376.05 1453.77 2379.11 1458.38 Q2382.19 1462.96 2382.19 1471.71 Q2382.19 1480.44 2379.11 1485.04 Q2376.05 1489.63 2370.24 1489.63 Q2364.43 1489.63 2361.35 1485.04 Q2358.3 1480.44 2358.3 1471.71 Q2358.3 1462.96 2361.35 1458.38 Q2364.43 1453.77 2370.24 1453.77 Z" fill="#000000" fill-rule="evenodd" fill-opacity="1" /><path clip-path="url(#clip280)" d="M2394.86 1436.78 L2385.27 1451.77 L2394.86 1451.77 L2394.86 1436.78 M2393.87 1433.47 L2398.64 1433.47 L2398.64 1451.77 L2402.65 1451.77 L2402.65 1454.93 L2398.64 1454.93 L2398.64 1461.55 L2394.86 1461.55 L2394.86 1454.93 L2382.19 1454.93 L2382.19 1451.26 L2393.87 1433.47 Z" fill="#000000" fill-rule="evenodd" fill-opacity="1" /><path clip-path="url(#clip280)" d="M1325.1 1540.3 Q1325.1 1541.62 1323.97 1541.62 Q1320.33 1541.75 1318.85 1542.98 Q1317.4 1544.17 1316.85 1546.49 L1307.64 1583.23 Q1307.32 1584.39 1307.12 1584.52 Q1306.93 1584.62 1306.58 1584.62 Q1306.13 1584.62 1305.87 1584.39 Q1305.64 1584.17 1305.32 1583.36 L1288.9 1544.52 Q1288.77 1544.26 1288.61 1543.91 Q1288.45 1543.56 1288.32 1543.33 L1279.59 1578.14 Q1279.33 1579.14 1279.33 1579.66 Q1279.33 1580.91 1280.2 1581.72 Q1281.1 1582.49 1283.68 1582.59 Q1285 1582.59 1285 1583.3 Q1285 1584.62 1283.81 1584.62 Q1282.71 1584.62 1280.43 1584.52 Q1278.14 1584.42 1277.01 1584.42 Q1275.92 1584.42 1273.7 1584.52 Q1271.47 1584.62 1270.41 1584.62 Q1269.57 1584.62 1269.57 1583.88 Q1269.57 1583.3 1269.8 1583.01 Q1270.02 1582.69 1270.22 1582.65 Q1270.41 1582.59 1270.7 1582.59 Q1272.63 1582.52 1273.95 1582.14 Q1275.27 1581.75 1276.01 1581.01 Q1276.79 1580.27 1277.14 1579.53 Q1277.53 1578.76 1277.82 1577.63 L1286.64 1542.2 Q1286.64 1541.62 1282.17 1541.62 Q1281.39 1541.62 1281.07 1541.59 Q1280.78 1541.56 1280.56 1541.4 Q1280.33 1541.24 1280.33 1540.88 Q1280.33 1539.98 1280.72 1539.79 Q1281.1 1539.56 1282.23 1539.56 L1291.09 1539.56 Q1292.21 1539.56 1292.5 1539.76 Q1292.79 1539.92 1293.18 1540.82 L1307.77 1575.25 L1315.14 1545.91 Q1315.34 1545.33 1315.34 1544.52 Q1315.34 1543.23 1314.37 1542.46 Q1313.44 1541.66 1310.86 1541.62 Q1309.67 1541.62 1309.67 1540.88 Q1309.67 1540.27 1309.89 1539.98 Q1310.15 1539.66 1310.35 1539.63 Q1310.57 1539.56 1310.86 1539.56 Q1311.96 1539.56 1314.21 1539.66 Q1316.46 1539.76 1317.59 1539.76 Q1318.69 1539.76 1320.91 1539.66 Q1323.16 1539.56 1324.26 1539.56 Q1324.64 1539.56 1324.84 1539.76 Q1325.06 1539.92 1325.1 1540.11 L1325.1 1540.3 Z" fill="#000000" fill-rule="evenodd" fill-opacity="1" /><polyline clip-path="url(#clip282)" style="stroke:#000000; stroke-linecap:butt; stroke-linejoin:round; stroke-width:2; stroke-opacity:0.1; fill:none" points="
  238.831,836.671 2352.76,836.671 
  "/>
<polyline clip-path="url(#clip282)" style="stroke:#000000; stroke-linecap:butt; stroke-linejoin:round; stroke-width:2; stroke-opacity:0.1; fill:none" points="
  238.831,192.72 2352.76,192.72 
  "/>
<polyline clip-path="url(#clip280)" style="stroke:#000000; stroke-linecap:butt; stroke-linejoin:round; stroke-width:4; stroke-opacity:1; fill:none" points="
  238.831,1410.9 238.831,123.472 
  "/>
<polyline clip-path="url(#clip280)" style="stroke:#000000; stroke-linecap:butt; stroke-linejoin:round; stroke-width:4; stroke-opacity:1; fill:none" points="
  238.831,836.671 257.728,836.671 
  "/>
<polyline clip-path="url(#clip280)" style="stroke:#000000; stroke-linecap:butt; stroke-linejoin:round; stroke-width:4; stroke-opacity:1; fill:none" points="
  238.831,192.72 257.728,192.72 
  "/>
<path clip-path="url(#clip280)" d="M132.125 856.464 L139.764 856.464 L139.764 830.098 L131.454 831.765 L131.454 827.505 L139.718 825.839 L144.394 825.839 L144.394 856.464 L152.033 856.464 L152.033 860.399 L132.125 860.399 L132.125 856.464 Z" fill="#000000" fill-rule="evenodd" fill-opacity="1" /><path clip-path="url(#clip280)" d="M171.477 828.917 Q167.866 828.917 166.037 832.482 Q164.232 836.024 164.232 843.153 Q164.232 850.26 166.037 853.825 Q167.866 857.366 171.477 857.366 Q175.111 857.366 176.917 853.825 Q178.745 850.26 178.745 843.153 Q178.745 836.024 176.917 832.482 Q175.111 828.917 171.477 828.917 M171.477 825.214 Q177.287 825.214 180.343 829.82 Q183.421 834.403 183.421 843.153 Q183.421 851.88 180.343 856.487 Q177.287 861.07 171.477 861.07 Q165.667 861.07 162.588 856.487 Q159.532 851.88 159.532 843.153 Q159.532 834.403 162.588 829.82 Q165.667 825.214 171.477 825.214 Z" fill="#000000" fill-rule="evenodd" fill-opacity="1" /><path clip-path="url(#clip280)" d="M193.126 807.41 Q190.192 807.41 188.706 810.306 Q187.239 813.184 187.239 818.977 Q187.239 824.751 188.706 827.647 Q190.192 830.524 193.126 830.524 Q196.079 830.524 197.546 827.647 Q199.032 824.751 199.032 818.977 Q199.032 813.184 197.546 810.306 Q196.079 807.41 193.126 807.41 M193.126 804.4 Q197.847 804.4 200.329 808.143 Q202.831 811.867 202.831 818.977 Q202.831 826.067 200.329 829.81 Q197.847 833.534 193.126 833.534 Q188.405 833.534 185.904 829.81 Q183.421 826.067 183.421 818.977 Q183.421 811.867 185.904 808.143 Q188.405 804.4 193.126 804.4 Z" fill="#000000" fill-rule="evenodd" fill-opacity="1" /><path clip-path="url(#clip280)" d="M134.815 212.513 L142.454 212.513 L142.454 186.147 L134.143 187.814 L134.143 183.554 L142.407 181.888 L147.083 181.888 L147.083 212.513 L154.722 212.513 L154.722 216.448 L134.815 216.448 L134.815 212.513 Z" fill="#000000" fill-rule="evenodd" fill-opacity="1" /><path clip-path="url(#clip280)" d="M174.166 184.966 Q170.555 184.966 168.727 188.531 Q166.921 192.073 166.921 199.202 Q166.921 206.309 168.727 209.874 Q170.555 213.415 174.166 213.415 Q177.801 213.415 179.606 209.874 Q181.435 206.309 181.435 199.202 Q181.435 192.073 179.606 188.531 Q177.801 184.966 174.166 184.966 M174.166 181.263 Q179.977 181.263 183.032 185.869 Q186.111 190.452 186.111 199.202 Q186.111 207.929 183.032 212.536 Q179.977 217.119 174.166 217.119 Q168.356 217.119 165.278 212.536 Q162.222 207.929 162.222 199.202 Q162.222 190.452 165.278 185.869 Q168.356 181.263 174.166 181.263 Z" fill="#000000" fill-rule="evenodd" fill-opacity="1" /><path clip-path="url(#clip280)" d="M186.656 185.84 L192.863 185.84 L192.863 164.418 L186.111 165.772 L186.111 162.311 L192.825 160.957 L196.624 160.957 L196.624 185.84 L202.831 185.84 L202.831 189.037 L186.656 189.037 L186.656 185.84 Z" fill="#000000" fill-rule="evenodd" fill-opacity="1" /><path clip-path="url(#clip280)" d="M82.1658 908.852 L20.2662 908.852 Q18.3016 908.852 18.3016 907.532 Q18.3016 906.212 20.3628 906.212 L82.0048 906.212 Q84.1304 906.212 84.1304 907.532 Q84.1304 908.852 82.1658 908.852 M82.1658 901.574 L20.7493 901.574 Q18.3016 901.574 18.3016 900.253 Q18.3016 898.933 20.3628 898.933 L82.0048 898.933 Q84.1304 898.933 84.1304 900.253 Q84.1304 901.574 82.1658 901.574 Z" fill="#000000" fill-rule="evenodd" fill-opacity="1" /><path clip-path="url(#clip280)" d="M13.4212 839.5 L14.3455 840.064 Q12.8351 843.558 10.4228 847.909 Q12.8351 852.26 14.3455 855.755 L13.4212 856.296 Q10.1072 852.486 7.55975 847.909 Q10.1298 843.288 13.4212 839.5 Z" fill="#000000" fill-rule="evenodd" fill-opacity="1" /><path clip-path="url(#clip280)" d="M21.8765 829.361 L38.6879 833.516 Q39.7507 833.805 39.8795 833.999 Q40.0084 834.16 40.0084 834.675 Q40.0084 835.673 39.332 835.673 Q39.2676 835.673 38.4303 835.577 Q37.5607 835.48 35.9826 835.48 Q30.1534 835.48 26.7073 838.314 Q23.2613 841.116 23.2613 846.108 Q23.2613 850.778 25.709 855.255 Q28.1566 859.731 31.7637 862.597 Q34.7266 865.013 38.3337 866.688 Q41.9407 868.33 45.0969 869.006 Q48.2209 869.683 50.121 869.94 Q52.0212 870.166 53.245 870.166 Q56.852 870.166 59.6539 869.006 Q62.4236 867.847 64.0017 865.915 Q65.5798 863.95 66.3528 861.696 Q67.1257 859.409 67.1257 856.929 Q67.1257 855.995 66.9969 854.868 Q66.8681 853.741 66.385 852.002 Q65.9019 850.23 65.0967 848.781 Q64.2916 847.3 62.7457 846.011 Q61.1998 844.691 59.1386 844.176 Q53.8891 842.791 53.1162 842.791 Q52.472 842.791 52.2466 843.177 Q52.0212 843.564 51.8601 844.852 L51.7313 848.33 Q51.7313 848.395 51.7313 848.491 Q51.7313 849.103 51.7313 849.361 Q51.6991 849.618 51.6347 849.908 Q51.5703 850.166 51.4414 850.263 Q51.2804 850.327 51.0228 850.327 Q50.4109 850.327 50.121 850.069 Q49.7989 849.812 49.7667 849.586 Q49.7023 849.361 49.7023 848.942 L49.8956 839.699 Q49.8956 838.958 49.7989 836.253 Q49.7023 833.548 49.7023 832.775 Q49.7023 831.905 50.4109 831.905 Q51.7313 831.905 51.7313 832.968 Q51.7635 834.031 51.7957 834.578 Q51.7957 835.126 51.9567 835.673 Q52.1178 836.189 52.2466 836.382 Q52.3432 836.575 52.8263 836.833 Q53.2772 837.09 53.6637 837.187 Q54.0179 837.284 54.9197 837.509 Q55.4994 837.638 56.5944 837.96 Q57.6894 838.25 58.2691 838.379 L63.3576 839.635 Q67.1257 840.504 67.3833 840.762 Q67.641 840.891 67.641 841.213 Q67.641 841.696 66.2239 842.726 Q64.8069 843.725 63.5509 844.176 Q64.4204 844.981 64.9357 845.496 Q65.4188 846.011 66.1917 847.203 Q66.9647 848.362 67.5766 849.908 Q69.1547 853.676 69.1547 858.153 Q69.1547 866.14 64.0984 871.164 Q59.0098 876.188 51.0872 876.188 Q45.4834 876.188 39.9762 873.612 Q34.469 871.035 30.3788 866.945 Q26.2887 862.855 23.7444 857.445 Q21.2001 852.034 21.2001 846.623 Q21.2001 844.562 21.7476 842.726 Q22.2951 840.891 22.9715 839.796 Q23.6478 838.669 24.6462 837.67 Q25.6123 836.672 26.0632 836.35 Q26.5141 835.995 27.0616 835.673 L22.0053 831.068 Q21.2001 830.263 21.2001 830.07 Q21.2001 829.683 21.4256 829.522 Q21.651 829.361 21.8765 829.361 Z" fill="#000000" fill-rule="evenodd" fill-opacity="1" /><path clip-path="url(#clip280)" d="M50.282 767.968 Q50.6685 767.582 51.216 767.582 Q51.7635 767.582 52.15 767.968 Q52.5364 768.355 52.5364 768.902 L52.5364 810.19 Q52.5364 810.738 52.15 811.124 Q51.7635 811.511 51.216 811.511 Q50.6685 811.511 50.282 811.124 Q49.8956 810.738 49.8956 810.19 L49.8956 768.902 Q49.8956 768.355 50.282 767.968 Z" fill="#000000" fill-rule="evenodd" fill-opacity="1" /><path clip-path="url(#clip280)" d="M21.8765 695.566 L38.6879 699.721 Q39.7507 700.011 39.8795 700.204 Q40.0084 700.365 40.0084 700.88 Q40.0084 701.879 39.332 701.879 Q39.2676 701.879 38.4303 701.782 Q37.5607 701.686 35.9826 701.686 Q30.1534 701.686 26.7073 704.52 Q23.2613 707.322 23.2613 712.314 Q23.2613 716.983 25.709 721.46 Q28.1566 725.937 31.7637 728.803 Q34.7266 731.218 38.3337 732.893 Q41.9407 734.536 45.0969 735.212 Q48.2209 735.888 50.121 736.146 Q52.0212 736.371 53.245 736.371 Q56.852 736.371 59.6539 735.212 Q62.4236 734.052 64.0017 732.12 Q65.5798 730.156 66.3528 727.901 Q67.1257 725.615 67.1257 723.135 Q67.1257 722.201 66.9969 721.074 Q66.8681 719.946 66.385 718.207 Q65.9019 716.436 65.0967 714.987 Q64.2916 713.505 62.7457 712.217 Q61.1998 710.896 59.1386 710.381 Q53.8891 708.996 53.1162 708.996 Q52.472 708.996 52.2466 709.383 Q52.0212 709.769 51.8601 711.058 L51.7313 714.536 Q51.7313 714.6 51.7313 714.697 Q51.7313 715.309 51.7313 715.566 Q51.6991 715.824 51.6347 716.114 Q51.5703 716.371 51.4414 716.468 Q51.2804 716.532 51.0228 716.532 Q50.4109 716.532 50.121 716.275 Q49.7989 716.017 49.7667 715.792 Q49.7023 715.566 49.7023 715.148 L49.8956 705.905 Q49.8956 705.164 49.7989 702.459 Q49.7023 699.753 49.7023 698.98 Q49.7023 698.111 50.4109 698.111 Q51.7313 698.111 51.7313 699.174 Q51.7635 700.236 51.7957 700.784 Q51.7957 701.331 51.9567 701.879 Q52.1178 702.394 52.2466 702.587 Q52.3432 702.781 52.8263 703.038 Q53.2772 703.296 53.6637 703.393 Q54.0179 703.489 54.9197 703.715 Q55.4994 703.843 56.5944 704.165 Q57.6894 704.455 58.2691 704.584 L63.3576 705.84 Q67.1257 706.71 67.3833 706.967 Q67.641 707.096 67.641 707.418 Q67.641 707.901 66.2239 708.932 Q64.8069 709.93 63.5509 710.381 Q64.4204 711.186 64.9357 711.702 Q65.4188 712.217 66.1917 713.409 Q66.9647 714.568 67.5766 716.114 Q69.1547 719.882 69.1547 724.359 Q69.1547 732.346 64.0984 737.37 Q59.0098 742.394 51.0872 742.394 Q45.4834 742.394 39.9762 739.817 Q34.469 737.241 30.3788 733.151 Q26.2887 729.061 23.7444 723.65 Q21.2001 718.239 21.2001 712.829 Q21.2001 710.768 21.7476 708.932 Q22.2951 707.096 22.9715 706.001 Q23.6478 704.874 24.6462 703.876 Q25.6123 702.877 26.0632 702.555 Q26.5141 702.201 27.0616 701.879 L22.0053 697.273 Q21.2001 696.468 21.2001 696.275 Q21.2001 695.889 21.4256 695.728 Q21.651 695.566 21.8765 695.566 Z" fill="#000000" fill-rule="evenodd" fill-opacity="1" /><path clip-path="url(#clip280)" d="M82.1658 691.069 L20.2662 691.069 Q18.3016 691.069 18.3016 689.749 Q18.3016 688.428 20.3628 688.428 L82.0048 688.428 Q84.1304 688.428 84.1304 689.749 Q84.1304 691.069 82.1658 691.069 M82.1658 683.791 L20.7493 683.791 Q18.3016 683.791 18.3016 682.47 Q18.3016 681.15 20.3628 681.15 L82.0048 681.15 Q84.1304 681.15 84.1304 682.47 Q84.1304 683.791 82.1658 683.791 Z" fill="#000000" fill-rule="evenodd" fill-opacity="1" /><path clip-path="url(#clip280)" d="M83.4964 654.445 Q85.9537 654.445 88.3884 655.528 Q90.8007 656.61 92.6042 658.346 Q94.3852 660.059 95.5124 662.313 Q96.617 664.568 96.617 666.822 Q96.617 670.046 94.4303 672.143 Q92.2209 674.217 88.7942 674.217 Q85.593 674.217 82.5495 672.436 Q79.4835 670.632 77.5898 667.746 Q75.6961 664.861 75.6961 661.84 Q75.6961 658.661 77.8378 656.565 Q79.9795 654.445 83.4964 654.445 M81.6929 657.827 Q79.5061 657.827 78.1083 658.887 Q76.7106 659.946 76.7106 661.885 Q76.7106 662.449 76.891 663.102 Q77.0488 663.756 77.4771 664.613 Q77.9054 665.447 78.8072 666.394 Q79.6864 667.318 80.9489 668.13 Q82.6172 669.189 85.6832 670.001 Q88.7266 670.79 90.5527 670.79 Q93.0776 670.79 94.3401 669.618 Q95.58 668.445 95.58 666.777 Q95.58 665.154 94.4528 663.441 Q93.3031 661.705 91.3417 660.51 Q89.3128 659.315 86.3369 658.571 Q83.3386 657.827 81.6929 657.827 Z" fill="#000000" fill-rule="evenodd" fill-opacity="1" /><path clip-path="url(#clip280)" d="M83.068 631.433 Q86.3595 631.433 89.5382 633.101 Q92.7169 634.747 94.6783 637.34 Q96.617 639.932 96.617 642.57 Q96.617 644.148 95.7604 645.207 Q94.8812 646.244 93.6412 646.808 Q95.1742 647.236 98.8489 648.161 Q102.524 649.085 102.884 649.085 Q103.087 649.085 103.177 649.04 Q103.268 648.995 103.38 648.792 Q103.516 648.589 103.561 648.093 Q103.628 647.597 103.628 646.763 Q103.628 646.335 103.628 646.177 Q103.651 645.996 103.764 645.839 Q103.876 645.658 104.124 645.658 Q105.049 645.658 105.049 646.492 Q105.049 647.236 104.981 648.769 Q104.913 650.302 104.913 651.069 Q104.913 651.723 104.981 653.03 Q105.049 654.338 105.049 654.946 Q105.049 655.555 104.507 655.555 Q104.192 655.555 103.989 655.465 Q103.809 655.397 103.718 655.217 Q103.651 655.037 103.628 654.879 Q103.628 654.744 103.628 654.473 Q103.628 653.436 103.448 652.985 Q103.29 652.534 102.952 652.376 Q102.636 652.196 101.735 651.993 L81.1743 646.808 Q79.7991 646.492 78.8297 646.492 Q77.6124 646.492 77.1615 646.876 Q76.7106 647.259 76.7106 647.935 Q76.7106 649.108 78.1083 649.874 Q79.5061 650.641 82.2114 651.294 Q82.9553 651.497 83.1131 651.633 Q83.2709 651.745 83.2709 652.083 Q83.2484 652.647 82.7975 652.647 Q82.6848 652.647 81.9634 652.467 Q81.2194 652.286 80.1373 651.948 Q79.0326 651.587 78.3338 651.204 Q77.8604 650.979 77.5447 650.776 Q77.2291 650.573 76.7331 650.167 Q76.2372 649.739 75.9666 649.13 Q75.6961 648.521 75.6961 647.777 Q75.6961 646.335 76.5528 645.14 Q77.4095 643.945 79.1454 643.629 Q77.6349 642.344 76.6655 640.766 Q75.6961 639.188 75.6961 637.588 Q75.6961 634.927 77.7702 633.191 Q79.8217 631.433 83.068 631.433 M81.0391 634.77 Q78.9876 634.77 77.8604 635.559 Q76.7106 636.325 76.7106 637.723 Q76.7106 639.459 78.469 641.465 Q80.1373 643.449 81.6929 643.855 L90.733 646.132 L91.477 646.267 Q91.6123 646.267 92.018 646.199 Q92.4013 646.109 93.0325 645.861 Q93.6638 645.591 94.2274 645.23 Q94.7684 644.847 95.1742 644.17 Q95.58 643.472 95.58 642.615 Q95.58 641.24 94.3626 639.752 Q93.1453 638.241 90.8458 637.114 Q89.3578 636.415 86.1566 635.604 Q82.9328 634.77 81.0391 634.77 Z" fill="#000000" fill-rule="evenodd" fill-opacity="1" /><path clip-path="url(#clip280)" d="M522.591 53.6966 L522.591 57.3424 L488.321 57.3424 Q488.807 65.0391 492.939 69.09 Q497.111 73.1004 504.524 73.1004 Q508.818 73.1004 512.829 72.0472 Q516.879 70.9939 520.849 68.8875 L520.849 75.936 Q516.839 77.6374 512.626 78.5286 Q508.413 79.4198 504.079 79.4198 Q493.222 79.4198 486.862 73.1004 Q480.543 66.781 480.543 56.0056 Q480.543 44.8656 486.538 38.3437 Q492.574 31.7812 502.782 31.7812 Q511.937 31.7812 517.244 37.6955 Q522.591 43.5693 522.591 53.6966 M515.138 51.5091 Q515.057 45.3922 511.694 41.7464 Q508.373 38.1006 502.863 38.1006 Q496.625 38.1006 492.858 41.6249 Q489.131 45.1492 488.564 51.5496 L515.138 51.5091 Z" fill="#000000" fill-rule="evenodd" fill-opacity="1" /><path clip-path="url(#clip280)" d="M561.115 39.8425 Q559.86 39.1133 558.361 38.7893 Q556.902 38.4247 555.12 38.4247 Q548.801 38.4247 545.398 42.5566 Q542.036 46.648 542.036 54.3447 L542.036 78.2451 L534.541 78.2451 L534.541 32.8749 L542.036 32.8749 L542.036 39.9235 Q544.385 35.7916 548.152 33.8066 Q551.92 31.7812 557.307 31.7812 Q558.077 31.7812 559.009 31.9027 Q559.941 31.9837 561.075 32.1863 L561.115 39.8425 Z" fill="#000000" fill-rule="evenodd" fill-opacity="1" /><path clip-path="url(#clip280)" d="M593.766 39.8425 Q592.51 39.1133 591.011 38.7893 Q589.553 38.4247 587.77 38.4247 Q581.451 38.4247 578.048 42.5566 Q574.686 46.648 574.686 54.3447 L574.686 78.2451 L567.192 78.2451 L567.192 32.8749 L574.686 32.8749 L574.686 39.9235 Q577.035 35.7916 580.803 33.8066 Q584.57 31.7812 589.958 31.7812 Q590.727 31.7812 591.659 31.9027 Q592.591 31.9837 593.725 32.1863 L593.766 39.8425 Z" fill="#000000" fill-rule="evenodd" fill-opacity="1" /><path clip-path="url(#clip280)" d="M617.342 38.1006 Q611.347 38.1006 607.863 42.7997 Q604.379 47.4582 604.379 55.6005 Q604.379 63.7428 607.822 68.4419 Q611.306 73.1004 617.342 73.1004 Q623.297 73.1004 626.78 68.4014 Q630.264 63.7023 630.264 55.6005 Q630.264 47.5392 626.78 42.8402 Q623.297 38.1006 617.342 38.1006 M617.342 31.7812 Q627.064 31.7812 632.614 38.1006 Q638.164 44.42 638.164 55.6005 Q638.164 66.7405 632.614 73.1004 Q627.064 79.4198 617.342 79.4198 Q607.579 79.4198 602.029 73.1004 Q596.52 66.7405 596.52 55.6005 Q596.52 44.42 602.029 38.1006 Q607.579 31.7812 617.342 31.7812 Z" fill="#000000" fill-rule="evenodd" fill-opacity="1" /><path clip-path="url(#clip280)" d="M676.809 39.8425 Q675.553 39.1133 674.055 38.7893 Q672.596 38.4247 670.814 38.4247 Q664.494 38.4247 661.092 42.5566 Q657.729 46.648 657.729 54.3447 L657.729 78.2451 L650.235 78.2451 L650.235 32.8749 L657.729 32.8749 L657.729 39.9235 Q660.079 35.7916 663.846 33.8066 Q667.614 31.7812 673.001 31.7812 Q673.771 31.7812 674.703 31.9027 Q675.634 31.9837 676.769 32.1863 L676.809 39.8425 Z" fill="#000000" fill-rule="evenodd" fill-opacity="1" /><path clip-path="url(#clip280)" d="M706.664 32.8749 L714.118 32.8749 L723.435 68.2798 L732.712 32.8749 L741.502 32.8749 L750.819 68.2798 L760.096 32.8749 L767.549 32.8749 L755.68 78.2451 L746.89 78.2451 L737.127 41.0578 L727.324 78.2451 L718.533 78.2451 L706.664 32.8749 Z" fill="#000000" fill-rule="evenodd" fill-opacity="1" /><path clip-path="url(#clip280)" d="M778.851 32.8749 L786.305 32.8749 L786.305 78.2451 L778.851 78.2451 L778.851 32.8749 M778.851 15.213 L786.305 15.213 L786.305 24.6516 L778.851 24.6516 L778.851 15.213 Z" fill="#000000" fill-rule="evenodd" fill-opacity="1" /><path clip-path="url(#clip280)" d="M809.274 19.9931 L809.274 32.8749 L824.627 32.8749 L824.627 38.6677 L809.274 38.6677 L809.274 63.2972 Q809.274 68.847 810.773 70.4268 Q812.312 72.0067 816.97 72.0067 L824.627 72.0067 L824.627 78.2451 L816.97 78.2451 Q808.342 78.2451 805.061 75.0448 Q801.78 71.8041 801.78 63.2972 L801.78 38.6677 L796.311 38.6677 L796.311 32.8749 L801.78 32.8749 L801.78 19.9931 L809.274 19.9931 Z" fill="#000000" fill-rule="evenodd" fill-opacity="1" /><path clip-path="url(#clip280)" d="M872.144 50.8609 L872.144 78.2451 L864.69 78.2451 L864.69 51.104 Q864.69 44.6631 862.179 41.4629 Q859.667 38.2626 854.644 38.2626 Q848.608 38.2626 845.124 42.111 Q841.64 45.9594 841.64 52.6028 L841.64 78.2451 L834.146 78.2451 L834.146 15.213 L841.64 15.213 L841.64 39.9235 Q844.314 35.8321 847.919 33.8066 Q851.565 31.7812 856.305 31.7812 Q864.123 31.7812 868.133 36.6423 Q872.144 41.4629 872.144 50.8609 Z" fill="#000000" fill-rule="evenodd" fill-opacity="1" /><path clip-path="url(#clip280)" d="M945.2 54.8402 Q945.2 60.9066 942.085 66.6041 Q939.011 72.3016 934.174 75.7447 Q929.378 79.1878 924.542 79.1878 Q919.09 79.1878 916.262 73.5313 Q911.138 94.0669 910.851 94.5998 Q909.663 96.3623 907.941 96.3623 Q906.875 96.3623 906.22 95.7065 Q905.564 95.0917 905.564 94.1079 Q905.605 93.78 905.851 92.7553 L914.048 59.7589 Q915.934 52.0939 921.632 46.6423 Q927.37 41.1498 933.518 41.1498 Q938.396 41.1498 941.798 44.7978 Q945.2 48.4459 945.2 54.8402 M939.175 51.2331 Q939.175 47.1342 937.535 45.0847 Q935.896 42.9943 933.354 42.9943 Q931.018 42.9943 928.19 44.8798 Q925.403 46.7653 922.943 50.9462 Q921.632 53.3646 920.689 56.3568 Q919.746 59.349 917.901 66.7271 Q917.246 69.6783 917.246 69.8423 Q917.246 70.1702 917.41 70.908 Q917.615 71.6458 918.106 72.7935 Q918.639 73.9002 919.377 74.8839 Q920.115 75.8677 921.468 76.6055 Q922.82 77.3023 924.46 77.3023 Q927.001 77.3023 929.706 75.2528 Q932.453 73.1624 934.461 69.3504 Q936.142 66.2762 937.658 60.4967 Q939.175 54.6762 939.175 51.2331 Z" fill="#000000" fill-rule="evenodd" fill-opacity="1" /><path clip-path="url(#clip280)" d="M953.89 57.2586 Q953.89 43.0763 959.178 31.6403 Q961.432 26.8445 964.588 22.8276 Q967.745 18.8106 969.835 17.0481 Q971.926 15.2855 972.499 15.2855 Q973.319 15.2855 973.36 16.1053 Q973.36 16.5152 972.253 17.5399 Q958.727 31.3123 958.768 57.2586 Q958.768 83.2867 971.926 96.5263 Q973.36 97.9609 973.36 98.4118 Q973.36 99.2316 972.499 99.2316 Q971.926 99.2316 969.917 97.551 Q967.909 95.8705 964.793 92.0175 Q961.678 88.1645 959.424 83.4507 Q953.89 72.0147 953.89 57.2586 Z" fill="#000000" fill-rule="evenodd" fill-opacity="1" /><path clip-path="url(#clip280)" d="M1037.33 76.5645 Q1037.33 77.3433 1037 77.7532 Q1036.71 78.1221 1036.43 78.2041 Q1036.18 78.2451 1035.81 78.2451 Q1034.75 78.2451 1031.06 78.1221 Q1027.37 77.9991 1026.3 77.9991 Q1024.58 77.9991 1021.06 78.1221 Q1017.53 78.2451 1015.81 78.2451 Q1014.66 78.2451 1014.66 77.3023 Q1014.66 76.6875 1014.79 76.3596 Q1014.91 75.9907 1015.24 75.8677 Q1015.61 75.7037 1015.81 75.7037 Q1016.06 75.6627 1016.67 75.6627 Q1017.49 75.6627 1018.35 75.5808 Q1019.21 75.4578 1020.28 75.2119 Q1021.34 74.9659 1022 74.3511 Q1022.7 73.7362 1022.7 72.8755 Q1022.7 72.5066 1022.41 69.4734 Q1022.12 66.4402 1021.75 62.9151 Q1021.38 59.349 1021.34 58.8571 L1000.28 58.8571 Q998.349 62.1773 996.996 64.4727 Q995.643 66.7681 995.151 67.5469 Q994.66 68.3257 994.373 68.8175 Q994.086 69.3094 993.922 69.5963 Q992.733 71.7688 992.733 72.7115 Q992.733 75.3348 996.668 75.6627 Q998.021 75.6627 998.021 76.6465 Q998.021 77.3843 997.693 77.7942 Q997.365 78.1631 997.078 78.2041 Q996.832 78.2451 996.422 78.2451 Q995.07 78.2451 992.241 78.1221 Q989.413 77.9991 988.019 77.9991 Q986.831 77.9991 984.371 78.1221 Q981.912 78.2451 980.805 78.2451 Q980.313 78.2451 980.026 77.9581 Q979.74 77.6712 979.74 77.3023 Q979.74 76.7285 979.822 76.4005 Q979.944 76.0726 980.272 75.9087 Q980.6 75.7447 980.764 75.7447 Q980.928 75.7037 981.502 75.6627 Q984.617 75.4578 987.036 73.9822 Q989.495 72.4656 991.831 68.5716 L1021.02 19.5484 Q1021.3 19.0565 1021.51 18.8106 Q1021.71 18.5647 1022.12 18.3597 Q1022.57 18.1548 1023.23 18.1548 Q1024.25 18.1548 1024.46 18.4827 Q1024.66 18.7696 1024.79 20.1633 L1029.91 72.6295 Q1030.03 73.7362 1030.12 74.1871 Q1030.24 74.597 1030.77 75.0479 Q1031.35 75.4578 1032.37 75.5808 Q1033.44 75.6627 1035.4 75.6627 Q1036.14 75.6627 1036.43 75.7037 Q1036.71 75.7037 1037 75.9087 Q1037.33 76.1136 1037.33 76.5645 M1021.1 56.2338 L1018.43 28.5661 L1001.87 56.2338 L1021.1 56.2338 Z" fill="#000000" fill-rule="evenodd" fill-opacity="1" /><path clip-path="url(#clip280)" d="M1044.11 98.4118 Q1044.11 98.0019 1045.18 96.9772 Q1058.7 83.2048 1058.7 57.2586 Q1058.7 31.2304 1045.71 18.0728 Q1044.11 16.5562 1044.11 16.1053 Q1044.11 15.2855 1044.93 15.2855 Q1045.5 15.2855 1047.51 16.9661 Q1049.56 18.6467 1052.64 22.4996 Q1055.75 26.3526 1058.05 31.0664 Q1063.58 42.5024 1063.58 57.2586 Q1063.58 71.4408 1058.29 82.8769 Q1056.04 87.6726 1052.88 91.6895 Q1049.73 95.7065 1047.64 97.469 Q1045.55 99.2316 1044.93 99.2316 Q1044.11 99.2316 1044.11 98.4118 Z" fill="#000000" fill-rule="evenodd" fill-opacity="1" /><path clip-path="url(#clip280)" d="M1099.63 65.4974 Q1099.72 64.4727 1101.32 64.4727 L1152.76 64.4727 Q1155.18 64.4727 1155.22 65.4154 Q1155.22 66.4402 1152.92 66.3992 L1101.89 66.3992 Q1099.63 66.4402 1099.63 65.4974 M1099.63 49.1017 Q1099.63 48.077 1101.4 48.1179 L1152.67 48.1179 Q1155.18 48.1179 1155.22 49.1017 Q1155.22 50.0444 1153.08 50.0444 L1101.32 50.0444 Q1099.63 50.0444 1099.63 49.1017 Z" fill="#000000" fill-rule="evenodd" fill-opacity="1" /><path clip-path="url(#clip280)" d="M1187.59 51.3971 Q1187.59 39.0593 1190.71 32.3371 Q1195.05 22.3357 1205.3 22.3357 Q1207.47 22.3357 1209.73 22.9505 Q1212.02 23.5244 1214.89 25.7788 Q1217.8 28.0332 1219.57 31.7222 Q1222.93 38.8544 1222.93 51.3971 Q1222.93 63.6529 1219.81 70.3341 Q1215.26 80.0896 1205.22 80.0896 Q1201.45 80.0896 1197.6 78.1631 Q1193.78 76.2366 1191.37 71.6048 Q1187.59 64.6776 1187.59 51.3971 M1194.56 50.3724 Q1194.56 63.038 1195.46 68.0797 Q1196.49 73.5313 1199.28 75.9087 Q1202.1 78.2451 1205.22 78.2451 Q1208.58 78.2451 1211.37 75.7447 Q1214.2 73.2034 1215.06 67.7518 Q1216 62.3822 1215.96 50.3724 Q1215.96 38.6904 1215.14 34.0176 Q1214.03 28.5661 1211.08 26.3936 Q1208.17 24.1802 1205.22 24.1802 Q1204.11 24.1802 1202.92 24.5081 Q1201.78 24.836 1200.1 25.7788 Q1198.42 26.7215 1197.1 29.0579 Q1195.83 31.3943 1195.22 34.9194 Q1194.56 39.4692 1194.56 50.3724 Z" fill="#000000" fill-rule="evenodd" fill-opacity="1" /><path clip-path="url(#clip280)" d="M1230.44 76.8924 Q1229.16 75.5398 1229.16 73.7772 Q1229.16 72.0147 1230.44 70.744 Q1231.71 69.4324 1233.63 69.4324 Q1235.48 69.4324 1236.71 70.662 Q1237.98 71.8507 1237.98 73.8182 Q1237.98 75.7447 1236.63 77.0154 Q1235.31 78.2451 1233.63 78.2451 Q1231.71 78.2451 1230.44 76.8924 Z" fill="#000000" fill-rule="evenodd" fill-opacity="1" /><path clip-path="url(#clip280)" d="M1252.26 41.2317 Q1252.26 36.7639 1253.58 33.7307 Q1254.89 30.6565 1257.63 27.6233 Q1262.68 22.3357 1269.97 22.3357 Q1273.09 22.3357 1275.83 23.6473 Q1278.62 24.959 1281.24 27.9512 Q1283.91 30.9024 1285.51 36.7639 Q1287.1 42.5844 1287.1 50.6183 Q1287.1 63.6119 1280.79 71.8507 Q1274.52 80.0896 1266.04 80.0896 Q1260.67 80.0896 1257.51 77.6712 Q1254.35 75.2119 1254.35 71.0309 Q1254.35 68.8585 1255.58 67.9568 Q1256.81 67.014 1258.21 67.014 Q1259.72 67.014 1260.91 68.0387 Q1262.1 69.0225 1262.1 70.867 Q1262.1 72.3836 1261.12 73.5723 Q1260.18 74.72 1257.72 74.72 Q1260.13 77.7532 1265.95 77.7532 Q1268.04 77.7532 1270.14 76.8104 Q1272.23 75.8267 1274.48 73.4903 Q1276.78 71.1129 1278.17 66.1532 Q1279.56 61.1935 1279.56 54.2253 L1279.56 51.561 Q1276.2 59.9638 1269.07 59.9638 Q1262.02 59.9638 1257.14 54.5533 Q1252.26 49.1427 1252.26 41.2317 M1259.81 41.3137 Q1259.81 49.6345 1261.32 52.7087 Q1263.91 57.9964 1269.15 57.9964 Q1274.28 57.9964 1276.82 53.4465 Q1279.4 48.8558 1279.4 42.9123 Q1279.4 34.6735 1278.05 31.0664 Q1275.55 24.4261 1269.97 24.4261 Q1264.44 24.4261 1261.57 29.7138 Q1259.81 32.8289 1259.81 41.3137 Z" fill="#000000" fill-rule="evenodd" fill-opacity="1" /><path clip-path="url(#clip280)" d="M1294.17 41.2317 Q1294.17 36.7639 1295.48 33.7307 Q1296.79 30.6565 1299.54 27.6233 Q1304.58 22.3357 1311.88 22.3357 Q1314.99 22.3357 1317.74 23.6473 Q1320.53 24.959 1323.15 27.9512 Q1325.81 30.9024 1327.41 36.7639 Q1329.01 42.5844 1329.01 50.6183 Q1329.01 63.6119 1322.7 71.8507 Q1316.43 80.0896 1307.94 80.0896 Q1302.57 80.0896 1299.42 77.6712 Q1296.26 75.2119 1296.26 71.0309 Q1296.26 68.8585 1297.49 67.9568 Q1298.72 67.014 1300.11 67.014 Q1301.63 67.014 1302.82 68.0387 Q1304.01 69.0225 1304.01 70.867 Q1304.01 72.3836 1303.02 73.5723 Q1302.08 74.72 1299.62 74.72 Q1302.04 77.7532 1307.86 77.7532 Q1309.95 77.7532 1312.04 76.8104 Q1314.13 75.8267 1316.39 73.4903 Q1318.68 71.1129 1320.08 66.1532 Q1321.47 61.1935 1321.47 54.2253 L1321.47 51.561 Q1318.11 59.9638 1310.98 59.9638 Q1303.93 59.9638 1299.05 54.5533 Q1294.17 49.1427 1294.17 41.2317 M1301.71 41.3137 Q1301.71 49.6345 1303.23 52.7087 Q1305.81 57.9964 1311.06 57.9964 Q1316.18 57.9964 1318.72 53.4465 Q1321.31 48.8558 1321.31 42.9123 Q1321.31 34.6735 1319.95 31.0664 Q1317.45 24.4261 1311.88 24.4261 Q1306.34 24.4261 1303.47 29.7138 Q1301.71 32.8289 1301.71 41.3137 Z" fill="#000000" fill-rule="evenodd" fill-opacity="1" /><path clip-path="url(#clip280)" d="M1336.08 41.2317 Q1336.08 36.7639 1337.39 33.7307 Q1338.7 30.6565 1341.45 27.6233 Q1346.49 22.3357 1353.78 22.3357 Q1356.9 22.3357 1359.65 23.6473 Q1362.43 24.959 1365.06 27.9512 Q1367.72 30.9024 1369.32 36.7639 Q1370.92 42.5844 1370.92 50.6183 Q1370.92 63.6119 1364.61 71.8507 Q1358.33 80.0896 1349.85 80.0896 Q1344.48 80.0896 1341.32 77.6712 Q1338.17 75.2119 1338.17 71.0309 Q1338.17 68.8585 1339.4 67.9568 Q1340.63 67.014 1342.02 67.014 Q1343.54 67.014 1344.73 68.0387 Q1345.91 69.0225 1345.91 70.867 Q1345.91 72.3836 1344.93 73.5723 Q1343.99 74.72 1341.53 74.72 Q1343.95 77.7532 1349.77 77.7532 Q1351.86 77.7532 1353.95 76.8104 Q1356.04 75.8267 1358.29 73.4903 Q1360.59 71.1129 1361.98 66.1532 Q1363.38 61.1935 1363.38 54.2253 L1363.38 51.561 Q1360.01 59.9638 1352.88 59.9638 Q1345.83 59.9638 1340.95 54.5533 Q1336.08 49.1427 1336.08 41.2317 M1343.62 41.3137 Q1343.62 49.6345 1345.14 52.7087 Q1347.72 57.9964 1352.96 57.9964 Q1358.09 57.9964 1360.63 53.4465 Q1363.21 48.8558 1363.21 42.9123 Q1363.21 34.6735 1361.86 31.0664 Q1359.36 24.4261 1353.78 24.4261 Q1348.25 24.4261 1345.38 29.7138 Q1343.62 32.8289 1343.62 41.3137 Z" fill="#000000" fill-rule="evenodd" fill-opacity="1" /><path clip-path="url(#clip280)" d="M1377.98 41.2317 Q1377.98 36.7639 1379.29 33.7307 Q1380.61 30.6565 1383.35 27.6233 Q1388.39 22.3357 1395.69 22.3357 Q1398.81 22.3357 1401.55 23.6473 Q1404.34 24.959 1406.96 27.9512 Q1409.63 30.9024 1411.23 36.7639 Q1412.82 42.5844 1412.82 50.6183 Q1412.82 63.6119 1406.51 71.8507 Q1400.24 80.0896 1391.76 80.0896 Q1386.39 80.0896 1383.23 77.6712 Q1380.07 75.2119 1380.07 71.0309 Q1380.07 68.8585 1381.3 67.9568 Q1382.53 67.014 1383.93 67.014 Q1385.44 67.014 1386.63 68.0387 Q1387.82 69.0225 1387.82 70.867 Q1387.82 72.3836 1386.84 73.5723 Q1385.89 74.72 1383.43 74.72 Q1385.85 77.7532 1391.67 77.7532 Q1393.76 77.7532 1395.85 76.8104 Q1397.94 75.8267 1400.2 73.4903 Q1402.49 71.1129 1403.89 66.1532 Q1405.28 61.1935 1405.28 54.2253 L1405.28 51.561 Q1401.92 59.9638 1394.79 59.9638 Q1387.74 59.9638 1382.86 54.5533 Q1377.98 49.1427 1377.98 41.2317 M1385.53 41.3137 Q1385.53 49.6345 1387.04 52.7087 Q1389.62 57.9964 1394.87 57.9964 Q1399.99 57.9964 1402.54 53.4465 Q1405.12 48.8558 1405.12 42.9123 Q1405.12 34.6735 1403.77 31.0664 Q1401.26 24.4261 1395.69 24.4261 Q1390.16 24.4261 1387.29 29.7138 Q1385.53 32.8289 1385.53 41.3137 Z" fill="#000000" fill-rule="evenodd" fill-opacity="1" /><path clip-path="url(#clip280)" d="M1474.36 55.4385 Q1465.33 55.4385 1461.84 57.5044 Q1458.36 59.5704 1458.36 64.553 Q1458.36 68.5229 1460.95 70.8724 Q1463.59 73.1814 1468.08 73.1814 Q1474.28 73.1814 1478.01 68.8065 Q1481.78 64.391 1481.78 57.0993 L1481.78 55.4385 L1474.36 55.4385 M1489.23 52.3598 L1489.23 78.2451 L1481.78 78.2451 L1481.78 71.3585 Q1479.22 75.4904 1475.42 77.4754 Q1471.61 79.4198 1466.1 79.4198 Q1459.13 79.4198 1455 75.531 Q1450.91 71.6016 1450.91 65.0391 Q1450.91 57.3829 1456.01 53.494 Q1461.16 49.6052 1471.32 49.6052 L1481.78 49.6052 L1481.78 48.876 Q1481.78 43.7314 1478.37 40.9362 Q1475.01 38.1006 1468.89 38.1006 Q1465 38.1006 1461.32 39.0323 Q1457.63 39.964 1454.23 41.8274 L1454.23 34.9409 Q1458.32 33.361 1462.17 32.5914 Q1466.02 31.7812 1469.66 31.7812 Q1479.51 31.7812 1484.37 36.8853 Q1489.23 41.9895 1489.23 52.3598 Z" fill="#000000" fill-rule="evenodd" fill-opacity="1" /><path clip-path="url(#clip280)" d="M1542.3 50.8609 L1542.3 78.2451 L1534.84 78.2451 L1534.84 51.104 Q1534.84 44.6631 1532.33 41.4629 Q1529.82 38.2626 1524.8 38.2626 Q1518.76 38.2626 1515.28 42.111 Q1511.79 45.9594 1511.79 52.6028 L1511.79 78.2451 L1504.3 78.2451 L1504.3 32.8749 L1511.79 32.8749 L1511.79 39.9235 Q1514.47 35.8321 1518.07 33.8066 Q1521.72 31.7812 1526.46 31.7812 Q1534.27 31.7812 1538.29 36.6423 Q1542.3 41.4629 1542.3 50.8609 Z" fill="#000000" fill-rule="evenodd" fill-opacity="1" /><path clip-path="url(#clip280)" d="M1587.02 39.7615 L1587.02 15.213 L1594.47 15.213 L1594.47 78.2451 L1587.02 78.2451 L1587.02 71.4395 Q1584.67 75.4904 1581.06 77.4754 Q1577.5 79.4198 1572.47 79.4198 Q1564.25 79.4198 1559.07 72.8574 Q1553.92 66.2949 1553.92 55.6005 Q1553.92 44.9061 1559.07 38.3437 Q1564.25 31.7812 1572.47 31.7812 Q1577.5 31.7812 1581.06 33.7661 Q1584.67 35.7106 1587.02 39.7615 M1561.62 55.6005 Q1561.62 63.8238 1564.98 68.5229 Q1568.38 73.1814 1574.3 73.1814 Q1580.21 73.1814 1583.61 68.5229 Q1587.02 63.8238 1587.02 55.6005 Q1587.02 47.3772 1583.61 42.7186 Q1580.21 38.0196 1574.3 38.0196 Q1568.38 38.0196 1564.98 42.7186 Q1561.62 47.3772 1561.62 55.6005 Z" fill="#000000" fill-rule="evenodd" fill-opacity="1" /><path clip-path="url(#clip280)" d="M1672.77 42.4473 Q1672.77 45.3166 1668.67 45.3166 L1659.45 45.3166 Q1662.03 49.0056 1662.03 54.4572 Q1662.03 59.13 1660.1 63.5158 Q1658.22 67.8607 1655.18 70.8939 Q1652.19 73.9271 1648.42 75.7716 Q1644.65 77.5752 1640.96 77.5752 Q1635.35 77.5752 1631.86 73.7632 Q1628.38 69.9512 1628.38 64.2946 Q1628.38 61.3024 1629.4 57.9823 Q1630.47 54.6622 1632.48 51.588 Q1634.48 48.4728 1637.11 45.9724 Q1639.77 43.4721 1643.22 41.9555 Q1646.7 40.4389 1650.35 40.4389 L1669.49 40.4389 Q1670.51 40.4389 1671.05 40.5209 Q1671.62 40.5618 1672.2 41.0537 Q1672.77 41.5046 1672.77 42.4473 M1656.66 53.4735 Q1656.66 52.4897 1656.54 51.6289 Q1656.41 50.7272 1655.96 49.5385 Q1655.51 48.3088 1654.73 47.448 Q1653.95 46.5463 1652.44 45.9314 Q1650.96 45.3166 1648.95 45.3166 Q1646.13 45.3166 1643.01 46.8742 Q1639.9 48.4318 1637.52 52.2848 Q1635.55 55.5639 1634.57 59.8268 Q1633.58 64.0897 1633.58 66.631 Q1633.58 70.9759 1635.67 73.3533 Q1637.81 75.6897 1641.04 75.6897 Q1643.71 75.6897 1646.74 73.8861 Q1649.77 72.0416 1652.11 68.5575 Q1654.16 65.5243 1655.39 61.0975 Q1656.66 56.6706 1656.66 53.4735 Z" fill="#000000" fill-rule="evenodd" fill-opacity="1" /><path clip-path="url(#clip280)" d="M1720.2 71.1347 Q1720.2 73.344 1718.99 78.2217 Q1717.79 83.0994 1716.32 86.4278 Q1713.2 93.6583 1707.8 93.6583 Q1707.14 93.6583 1706.48 93.6009 Q1705.85 93.5435 1704.9 93.2853 Q1703.96 93.027 1703.18 92.6253 Q1702.41 92.195 1701.63 91.3916 Q1700.89 90.5882 1700.46 89.5266 Q1698.08 93.6583 1694.35 93.6583 Q1690.73 93.6583 1688.35 91.822 Q1686 89.9856 1686 86.2269 Q1686 84.5341 1686.68 82.0378 Q1687.37 79.5416 1689.3 74.3769 Q1690.36 71.7085 1690.36 70.2452 Q1690.36 69.5853 1690.21 69.1549 Q1690.07 68.7245 1689.78 68.581 Q1689.53 68.4089 1689.35 68.3802 Q1689.18 68.3228 1688.89 68.3228 Q1687.17 68.3228 1685.62 70.073 Q1684.07 71.7946 1682.95 75.6107 Q1682.73 76.328 1682.58 76.5002 Q1682.44 76.6723 1682.01 76.6723 Q1681.29 76.6436 1681.29 76.0698 Q1681.29 75.8402 1681.55 74.9508 Q1681.81 74.0326 1682.41 72.6841 Q1683.04 71.3068 1683.9 70.073 Q1684.76 68.8106 1686.11 67.9211 Q1687.49 67.0316 1689.07 67.0316 Q1691.19 67.0316 1692.54 68.4376 Q1693.89 69.8435 1693.89 71.852 Q1693.89 72.4258 1693.74 73.0571 Q1693.6 73.6596 1693.46 74.0613 Q1693.34 74.4343 1692.88 75.6107 Q1690.99 80.5745 1690.39 82.956 Q1689.81 85.3374 1689.81 87.0016 Q1689.81 87.5468 1689.84 87.9772 Q1689.87 88.4075 1690.1 89.297 Q1690.36 90.1865 1690.82 90.789 Q1691.28 91.3629 1692.22 91.8506 Q1693.2 92.3384 1694.52 92.3384 Q1697.82 92.3384 1699.94 87.4033 Q1699.88 87.1164 1699.88 86.3704 Q1699.88 84.7062 1700.4 82.4682 Q1700.54 81.9517 1701.38 78.6521 Q1702.21 75.3238 1702.92 72.4258 Q1703.67 69.4992 1703.76 69.327 Q1704.04 68.5236 1704.67 68.0933 Q1705.31 67.6629 1705.94 67.6629 Q1706.65 67.6629 1707.14 68.0933 Q1707.63 68.5236 1707.63 69.2697 Q1707.63 69.4131 1707.46 70.073 Q1707.31 70.7043 1707.09 71.6511 Q1706.86 72.598 1706.74 73.0858 L1704.27 82.956 Q1703.64 85.2514 1703.64 87.2312 Q1703.64 89.7274 1704.76 91.0473 Q1705.88 92.3384 1707.97 92.3384 Q1711.91 92.3384 1714.43 87.1738 Q1715.58 84.9358 1716.61 81.4353 Q1717.67 77.9348 1717.67 76.4141 Q1717.67 73.5448 1715.55 71.4216 Q1715.09 71.0199 1714.89 70.7043 Q1714.69 70.36 1714.69 69.8435 Q1714.69 68.868 1715.61 67.9498 Q1716.52 67.0316 1717.62 67.0316 Q1718.59 67.0316 1719.39 68.0072 Q1720.2 68.954 1720.2 71.1347 Z" fill="#000000" fill-rule="evenodd" fill-opacity="1" /><path clip-path="url(#clip280)" d="M1729.97 75.2798 Q1728.78 73.9271 1728.78 72.1646 Q1728.78 70.402 1729.93 69.0904 Q1731.12 67.7377 1733.25 67.7377 Q1735.75 67.7377 1737.19 70.1561 Q1738.62 72.5335 1738.62 76.5504 Q1738.62 80.8953 1736.86 84.9122 Q1735.1 88.9702 1733.37 90.8967 Q1731.65 92.8232 1730.96 92.8232 Q1730.14 92.8232 1730.14 91.9214 Q1730.14 91.5935 1730.71 90.9787 Q1736.74 84.5023 1736.78 76.5504 Q1736.78 75.2798 1736.61 75.2798 L1736.41 75.4437 Q1734.97 76.6324 1733.25 76.6324 Q1731.16 76.6324 1729.97 75.2798 Z" fill="#000000" fill-rule="evenodd" fill-opacity="1" /><path clip-path="url(#clip280)" d="M1809.5 42.4473 Q1809.5 45.3166 1805.4 45.3166 L1796.18 45.3166 Q1798.76 49.0056 1798.76 54.4572 Q1798.76 59.13 1796.84 63.5158 Q1794.95 67.8607 1791.92 70.8939 Q1788.92 73.9271 1785.15 75.7716 Q1781.38 77.5752 1777.69 77.5752 Q1772.08 77.5752 1768.59 73.7632 Q1765.11 69.9512 1765.11 64.2946 Q1765.11 61.3024 1766.13 57.9823 Q1767.2 54.6622 1769.21 51.588 Q1771.22 48.4728 1773.84 45.9724 Q1776.51 43.4721 1779.95 41.9555 Q1783.43 40.4389 1787.08 40.4389 L1806.22 40.4389 Q1807.25 40.4389 1807.78 40.5209 Q1808.35 40.5618 1808.93 41.0537 Q1809.5 41.5046 1809.5 42.4473 M1793.39 53.4735 Q1793.39 52.4897 1793.27 51.6289 Q1793.15 50.7272 1792.7 49.5385 Q1792.25 48.3088 1791.47 47.448 Q1790.69 46.5463 1789.17 45.9314 Q1787.7 45.3166 1785.69 45.3166 Q1782.86 45.3166 1779.74 46.8742 Q1776.63 48.4318 1774.25 52.2848 Q1772.28 55.5639 1771.3 59.8268 Q1770.32 64.0897 1770.32 66.631 Q1770.32 70.9759 1772.41 73.3533 Q1774.54 75.6897 1777.78 75.6897 Q1780.44 75.6897 1783.47 73.8861 Q1786.51 72.0416 1788.84 68.5575 Q1790.89 65.5243 1792.12 61.0975 Q1793.39 56.6706 1793.39 53.4735 Z" fill="#000000" fill-rule="evenodd" fill-opacity="1" /><path clip-path="url(#clip280)" d="M1842.93 67.6055 Q1842.93 67.8063 1842.44 68.6671 Q1841.98 69.4992 1840.29 71.5937 Q1838.6 73.6883 1836.07 76.1272 Q1835.12 77.074 1833.69 78.3939 Q1832.25 79.7137 1831.28 80.5745 L1830.3 81.4353 Q1826.57 84.5914 1823.3 88.1206 Q1823.53 88.0345 1823.93 88.0058 Q1824.34 87.9485 1824.62 87.9485 L1824.91 87.9485 Q1826.4 87.9485 1829.01 88.9527 Q1831.31 89.6987 1832.48 89.6987 Q1833.63 89.6987 1834.89 89.297 Q1836.16 88.8953 1837.53 87.7189 Q1838.91 86.5425 1839.54 84.7636 Q1839.66 84.4767 1839.71 84.3906 Q1839.77 84.2758 1839.94 84.1611 Q1840.12 84.0176 1840.35 84.0176 Q1840.66 84.0176 1840.86 84.1897 Q1841.06 84.3619 1841.06 84.5914 Q1841.06 85.1079 1840.66 86.1408 Q1840.29 87.1738 1839.46 88.4649 Q1838.65 89.7561 1837.59 90.9325 Q1836.56 92.0802 1835.01 92.8836 Q1833.46 93.6583 1831.82 93.6583 Q1830.65 93.6583 1829.79 93.0844 Q1828.93 92.5393 1828.07 91.4776 Q1826.89 90.1291 1826.26 89.6987 Q1825.63 89.2396 1824.65 89.2396 Q1822.04 89.2396 1819.66 92.8836 Q1819.4 93.4 1819.23 93.5148 Q1819.08 93.6583 1818.74 93.6583 Q1818.02 93.6296 1818.02 93.0557 Q1818.02 92.8262 1818.65 91.822 Q1819.31 90.789 1820.78 88.9814 Q1822.27 87.1738 1824.08 85.3661 L1829.36 80.431 Q1835.21 75.4959 1837.53 72.7128 Q1836.56 72.7128 1836.13 72.6841 Q1835.73 72.6554 1834.92 72.4832 Q1834.12 72.2824 1833 71.852 Q1830.39 70.9625 1829.3 70.9625 Q1829.01 70.9625 1828.7 70.9912 Q1828.38 71.0199 1827.66 71.1634 Q1826.98 71.3068 1826.4 71.5937 Q1825.83 71.852 1825.23 72.4258 Q1824.62 72.971 1824.31 73.717 Q1824.22 73.9465 1824.16 74.0613 Q1824.11 74.1761 1823.93 74.2908 Q1823.79 74.3769 1823.56 74.3769 Q1823.22 74.3769 1823.02 74.1761 Q1822.84 73.9752 1822.84 73.717 Q1822.84 73.2005 1823.36 72.1389 Q1823.88 71.0773 1824.74 69.9296 Q1825.6 68.7532 1827 67.8924 Q1828.41 67.0316 1829.96 67.0316 Q1830.88 67.0316 1831.65 67.4333 Q1832.46 67.835 1832.86 68.2654 Q1833.29 68.6671 1834.01 69.5566 Q1834.61 70.2452 1834.89 70.5321 Q1835.18 70.819 1835.76 71.1347 Q1836.36 71.4216 1837.02 71.4216 Q1838.11 71.4216 1839.11 70.5895 Q1840.12 69.7287 1841.41 67.6629 Q1841.75 67.0316 1842.3 67.0316 Q1842.93 67.0316 1842.93 67.6055 Z" fill="#000000" fill-rule="evenodd" fill-opacity="1" /><path clip-path="url(#clip280)" d="M1874.94 63.8847 Q1875.02 62.86 1876.62 62.86 L1928.06 62.86 Q1930.48 62.86 1930.52 63.8028 Q1930.52 64.8275 1928.22 64.7865 L1877.19 64.7865 Q1874.94 64.8275 1874.94 63.8847 M1874.94 47.489 Q1874.94 46.4643 1876.7 46.5053 L1927.98 46.5053 Q1930.48 46.5053 1930.52 47.489 Q1930.52 48.4318 1928.39 48.4318 L1876.62 48.4318 Q1874.94 48.4318 1874.94 47.489 Z" fill="#000000" fill-rule="evenodd" fill-opacity="1" /><path clip-path="url(#clip280)" d="M1962.9 49.7844 Q1962.9 37.4467 1966.01 30.7244 Q1970.36 20.723 1980.61 20.723 Q1982.78 20.723 1985.03 21.3379 Q1987.33 21.9117 1990.2 24.1661 Q1993.11 26.4205 1994.87 30.1096 Q1998.23 37.2417 1998.23 49.7844 Q1998.23 62.0402 1995.12 68.7215 Q1990.57 78.4769 1980.52 78.4769 Q1976.75 78.4769 1972.9 76.5504 Q1969.09 74.6239 1966.67 69.9921 Q1962.9 63.065 1962.9 49.7844 M1969.87 48.7597 Q1969.87 61.4254 1970.77 66.4671 Q1971.79 71.9186 1974.58 74.296 Q1977.41 76.6324 1980.52 76.6324 Q1983.88 76.6324 1986.67 74.1321 Q1989.5 71.5907 1990.36 66.1392 Q1991.3 60.7696 1991.26 48.7597 Q1991.26 37.0778 1990.44 32.405 Q1989.34 26.9534 1986.38 24.781 Q1983.47 22.5675 1980.52 22.5675 Q1979.42 22.5675 1978.23 22.8955 Q1977.08 23.2234 1975.4 24.1661 Q1973.72 25.1089 1972.41 27.4453 Q1971.14 29.7817 1970.52 33.3067 Q1969.87 37.8565 1969.87 48.7597 Z" fill="#000000" fill-rule="evenodd" fill-opacity="1" /><path clip-path="url(#clip280)" d="M2005.74 75.2798 Q2004.47 73.9271 2004.47 72.1646 Q2004.47 70.402 2005.74 69.1314 Q2007.01 67.8197 2008.94 67.8197 Q2010.78 67.8197 2012.01 69.0494 Q2013.28 70.2381 2013.28 72.2056 Q2013.28 74.1321 2011.93 75.4027 Q2010.62 76.6324 2008.94 76.6324 Q2007.01 76.6324 2005.74 75.2798 Z" fill="#000000" fill-rule="evenodd" fill-opacity="1" /><path clip-path="url(#clip280)" d="M2027.57 76.6324 Q2027.57 75.1158 2027.69 74.6649 Q2027.85 74.214 2028.51 73.5172 L2044.62 55.5639 Q2053.43 45.6445 2053.43 36.9958 Q2053.43 31.3802 2050.48 27.3633 Q2047.57 23.3463 2042.2 23.3463 Q2038.51 23.3463 2035.4 25.6008 Q2032.28 27.8552 2030.85 31.8721 Q2031.09 31.7901 2031.95 31.7901 Q2034.04 31.7901 2035.19 33.1018 Q2036.38 34.4134 2036.38 36.176 Q2036.38 38.4304 2034.9 39.5371 Q2033.47 40.6028 2032.04 40.6028 Q2031.46 40.6028 2030.68 40.4799 Q2029.94 40.3569 2028.76 39.2092 Q2027.57 38.0205 2027.57 35.9301 Q2027.57 30.0686 2031.99 25.3958 Q2036.46 20.723 2043.27 20.723 Q2050.97 20.723 2056.01 25.3138 Q2061.1 29.8636 2061.1 36.9958 Q2061.1 39.4961 2060.32 41.7915 Q2059.58 44.0459 2058.56 45.8085 Q2057.57 47.571 2054.87 50.3993 Q2052.16 53.2275 2049.99 55.236 Q2047.82 57.2445 2042.94 61.5074 L2034.04 70.1561 L2049.17 70.1561 Q2056.55 70.1561 2057.12 69.5003 Q2057.94 68.3116 2058.97 62.0402 L2061.1 62.0402 L2058.72 76.6324 L2027.57 76.6324 Z" fill="#000000" fill-rule="evenodd" fill-opacity="1" /><path clip-path="url(#clip280)" d="M2069.47 63.1059 Q2069.47 60.6056 2070.83 59.6628 Q2072.18 58.6791 2073.61 58.6791 Q2075.54 58.6791 2076.65 59.9088 Q2077.79 61.0975 2077.79 62.778 Q2077.79 64.4586 2076.65 65.6883 Q2075.54 66.877 2073.61 66.877 Q2072.67 66.877 2072.18 66.713 Q2073.29 70.566 2076.65 73.3533 Q2080.05 76.1405 2084.52 76.1405 Q2090.13 76.1405 2093.49 70.689 Q2095.5 67.1639 2095.5 59.171 Q2095.5 52.1208 2093.99 48.5957 Q2091.65 43.2261 2086.85 43.2261 Q2080.05 43.2261 2076.03 49.0876 Q2075.54 49.8254 2074.97 49.8664 Q2074.15 49.8664 2073.94 49.4155 Q2073.78 48.9237 2073.78 47.653 L2073.78 22.8135 Q2073.78 20.805 2074.6 20.805 Q2074.93 20.805 2075.62 21.0509 Q2080.91 23.3873 2086.77 23.4283 Q2092.8 23.4283 2098.21 20.969 Q2098.62 20.723 2098.86 20.723 Q2099.68 20.723 2099.72 21.6658 Q2099.72 21.9937 2099.03 22.9774 Q2098.37 23.9202 2096.94 25.1909 Q2095.5 26.4205 2093.66 27.6092 Q2091.81 28.7979 2089.11 29.6177 Q2086.44 30.3965 2083.49 30.3965 Q2079.97 30.3965 2076.36 29.2898 L2076.36 45.6445 Q2080.7 41.3816 2087.02 41.3816 Q2093.74 41.3816 2098.37 46.7922 Q2103 52.2028 2103 59.7448 Q2103 67.6558 2097.51 73.0663 Q2092.06 78.4769 2084.68 78.4769 Q2077.96 78.4769 2073.7 73.6812 Q2069.47 68.8854 2069.47 63.1059 Z" fill="#000000" fill-rule="evenodd" fill-opacity="1" /><polyline clip-path="url(#clip282)" style="stroke:#009af9; stroke-linecap:butt; stroke-linejoin:round; stroke-width:4; stroke-opacity:1; fill:none" points="
  298.659,272.254 308.731,312.622 318.803,336.169 328.875,450.548 338.947,394.927 349.019,285.251 359.091,330.966 369.163,254.614 379.235,247.51 389.307,269.712 
  399.38,253.197 409.452,322.4 419.524,461.682 429.596,349.199 439.668,380.037 449.74,311.352 459.812,400.107 469.884,406.15 479.956,392.312 490.028,435.246 
  500.1,365.952 510.172,461 520.244,386.984 530.316,335.267 540.388,373.309 550.461,266.481 560.533,473.317 570.605,331.433 580.677,502.84 590.749,323.667 
  600.821,466.817 610.893,331.343 620.965,351.526 631.037,403.792 641.109,370.518 651.181,433.112 661.253,272.423 671.325,457.329 681.397,343.598 691.469,394.092 
  701.542,490.73 711.614,377.743 721.686,328.638 731.758,370.832 741.83,351.135 751.902,306.513 761.974,387.844 772.046,434.561 782.118,468.406 792.19,420.002 
  802.262,334.75 812.334,478.408 822.406,438.922 832.478,415.189 842.55,449.311 852.622,319.967 862.695,413.968 872.767,356.285 882.839,345.084 892.911,296.624 
  902.983,382.044 913.055,399.948 923.127,409.503 933.199,383.749 943.271,163.588 953.343,439.643 963.415,479.09 973.487,372.163 983.559,376.262 993.631,457.902 
  1003.7,428.018 1013.78,456.205 1023.85,311.33 1033.92,491.149 1043.99,325.229 1054.06,450.669 1064.14,481.43 1074.21,339.414 1084.28,422.606 1094.35,352.05 
  1104.42,396.174 1114.5,454.764 1124.57,431.583 1134.64,369.485 1144.71,388.144 1154.78,406.253 1164.86,340.572 1174.93,366.853 1185,338.087 1195.07,327.186 
  1205.14,417.058 1215.22,488.528 1225.29,436.542 1235.36,380.896 1245.43,361.919 1255.51,433.26 1265.58,491.631 1275.65,436.732 1285.72,563.29 1295.79,486.862 
  1305.87,389.758 1315.94,377.852 1326.01,177.485 1336.08,409.502 1346.15,440.899 1356.23,456.995 1366.3,425.265 1376.37,378.965 1386.44,423.879 1396.51,406.555 
  1406.59,441.345 1416.66,371.561 1426.73,432.623 1436.8,395.629 1446.87,384.569 1456.95,463.329 1467.02,622.095 1477.09,354.601 1487.16,442.122 1497.23,303.638 
  1507.31,447.37 1517.38,396.807 1527.45,479.37 1537.52,426.598 1547.6,426.586 1557.67,396.009 1567.74,496.998 1577.81,181.947 1587.88,483.243 1597.96,367.002 
  1608.03,413.026 1618.1,417.584 1628.17,464.07 1638.24,437.244 1648.32,544.656 1658.39,366.685 1668.46,510.698 1678.53,491.038 1688.6,487.752 1698.68,349.856 
  1708.75,522.838 1718.82,396.367 1728.89,339.693 1738.96,400.849 1749.04,480.319 1759.11,562.519 1769.18,548.529 1779.25,400.71 1789.32,404.956 1799.4,443.1 
  1809.47,466.451 1819.54,511.16 1829.61,533.252 1839.68,446.405 1849.76,498.214 1859.83,389.638 1869.9,416.61 1879.97,488.33 1890.05,455.916 1900.12,435.482 
  1910.19,413.123 1920.26,546.988 1930.33,419.827 1940.41,516.007 1950.48,454.575 1960.55,512.961 1970.62,437.37 1980.69,458.831 1990.77,429.385 2000.84,378.075 
  2010.91,345.803 2020.98,388.188 2031.05,470.587 2041.13,486.495 2051.2,505.292 2061.27,503.237 2071.34,375.685 2081.41,445.655 2091.49,513.617 2101.56,401.08 
  2111.63,474.74 2121.7,575.044 2131.77,490.435 2141.85,570.917 2151.92,491.602 2161.99,482.946 2172.06,492.704 2182.14,498.04 2192.21,361.632 2202.28,378.635 
  2212.35,364.343 2222.42,394.608 2232.5,499.305 2242.57,484.622 2252.64,552.542 2262.71,408.512 2272.78,393.741 2282.86,374.806 2292.93,534.95 
  "/>
<polyline clip-path="url(#clip282)" style="stroke:#e26f46; stroke-linecap:butt; stroke-linejoin:round; stroke-width:4; stroke-opacity:1; fill:none" points="
  298.659,239.184 308.731,314.819 318.803,348.544 328.875,473.504 338.947,397.165 349.019,295.536 359.091,331.752 369.163,249.147 379.235,258.989 389.307,257.492 
  399.38,272.595 409.452,321.624 419.524,476.974 429.596,348.702 439.668,382.89 449.74,304.662 459.812,401.167 469.884,409.956 479.956,392.768 490.028,432.958 
  500.1,374.192 510.172,468.548 520.244,386.215 530.316,330.308 540.388,380.652 550.461,283.535 560.533,483.819 570.605,336.295 580.677,503.862 590.749,331.274 
  600.821,466.646 610.893,336.567 620.965,344.225 631.037,414.012 641.109,364.691 651.181,436.076 661.253,285.074 671.325,463.47 681.397,342.52 691.469,395.245 
  701.542,496.553 711.614,388.861 721.686,330.02 731.758,364.353 741.83,355.495 751.902,309.444 761.974,390.147 772.046,424.856 782.118,475.252 792.19,425.228 
  802.262,335.847 812.334,480.115 822.406,430.42 832.478,404.681 842.55,445.682 852.622,322.165 862.695,412.521 872.767,358.738 882.839,348.039 892.911,298.457 
  902.983,384.861 913.055,400.907 923.127,405.472 933.199,380.19 943.271,159.909 953.343,432.763 963.415,480.176 973.487,370.583 983.559,376.62 993.631,449.223 
  1003.7,436.477 1013.78,455.35 1023.85,301.227 1033.92,488.235 1043.99,335.785 1054.06,455.985 1064.14,488.426 1074.21,338.678 1084.28,423.983 1094.35,352.292 
  1104.42,401.242 1114.5,456.248 1124.57,426.205 1134.64,364.293 1144.71,384.69 1154.78,410.716 1164.86,339.574 1174.93,368.096 1185,341.38 1195.07,327.396 
  1205.14,417.384 1215.22,490.8 1225.29,437.444 1235.36,382.82 1245.43,361.649 1255.51,440.51 1265.58,502.357 1275.65,442.831 1285.72,563.385 1295.79,487.492 
  1305.87,382.151 1315.94,381.91 1326.01,185.435 1336.08,419.235 1346.15,443.471 1356.23,455.496 1366.3,426.617 1376.37,379.339 1386.44,429.326 1396.51,405.603 
  1406.59,446.178 1416.66,367.699 1426.73,427.047 1436.8,394.244 1446.87,378.542 1456.95,466.312 1467.02,618.782 1477.09,355.628 1487.16,435.261 1497.23,305.928 
  1507.31,448.582 1517.38,398.88 1527.45,485.716 1537.52,423.14 1547.6,431.644 1557.67,399.139 1567.74,494.176 1577.81,175.097 1587.88,478.87 1597.96,367.429 
  1608.03,412.464 1618.1,412.624 1628.17,465.771 1638.24,443.495 1648.32,541.663 1658.39,375.023 1668.46,512.797 1678.53,498.313 1688.6,484.934 1698.68,348.251 
  1708.75,526.785 1718.82,397.78 1728.89,339.039 1738.96,407.503 1749.04,492.599 1759.11,564.008 1769.18,552.967 1779.25,403.471 1789.32,402.569 1799.4,438.828 
  1809.47,468.843 1819.54,517.148 1829.61,537.62 1839.68,450.227 1849.76,499.711 1859.83,391.317 1869.9,416.908 1879.97,484.284 1890.05,455.346 1900.12,436.455 
  1910.19,417.898 1920.26,544.373 1930.33,419.114 1940.41,517.871 1950.48,458.679 1960.55,510.355 1970.62,436.802 1980.69,458.916 1990.77,431.232 2000.84,383.373 
  2010.91,346.391 2020.98,390.021 2031.05,472.126 2041.13,486.19 2051.2,503.6 2061.27,503.143 2071.34,377.297 2081.41,445.572 2091.49,516.146 2101.56,409.068 
  2111.63,476.144 2121.7,584.773 2131.77,495.263 2141.85,574.884 2151.92,489.773 2161.99,486.468 2172.06,494.251 2182.14,499.164 2192.21,361.911 2202.28,377.654 
  2212.35,352 2222.42,393.405 2232.5,499.004 2242.57,487.417 2252.64,555.345 2262.71,409.899 2272.78,395 2282.86,373.454 2292.93,534.754 
  "/>
<polyline clip-path="url(#clip282)" style="stroke:#3da44d; stroke-linecap:butt; stroke-linejoin:round; stroke-width:4; stroke-opacity:1; fill:none" points="
  298.659,324.419 308.731,408.126 318.803,567.47 328.875,692.636 338.947,652.086 349.019,687.895 359.091,729.111 369.163,725.053 379.235,729.987 389.307,756.542 
  399.38,824.956 409.452,869.574 419.524,927.902 429.596,925.179 439.668,923.212 449.74,774.293 459.812,871.597 469.884,920.87 479.956,977.105 490.028,972.896 
  500.1,969.78 510.172,1009.09 520.244,971.85 530.316,968.536 540.388,972.579 550.461,962.084 560.533,1026.03 570.605,953.256 580.677,1032.72 590.749,987.845 
  600.821,1073.15 610.893,1017.39 620.965,1005.33 631.037,1037.71 641.109,892.585 651.181,1124.57 661.253,970.735 671.325,1114.78 681.397,924.81 691.469,1109.24 
  701.542,1087.14 711.614,1085.43 721.686,1054.28 731.758,1023.54 741.83,1093.95 751.902,1066.67 761.974,1092.74 772.046,1041.2 782.118,1028.08 792.19,1152.57 
  802.262,1066.48 812.334,1080.89 822.406,1142.3 832.478,1024.5 842.55,1105.65 852.622,952.041 862.695,1136.35 872.767,1025.3 882.839,1094.56 892.911,1043.44 
  902.983,1016.15 913.055,1093.05 923.127,1119.59 933.199,1177.96 943.271,1054.97 953.343,1110.12 963.415,1157.82 973.487,1083.48 983.559,1087.57 993.631,1165.97 
  1003.7,1089.07 1013.78,1094.49 1023.85,1152.52 1033.92,1230.93 1043.99,1087.88 1054.06,1156.52 1064.14,1180.8 1074.21,1079.11 1084.28,1187.4 1094.35,1147.55 
  1104.42,1096.24 1114.5,1191.95 1124.57,1162.41 1134.64,1024.78 1144.71,1129.44 1154.78,1118.01 1164.86,1123.85 1174.93,1158.58 1185,1140.84 1195.07,1178.39 
  1205.14,1147.3 1215.22,1220.46 1225.29,1179.02 1235.36,1126.16 1245.43,1072.67 1255.51,1179.89 1265.58,1205.34 1275.65,1175.76 1285.72,1239.83 1295.79,1226.85 
  1305.87,1179.78 1315.94,1137.99 1326.01,1025.34 1336.08,1218.3 1346.15,1252.21 1356.23,1218.64 1366.3,1161.06 1376.37,1138.1 1386.44,1163.53 1396.51,1148.3 
  1406.59,1176.03 1416.66,1118.06 1426.73,1239.29 1436.8,1195.48 1446.87,1145.73 1456.95,1116.28 1467.02,1290.25 1477.09,1146.26 1487.16,1195.85 1497.23,1145.72 
  1507.31,1219.55 1517.38,1177.98 1527.45,1242.6 1537.52,1213.86 1547.6,1223.62 1557.67,1225.33 1567.74,1257.15 1577.81,1086.53 1587.88,1313.67 1597.96,1205.01 
  1608.03,1220.44 1618.1,1166.47 1628.17,1195.73 1638.24,1241.22 1648.32,1329.59 1658.39,1201.58 1668.46,1222.66 1678.53,1337.93 1688.6,1265.77 1698.68,1216.15 
  1708.75,1253.87 1718.82,1031.84 1728.89,1211.05 1738.96,1240.76 1749.04,1263.48 1759.11,1329.87 1769.18,1311.68 1779.25,1278.8 1789.32,1182.82 1799.4,1226.2 
  1809.47,1213.01 1819.54,1370.04 1829.61,1239.91 1839.68,1248.17 1849.76,1331.25 1859.83,1171.21 1869.9,1194.19 1879.97,1259.62 1890.05,1234.19 1900.12,1222.61 
  1910.19,1215.51 1920.26,1319.04 1930.33,1205.53 1940.41,1355.07 1950.48,1240.4 1960.55,1290.98 1970.62,1218.59 1980.69,1269.31 1990.77,1274.11 2000.84,1158.9 
  2010.91,1210.98 2020.98,1158.78 2031.05,1204.02 2041.13,1293.05 2051.2,1374.46 2061.27,1262.64 2071.34,1207.23 2081.41,1316.99 2091.49,1298.84 2101.56,1207.93 
  2111.63,1225.25 2121.7,1327.72 2131.77,1363.83 2141.85,1352.79 2151.92,1239.75 2161.99,1331.17 2172.06,1295.68 2182.14,1306.8 2192.21,1140.85 2202.28,1194.82 
  2212.35,1192.37 2222.42,1207.35 2232.5,1333.62 2242.57,1259.14 2252.64,1313.42 2262.71,1249.65 2272.78,1256.25 2282.86,1170.71 2292.93,1350.47 
  "/>
<path clip-path="url(#clip280)" d="
M1958.89 373.746 L2282.29 373.746 L2282.29 166.386 L1958.89 166.386  Z
  " fill="#ffffff" fill-rule="evenodd" fill-opacity="1"/>
<polyline clip-path="url(#clip280)" style="stroke:#000000; stroke-linecap:butt; stroke-linejoin:round; stroke-width:4; stroke-opacity:1; fill:none" points="
  1958.89,373.746 2282.29,373.746 2282.29,166.386 1958.89,166.386 1958.89,373.746 
  "/>
<polyline clip-path="url(#clip280)" style="stroke:#009af9; stroke-linecap:butt; stroke-linejoin:round; stroke-width:4; stroke-opacity:1; fill:none" points="
  1982.38,218.226 2123.31,218.226 
  "/>
<path clip-path="url(#clip280)" d="M2160.2 222.474 Q2155.04 222.474 2153.05 223.654 Q2151.06 224.835 2151.06 227.682 Q2151.06 229.951 2152.54 231.293 Q2154.04 232.613 2156.61 232.613 Q2160.15 232.613 2162.28 230.113 Q2164.44 227.59 2164.44 223.423 L2164.44 222.474 L2160.2 222.474 M2168.7 220.715 L2168.7 235.506 L2164.44 235.506 L2164.44 231.571 Q2162.98 233.932 2160.8 235.066 Q2158.63 236.178 2155.48 236.178 Q2151.5 236.178 2149.14 233.955 Q2146.8 231.71 2146.8 227.96 Q2146.8 223.585 2149.71 221.363 Q2152.65 219.141 2158.46 219.141 L2164.44 219.141 L2164.44 218.724 Q2164.44 215.784 2162.49 214.187 Q2160.57 212.567 2157.08 212.567 Q2154.85 212.567 2152.75 213.099 Q2150.64 213.631 2148.7 214.696 L2148.7 210.761 Q2151.03 209.858 2153.23 209.418 Q2155.43 208.955 2157.52 208.955 Q2163.14 208.955 2165.92 211.872 Q2168.7 214.789 2168.7 220.715 Z" fill="#000000" fill-rule="evenodd" fill-opacity="1" /><path clip-path="url(#clip280)" d="M2174.41 209.58 L2178.93 209.58 L2187.03 231.34 L2195.13 209.58 L2199.64 209.58 L2189.92 235.506 L2184.14 235.506 L2174.41 209.58 Z" fill="#000000" fill-rule="evenodd" fill-opacity="1" /><path clip-path="url(#clip280)" d="M2222.58 222.242 Q2222.58 217.613 2220.66 215.067 Q2218.76 212.52 2215.32 212.52 Q2211.89 212.52 2209.97 215.067 Q2208.07 217.613 2208.07 222.242 Q2208.07 226.849 2209.97 229.395 Q2211.89 231.941 2215.32 231.941 Q2218.76 231.941 2220.66 229.395 Q2222.58 226.849 2222.58 222.242 M2226.84 232.289 Q2226.84 238.909 2223.9 242.127 Q2220.96 245.367 2214.9 245.367 Q2212.65 245.367 2210.66 245.02 Q2208.67 244.696 2206.8 244.002 L2206.8 239.858 Q2208.67 240.877 2210.5 241.363 Q2212.33 241.849 2214.23 241.849 Q2218.42 241.849 2220.5 239.65 Q2222.58 237.474 2222.58 233.053 L2222.58 230.946 Q2221.26 233.238 2219.2 234.372 Q2217.14 235.506 2214.27 235.506 Q2209.51 235.506 2206.59 231.872 Q2203.67 228.238 2203.67 222.242 Q2203.67 216.224 2206.59 212.59 Q2209.51 208.955 2214.27 208.955 Q2217.14 208.955 2219.2 210.09 Q2221.26 211.224 2222.58 213.516 L2222.58 209.58 L2226.84 209.58 L2226.84 232.289 Z" fill="#000000" fill-rule="evenodd" fill-opacity="1" /><polyline clip-path="url(#clip280)" style="stroke:#e26f46; stroke-linecap:butt; stroke-linejoin:round; stroke-width:4; stroke-opacity:1; fill:none" points="
  1982.38,270.066 2123.31,270.066 
  "/>
<path clip-path="url(#clip280)" d="M2162.82 255.958 Q2157.72 255.958 2154.71 259.754 Q2151.73 263.55 2151.73 270.101 Q2151.73 276.629 2154.71 280.425 Q2157.72 284.221 2162.82 284.221 Q2167.91 284.221 2170.87 280.425 Q2173.86 276.629 2173.86 270.101 Q2173.86 263.55 2170.87 259.754 Q2167.91 255.958 2162.82 255.958 M2162.82 252.161 Q2170.08 252.161 2174.44 257.046 Q2178.79 261.907 2178.79 270.101 Q2178.79 278.272 2174.44 283.156 Q2170.08 288.018 2162.82 288.018 Q2155.52 288.018 2151.15 283.156 Q2146.8 278.295 2146.8 270.101 Q2146.8 261.907 2151.15 257.046 Q2155.52 252.161 2162.82 252.161 Z" fill="#000000" fill-rule="evenodd" fill-opacity="1" /><path clip-path="url(#clip280)" d="M2186.1 252.786 L2190.78 252.786 L2190.78 283.411 L2207.61 283.411 L2207.61 287.346 L2186.1 287.346 L2186.1 252.786 Z" fill="#000000" fill-rule="evenodd" fill-opacity="1" /><path clip-path="url(#clip280)" d="M2233.23 253.921 L2233.23 258.481 Q2230.57 257.208 2228.21 256.583 Q2225.85 255.958 2223.65 255.958 Q2219.83 255.958 2217.75 257.439 Q2215.69 258.921 2215.69 261.652 Q2215.69 263.944 2217.05 265.124 Q2218.44 266.282 2222.28 266.999 L2225.11 267.578 Q2230.34 268.573 2232.82 271.096 Q2235.32 273.596 2235.32 277.809 Q2235.32 282.832 2231.94 285.425 Q2228.58 288.018 2222.07 288.018 Q2219.62 288.018 2216.84 287.462 Q2214.09 286.906 2211.13 285.819 L2211.13 281.004 Q2213.97 282.601 2216.7 283.411 Q2219.44 284.221 2222.07 284.221 Q2226.08 284.221 2228.26 282.647 Q2230.43 281.073 2230.43 278.157 Q2230.43 275.61 2228.86 274.175 Q2227.31 272.74 2223.74 272.022 L2220.89 271.467 Q2215.66 270.425 2213.33 268.203 Q2210.99 265.981 2210.99 262.022 Q2210.99 257.439 2214.2 254.8 Q2217.45 252.161 2223.12 252.161 Q2225.55 252.161 2228.07 252.601 Q2230.59 253.041 2233.23 253.921 Z" fill="#000000" fill-rule="evenodd" fill-opacity="1" /><polyline clip-path="url(#clip280)" style="stroke:#3da44d; stroke-linecap:butt; stroke-linejoin:round; stroke-width:4; stroke-opacity:1; fill:none" points="
  1982.38,321.906 2123.31,321.906 
  "/>
<path clip-path="url(#clip280)" d="M2151.47 308.469 L2151.47 321.455 L2157.35 321.455 Q2160.62 321.455 2162.4 319.765 Q2164.18 318.075 2164.18 314.95 Q2164.18 311.848 2162.4 310.159 Q2160.62 308.469 2157.35 308.469 L2151.47 308.469 M2146.8 304.626 L2157.35 304.626 Q2163.16 304.626 2166.13 307.265 Q2169.11 309.881 2169.11 314.95 Q2169.11 320.066 2166.13 322.682 Q2163.16 325.297 2157.35 325.297 L2151.47 325.297 L2151.47 339.186 L2146.8 339.186 L2146.8 304.626 Z" fill="#000000" fill-rule="evenodd" fill-opacity="1" /><path clip-path="url(#clip280)" d="M2175.39 304.626 L2180.06 304.626 L2180.06 335.251 L2196.89 335.251 L2196.89 339.186 L2175.39 339.186 L2175.39 304.626 Z" fill="#000000" fill-rule="evenodd" fill-opacity="1" /><path clip-path="url(#clip280)" d="M2222.51 305.761 L2222.51 310.321 Q2219.85 309.048 2217.49 308.423 Q2215.13 307.798 2212.93 307.798 Q2209.11 307.798 2207.03 309.279 Q2204.97 310.761 2204.97 313.492 Q2204.97 315.784 2206.33 316.964 Q2207.72 318.122 2211.57 318.839 L2214.39 319.418 Q2219.62 320.413 2222.1 322.936 Q2224.6 325.436 2224.6 329.649 Q2224.6 334.672 2221.22 337.265 Q2217.86 339.858 2211.36 339.858 Q2208.9 339.858 2206.13 339.302 Q2203.37 338.746 2200.41 337.659 L2200.41 332.844 Q2203.26 334.441 2205.99 335.251 Q2208.72 336.061 2211.36 336.061 Q2215.36 336.061 2217.54 334.487 Q2219.71 332.913 2219.71 329.997 Q2219.71 327.45 2218.14 326.015 Q2216.59 324.58 2213.02 323.862 L2210.18 323.307 Q2204.95 322.265 2202.61 320.043 Q2200.27 317.821 2200.27 313.862 Q2200.27 309.279 2203.49 306.64 Q2206.73 304.001 2212.4 304.001 Q2214.83 304.001 2217.35 304.441 Q2219.88 304.881 2222.51 305.761 Z" fill="#000000" fill-rule="evenodd" fill-opacity="1" /></svg>
