<?xml version="1.0" encoding="utf-8"?>
<svg xmlns="http://www.w3.org/2000/svg" xmlns:xlink="http://www.w3.org/1999/xlink" width="600" height="400" viewBox="0 0 2400 1600">
<defs>
  <clipPath id="clip630">
    <rect x="0" y="0" width="2400" height="1600"/>
  </clipPath>
</defs>
<path clip-path="url(#clip630)" d="
M0 1600 L2400 1600 L2400 0 L0 0  Z
  " fill="#ffffff" fill-rule="evenodd" fill-opacity="1"/>
<defs>
  <clipPath id="clip631">
    <rect x="480" y="0" width="1681" height="1600"/>
  </clipPath>
</defs>
<path clip-path="url(#clip630)" d="
M238.831 1410.9 L2352.76 1410.9 L2352.76 123.472 L238.831 123.472  Z
  " fill="#ffffff" fill-rule="evenodd" fill-opacity="1"/>
<defs>
  <clipPath id="clip632">
    <rect x="238" y="123" width="2115" height="1288"/>
  </clipPath>
</defs>
<polyline clip-path="url(#clip632)" style="stroke:#000000; stroke-linecap:butt; stroke-linejoin:round; stroke-width:2; stroke-opacity:0.1; fill:none" points="
  278.515,1410.9 278.515,123.472 
  "/>
<polyline clip-path="url(#clip632)" style="stroke:#000000; stroke-linecap:butt; stroke-linejoin:round; stroke-width:2; stroke-opacity:0.1; fill:none" points="
  782.118,1410.9 782.118,123.472 
  "/>
<polyline clip-path="url(#clip632)" style="stroke:#000000; stroke-linecap:butt; stroke-linejoin:round; stroke-width:2; stroke-opacity:0.1; fill:none" points="
  1285.72,1410.9 1285.72,123.472 
  "/>
<polyline clip-path="url(#clip632)" style="stroke:#000000; stroke-linecap:butt; stroke-linejoin:round; stroke-width:2; stroke-opacity:0.1; fill:none" points="
  1789.32,1410.9 1789.32,123.472 
  "/>
<polyline clip-path="url(#clip632)" style="stroke:#000000; stroke-linecap:butt; stroke-linejoin:round; stroke-width:2; stroke-opacity:0.1; fill:none" points="
  2292.93,1410.9 2292.93,123.472 
  "/>
<polyline clip-path="url(#clip630)" style="stroke:#000000; stroke-linecap:butt; stroke-linejoin:round; stroke-width:4; stroke-opacity:1; fill:none" points="
  238.831,1410.9 2352.76,1410.9 
  "/>
<polyline clip-path="url(#clip630)" style="stroke:#000000; stroke-linecap:butt; stroke-linejoin:round; stroke-width:4; stroke-opacity:1; fill:none" points="
  278.515,1410.9 278.515,1392 
  "/>
<polyline clip-path="url(#clip630)" style="stroke:#000000; stroke-linecap:butt; stroke-linejoin:round; stroke-width:4; stroke-opacity:1; fill:none" points="
  782.118,1410.9 782.118,1392 
  "/>
<polyline clip-path="url(#clip630)" style="stroke:#000000; stroke-linecap:butt; stroke-linejoin:round; stroke-width:4; stroke-opacity:1; fill:none" points="
  1285.72,1410.9 1285.72,1392 
  "/>
<polyline clip-path="url(#clip630)" style="stroke:#000000; stroke-linecap:butt; stroke-linejoin:round; stroke-width:4; stroke-opacity:1; fill:none" points="
  1789.32,1410.9 1789.32,1392 
  "/>
<polyline clip-path="url(#clip630)" style="stroke:#000000; stroke-linecap:butt; stroke-linejoin:round; stroke-width:4; stroke-opacity:1; fill:none" points="
  2292.93,1410.9 2292.93,1392 
  "/>
<path clip-path="url(#clip630)" d="M278.515 1441.82 Q274.904 1441.82 273.075 1445.38 Q271.269 1448.92 271.269 1456.05 Q271.269 1463.16 273.075 1466.72 Q274.904 1470.26 278.515 1470.26 Q282.149 1470.26 283.955 1466.72 Q285.783 1463.16 285.783 1456.05 Q285.783 1448.92 283.955 1445.38 Q282.149 1441.82 278.515 1441.82 M278.515 1438.11 Q284.325 1438.11 287.38 1442.72 Q290.459 1447.3 290.459 1456.05 Q290.459 1464.78 287.38 1469.38 Q284.325 1473.97 278.515 1473.97 Q272.705 1473.97 269.626 1469.38 Q266.57 1464.78 266.57 1456.05 Q266.57 1447.3 269.626 1442.72 Q272.705 1438.11 278.515 1438.11 Z" fill="#000000" fill-rule="evenodd" fill-opacity="1" /><path clip-path="url(#clip630)" d="M674.935 1454.4 L693.291 1454.4 L693.291 1458.33 L679.217 1458.33 L679.217 1466.8 Q680.236 1466.46 681.254 1466.29 Q682.273 1466.11 683.291 1466.11 Q689.078 1466.11 692.458 1469.28 Q695.837 1472.45 695.837 1477.87 Q695.837 1483.45 692.365 1486.55 Q688.893 1489.63 682.574 1489.63 Q680.398 1489.63 678.129 1489.26 Q675.884 1488.89 673.476 1488.15 L673.476 1483.45 Q675.56 1484.58 677.782 1485.14 Q680.004 1485.69 682.481 1485.69 Q686.486 1485.69 688.824 1483.59 Q691.161 1481.48 691.161 1477.87 Q691.161 1474.26 688.824 1472.15 Q686.486 1470.04 682.481 1470.04 Q680.606 1470.04 678.731 1470.46 Q676.879 1470.88 674.935 1471.76 L674.935 1454.4 Z" fill="#000000" fill-rule="evenodd" fill-opacity="1" /><path clip-path="url(#clip630)" d="M705.05 1483.08 L709.935 1483.08 L709.935 1488.96 L705.05 1488.96 L705.05 1483.08 Z" fill="#000000" fill-rule="evenodd" fill-opacity="1" /><path clip-path="url(#clip630)" d="M730.12 1457.48 Q726.509 1457.48 724.68 1461.04 Q722.874 1464.58 722.874 1471.71 Q722.874 1478.82 724.68 1482.38 Q726.509 1485.92 730.12 1485.92 Q733.754 1485.92 735.559 1482.38 Q737.388 1478.82 737.388 1471.71 Q737.388 1464.58 735.559 1461.04 Q733.754 1457.48 730.12 1457.48 M730.12 1453.77 Q735.93 1453.77 738.985 1458.38 Q742.064 1462.96 742.064 1471.71 Q742.064 1480.44 738.985 1485.04 Q735.93 1489.63 730.12 1489.63 Q724.309 1489.63 721.231 1485.04 Q718.175 1480.44 718.175 1471.71 Q718.175 1462.96 721.231 1458.38 Q724.309 1453.77 730.12 1453.77 Z" fill="#000000" fill-rule="evenodd" fill-opacity="1" /><path clip-path="url(#clip630)" d="M760.281 1457.48 Q756.67 1457.48 754.842 1461.04 Q753.036 1464.58 753.036 1471.71 Q753.036 1478.82 754.842 1482.38 Q756.67 1485.92 760.281 1485.92 Q763.916 1485.92 765.721 1482.38 Q767.55 1478.82 767.55 1471.71 Q767.55 1464.58 765.721 1461.04 Q763.916 1457.48 760.281 1457.48 M760.281 1453.77 Q766.092 1453.77 769.147 1458.38 Q772.226 1462.96 772.226 1471.71 Q772.226 1480.44 769.147 1485.04 Q766.092 1489.63 760.281 1489.63 Q754.471 1489.63 751.393 1485.04 Q748.337 1480.44 748.337 1471.71 Q748.337 1462.96 751.393 1458.38 Q754.471 1453.77 760.281 1453.77 Z" fill="#000000" fill-rule="evenodd" fill-opacity="1" /><path clip-path="url(#clip630)" d="M808.615 1463.49 L798.036 1474.12 L808.615 1484.7 L805.86 1487.5 L795.235 1476.87 L784.61 1487.5 L781.879 1484.7 L792.434 1474.12 L781.879 1463.49 L784.61 1460.69 L795.235 1471.32 L805.86 1460.69 L808.615 1463.49 Z" fill="#000000" fill-rule="evenodd" fill-opacity="1" /><path clip-path="url(#clip630)" d="M820.976 1485.02 L828.614 1485.02 L828.614 1458.66 L820.304 1460.32 L820.304 1456.06 L828.568 1454.4 L833.244 1454.4 L833.244 1485.02 L840.883 1485.02 L840.883 1488.96 L820.976 1488.96 L820.976 1485.02 Z" fill="#000000" fill-rule="evenodd" fill-opacity="1" /><path clip-path="url(#clip630)" d="M860.327 1457.48 Q856.716 1457.48 854.887 1461.04 Q853.082 1464.58 853.082 1471.71 Q853.082 1478.82 854.887 1482.38 Q856.716 1485.92 860.327 1485.92 Q863.961 1485.92 865.767 1482.38 Q867.596 1478.82 867.596 1471.71 Q867.596 1464.58 865.767 1461.04 Q863.961 1457.48 860.327 1457.48 M860.327 1453.77 Q866.137 1453.77 869.193 1458.38 Q872.272 1462.96 872.272 1471.71 Q872.272 1480.44 869.193 1485.04 Q866.137 1489.63 860.327 1489.63 Q854.517 1489.63 851.438 1485.04 Q848.383 1480.44 848.383 1471.71 Q848.383 1462.96 851.438 1458.38 Q854.517 1453.77 860.327 1453.77 Z" fill="#000000" fill-rule="evenodd" fill-opacity="1" /><path clip-path="url(#clip630)" d="M884.967 1446.41 Q887.694 1446.99 889.217 1448.83 Q890.76 1450.68 890.76 1453.38 Q890.76 1457.54 887.901 1459.82 Q885.042 1462.09 879.776 1462.09 Q878.008 1462.09 876.127 1461.73 Q874.265 1461.4 872.272 1460.7 L872.272 1457.03 Q873.851 1457.95 875.732 1458.42 Q877.613 1458.89 879.663 1458.89 Q883.237 1458.89 885.099 1457.48 Q886.979 1456.07 886.979 1453.38 Q886.979 1450.9 885.23 1449.51 Q883.5 1448.1 880.397 1448.1 L877.124 1448.1 L877.124 1444.98 L880.547 1444.98 Q883.349 1444.98 884.835 1443.87 Q886.321 1442.74 886.321 1440.63 Q886.321 1438.47 884.779 1437.32 Q883.255 1436.16 880.397 1436.16 Q878.836 1436.16 877.049 1436.49 Q875.262 1436.83 873.118 1437.55 L873.118 1434.16 Q875.281 1433.56 877.162 1433.26 Q879.061 1432.96 880.735 1432.96 Q885.061 1432.96 887.581 1434.93 Q890.101 1436.89 890.101 1440.24 Q890.101 1442.57 888.766 1444.19 Q887.431 1445.79 884.967 1446.41 Z" fill="#000000" fill-rule="evenodd" fill-opacity="1" /><path clip-path="url(#clip630)" d="M1177.54 1485.02 L1185.18 1485.02 L1185.18 1458.66 L1176.87 1460.32 L1176.87 1456.06 L1185.13 1454.4 L1189.81 1454.4 L1189.81 1485.02 L1197.45 1485.02 L1197.45 1488.96 L1177.54 1488.96 L1177.54 1485.02 Z" fill="#000000" fill-rule="evenodd" fill-opacity="1" /><path clip-path="url(#clip630)" d="M1206.89 1483.08 L1211.77 1483.08 L1211.77 1488.96 L1206.89 1488.96 L1206.89 1483.08 Z" fill="#000000" fill-rule="evenodd" fill-opacity="1" /><path clip-path="url(#clip630)" d="M1231.96 1457.48 Q1228.35 1457.48 1226.52 1461.04 Q1224.71 1464.58 1224.71 1471.71 Q1224.71 1478.82 1226.52 1482.38 Q1228.35 1485.92 1231.96 1485.92 Q1235.59 1485.92 1237.4 1482.38 Q1239.23 1478.82 1239.23 1471.71 Q1239.23 1464.58 1237.4 1461.04 Q1235.59 1457.48 1231.96 1457.48 M1231.96 1453.77 Q1237.77 1453.77 1240.83 1458.38 Q1243.9 1462.96 1243.9 1471.71 Q1243.9 1480.44 1240.83 1485.04 Q1237.77 1489.63 1231.96 1489.63 Q1226.15 1489.63 1223.07 1485.04 Q1220.02 1480.44 1220.02 1471.71 Q1220.02 1462.96 1223.07 1458.38 Q1226.15 1453.77 1231.96 1453.77 Z" fill="#000000" fill-rule="evenodd" fill-opacity="1" /><path clip-path="url(#clip630)" d="M1262.12 1457.48 Q1258.51 1457.48 1256.68 1461.04 Q1254.88 1464.58 1254.88 1471.71 Q1254.88 1478.82 1256.68 1482.38 Q1258.51 1485.92 1262.12 1485.92 Q1265.76 1485.92 1267.56 1482.38 Q1269.39 1478.82 1269.39 1471.71 Q1269.39 1464.58 1267.56 1461.04 Q1265.76 1457.48 1262.12 1457.48 M1262.12 1453.77 Q1267.93 1453.77 1270.99 1458.38 Q1274.07 1462.96 1274.07 1471.71 Q1274.07 1480.44 1270.99 1485.04 Q1267.93 1489.63 1262.12 1489.63 Q1256.31 1489.63 1253.23 1485.04 Q1250.18 1480.44 1250.18 1471.71 Q1250.18 1462.96 1253.23 1458.38 Q1256.31 1453.77 1262.12 1453.77 Z" fill="#000000" fill-rule="evenodd" fill-opacity="1" /><path clip-path="url(#clip630)" d="M1310.45 1463.49 L1299.88 1474.12 L1310.45 1484.7 L1307.7 1487.5 L1297.08 1476.87 L1286.45 1487.5 L1283.72 1484.7 L1294.27 1474.12 L1283.72 1463.49 L1286.45 1460.69 L1297.08 1471.32 L1307.7 1460.69 L1310.45 1463.49 Z" fill="#000000" fill-rule="evenodd" fill-opacity="1" /><path clip-path="url(#clip630)" d="M1322.82 1485.02 L1330.45 1485.02 L1330.45 1458.66 L1322.14 1460.32 L1322.14 1456.06 L1330.41 1454.4 L1335.08 1454.4 L1335.08 1485.02 L1342.72 1485.02 L1342.72 1488.96 L1322.82 1488.96 L1322.82 1485.02 Z" fill="#000000" fill-rule="evenodd" fill-opacity="1" /><path clip-path="url(#clip630)" d="M1362.17 1457.48 Q1358.56 1457.48 1356.73 1461.04 Q1354.92 1464.58 1354.92 1471.71 Q1354.92 1478.82 1356.73 1482.38 Q1358.56 1485.92 1362.17 1485.92 Q1365.8 1485.92 1367.61 1482.38 Q1369.44 1478.82 1369.44 1471.71 Q1369.44 1464.58 1367.61 1461.04 Q1365.8 1457.48 1362.17 1457.48 M1362.17 1453.77 Q1367.98 1453.77 1371.03 1458.38 Q1374.11 1462.96 1374.11 1471.71 Q1374.11 1480.44 1371.03 1485.04 Q1367.98 1489.63 1362.17 1489.63 Q1356.36 1489.63 1353.28 1485.04 Q1350.22 1480.44 1350.22 1471.71 Q1350.22 1462.96 1353.28 1458.38 Q1356.36 1453.77 1362.17 1453.77 Z" fill="#000000" fill-rule="evenodd" fill-opacity="1" /><path clip-path="url(#clip630)" d="M1386.79 1436.78 L1377.2 1451.77 L1386.79 1451.77 L1386.79 1436.78 M1385.79 1433.47 L1390.57 1433.47 L1390.57 1451.77 L1394.57 1451.77 L1394.57 1454.93 L1390.57 1454.93 L1390.57 1461.55 L1386.79 1461.55 L1386.79 1454.93 L1374.11 1454.93 L1374.11 1451.26 L1385.79 1433.47 Z" fill="#000000" fill-rule="evenodd" fill-opacity="1" /><path clip-path="url(#clip630)" d="M1681.14 1485.02 L1688.78 1485.02 L1688.78 1458.66 L1680.47 1460.32 L1680.47 1456.06 L1688.73 1454.4 L1693.41 1454.4 L1693.41 1485.02 L1701.05 1485.02 L1701.05 1488.96 L1681.14 1488.96 L1681.14 1485.02 Z" fill="#000000" fill-rule="evenodd" fill-opacity="1" /><path clip-path="url(#clip630)" d="M1710.49 1483.08 L1715.38 1483.08 L1715.38 1488.96 L1710.49 1488.96 L1710.49 1483.08 Z" fill="#000000" fill-rule="evenodd" fill-opacity="1" /><path clip-path="url(#clip630)" d="M1725.61 1454.4 L1743.97 1454.4 L1743.97 1458.33 L1729.89 1458.33 L1729.89 1466.8 Q1730.91 1466.46 1731.93 1466.29 Q1732.95 1466.11 1733.97 1466.11 Q1739.75 1466.11 1743.13 1469.28 Q1746.51 1472.45 1746.51 1477.87 Q1746.51 1483.45 1743.04 1486.55 Q1739.57 1489.63 1733.25 1489.63 Q1731.07 1489.63 1728.8 1489.26 Q1726.56 1488.89 1724.15 1488.15 L1724.15 1483.45 Q1726.23 1484.58 1728.46 1485.14 Q1730.68 1485.69 1733.16 1485.69 Q1737.16 1485.69 1739.5 1483.59 Q1741.84 1481.48 1741.84 1477.87 Q1741.84 1474.26 1739.5 1472.15 Q1737.16 1470.04 1733.16 1470.04 Q1731.28 1470.04 1729.41 1470.46 Q1727.55 1470.88 1725.61 1471.76 L1725.61 1454.4 Z" fill="#000000" fill-rule="evenodd" fill-opacity="1" /><path clip-path="url(#clip630)" d="M1765.73 1457.48 Q1762.11 1457.48 1760.29 1461.04 Q1758.48 1464.58 1758.48 1471.71 Q1758.48 1478.82 1760.29 1482.38 Q1762.11 1485.92 1765.73 1485.92 Q1769.36 1485.92 1771.16 1482.38 Q1772.99 1478.82 1772.99 1471.71 Q1772.99 1464.58 1771.16 1461.04 Q1769.36 1457.48 1765.73 1457.48 M1765.73 1453.77 Q1771.54 1453.77 1774.59 1458.38 Q1777.67 1462.96 1777.67 1471.71 Q1777.67 1480.44 1774.59 1485.04 Q1771.54 1489.63 1765.73 1489.63 Q1759.92 1489.63 1756.84 1485.04 Q1753.78 1480.44 1753.78 1471.71 Q1753.78 1462.96 1756.84 1458.38 Q1759.92 1453.77 1765.73 1453.77 Z" fill="#000000" fill-rule="evenodd" fill-opacity="1" /><path clip-path="url(#clip630)" d="M1814.06 1463.49 L1803.48 1474.12 L1814.06 1484.7 L1811.3 1487.5 L1800.68 1476.87 L1790.05 1487.5 L1787.32 1484.7 L1797.88 1474.12 L1787.32 1463.49 L1790.05 1460.69 L1800.68 1471.32 L1811.3 1460.69 L1814.06 1463.49 Z" fill="#000000" fill-rule="evenodd" fill-opacity="1" /><path clip-path="url(#clip630)" d="M1826.42 1485.02 L1834.06 1485.02 L1834.06 1458.66 L1825.75 1460.32 L1825.75 1456.06 L1834.01 1454.4 L1838.69 1454.4 L1838.69 1485.02 L1846.33 1485.02 L1846.33 1488.96 L1826.42 1488.96 L1826.42 1485.02 Z" fill="#000000" fill-rule="evenodd" fill-opacity="1" /><path clip-path="url(#clip630)" d="M1865.77 1457.48 Q1862.16 1457.48 1860.33 1461.04 Q1858.53 1464.58 1858.53 1471.71 Q1858.53 1478.82 1860.33 1482.38 Q1862.16 1485.92 1865.77 1485.92 Q1869.41 1485.92 1871.21 1482.38 Q1873.04 1478.82 1873.04 1471.71 Q1873.04 1464.58 1871.21 1461.04 Q1869.41 1457.48 1865.77 1457.48 M1865.77 1453.77 Q1871.58 1453.77 1874.64 1458.38 Q1877.72 1462.96 1877.72 1471.71 Q1877.72 1480.44 1874.64 1485.04 Q1871.58 1489.63 1865.77 1489.63 Q1859.96 1489.63 1856.88 1485.04 Q1853.83 1480.44 1853.83 1471.71 Q1853.83 1462.96 1856.88 1458.38 Q1859.96 1453.77 1865.77 1453.77 Z" fill="#000000" fill-rule="evenodd" fill-opacity="1" /><path clip-path="url(#clip630)" d="M1890.39 1436.78 L1880.8 1451.77 L1890.39 1451.77 L1890.39 1436.78 M1889.39 1433.47 L1894.17 1433.47 L1894.17 1451.77 L1898.18 1451.77 L1898.18 1454.93 L1894.17 1454.93 L1894.17 1461.55 L1890.39 1461.55 L1890.39 1454.93 L1877.72 1454.93 L1877.72 1451.26 L1889.39 1433.47 Z" fill="#000000" fill-rule="evenodd" fill-opacity="1" /><path clip-path="url(#clip630)" d="M2188.83 1485.02 L2205.15 1485.02 L2205.15 1488.96 L2183.21 1488.96 L2183.21 1485.02 Q2185.87 1482.27 2190.45 1477.64 Q2195.06 1472.98 2196.24 1471.64 Q2198.48 1469.12 2199.36 1467.38 Q2200.27 1465.62 2200.27 1463.93 Q2200.27 1461.18 2198.32 1459.44 Q2196.4 1457.71 2193.3 1457.71 Q2191.1 1457.71 2188.65 1458.47 Q2186.22 1459.23 2183.44 1460.79 L2183.44 1456.06 Q2186.26 1454.93 2188.72 1454.35 Q2191.17 1453.77 2193.21 1453.77 Q2198.58 1453.77 2201.77 1456.46 Q2204.97 1459.14 2204.97 1463.63 Q2204.97 1465.76 2204.16 1467.68 Q2203.37 1469.58 2201.26 1472.17 Q2200.68 1472.85 2197.58 1476.06 Q2194.48 1479.26 2188.83 1485.02 Z" fill="#000000" fill-rule="evenodd" fill-opacity="1" /><path clip-path="url(#clip630)" d="M2214.97 1483.08 L2219.85 1483.08 L2219.85 1488.96 L2214.97 1488.96 L2214.97 1483.08 Z" fill="#000000" fill-rule="evenodd" fill-opacity="1" /><path clip-path="url(#clip630)" d="M2240.03 1457.48 Q2236.42 1457.48 2234.59 1461.04 Q2232.79 1464.58 2232.79 1471.71 Q2232.79 1478.82 2234.59 1482.38 Q2236.42 1485.92 2240.03 1485.92 Q2243.67 1485.92 2245.47 1482.38 Q2247.3 1478.82 2247.3 1471.71 Q2247.3 1464.58 2245.47 1461.04 Q2243.67 1457.48 2240.03 1457.48 M2240.03 1453.77 Q2245.84 1453.77 2248.9 1458.38 Q2251.98 1462.96 2251.98 1471.71 Q2251.98 1480.44 2248.9 1485.04 Q2245.84 1489.63 2240.03 1489.63 Q2234.22 1489.63 2231.15 1485.04 Q2228.09 1480.44 2228.09 1471.71 Q2228.09 1462.96 2231.15 1458.38 Q2234.22 1453.77 2240.03 1453.77 Z" fill="#000000" fill-rule="evenodd" fill-opacity="1" /><path clip-path="url(#clip630)" d="M2270.2 1457.48 Q2266.59 1457.48 2264.76 1461.04 Q2262.95 1464.58 2262.95 1471.71 Q2262.95 1478.82 2264.76 1482.38 Q2266.59 1485.92 2270.2 1485.92 Q2273.83 1485.92 2275.64 1482.38 Q2277.46 1478.82 2277.46 1471.71 Q2277.46 1464.58 2275.64 1461.04 Q2273.83 1457.48 2270.2 1457.48 M2270.2 1453.77 Q2276.01 1453.77 2279.06 1458.38 Q2282.14 1462.96 2282.14 1471.71 Q2282.14 1480.44 2279.06 1485.04 Q2276.01 1489.63 2270.2 1489.63 Q2264.39 1489.63 2261.31 1485.04 Q2258.25 1480.44 2258.25 1471.71 Q2258.25 1462.96 2261.31 1458.38 Q2264.39 1453.77 2270.2 1453.77 Z" fill="#000000" fill-rule="evenodd" fill-opacity="1" /><path clip-path="url(#clip630)" d="M2318.53 1463.49 L2307.95 1474.12 L2318.53 1484.7 L2315.77 1487.5 L2305.15 1476.87 L2294.53 1487.5 L2291.79 1484.7 L2302.35 1474.12 L2291.79 1463.49 L2294.53 1460.69 L2305.15 1471.32 L2315.77 1460.69 L2318.53 1463.49 Z" fill="#000000" fill-rule="evenodd" fill-opacity="1" /><path clip-path="url(#clip630)" d="M2330.89 1485.02 L2338.53 1485.02 L2338.53 1458.66 L2330.22 1460.32 L2330.22 1456.06 L2338.48 1454.4 L2343.16 1454.4 L2343.16 1485.02 L2350.8 1485.02 L2350.8 1488.96 L2330.89 1488.96 L2330.89 1485.02 Z" fill="#000000" fill-rule="evenodd" fill-opacity="1" /><path clip-path="url(#clip630)" d="M2370.24 1457.48 Q2366.63 1457.48 2364.8 1461.04 Q2363 1464.58 2363 1471.71 Q2363 1478.82 2364.8 1482.38 Q2366.63 1485.92 2370.24 1485.92 Q2373.88 1485.92 2375.68 1482.38 Q2377.51 1478.82 2377.51 1471.71 Q2377.51 1464.58 2375.68 1461.04 Q2373.88 1457.48 2370.24 1457.48 M2370.24 1453.77 Q2376.05 1453.77 2379.11 1458.38 Q2382.19 1462.96 2382.19 1471.71 Q2382.19 1480.44 2379.11 1485.04 Q2376.05 1489.63 2370.24 1489.63 Q2364.43 1489.63 2361.35 1485.04 Q2358.3 1480.44 2358.3 1471.71 Q2358.3 1462.96 2361.35 1458.38 Q2364.43 1453.77 2370.24 1453.77 Z" fill="#000000" fill-rule="evenodd" fill-opacity="1" /><path clip-path="url(#clip630)" d="M2394.86 1436.78 L2385.27 1451.77 L2394.86 1451.77 L2394.86 1436.78 M2393.87 1433.47 L2398.64 1433.47 L2398.64 1451.77 L2402.65 1451.77 L2402.65 1454.93 L2398.64 1454.93 L2398.64 1461.55 L2394.86 1461.55 L2394.86 1454.93 L2382.19 1454.93 L2382.19 1451.26 L2393.87 1433.47 Z" fill="#000000" fill-rule="evenodd" fill-opacity="1" /><path clip-path="url(#clip630)" d="M1325.1 1540.3 Q1325.1 1541.62 1323.97 1541.62 Q1320.33 1541.75 1318.85 1542.98 Q1317.4 1544.17 1316.85 1546.49 L1307.64 1583.23 Q1307.32 1584.39 1307.12 1584.52 Q1306.93 1584.62 1306.58 1584.62 Q1306.13 1584.62 1305.87 1584.39 Q1305.64 1584.17 1305.32 1583.36 L1288.9 1544.52 Q1288.77 1544.26 1288.61 1543.91 Q1288.45 1543.56 1288.32 1543.33 L1279.59 1578.14 Q1279.33 1579.14 1279.33 1579.66 Q1279.33 1580.91 1280.2 1581.72 Q1281.1 1582.49 1283.68 1582.59 Q1285 1582.59 1285 1583.3 Q1285 1584.62 1283.81 1584.62 Q1282.71 1584.62 1280.43 1584.52 Q1278.14 1584.42 1277.01 1584.42 Q1275.92 1584.42 1273.7 1584.52 Q1271.47 1584.62 1270.41 1584.62 Q1269.57 1584.62 1269.57 1583.88 Q1269.57 1583.3 1269.8 1583.01 Q1270.02 1582.69 1270.22 1582.65 Q1270.41 1582.59 1270.7 1582.59 Q1272.63 1582.52 1273.95 1582.14 Q1275.27 1581.75 1276.01 1581.01 Q1276.79 1580.27 1277.14 1579.53 Q1277.53 1578.76 1277.82 1577.63 L1286.64 1542.2 Q1286.64 1541.62 1282.17 1541.62 Q1281.39 1541.62 1281.07 1541.59 Q1280.78 1541.56 1280.56 1541.4 Q1280.33 1541.24 1280.33 1540.88 Q1280.33 1539.98 1280.72 1539.79 Q1281.1 1539.56 1282.23 1539.56 L1291.09 1539.56 Q1292.21 1539.56 1292.5 1539.76 Q1292.79 1539.92 1293.18 1540.82 L1307.77 1575.25 L1315.14 1545.91 Q1315.34 1545.33 1315.34 1544.52 Q1315.34 1543.23 1314.37 1542.46 Q1313.44 1541.66 1310.86 1541.62 Q1309.67 1541.62 1309.67 1540.88 Q1309.67 1540.27 1309.89 1539.98 Q1310.15 1539.66 1310.35 1539.63 Q1310.57 1539.56 1310.86 1539.56 Q1311.96 1539.56 1314.21 1539.66 Q1316.46 1539.76 1317.59 1539.76 Q1318.69 1539.76 1320.91 1539.66 Q1323.16 1539.56 1324.26 1539.56 Q1324.64 1539.56 1324.84 1539.76 Q1325.06 1539.92 1325.1 1540.11 L1325.1 1540.3 Z" fill="#000000" fill-rule="evenodd" fill-opacity="1" /><polyline clip-path="url(#clip632)" style="stroke:#000000; stroke-linecap:butt; stroke-linejoin:round; stroke-width:2; stroke-opacity:0.1; fill:none" points="
  238.831,1267.05 2352.76,1267.05 
  "/>
<polyline clip-path="url(#clip632)" style="stroke:#000000; stroke-linecap:butt; stroke-linejoin:round; stroke-width:2; stroke-opacity:0.1; fill:none" points="
  238.831,569.103 2352.76,569.103 
  "/>
<polyline clip-path="url(#clip630)" style="stroke:#000000; stroke-linecap:butt; stroke-linejoin:round; stroke-width:4; stroke-opacity:1; fill:none" points="
  238.831,1410.9 238.831,123.472 
  "/>
<polyline clip-path="url(#clip630)" style="stroke:#000000; stroke-linecap:butt; stroke-linejoin:round; stroke-width:4; stroke-opacity:1; fill:none" points="
  238.831,1267.05 257.728,1267.05 
  "/>
<polyline clip-path="url(#clip630)" style="stroke:#000000; stroke-linecap:butt; stroke-linejoin:round; stroke-width:4; stroke-opacity:1; fill:none" points="
  238.831,569.103 257.728,569.103 
  "/>
<path clip-path="url(#clip630)" d="M132.125 1286.84 L139.764 1286.84 L139.764 1260.48 L131.454 1262.14 L131.454 1257.88 L139.718 1256.22 L144.394 1256.22 L144.394 1286.84 L152.033 1286.84 L152.033 1290.78 L132.125 1290.78 L132.125 1286.84 Z" fill="#000000" fill-rule="evenodd" fill-opacity="1" /><path clip-path="url(#clip630)" d="M171.477 1259.3 Q167.866 1259.3 166.037 1262.86 Q164.232 1266.4 164.232 1273.53 Q164.232 1280.64 166.037 1284.2 Q167.866 1287.75 171.477 1287.75 Q175.111 1287.75 176.917 1284.2 Q178.745 1280.64 178.745 1273.53 Q178.745 1266.4 176.917 1262.86 Q175.111 1259.3 171.477 1259.3 M171.477 1255.59 Q177.287 1255.59 180.343 1260.2 Q183.421 1264.78 183.421 1273.53 Q183.421 1282.26 180.343 1286.87 Q177.287 1291.45 171.477 1291.45 Q165.667 1291.45 162.588 1286.87 Q159.532 1282.26 159.532 1273.53 Q159.532 1264.78 162.588 1260.2 Q165.667 1255.59 171.477 1255.59 Z" fill="#000000" fill-rule="evenodd" fill-opacity="1" /><path clip-path="url(#clip630)" d="M193.126 1237.79 Q190.192 1237.79 188.706 1240.69 Q187.239 1243.56 187.239 1249.36 Q187.239 1255.13 188.706 1258.03 Q190.192 1260.9 193.126 1260.9 Q196.079 1260.9 197.546 1258.03 Q199.032 1255.13 199.032 1249.36 Q199.032 1243.56 197.546 1240.69 Q196.079 1237.79 193.126 1237.79 M193.126 1234.78 Q197.847 1234.78 200.329 1238.52 Q202.831 1242.25 202.831 1249.36 Q202.831 1256.45 200.329 1260.19 Q197.847 1263.91 193.126 1263.91 Q188.405 1263.91 185.904 1260.19 Q183.421 1256.45 183.421 1249.36 Q183.421 1242.25 185.904 1238.52 Q188.405 1234.78 193.126 1234.78 Z" fill="#000000" fill-rule="evenodd" fill-opacity="1" /><path clip-path="url(#clip630)" d="M133.367 588.895 L141.005 588.895 L141.005 562.529 L132.695 564.196 L132.695 559.937 L140.959 558.27 L145.635 558.27 L145.635 588.895 L153.274 588.895 L153.274 592.83 L133.367 592.83 L133.367 588.895 Z" fill="#000000" fill-rule="evenodd" fill-opacity="1" /><path clip-path="url(#clip630)" d="M172.718 561.349 Q169.107 561.349 167.278 564.914 Q165.473 568.455 165.473 575.585 Q165.473 582.691 167.278 586.256 Q169.107 589.798 172.718 589.798 Q176.352 589.798 178.158 586.256 Q179.987 582.691 179.987 575.585 Q179.987 568.455 178.158 564.914 Q176.352 561.349 172.718 561.349 M172.718 557.645 Q178.528 557.645 181.584 562.252 Q184.663 566.835 184.663 575.585 Q184.663 584.312 181.584 588.918 Q178.528 593.501 172.718 593.501 Q166.908 593.501 163.829 588.918 Q160.774 584.312 160.774 575.585 Q160.774 566.835 163.829 562.252 Q166.908 557.645 172.718 557.645 Z" fill="#000000" fill-rule="evenodd" fill-opacity="1" /><path clip-path="url(#clip630)" d="M185.847 537.34 L200.762 537.34 L200.762 540.537 L189.327 540.537 L189.327 547.421 Q190.154 547.139 190.982 547.007 Q191.809 546.856 192.637 546.856 Q197.339 546.856 200.085 549.433 Q202.831 552.01 202.831 556.411 Q202.831 560.943 200.01 563.464 Q197.189 565.965 192.054 565.965 Q190.286 565.965 188.443 565.664 Q186.619 565.363 184.663 564.761 L184.663 560.943 Q186.355 561.865 188.161 562.316 Q189.966 562.768 191.979 562.768 Q195.233 562.768 197.132 561.056 Q199.032 559.345 199.032 556.411 Q199.032 553.477 197.132 551.765 Q195.233 550.054 191.979 550.054 Q190.455 550.054 188.932 550.392 Q187.427 550.731 185.847 551.446 L185.847 537.34 Z" fill="#000000" fill-rule="evenodd" fill-opacity="1" /><path clip-path="url(#clip630)" d="M82.1658 908.852 L20.2662 908.852 Q18.3016 908.852 18.3016 907.532 Q18.3016 906.212 20.3628 906.212 L82.0048 906.212 Q84.1304 906.212 84.1304 907.532 Q84.1304 908.852 82.1658 908.852 M82.1658 901.574 L20.7493 901.574 Q18.3016 901.574 18.3016 900.253 Q18.3016 898.933 20.3628 898.933 L82.0048 898.933 Q84.1304 898.933 84.1304 900.253 Q84.1304 901.574 82.1658 901.574 Z" fill="#000000" fill-rule="evenodd" fill-opacity="1" /><path clip-path="url(#clip630)" d="M13.4212 839.5 L14.3455 840.064 Q12.8351 843.558 10.4228 847.909 Q12.8351 852.26 14.3455 855.755 L13.4212 856.296 Q10.1072 852.486 7.55975 847.909 Q10.1298 843.288 13.4212 839.5 Z" fill="#000000" fill-rule="evenodd" fill-opacity="1" /><path clip-path="url(#clip630)" d="M21.8765 829.361 L38.6879 833.516 Q39.7507 833.805 39.8795 833.999 Q40.0084 834.16 40.0084 834.675 Q40.0084 835.673 39.332 835.673 Q39.2676 835.673 38.4303 835.577 Q37.5607 835.48 35.9826 835.48 Q30.1534 835.48 26.7073 838.314 Q23.2613 841.116 23.2613 846.108 Q23.2613 850.778 25.709 855.255 Q28.1566 859.731 31.7637 862.597 Q34.7266 865.013 38.3337 866.688 Q41.9407 868.33 45.0969 869.006 Q48.2209 869.683 50.121 869.94 Q52.0212 870.166 53.245 870.166 Q56.852 870.166 59.6539 869.006 Q62.4236 867.847 64.0017 865.915 Q65.5798 863.95 66.3528 861.696 Q67.1257 859.409 67.1257 856.929 Q67.1257 855.995 66.9969 854.868 Q66.8681 853.741 66.385 852.002 Q65.9019 850.23 65.0967 848.781 Q64.2916 847.3 62.7457 846.011 Q61.1998 844.691 59.1386 844.176 Q53.8891 842.791 53.1162 842.791 Q52.472 842.791 52.2466 843.177 Q52.0212 843.564 51.8601 844.852 L51.7313 848.33 Q51.7313 848.395 51.7313 848.491 Q51.7313 849.103 51.7313 849.361 Q51.6991 849.618 51.6347 849.908 Q51.5703 850.166 51.4414 850.263 Q51.2804 850.327 51.0228 850.327 Q50.4109 850.327 50.121 850.069 Q49.7989 849.812 49.7667 849.586 Q49.7023 849.361 49.7023 848.942 L49.8956 839.699 Q49.8956 838.958 49.7989 836.253 Q49.7023 833.548 49.7023 832.775 Q49.7023 831.905 50.4109 831.905 Q51.7313 831.905 51.7313 832.968 Q51.7635 834.031 51.7957 834.578 Q51.7957 835.126 51.9567 835.673 Q52.1178 836.189 52.2466 836.382 Q52.3432 836.575 52.8263 836.833 Q53.2772 837.09 53.6637 837.187 Q54.0179 837.284 54.9197 837.509 Q55.4994 837.638 56.5944 837.96 Q57.6894 838.25 58.2691 838.379 L63.3576 839.635 Q67.1257 840.504 67.3833 840.762 Q67.641 840.891 67.641 841.213 Q67.641 841.696 66.2239 842.726 Q64.8069 843.725 63.5509 844.176 Q64.4204 844.981 64.9357 845.496 Q65.4188 846.011 66.1917 847.203 Q66.9647 848.362 67.5766 849.908 Q69.1547 853.676 69.1547 858.153 Q69.1547 866.14 64.0984 871.164 Q59.0098 876.188 51.0872 876.188 Q45.4834 876.188 39.9762 873.612 Q34.469 871.035 30.3788 866.945 Q26.2887 862.855 23.7444 857.445 Q21.2001 852.034 21.2001 846.623 Q21.2001 844.562 21.7476 842.726 Q22.2951 840.891 22.9715 839.796 Q23.6478 838.669 24.6462 837.67 Q25.6123 836.672 26.0632 836.35 Q26.5141 835.995 27.0616 835.673 L22.0053 831.068 Q21.2001 830.263 21.2001 830.07 Q21.2001 829.683 21.4256 829.522 Q21.651 829.361 21.8765 829.361 Z" fill="#000000" fill-rule="evenodd" fill-opacity="1" /><path clip-path="url(#clip630)" d="M50.282 767.968 Q50.6685 767.582 51.216 767.582 Q51.7635 767.582 52.15 767.968 Q52.5364 768.355 52.5364 768.902 L52.5364 810.19 Q52.5364 810.738 52.15 811.124 Q51.7635 811.511 51.216 811.511 Q50.6685 811.511 50.282 811.124 Q49.8956 810.738 49.8956 810.19 L49.8956 768.902 Q49.8956 768.355 50.282 767.968 Z" fill="#000000" fill-rule="evenodd" fill-opacity="1" /><path clip-path="url(#clip630)" d="M21.8765 695.566 L38.6879 699.721 Q39.7507 700.011 39.8795 700.204 Q40.0084 700.365 40.0084 700.88 Q40.0084 701.879 39.332 701.879 Q39.2676 701.879 38.4303 701.782 Q37.5607 701.686 35.9826 701.686 Q30.1534 701.686 26.7073 704.52 Q23.2613 707.322 23.2613 712.314 Q23.2613 716.983 25.709 721.46 Q28.1566 725.937 31.7637 728.803 Q34.7266 731.218 38.3337 732.893 Q41.9407 734.536 45.0969 735.212 Q48.2209 735.888 50.121 736.146 Q52.0212 736.371 53.245 736.371 Q56.852 736.371 59.6539 735.212 Q62.4236 734.052 64.0017 732.12 Q65.5798 730.156 66.3528 727.901 Q67.1257 725.615 67.1257 723.135 Q67.1257 722.201 66.9969 721.074 Q66.8681 719.946 66.385 718.207 Q65.9019 716.436 65.0967 714.987 Q64.2916 713.505 62.7457 712.217 Q61.1998 710.896 59.1386 710.381 Q53.8891 708.996 53.1162 708.996 Q52.472 708.996 52.2466 709.383 Q52.0212 709.769 51.8601 711.058 L51.7313 714.536 Q51.7313 714.6 51.7313 714.697 Q51.7313 715.309 51.7313 715.566 Q51.6991 715.824 51.6347 716.114 Q51.5703 716.371 51.4414 716.468 Q51.2804 716.532 51.0228 716.532 Q50.4109 716.532 50.121 716.275 Q49.7989 716.017 49.7667 715.792 Q49.7023 715.566 49.7023 715.148 L49.8956 705.905 Q49.8956 705.164 49.7989 702.459 Q49.7023 699.753 49.7023 698.98 Q49.7023 698.111 50.4109 698.111 Q51.7313 698.111 51.7313 699.174 Q51.7635 700.236 51.7957 700.784 Q51.7957 701.331 51.9567 701.879 Q52.1178 702.394 52.2466 702.587 Q52.3432 702.781 52.8263 703.038 Q53.2772 703.296 53.6637 703.393 Q54.0179 703.489 54.9197 703.715 Q55.4994 703.843 56.5944 704.165 Q57.6894 704.455 58.2691 704.584 L63.3576 705.84 Q67.1257 706.71 67.3833 706.967 Q67.641 707.096 67.641 707.418 Q67.641 707.901 66.2239 708.932 Q64.8069 709.93 63.5509 710.381 Q64.4204 711.186 64.9357 711.702 Q65.4188 712.217 66.1917 713.409 Q66.9647 714.568 67.5766 716.114 Q69.1547 719.882 69.1547 724.359 Q69.1547 732.346 64.0984 737.37 Q59.0098 742.394 51.0872 742.394 Q45.4834 742.394 39.9762 739.817 Q34.469 737.241 30.3788 733.151 Q26.2887 729.061 23.7444 723.65 Q21.2001 718.239 21.2001 712.829 Q21.2001 710.768 21.7476 708.932 Q22.2951 707.096 22.9715 706.001 Q23.6478 704.874 24.6462 703.876 Q25.6123 702.877 26.0632 702.555 Q26.5141 702.201 27.0616 701.879 L22.0053 697.273 Q21.2001 696.468 21.2001 696.275 Q21.2001 695.889 21.4256 695.728 Q21.651 695.566 21.8765 695.566 Z" fill="#000000" fill-rule="evenodd" fill-opacity="1" /><path clip-path="url(#clip630)" d="M82.1658 691.069 L20.2662 691.069 Q18.3016 691.069 18.3016 689.749 Q18.3016 688.428 20.3628 688.428 L82.0048 688.428 Q84.1304 688.428 84.1304 689.749 Q84.1304 691.069 82.1658 691.069 M82.1658 683.791 L20.7493 683.791 Q18.3016 683.791 18.3016 682.47 Q18.3016 681.15 20.3628 681.15 L82.0048 681.15 Q84.1304 681.15 84.1304 682.47 Q84.1304 683.791 82.1658 683.791 Z" fill="#000000" fill-rule="evenodd" fill-opacity="1" /><path clip-path="url(#clip630)" d="M83.4964 654.445 Q85.9537 654.445 88.3884 655.528 Q90.8007 656.61 92.6042 658.346 Q94.3852 660.059 95.5124 662.313 Q96.617 664.568 96.617 666.822 Q96.617 670.046 94.4303 672.143 Q92.2209 674.217 88.7942 674.217 Q85.593 674.217 82.5495 672.436 Q79.4835 670.632 77.5898 667.746 Q75.6961 664.861 75.6961 661.84 Q75.6961 658.661 77.8378 656.565 Q79.9795 654.445 83.4964 654.445 M81.6929 657.827 Q79.5061 657.827 78.1083 658.887 Q76.7106 659.946 76.7106 661.885 Q76.7106 662.449 76.891 663.102 Q77.0488 663.756 77.4771 664.613 Q77.9054 665.447 78.8072 666.394 Q79.6864 667.318 80.9489 668.13 Q82.6172 669.189 85.6832 670.001 Q88.7266 670.79 90.5527 670.79 Q93.0776 670.79 94.3401 669.618 Q95.58 668.445 95.58 666.777 Q95.58 665.154 94.4528 663.441 Q93.3031 661.705 91.3417 660.51 Q89.3128 659.315 86.3369 658.571 Q83.3386 657.827 81.6929 657.827 Z" fill="#000000" fill-rule="evenodd" fill-opacity="1" /><path clip-path="url(#clip630)" d="M83.068 631.433 Q86.3595 631.433 89.5382 633.101 Q92.7169 634.747 94.6783 637.34 Q96.617 639.932 96.617 642.57 Q96.617 644.148 95.7604 645.207 Q94.8812 646.244 93.6412 646.808 Q95.1742 647.236 98.8489 648.161 Q102.524 649.085 102.884 649.085 Q103.087 649.085 103.177 649.04 Q103.268 648.995 103.38 648.792 Q103.516 648.589 103.561 648.093 Q103.628 647.597 103.628 646.763 Q103.628 646.335 103.628 646.177 Q103.651 645.996 103.764 645.839 Q103.876 645.658 104.124 645.658 Q105.049 645.658 105.049 646.492 Q105.049 647.236 104.981 648.769 Q104.913 650.302 104.913 651.069 Q104.913 651.723 104.981 653.03 Q105.049 654.338 105.049 654.946 Q105.049 655.555 104.507 655.555 Q104.192 655.555 103.989 655.465 Q103.809 655.397 103.718 655.217 Q103.651 655.037 103.628 654.879 Q103.628 654.744 103.628 654.473 Q103.628 653.436 103.448 652.985 Q103.29 652.534 102.952 652.376 Q102.636 652.196 101.735 651.993 L81.1743 646.808 Q79.7991 646.492 78.8297 646.492 Q77.6124 646.492 77.1615 646.876 Q76.7106 647.259 76.7106 647.935 Q76.7106 649.108 78.1083 649.874 Q79.5061 650.641 82.2114 651.294 Q82.9553 651.497 83.1131 651.633 Q83.2709 651.745 83.2709 652.083 Q83.2484 652.647 82.7975 652.647 Q82.6848 652.647 81.9634 652.467 Q81.2194 652.286 80.1373 651.948 Q79.0326 651.587 78.3338 651.204 Q77.8604 650.979 77.5447 650.776 Q77.2291 650.573 76.7331 650.167 Q76.2372 649.739 75.9666 649.13 Q75.6961 648.521 75.6961 647.777 Q75.6961 646.335 76.5528 645.14 Q77.4095 643.945 79.1454 643.629 Q77.6349 642.344 76.6655 640.766 Q75.6961 639.188 75.6961 637.588 Q75.6961 634.927 77.7702 633.191 Q79.8217 631.433 83.068 631.433 M81.0391 634.77 Q78.9876 634.77 77.8604 635.559 Q76.7106 636.325 76.7106 637.723 Q76.7106 639.459 78.469 641.465 Q80.1373 643.449 81.6929 643.855 L90.733 646.132 L91.477 646.267 Q91.6123 646.267 92.018 646.199 Q92.4013 646.109 93.0325 645.861 Q93.6638 645.591 94.2274 645.23 Q94.7684 644.847 95.1742 644.17 Q95.58 643.472 95.58 642.615 Q95.58 641.24 94.3626 639.752 Q93.1453 638.241 90.8458 637.114 Q89.3578 636.415 86.1566 635.604 Q82.9328 634.77 81.0391 634.77 Z" fill="#000000" fill-rule="evenodd" fill-opacity="1" /><path clip-path="url(#clip630)" d="M549.157 53.6966 L549.157 57.3424 L514.887 57.3424 Q515.373 65.0391 519.505 69.09 Q523.677 73.1004 531.09 73.1004 Q535.384 73.1004 539.395 72.0472 Q543.446 70.9939 547.415 68.8875 L547.415 75.936 Q543.405 77.6374 539.192 78.5286 Q534.979 79.4198 530.645 79.4198 Q519.788 79.4198 513.428 73.1004 Q507.109 66.781 507.109 56.0056 Q507.109 44.8656 513.104 38.3437 Q519.14 31.7812 529.348 31.7812 Q538.504 31.7812 543.81 37.6955 Q549.157 43.5693 549.157 53.6966 M541.704 51.5091 Q541.623 45.3922 538.26 41.7464 Q534.939 38.1006 529.429 38.1006 Q523.191 38.1006 519.424 41.6249 Q515.697 45.1492 515.13 51.5496 L541.704 51.5091 Z" fill="#000000" fill-rule="evenodd" fill-opacity="1" /><path clip-path="url(#clip630)" d="M587.681 39.8425 Q586.426 39.1133 584.927 38.7893 Q583.469 38.4247 581.686 38.4247 Q575.367 38.4247 571.964 42.5566 Q568.602 46.648 568.602 54.3447 L568.602 78.2451 L561.108 78.2451 L561.108 32.8749 L568.602 32.8749 L568.602 39.9235 Q570.951 35.7916 574.719 33.8066 Q578.486 31.7812 583.874 31.7812 Q584.643 31.7812 585.575 31.9027 Q586.507 31.9837 587.641 32.1863 L587.681 39.8425 Z" fill="#000000" fill-rule="evenodd" fill-opacity="1" /><path clip-path="url(#clip630)" d="M620.332 39.8425 Q619.076 39.1133 617.577 38.7893 Q616.119 38.4247 614.336 38.4247 Q608.017 38.4247 604.614 42.5566 Q601.252 46.648 601.252 54.3447 L601.252 78.2451 L593.758 78.2451 L593.758 32.8749 L601.252 32.8749 L601.252 39.9235 Q603.602 35.7916 607.369 33.8066 Q611.136 31.7812 616.524 31.7812 Q617.294 31.7812 618.225 31.9027 Q619.157 31.9837 620.291 32.1863 L620.332 39.8425 Z" fill="#000000" fill-rule="evenodd" fill-opacity="1" /><path clip-path="url(#clip630)" d="M643.908 38.1006 Q637.913 38.1006 634.429 42.7997 Q630.945 47.4582 630.945 55.6005 Q630.945 63.7428 634.388 68.4419 Q637.872 73.1004 643.908 73.1004 Q649.863 73.1004 653.347 68.4014 Q656.83 63.7023 656.83 55.6005 Q656.83 47.5392 653.347 42.8402 Q649.863 38.1006 643.908 38.1006 M643.908 31.7812 Q653.63 31.7812 659.18 38.1006 Q664.73 44.42 664.73 55.6005 Q664.73 66.7405 659.18 73.1004 Q653.63 79.4198 643.908 79.4198 Q634.145 79.4198 628.596 73.1004 Q623.086 66.7405 623.086 55.6005 Q623.086 44.42 628.596 38.1006 Q634.145 31.7812 643.908 31.7812 Z" fill="#000000" fill-rule="evenodd" fill-opacity="1" /><path clip-path="url(#clip630)" d="M703.375 39.8425 Q702.12 39.1133 700.621 38.7893 Q699.162 38.4247 697.38 38.4247 Q691.061 38.4247 687.658 42.5566 Q684.296 46.648 684.296 54.3447 L684.296 78.2451 L676.801 78.2451 L676.801 32.8749 L684.296 32.8749 L684.296 39.9235 Q686.645 35.7916 690.412 33.8066 Q694.18 31.7812 699.567 31.7812 Q700.337 31.7812 701.269 31.9027 Q702.201 31.9837 703.335 32.1863 L703.375 39.8425 Z" fill="#000000" fill-rule="evenodd" fill-opacity="1" /><path clip-path="url(#clip630)" d="M733.23 32.8749 L740.684 32.8749 L750.001 68.2798 L759.278 32.8749 L768.068 32.8749 L777.385 68.2798 L786.662 32.8749 L794.116 32.8749 L782.246 78.2451 L773.456 78.2451 L763.693 41.0578 L753.89 78.2451 L745.1 78.2451 L733.23 32.8749 Z" fill="#000000" fill-rule="evenodd" fill-opacity="1" /><path clip-path="url(#clip630)" d="M805.418 32.8749 L812.871 32.8749 L812.871 78.2451 L805.418 78.2451 L805.418 32.8749 M805.418 15.213 L812.871 15.213 L812.871 24.6516 L805.418 24.6516 L805.418 15.213 Z" fill="#000000" fill-rule="evenodd" fill-opacity="1" /><path clip-path="url(#clip630)" d="M835.84 19.9931 L835.84 32.8749 L851.193 32.8749 L851.193 38.6677 L835.84 38.6677 L835.84 63.2972 Q835.84 68.847 837.339 70.4268 Q838.878 72.0067 843.537 72.0067 L851.193 72.0067 L851.193 78.2451 L843.537 78.2451 Q834.908 78.2451 831.627 75.0448 Q828.346 71.8041 828.346 63.2972 L828.346 38.6677 L822.877 38.6677 L822.877 32.8749 L828.346 32.8749 L828.346 19.9931 L835.84 19.9931 Z" fill="#000000" fill-rule="evenodd" fill-opacity="1" /><path clip-path="url(#clip630)" d="M898.71 50.8609 L898.71 78.2451 L891.256 78.2451 L891.256 51.104 Q891.256 44.6631 888.745 41.4629 Q886.233 38.2626 881.21 38.2626 Q875.174 38.2626 871.69 42.111 Q868.207 45.9594 868.207 52.6028 L868.207 78.2451 L860.712 78.2451 L860.712 15.213 L868.207 15.213 L868.207 39.9235 Q870.88 35.8321 874.486 33.8066 Q878.131 31.7812 882.871 31.7812 Q890.689 31.7812 894.7 36.6423 Q898.71 41.4629 898.71 50.8609 Z" fill="#000000" fill-rule="evenodd" fill-opacity="1" /><path clip-path="url(#clip630)" d="M971.767 54.8402 Q971.767 60.9066 968.651 66.6041 Q965.577 72.3016 960.74 75.7447 Q955.945 79.1878 951.108 79.1878 Q945.656 79.1878 942.828 73.5313 Q937.704 94.0669 937.417 94.5998 Q936.229 96.3623 934.507 96.3623 Q933.442 96.3623 932.786 95.7065 Q932.13 95.0917 932.13 94.1079 Q932.171 93.78 932.417 92.7553 L940.615 59.7589 Q942.5 52.0939 948.198 46.6423 Q953.936 41.1498 960.085 41.1498 Q964.962 41.1498 968.364 44.7978 Q971.767 48.4459 971.767 54.8402 M965.741 51.2331 Q965.741 47.1342 964.102 45.0847 Q962.462 42.9943 959.921 42.9943 Q957.584 42.9943 954.756 44.8798 Q951.969 46.7653 949.509 50.9462 Q948.198 53.3646 947.255 56.3568 Q946.312 59.349 944.468 66.7271 Q943.812 69.6783 943.812 69.8423 Q943.812 70.1702 943.976 70.908 Q944.181 71.6458 944.673 72.7935 Q945.205 73.9002 945.943 74.8839 Q946.681 75.8677 948.034 76.6055 Q949.386 77.3023 951.026 77.3023 Q953.567 77.3023 956.273 75.2528 Q959.019 73.1624 961.027 69.3504 Q962.708 66.2762 964.224 60.4967 Q965.741 54.6762 965.741 51.2331 Z" fill="#000000" fill-rule="evenodd" fill-opacity="1" /><path clip-path="url(#clip630)" d="M980.456 57.2586 Q980.456 43.0763 985.744 31.6403 Q987.998 26.8445 991.155 22.8276 Q994.311 18.8106 996.401 17.0481 Q998.492 15.2855 999.066 15.2855 Q999.885 15.2855 999.926 16.1053 Q999.926 16.5152 998.82 17.5399 Q985.293 31.3123 985.334 57.2586 Q985.334 83.2867 998.492 96.5263 Q999.926 97.9609 999.926 98.4118 Q999.926 99.2316 999.066 99.2316 Q998.492 99.2316 996.483 97.551 Q994.475 95.8705 991.36 92.0175 Q988.244 88.1645 985.99 83.4507 Q980.456 72.0147 980.456 57.2586 Z" fill="#000000" fill-rule="evenodd" fill-opacity="1" /><path clip-path="url(#clip630)" d="M1063.9 76.5645 Q1063.9 77.3433 1063.57 77.7532 Q1063.28 78.1221 1062.99 78.2041 Q1062.75 78.2451 1062.38 78.2451 Q1061.31 78.2451 1057.62 78.1221 Q1053.94 77.9991 1052.87 77.9991 Q1051.15 77.9991 1047.62 78.1221 Q1044.1 78.2451 1042.38 78.2451 Q1041.23 78.2451 1041.23 77.3023 Q1041.23 76.6875 1041.35 76.3596 Q1041.47 75.9907 1041.8 75.8677 Q1042.17 75.7037 1042.38 75.7037 Q1042.62 75.6627 1043.24 75.6627 Q1044.06 75.6627 1044.92 75.5808 Q1045.78 75.4578 1046.84 75.2119 Q1047.91 74.9659 1048.57 74.3511 Q1049.26 73.7362 1049.26 72.8755 Q1049.26 72.5066 1048.98 69.4734 Q1048.69 66.4402 1048.32 62.9151 Q1047.95 59.349 1047.91 58.8571 L1026.84 58.8571 Q1024.91 62.1773 1023.56 64.4727 Q1022.21 66.7681 1021.72 67.5469 Q1021.23 68.3257 1020.94 68.8175 Q1020.65 69.3094 1020.49 69.5963 Q1019.3 71.7688 1019.3 72.7115 Q1019.3 75.3348 1023.23 75.6627 Q1024.59 75.6627 1024.59 76.6465 Q1024.59 77.3843 1024.26 77.7942 Q1023.93 78.1631 1023.64 78.2041 Q1023.4 78.2451 1022.99 78.2451 Q1021.64 78.2451 1018.81 78.1221 Q1015.98 77.9991 1014.59 77.9991 Q1013.4 77.9991 1010.94 78.1221 Q1008.48 78.2451 1007.37 78.2451 Q1006.88 78.2451 1006.59 77.9581 Q1006.31 77.6712 1006.31 77.3023 Q1006.31 76.7285 1006.39 76.4005 Q1006.51 76.0726 1006.84 75.9087 Q1007.17 75.7447 1007.33 75.7447 Q1007.49 75.7037 1008.07 75.6627 Q1011.18 75.4578 1013.6 73.9822 Q1016.06 72.4656 1018.4 68.5716 L1047.58 19.5484 Q1047.87 19.0565 1048.07 18.8106 Q1048.28 18.5647 1048.69 18.3597 Q1049.14 18.1548 1049.8 18.1548 Q1050.82 18.1548 1051.02 18.4827 Q1051.23 18.7696 1051.35 20.1633 L1056.48 72.6295 Q1056.6 73.7362 1056.68 74.1871 Q1056.8 74.597 1057.34 75.0479 Q1057.91 75.4578 1058.94 75.5808 Q1060 75.6627 1061.97 75.6627 Q1062.71 75.6627 1062.99 75.7037 Q1063.28 75.7037 1063.57 75.9087 Q1063.9 76.1136 1063.9 76.5645 M1047.66 56.2338 L1045 28.5661 L1028.44 56.2338 L1047.66 56.2338 Z" fill="#000000" fill-rule="evenodd" fill-opacity="1" /><path clip-path="url(#clip630)" d="M1070.68 98.4118 Q1070.68 98.0019 1071.74 96.9772 Q1085.27 83.2048 1085.27 57.2586 Q1085.27 31.2304 1072.28 18.0728 Q1070.68 16.5562 1070.68 16.1053 Q1070.68 15.2855 1071.5 15.2855 Q1072.07 15.2855 1074.08 16.9661 Q1076.13 18.6467 1079.2 22.4996 Q1082.32 26.3526 1084.61 31.0664 Q1090.15 42.5024 1090.15 57.2586 Q1090.15 71.4408 1084.86 82.8769 Q1082.61 87.6726 1079.45 91.6895 Q1076.29 95.7065 1074.2 97.469 Q1072.11 99.2316 1071.5 99.2316 Q1070.68 99.2316 1070.68 98.4118 Z" fill="#000000" fill-rule="evenodd" fill-opacity="1" /><path clip-path="url(#clip630)" d="M1126.2 65.4974 Q1126.28 64.4727 1127.88 64.4727 L1179.32 64.4727 Q1181.74 64.4727 1181.78 65.4154 Q1181.78 66.4402 1179.49 66.3992 L1128.46 66.3992 Q1126.2 66.4402 1126.2 65.4974 M1126.2 49.1017 Q1126.2 48.077 1127.96 48.1179 L1179.24 48.1179 Q1181.74 48.1179 1181.78 49.1017 Q1181.78 50.0444 1179.65 50.0444 L1127.88 50.0444 Q1126.2 50.0444 1126.2 49.1017 Z" fill="#000000" fill-rule="evenodd" fill-opacity="1" /><path clip-path="url(#clip630)" d="M1214.16 30.3286 L1214.16 27.7053 Q1224.24 27.7053 1229.45 22.3357 Q1230.88 22.3357 1231.13 22.6636 Q1231.38 22.9915 1231.38 24.5081 L1231.38 71.6048 Q1231.38 74.1051 1232.61 74.8839 Q1233.84 75.6627 1239.21 75.6627 L1241.87 75.6627 L1241.87 78.2451 Q1238.92 77.9991 1228.26 77.9991 Q1217.6 77.9991 1214.69 78.2451 L1214.69 75.6627 L1217.36 75.6627 Q1222.65 75.6627 1223.92 74.9249 Q1225.19 74.1461 1225.19 71.6048 L1225.19 28.1152 Q1220.8 30.3286 1214.16 30.3286 Z" fill="#000000" fill-rule="evenodd" fill-opacity="1" /><path clip-path="url(#clip630)" d="M1248.5 76.8924 Q1247.23 75.5398 1247.23 73.7772 Q1247.23 72.0147 1248.5 70.744 Q1249.77 69.4324 1251.7 69.4324 Q1253.54 69.4324 1254.77 70.662 Q1256.04 71.8507 1256.04 73.8182 Q1256.04 75.7447 1254.69 77.0154 Q1253.38 78.2451 1251.7 78.2451 Q1249.77 78.2451 1248.5 76.8924 Z" fill="#000000" fill-rule="evenodd" fill-opacity="1" /><path clip-path="url(#clip630)" d="M1270.33 51.3971 Q1270.33 39.0593 1273.45 32.3371 Q1277.79 22.3357 1288.04 22.3357 Q1290.21 22.3357 1292.46 22.9505 Q1294.76 23.5244 1297.63 25.7788 Q1300.54 28.0332 1302.3 31.7222 Q1305.66 38.8544 1305.66 51.3971 Q1305.66 63.6529 1302.55 70.3341 Q1298 80.0896 1287.96 80.0896 Q1284.18 80.0896 1280.33 78.1631 Q1276.52 76.2366 1274.1 71.6048 Q1270.33 64.6776 1270.33 51.3971 M1277.3 50.3724 Q1277.3 63.038 1278.2 68.0797 Q1279.22 73.5313 1282.01 75.9087 Q1284.84 78.2451 1287.96 78.2451 Q1291.32 78.2451 1294.1 75.7447 Q1296.93 73.2034 1297.79 67.7518 Q1298.74 62.3822 1298.69 50.3724 Q1298.69 38.6904 1297.88 34.0176 Q1296.77 28.5661 1293.82 26.3936 Q1290.91 24.1802 1287.96 24.1802 Q1286.85 24.1802 1285.66 24.5081 Q1284.51 24.836 1282.83 25.7788 Q1281.15 26.7215 1279.84 29.0579 Q1278.57 31.3943 1277.95 34.9194 Q1277.3 39.4692 1277.3 50.3724 Z" fill="#000000" fill-rule="evenodd" fill-opacity="1" /><path clip-path="url(#clip630)" d="M1312.24 51.3971 Q1312.24 39.0593 1315.35 32.3371 Q1319.7 22.3357 1329.94 22.3357 Q1332.12 22.3357 1334.37 22.9505 Q1336.67 23.5244 1339.54 25.7788 Q1342.45 28.0332 1344.21 31.7222 Q1347.57 38.8544 1347.57 51.3971 Q1347.57 63.6529 1344.45 70.3341 Q1339.9 80.0896 1329.86 80.0896 Q1326.09 80.0896 1322.24 78.1631 Q1318.43 76.2366 1316.01 71.6048 Q1312.24 64.6776 1312.24 51.3971 M1319.2 50.3724 Q1319.2 63.038 1320.11 68.0797 Q1321.13 73.5313 1323.92 75.9087 Q1326.75 78.2451 1329.86 78.2451 Q1333.22 78.2451 1336.01 75.7447 Q1338.84 73.2034 1339.7 67.7518 Q1340.64 62.3822 1340.6 50.3724 Q1340.6 38.6904 1339.78 34.0176 Q1338.67 28.5661 1335.72 26.3936 Q1332.81 24.1802 1329.86 24.1802 Q1328.76 24.1802 1327.57 24.5081 Q1326.42 24.836 1324.74 25.7788 Q1323.06 26.7215 1321.75 29.0579 Q1320.48 31.3943 1319.86 34.9194 Q1319.2 39.4692 1319.2 50.3724 Z" fill="#000000" fill-rule="evenodd" fill-opacity="1" /><path clip-path="url(#clip630)" d="M1351.42 30.3286 L1351.42 27.7053 Q1361.5 27.7053 1366.71 22.3357 Q1368.14 22.3357 1368.39 22.6636 Q1368.63 22.9915 1368.63 24.5081 L1368.63 71.6048 Q1368.63 74.1051 1369.86 74.8839 Q1371.09 75.6627 1376.46 75.6627 L1379.13 75.6627 L1379.13 78.2451 Q1376.17 77.9991 1365.52 77.9991 Q1354.86 77.9991 1351.95 78.2451 L1351.95 75.6627 L1354.61 75.6627 Q1359.9 75.6627 1361.17 74.9249 Q1362.44 74.1461 1362.44 71.6048 L1362.44 28.1152 Q1358.06 30.3286 1351.42 30.3286 Z" fill="#000000" fill-rule="evenodd" fill-opacity="1" /><path clip-path="url(#clip630)" d="M1447.8 55.4385 Q1438.76 55.4385 1435.28 57.5044 Q1431.79 59.5704 1431.79 64.553 Q1431.79 68.5229 1434.39 70.8724 Q1437.02 73.1814 1441.52 73.1814 Q1447.71 73.1814 1451.44 68.8065 Q1455.21 64.391 1455.21 57.0993 L1455.21 55.4385 L1447.8 55.4385 M1462.66 52.3598 L1462.66 78.2451 L1455.21 78.2451 L1455.21 71.3585 Q1452.66 75.4904 1448.85 77.4754 Q1445.04 79.4198 1439.53 79.4198 Q1432.56 79.4198 1428.43 75.531 Q1424.34 71.6016 1424.34 65.0391 Q1424.34 57.3829 1429.45 53.494 Q1434.59 49.6052 1444.76 49.6052 L1455.21 49.6052 L1455.21 48.876 Q1455.21 43.7314 1451.81 40.9362 Q1448.44 38.1006 1442.33 38.1006 Q1438.44 38.1006 1434.75 39.0323 Q1431.07 39.964 1427.66 41.8274 L1427.66 34.9409 Q1431.75 33.361 1435.6 32.5914 Q1439.45 31.7812 1443.1 31.7812 Q1452.94 31.7812 1457.8 36.8853 Q1462.66 41.9895 1462.66 52.3598 Z" fill="#000000" fill-rule="evenodd" fill-opacity="1" /><path clip-path="url(#clip630)" d="M1515.73 50.8609 L1515.73 78.2451 L1508.28 78.2451 L1508.28 51.104 Q1508.28 44.6631 1505.76 41.4629 Q1503.25 38.2626 1498.23 38.2626 Q1492.19 38.2626 1488.71 42.111 Q1485.23 45.9594 1485.23 52.6028 L1485.23 78.2451 L1477.73 78.2451 L1477.73 32.8749 L1485.23 32.8749 L1485.23 39.9235 Q1487.9 35.8321 1491.51 33.8066 Q1495.15 31.7812 1499.89 31.7812 Q1507.71 31.7812 1511.72 36.6423 Q1515.73 41.4629 1515.73 50.8609 Z" fill="#000000" fill-rule="evenodd" fill-opacity="1" /><path clip-path="url(#clip630)" d="M1560.45 39.7615 L1560.45 15.213 L1567.91 15.213 L1567.91 78.2451 L1560.45 78.2451 L1560.45 71.4395 Q1558.1 75.4904 1554.5 77.4754 Q1550.93 79.4198 1545.91 79.4198 Q1537.69 79.4198 1532.5 72.8574 Q1527.36 66.2949 1527.36 55.6005 Q1527.36 44.9061 1532.5 38.3437 Q1537.69 31.7812 1545.91 31.7812 Q1550.93 31.7812 1554.5 33.7661 Q1558.1 35.7106 1560.45 39.7615 M1535.05 55.6005 Q1535.05 63.8238 1538.41 68.5229 Q1541.82 73.1814 1547.73 73.1814 Q1553.65 73.1814 1557.05 68.5229 Q1560.45 63.8238 1560.45 55.6005 Q1560.45 47.3772 1557.05 42.7186 Q1553.65 38.0196 1547.73 38.0196 Q1541.82 38.0196 1538.41 42.7186 Q1535.05 47.3772 1535.05 55.6005 Z" fill="#000000" fill-rule="evenodd" fill-opacity="1" /><path clip-path="url(#clip630)" d="M1646.2 42.4473 Q1646.2 45.3166 1642.1 45.3166 L1632.88 45.3166 Q1635.46 49.0056 1635.46 54.4572 Q1635.46 59.13 1633.54 63.5158 Q1631.65 67.8607 1628.62 70.8939 Q1625.63 73.9271 1621.86 75.7716 Q1618.08 77.5752 1614.4 77.5752 Q1608.78 77.5752 1605.3 73.7632 Q1601.81 69.9512 1601.81 64.2946 Q1601.81 61.3024 1602.84 57.9823 Q1603.9 54.6622 1605.91 51.588 Q1607.92 48.4728 1610.54 45.9724 Q1613.21 43.4721 1616.65 41.9555 Q1620.13 40.4389 1623.78 40.4389 L1642.92 40.4389 Q1643.95 40.4389 1644.48 40.5209 Q1645.06 40.5618 1645.63 41.0537 Q1646.2 41.5046 1646.2 42.4473 M1630.09 53.4735 Q1630.09 52.4897 1629.97 51.6289 Q1629.85 50.7272 1629.4 49.5385 Q1628.95 48.3088 1628.17 47.448 Q1627.39 46.5463 1625.87 45.9314 Q1624.4 45.3166 1622.39 45.3166 Q1619.56 45.3166 1616.44 46.8742 Q1613.33 48.4318 1610.95 52.2848 Q1608.98 55.5639 1608 59.8268 Q1607.02 64.0897 1607.02 66.631 Q1607.02 70.9759 1609.11 73.3533 Q1611.24 75.6897 1614.48 75.6897 Q1617.14 75.6897 1620.17 73.8861 Q1623.21 72.0416 1625.54 68.5575 Q1627.59 65.5243 1628.82 61.0975 Q1630.09 56.6706 1630.09 53.4735 Z" fill="#000000" fill-rule="evenodd" fill-opacity="1" /><path clip-path="url(#clip630)" d="M1693.63 71.1347 Q1693.63 73.344 1692.43 78.2217 Q1691.22 83.0994 1689.76 86.4278 Q1686.63 93.6583 1681.24 93.6583 Q1680.58 93.6583 1679.92 93.6009 Q1679.29 93.5435 1678.34 93.2853 Q1677.39 93.027 1676.62 92.6253 Q1675.84 92.195 1675.07 91.3916 Q1674.32 90.5882 1673.89 89.5266 Q1671.51 93.6583 1667.78 93.6583 Q1664.16 93.6583 1661.78 91.822 Q1659.43 89.9856 1659.43 86.2269 Q1659.43 84.5341 1660.12 82.0378 Q1660.81 79.5416 1662.73 74.3769 Q1663.79 71.7085 1663.79 70.2452 Q1663.79 69.5853 1663.65 69.1549 Q1663.5 68.7245 1663.22 68.581 Q1662.96 68.4089 1662.79 68.3802 Q1662.61 68.3228 1662.33 68.3228 Q1660.61 68.3228 1659.06 70.073 Q1657.51 71.7946 1656.39 75.6107 Q1656.16 76.328 1656.02 76.5002 Q1655.87 76.6723 1655.44 76.6723 Q1654.72 76.6436 1654.72 76.0698 Q1654.72 75.8402 1654.98 74.9508 Q1655.24 74.0326 1655.84 72.6841 Q1656.47 71.3068 1657.34 70.073 Q1658.2 68.8106 1659.54 67.9211 Q1660.92 67.0316 1662.5 67.0316 Q1664.62 67.0316 1665.97 68.4376 Q1667.32 69.8435 1667.32 71.852 Q1667.32 72.4258 1667.18 73.0571 Q1667.03 73.6596 1666.89 74.0613 Q1666.78 74.4343 1666.32 75.6107 Q1664.42 80.5745 1663.82 82.956 Q1663.25 85.3374 1663.25 87.0016 Q1663.25 87.5468 1663.27 87.9772 Q1663.3 88.4075 1663.53 89.297 Q1663.79 90.1865 1664.25 90.789 Q1664.71 91.3629 1665.66 91.8506 Q1666.63 92.3384 1667.95 92.3384 Q1671.25 92.3384 1673.37 87.4033 Q1673.32 87.1164 1673.32 86.3704 Q1673.32 84.7062 1673.83 82.4682 Q1673.98 81.9517 1674.81 78.6521 Q1675.64 75.3238 1676.36 72.4258 Q1677.1 69.4992 1677.19 69.327 Q1677.48 68.5236 1678.11 68.0933 Q1678.74 67.6629 1679.37 67.6629 Q1680.09 67.6629 1680.58 68.0933 Q1681.06 68.5236 1681.06 69.2697 Q1681.06 69.4131 1680.89 70.073 Q1680.75 70.7043 1680.52 71.6511 Q1680.29 72.598 1680.17 73.0858 L1677.71 82.956 Q1677.08 85.2514 1677.08 87.2312 Q1677.08 89.7274 1678.19 91.0473 Q1679.31 92.3384 1681.41 92.3384 Q1685.34 92.3384 1687.86 87.1738 Q1689.01 84.9358 1690.04 81.4353 Q1691.11 77.9348 1691.11 76.4141 Q1691.11 73.5448 1688.98 71.4216 Q1688.52 71.0199 1688.32 70.7043 Q1688.12 70.36 1688.12 69.8435 Q1688.12 68.868 1689.04 67.9498 Q1689.96 67.0316 1691.05 67.0316 Q1692.02 67.0316 1692.83 68.0072 Q1693.63 68.954 1693.63 71.1347 Z" fill="#000000" fill-rule="evenodd" fill-opacity="1" /><path clip-path="url(#clip630)" d="M1703.41 75.2798 Q1702.22 73.9271 1702.22 72.1646 Q1702.22 70.402 1703.36 69.0904 Q1704.55 67.7377 1706.69 67.7377 Q1709.19 67.7377 1710.62 70.1561 Q1712.05 72.5335 1712.05 76.5504 Q1712.05 80.8953 1710.29 84.9122 Q1708.53 88.9702 1706.81 90.8967 Q1705.09 92.8232 1704.39 92.8232 Q1703.57 92.8232 1703.57 91.9214 Q1703.57 91.5935 1704.14 90.9787 Q1710.17 84.5023 1710.21 76.5504 Q1710.21 75.2798 1710.05 75.2798 L1709.84 75.4437 Q1708.41 76.6324 1706.69 76.6324 Q1704.59 76.6324 1703.41 75.2798 Z" fill="#000000" fill-rule="evenodd" fill-opacity="1" /><path clip-path="url(#clip630)" d="M1782.94 42.4473 Q1782.94 45.3166 1778.84 45.3166 L1769.61 45.3166 Q1772.2 49.0056 1772.2 54.4572 Q1772.2 59.13 1770.27 63.5158 Q1768.38 67.8607 1765.35 70.8939 Q1762.36 73.9271 1758.59 75.7716 Q1754.82 77.5752 1751.13 77.5752 Q1745.51 77.5752 1742.03 73.7632 Q1738.54 69.9512 1738.54 64.2946 Q1738.54 61.3024 1739.57 57.9823 Q1740.63 54.6622 1742.64 51.588 Q1744.65 48.4728 1747.27 45.9724 Q1749.94 43.4721 1753.38 41.9555 Q1756.87 40.4389 1760.51 40.4389 L1779.66 40.4389 Q1780.68 40.4389 1781.21 40.5209 Q1781.79 40.5618 1782.36 41.0537 Q1782.94 41.5046 1782.94 42.4473 M1766.83 53.4735 Q1766.83 52.4897 1766.7 51.6289 Q1766.58 50.7272 1766.13 49.5385 Q1765.68 48.3088 1764.9 47.448 Q1764.12 46.5463 1762.6 45.9314 Q1761.13 45.3166 1759.12 45.3166 Q1756.29 45.3166 1753.18 46.8742 Q1750.06 48.4318 1747.68 52.2848 Q1745.72 55.5639 1744.73 59.8268 Q1743.75 64.0897 1743.75 66.631 Q1743.75 70.9759 1745.84 73.3533 Q1747.97 75.6897 1751.21 75.6897 Q1753.87 75.6897 1756.91 73.8861 Q1759.94 72.0416 1762.28 68.5575 Q1764.33 65.5243 1765.56 61.0975 Q1766.83 56.6706 1766.83 53.4735 Z" fill="#000000" fill-rule="evenodd" fill-opacity="1" /><path clip-path="url(#clip630)" d="M1816.36 67.6055 Q1816.36 67.8063 1815.87 68.6671 Q1815.42 69.4992 1813.72 71.5937 Q1812.03 73.6883 1809.5 76.1272 Q1808.56 77.074 1807.12 78.3939 Q1805.69 79.7137 1804.71 80.5745 L1803.74 81.4353 Q1800.01 84.5914 1796.74 88.1206 Q1796.97 88.0345 1797.37 88.0058 Q1797.77 87.9485 1798.06 87.9485 L1798.34 87.9485 Q1799.84 87.9485 1802.45 88.9527 Q1804.74 89.6987 1805.92 89.6987 Q1807.07 89.6987 1808.33 89.297 Q1809.59 88.8953 1810.97 87.7189 Q1812.35 86.5425 1812.98 84.7636 Q1813.09 84.4767 1813.15 84.3906 Q1813.21 84.2758 1813.38 84.1611 Q1813.55 84.0176 1813.78 84.0176 Q1814.1 84.0176 1814.3 84.1897 Q1814.5 84.3619 1814.5 84.5914 Q1814.5 85.1079 1814.1 86.1408 Q1813.72 87.1738 1812.89 88.4649 Q1812.09 89.7561 1811.03 90.9325 Q1809.99 92.0802 1808.44 92.8836 Q1806.89 93.6583 1805.26 93.6583 Q1804.08 93.6583 1803.22 93.0844 Q1802.36 92.5393 1801.5 91.4776 Q1800.32 90.1291 1799.69 89.6987 Q1799.06 89.2396 1798.09 89.2396 Q1795.47 89.2396 1793.09 92.8836 Q1792.83 93.4 1792.66 93.5148 Q1792.52 93.6583 1792.17 93.6583 Q1791.46 93.6296 1791.46 93.0557 Q1791.46 92.8262 1792.09 91.822 Q1792.75 90.789 1794.21 88.9814 Q1795.7 87.1738 1797.51 85.3661 L1802.79 80.431 Q1808.64 75.4959 1810.97 72.7128 Q1809.99 72.7128 1809.56 72.6841 Q1809.16 72.6554 1808.36 72.4832 Q1807.55 72.2824 1806.43 71.852 Q1803.82 70.9625 1802.73 70.9625 Q1802.45 70.9625 1802.13 70.9912 Q1801.82 71.0199 1801.1 71.1634 Q1800.41 71.3068 1799.84 71.5937 Q1799.26 71.852 1798.66 72.4258 Q1798.06 72.971 1797.74 73.717 Q1797.65 73.9465 1797.6 74.0613 Q1797.54 74.1761 1797.37 74.2908 Q1797.22 74.3769 1796.99 74.3769 Q1796.65 74.3769 1796.45 74.1761 Q1796.28 73.9752 1796.28 73.717 Q1796.28 73.2005 1796.79 72.1389 Q1797.31 71.0773 1798.17 69.9296 Q1799.03 68.7532 1800.44 67.8924 Q1801.84 67.0316 1803.39 67.0316 Q1804.31 67.0316 1805.09 67.4333 Q1805.89 67.835 1806.29 68.2654 Q1806.72 68.6671 1807.44 69.5566 Q1808.04 70.2452 1808.33 70.5321 Q1808.62 70.819 1809.19 71.1347 Q1809.79 71.4216 1810.45 71.4216 Q1811.54 71.4216 1812.55 70.5895 Q1813.55 69.7287 1814.84 67.6629 Q1815.19 67.0316 1815.73 67.0316 Q1816.36 67.0316 1816.36 67.6055 Z" fill="#000000" fill-rule="evenodd" fill-opacity="1" /><path clip-path="url(#clip630)" d="M1848.37 63.8847 Q1848.45 62.86 1850.05 62.86 L1901.49 62.86 Q1903.91 62.86 1903.95 63.8028 Q1903.95 64.8275 1901.66 64.7865 L1850.63 64.7865 Q1848.37 64.8275 1848.37 63.8847 M1848.37 47.489 Q1848.37 46.4643 1850.13 46.5053 L1901.41 46.5053 Q1903.91 46.5053 1903.95 47.489 Q1903.95 48.4318 1901.82 48.4318 L1850.05 48.4318 Q1848.37 48.4318 1848.37 47.489 Z" fill="#000000" fill-rule="evenodd" fill-opacity="1" /><path clip-path="url(#clip630)" d="M1936.33 49.7844 Q1936.33 37.4467 1939.45 30.7244 Q1943.79 20.723 1954.04 20.723 Q1956.21 20.723 1958.47 21.3379 Q1960.76 21.9117 1963.63 24.1661 Q1966.54 26.4205 1968.3 30.1096 Q1971.66 37.2417 1971.66 49.7844 Q1971.66 62.0402 1968.55 68.7215 Q1964 78.4769 1953.96 78.4769 Q1950.19 78.4769 1946.33 76.5504 Q1942.52 74.6239 1940.1 69.9921 Q1936.33 63.065 1936.33 49.7844 M1943.3 48.7597 Q1943.3 61.4254 1944.2 66.4671 Q1945.23 71.9186 1948.01 74.296 Q1950.84 76.6324 1953.96 76.6324 Q1957.32 76.6324 1960.11 74.1321 Q1962.93 71.5907 1963.79 66.1392 Q1964.74 60.7696 1964.7 48.7597 Q1964.7 37.0778 1963.88 32.405 Q1962.77 26.9534 1959.82 24.781 Q1956.91 22.5675 1953.96 22.5675 Q1952.85 22.5675 1951.66 22.8955 Q1950.51 23.2234 1948.83 24.1661 Q1947.15 25.1089 1945.84 27.4453 Q1944.57 29.7817 1943.96 33.3067 Q1943.3 37.8565 1943.3 48.7597 Z" fill="#000000" fill-rule="evenodd" fill-opacity="1" /><path clip-path="url(#clip630)" d="M1979.17 75.2798 Q1977.9 73.9271 1977.9 72.1646 Q1977.9 70.402 1979.17 69.1314 Q1980.44 67.8197 1982.37 67.8197 Q1984.21 67.8197 1985.44 69.0494 Q1986.71 70.2381 1986.71 72.2056 Q1986.71 74.1321 1985.36 75.4027 Q1984.05 76.6324 1982.37 76.6324 Q1980.44 76.6324 1979.17 75.2798 Z" fill="#000000" fill-rule="evenodd" fill-opacity="1" /><path clip-path="url(#clip630)" d="M2001 76.6324 Q2001 75.1158 2001.12 74.6649 Q2001.29 74.214 2001.94 73.5172 L2018.05 55.5639 Q2026.87 45.6445 2026.87 36.9958 Q2026.87 31.3802 2023.91 27.3633 Q2021 23.3463 2015.63 23.3463 Q2011.95 23.3463 2008.83 25.6008 Q2005.71 27.8552 2004.28 31.8721 Q2004.53 31.7901 2005.39 31.7901 Q2007.48 31.7901 2008.63 33.1018 Q2009.81 34.4134 2009.81 36.176 Q2009.81 38.4304 2008.34 39.5371 Q2006.9 40.6028 2005.47 40.6028 Q2004.9 40.6028 2004.12 40.4799 Q2003.38 40.3569 2002.19 39.2092 Q2001 38.0205 2001 35.9301 Q2001 30.0686 2005.43 25.3958 Q2009.9 20.723 2016.7 20.723 Q2024.41 20.723 2029.45 25.3138 Q2034.53 29.8636 2034.53 36.9958 Q2034.53 39.4961 2033.75 41.7915 Q2033.01 44.0459 2031.99 45.8085 Q2031.01 47.571 2028.3 50.3993 Q2025.59 53.2275 2023.42 55.236 Q2021.25 57.2445 2016.37 61.5074 L2007.48 70.1561 L2022.6 70.1561 Q2029.98 70.1561 2030.55 69.5003 Q2031.37 68.3116 2032.4 62.0402 L2034.53 62.0402 L2032.15 76.6324 L2001 76.6324 Z" fill="#000000" fill-rule="evenodd" fill-opacity="1" /><path clip-path="url(#clip630)" d="M2042.91 63.1059 Q2042.91 60.6056 2044.26 59.6628 Q2045.61 58.6791 2047.05 58.6791 Q2048.97 58.6791 2050.08 59.9088 Q2051.23 61.0975 2051.23 62.778 Q2051.23 64.4586 2050.08 65.6883 Q2048.97 66.877 2047.05 66.877 Q2046.1 66.877 2045.61 66.713 Q2046.72 70.566 2050.08 73.3533 Q2053.48 76.1405 2057.95 76.1405 Q2063.57 76.1405 2066.93 70.689 Q2068.94 67.1639 2068.94 59.171 Q2068.94 52.1208 2067.42 48.5957 Q2065.08 43.2261 2060.29 43.2261 Q2053.48 43.2261 2049.47 49.0876 Q2048.97 49.8254 2048.4 49.8664 Q2047.58 49.8664 2047.38 49.4155 Q2047.21 48.9237 2047.21 47.653 L2047.21 22.8135 Q2047.21 20.805 2048.03 20.805 Q2048.36 20.805 2049.06 21.0509 Q2054.34 23.3873 2060.2 23.4283 Q2066.23 23.4283 2071.64 20.969 Q2072.05 20.723 2072.3 20.723 Q2073.12 20.723 2073.16 21.6658 Q2073.16 21.9937 2072.46 22.9774 Q2071.8 23.9202 2070.37 25.1909 Q2068.94 26.4205 2067.09 27.6092 Q2065.25 28.7979 2062.54 29.6177 Q2059.88 30.3965 2056.93 30.3965 Q2053.4 30.3965 2049.79 29.2898 L2049.79 45.6445 Q2054.14 41.3816 2060.45 41.3816 Q2067.17 41.3816 2071.8 46.7922 Q2076.44 52.2028 2076.44 59.7448 Q2076.44 67.6558 2070.94 73.0663 Q2065.49 78.4769 2058.11 78.4769 Q2051.39 78.4769 2047.13 73.6812 Q2042.91 68.8854 2042.91 63.1059 Z" fill="#000000" fill-rule="evenodd" fill-opacity="1" /><polyline clip-path="url(#clip632)" style="stroke:#009af9; stroke-linecap:butt; stroke-linejoin:round; stroke-width:4; stroke-opacity:1; fill:none" points="
  298.659,1157.93 308.731,1144.83 318.803,1145.86 328.875,1144.08 338.947,1148.8 349.019,1135.48 359.091,1151.31 369.163,1123.78 379.235,1150.52 389.307,1140.63 
  399.38,1135.32 409.452,1149.06 419.524,1116.24 429.596,1084.1 439.668,1111.55 449.74,1108.15 459.812,1121.31 469.884,1108.24 479.956,1101.02 490.028,1102.24 
  500.1,1061.93 510.172,1124.59 520.244,1096.03 530.316,1124.06 540.388,1104.36 550.461,1098.69 560.533,1046.1 570.605,1049.34 580.677,1074.49 590.749,1029.59 
  600.821,1036.15 610.893,1063.76 620.965,1083.86 631.037,1017.43 641.109,1053.58 651.181,1030.41 661.253,1058.61 671.325,992.042 681.397,1051.02 691.469,1031.54 
  701.542,1009.96 711.614,1010.71 721.686,1022.01 731.758,997.639 741.83,1028.12 751.902,984.316 761.974,1011.72 772.046,993.634 782.118,875.217 792.19,979.597 
  802.262,965.449 812.334,989.709 822.406,948.485 832.478,973.03 842.55,914.913 852.622,957.576 862.695,951.386 872.767,935.984 882.839,939.771 892.911,942.635 
  902.983,929.547 913.055,914.088 923.127,921.262 933.199,906.688 943.271,924.781 953.343,892.848 963.415,879.029 973.487,890.175 983.559,892.019 993.631,883.688 
  1003.7,863.037 1013.78,894.96 1023.85,862.947 1033.92,849.946 1043.99,860.379 1054.06,840.777 1064.14,818.867 1074.21,826.7 1084.28,840.774 1094.35,826.139 
  1104.42,814.469 1114.5,815.404 1124.57,823.03 1134.64,797.994 1144.71,815.323 1154.78,826.527 1164.86,784.026 1174.93,748.296 1185,767.753 1195.07,749.459 
  1205.14,752.384 1215.22,748.184 1225.29,768.6 1235.36,758.218 1245.43,768.014 1255.51,739.047 1265.58,740.701 1275.65,738.026 1285.72,753.44 1295.79,730.393 
  1305.87,722.108 1315.94,690.136 1326.01,701.836 1336.08,660.597 1346.15,695.863 1356.23,688.706 1366.3,677.977 1376.37,668.066 1386.44,671.74 1396.51,653.949 
  1406.59,655.316 1416.66,654.694 1426.73,673.564 1436.8,666.134 1446.87,632.146 1456.95,620.129 1467.02,597.633 1477.09,608.613 1487.16,591.637 1497.23,613.991 
  1507.31,601.928 1517.38,587.019 1527.45,592.261 1537.52,580.84 1547.6,527.708 1557.67,596.111 1567.74,556.963 1577.81,564.164 1587.88,558.285 1597.96,536.202 
  1608.03,555.92 1618.1,503.128 1628.17,517.097 1638.24,530.111 1648.32,522.62 1658.39,530.849 1668.46,537.517 1678.53,500.062 1688.6,419.358 1698.68,502.253 
  1708.75,488.055 1718.82,444.999 1728.89,467.511 1738.96,478.168 1749.04,461.656 1759.11,455.672 1769.18,421.927 1779.25,464.56 1789.32,455.916 1799.4,435.144 
  1809.47,403.121 1819.54,433.567 1829.61,433.487 1839.68,412.546 1849.76,410.102 1859.83,420.496 1869.9,402.57 1879.97,400.26 1890.05,415.419 1900.12,328.58 
  1910.19,362.172 1920.26,382.797 1930.33,368.341 1940.41,366.426 1950.48,360.904 1960.55,328.663 1970.62,355.833 1980.69,305.329 1990.77,337.342 2000.84,300.922 
  2010.91,321.561 2020.98,302.283 2031.05,185.738 2041.13,295.049 2051.2,255.156 2061.27,255.718 2071.34,276.751 2081.41,289.324 2091.49,265.029 2101.56,252.396 
  2111.63,281.145 2121.7,260.916 2131.77,258.221 2141.85,274.698 2151.92,212.433 2161.99,235.466 2172.06,212.343 2182.14,241.654 2192.21,240.701 2202.28,208.562 
  2212.35,209.687 2222.42,187.576 2232.5,186.73 2242.57,193.684 2252.64,178.179 2262.71,210.704 2272.78,194.951 2282.86,159.909 2292.93,176.538 
  "/>
<polyline clip-path="url(#clip632)" style="stroke:#e26f46; stroke-linecap:butt; stroke-linejoin:round; stroke-width:4; stroke-opacity:1; fill:none" points="
  298.659,1145.77 308.731,1140.57 318.803,1140.5 328.875,1152.01 338.947,1138.09 349.019,1133.18 359.091,1146.07 369.163,1128.63 379.235,1148.08 389.307,1138.55 
  399.38,1137.01 409.452,1147.63 419.524,1112.86 429.596,1078.14 439.668,1112.38 449.74,1104.87 459.812,1123.97 469.884,1106.65 479.956,1102.98 490.028,1103.27 
  500.1,1057.38 510.172,1124.51 520.244,1097.43 530.316,1121.68 540.388,1104.87 550.461,1099.32 560.533,1046.57 570.605,1049.59 580.677,1075.21 590.749,1031.27 
  600.821,1035.11 610.893,1059.82 620.965,1083.6 631.037,1017.12 641.109,1053.86 651.181,1029.12 661.253,1059.23 671.325,991.498 681.397,1051.31 691.469,1032.38 
  701.542,1008.7 711.614,1010.38 721.686,1020.1 731.758,996.537 741.83,1028.29 751.902,983.518 761.974,1011.45 772.046,993.744 782.118,874.439 792.19,978.933 
  802.262,967.518 812.334,990.809 822.406,948.803 832.478,973.745 842.55,916.705 852.622,958.48 862.695,950.754 872.767,937.333 882.839,941.19 892.911,941.403 
  902.983,930.787 913.055,915.891 923.127,922.306 933.199,907.992 943.271,924.645 953.343,890.927 963.415,879.361 973.487,889.34 983.559,893.036 993.631,883.59 
  1003.7,862.948 1013.78,895.104 1023.85,861.616 1033.92,849.565 1043.99,860.559 1054.06,840.639 1064.14,819.559 1074.21,827.809 1084.28,839.873 1094.35,826.528 
  1104.42,812.911 1114.5,814.409 1124.57,822.164 1134.64,799.184 1144.71,816.175 1154.78,825.597 1164.86,784.059 1174.93,748.069 1185,766.788 1195.07,749.352 
  1205.14,753.431 1215.22,748.11 1225.29,767.459 1235.36,758.51 1245.43,767.457 1255.51,740.112 1265.58,741.838 1275.65,738.747 1285.72,752.51 1295.79,730.232 
  1305.87,722.119 1315.94,689.906 1326.01,701.665 1336.08,659.309 1346.15,695.8 1356.23,689.077 1366.3,677.346 1376.37,668.232 1386.44,673.074 1396.51,655.514 
  1406.59,656.257 1416.66,651.868 1426.73,673.313 1436.8,665.77 1446.87,631.537 1456.95,619.952 1467.02,598.536 1477.09,607.685 1487.16,591.515 1497.23,614.818 
  1507.31,601.73 1517.38,585.852 1527.45,591.539 1537.52,581.422 1547.6,527.732 1557.67,596.131 1567.74,556.845 1577.81,566.132 1587.88,557.064 1597.96,536.112 
  1608.03,555.88 1618.1,502.905 1628.17,516.215 1638.24,529.401 1648.32,523.04 1658.39,531.576 1668.46,537.766 1678.53,500.041 1688.6,420.656 1698.68,501.638 
  1708.75,487.639 1718.82,445.646 1728.89,468.067 1738.96,478.035 1749.04,460.645 1759.11,455.589 1769.18,421.356 1779.25,465.693 1789.32,455.308 1799.4,434.587 
  1809.47,402.963 1819.54,433.92 1829.61,433.631 1839.68,412.352 1849.76,410.951 1859.83,419.752 1869.9,402.3 1879.97,400.697 1890.05,414.874 1900.12,328.546 
  1910.19,361.55 1920.26,382.7 1930.33,368.064 1940.41,366.307 1950.48,360.829 1960.55,328.628 1970.62,356.122 1980.69,305.083 1990.77,336.636 2000.84,299.822 
  2010.91,321.624 2020.98,302.843 2031.05,191.642 2041.13,294.128 2051.2,254.18 2061.27,256.395 2071.34,276.578 2081.41,288.731 2091.49,265.23 2101.56,252.085 
  2111.63,281.143 2121.7,261.494 2131.77,257.907 2141.85,274.789 2151.92,213.145 2161.99,235.679 2172.06,212.977 2182.14,241.623 2192.21,240.95 2202.28,208.705 
  2212.35,209.698 2222.42,187.095 2232.5,187.275 2242.57,193.885 2252.64,178.133 2262.71,210.723 2272.78,194.845 2282.86,160.076 2292.93,176.851 
  "/>
<polyline clip-path="url(#clip632)" style="stroke:#3da44d; stroke-linecap:butt; stroke-linejoin:round; stroke-width:4; stroke-opacity:1; fill:none" points="
  298.659,1157.87 308.731,1177.53 318.803,1203.5 328.875,1228.78 338.947,1232.81 349.019,1247.62 359.091,1250.06 369.163,1247.53 379.235,1259.7 389.307,1260.89 
  399.38,1268.7 409.452,1266.5 419.524,1265.75 429.596,1258.9 439.668,1276.33 449.74,1256.1 459.812,1281.19 469.884,1273.52 479.956,1296.06 490.028,1291.57 
  500.1,1291.77 510.172,1287.05 520.244,1291.64 530.316,1305.51 540.388,1306.91 550.461,1306.74 560.533,1277.57 570.605,1281.11 580.677,1303.4 590.749,1286.64 
  600.821,1288.75 610.893,1302.11 620.965,1293.8 631.037,1281.12 641.109,1304.85 651.181,1297.59 661.253,1319.3 671.325,1297.65 681.397,1321.7 691.469,1327.79 
  701.542,1311.54 711.614,1323.53 721.686,1315.77 731.758,1311.97 741.83,1324.82 751.902,1292.66 761.974,1306.77 772.046,1324.54 782.118,1285.46 792.19,1330.46 
  802.262,1316.42 812.334,1345.05 822.406,1324.19 832.478,1334.22 842.55,1291.62 852.622,1312.79 862.695,1318.77 872.767,1334.05 882.839,1321.12 892.911,1320.55 
  902.983,1320.13 913.055,1326.86 923.127,1332.7 933.199,1340.59 943.271,1330.88 953.343,1317.44 963.415,1335.43 973.487,1334.46 983.559,1337.73 993.631,1344.85 
  1003.7,1312.62 1013.78,1328.46 1023.85,1342.68 1033.92,1332.78 1043.99,1327.55 1054.06,1322.77 1064.14,1317.7 1074.21,1331.24 1084.28,1347.15 1094.35,1325.1 
  1104.42,1337.18 1114.5,1341 1124.57,1344.56 1134.64,1329.89 1144.71,1345.23 1154.78,1346.43 1164.86,1336.6 1174.93,1292.64 1185,1335.61 1195.07,1329.94 
  1205.14,1338.11 1215.22,1326.98 1225.29,1355.02 1235.36,1330.84 1245.43,1353.79 1255.51,1353.02 1265.58,1334.2 1275.65,1324.49 1285.72,1364.99 1295.79,1346.37 
  1305.87,1349.87 1315.94,1346.11 1326.01,1339.73 1336.08,1312.99 1346.15,1339.03 1356.23,1355.27 1366.3,1328.1 1376.37,1348.04 1386.44,1345.39 1396.51,1340.56 
  1406.59,1358.77 1416.66,1347.19 1426.73,1350.51 1436.8,1339.58 1446.87,1344.27 1456.95,1347.48 1467.02,1308.9 1477.09,1347.89 1487.16,1326.13 1497.23,1343.6 
  1507.31,1352.21 1517.38,1342.46 1527.45,1355.85 1537.52,1346.73 1547.6,1326.11 1557.67,1365.95 1567.74,1357.64 1577.81,1352.1 1587.88,1349.32 1597.96,1344.68 
  1608.03,1349.53 1618.1,1329.87 1628.17,1362.38 1638.24,1338.18 1648.32,1358.23 1658.39,1373 1668.46,1361.33 1678.53,1361.58 1688.6,1343.2 1698.68,1347.57 
  1708.75,1344.86 1718.82,1328 1728.89,1354.19 1738.96,1364.65 1749.04,1349.36 1759.11,1356.12 1769.18,1331.63 1779.25,1354.33 1789.32,1365.14 1799.4,1367.25 
  1809.47,1321.51 1819.54,1347.63 1829.61,1367.18 1839.68,1353.56 1849.76,1345.15 1859.83,1374.46 1869.9,1357.34 1879.97,1363.15 1890.05,1361.68 1900.12,1271.66 
  1910.19,1350.46 1920.26,1358.19 1930.33,1352.77 1940.41,1262.49 1950.48,1347.9 1960.55,1278.86 1970.62,1350.52 1980.69,1252.5 1990.77,1306.1 2000.84,1234.08 
  2010.91,1201.12 2020.98,1088.56 2031.05,1232.69 2041.13,1170.52 2051.2,1210.5 2061.27,1181.73 2071.34,1204.68 2081.41,1229.79 2091.49,1048.44 2101.56,1204.13 
  2111.63,1091.37 2121.7,1134.61 2131.77,1189.93 2141.85,1154.24 2151.92,1188.21 2161.99,1157.78 2172.06,1183.18 2182.14,1126.55 2192.21,1226.26 2202.28,1212.54 
  2212.35,1208.77 2222.42,1176.17 2232.5,1178.23 2242.57,1072.51 2252.64,991.89 2262.71,1157.23 2272.78,1149.17 2282.86,1146.47 2292.93,1188.8 
  "/>
<path clip-path="url(#clip630)" d="
M1958.89 373.746 L2282.29 373.746 L2282.29 166.386 L1958.89 166.386  Z
  " fill="#ffffff" fill-rule="evenodd" fill-opacity="1"/>
<polyline clip-path="url(#clip630)" style="stroke:#000000; stroke-linecap:butt; stroke-linejoin:round; stroke-width:4; stroke-opacity:1; fill:none" points="
  1958.89,373.746 2282.29,373.746 2282.29,166.386 1958.89,166.386 1958.89,373.746 
  "/>
<polyline clip-path="url(#clip630)" style="stroke:#009af9; stroke-linecap:butt; stroke-linejoin:round; stroke-width:4; stroke-opacity:1; fill:none" points="
  1982.38,218.226 2123.31,218.226 
  "/>
<path clip-path="url(#clip630)" d="M2160.2 222.474 Q2155.04 222.474 2153.05 223.654 Q2151.06 224.835 2151.06 227.682 Q2151.06 229.951 2152.54 231.293 Q2154.04 232.613 2156.61 232.613 Q2160.15 232.613 2162.28 230.113 Q2164.44 227.59 2164.44 223.423 L2164.44 222.474 L2160.2 222.474 M2168.7 220.715 L2168.7 235.506 L2164.44 235.506 L2164.44 231.571 Q2162.98 233.932 2160.8 235.066 Q2158.63 236.178 2155.48 236.178 Q2151.5 236.178 2149.14 233.955 Q2146.8 231.71 2146.8 227.96 Q2146.8 223.585 2149.71 221.363 Q2152.65 219.141 2158.46 219.141 L2164.44 219.141 L2164.44 218.724 Q2164.44 215.784 2162.49 214.187 Q2160.57 212.567 2157.08 212.567 Q2154.85 212.567 2152.75 213.099 Q2150.64 213.631 2148.7 214.696 L2148.7 210.761 Q2151.03 209.858 2153.23 209.418 Q2155.43 208.955 2157.52 208.955 Q2163.14 208.955 2165.92 211.872 Q2168.7 214.789 2168.7 220.715 Z" fill="#000000" fill-rule="evenodd" fill-opacity="1" /><path clip-path="url(#clip630)" d="M2174.41 209.58 L2178.93 209.58 L2187.03 231.34 L2195.13 209.58 L2199.64 209.58 L2189.92 235.506 L2184.14 235.506 L2174.41 209.58 Z" fill="#000000" fill-rule="evenodd" fill-opacity="1" /><path clip-path="url(#clip630)" d="M2222.58 222.242 Q2222.58 217.613 2220.66 215.067 Q2218.76 212.52 2215.32 212.52 Q2211.89 212.52 2209.97 215.067 Q2208.07 217.613 2208.07 222.242 Q2208.07 226.849 2209.97 229.395 Q2211.89 231.941 2215.32 231.941 Q2218.76 231.941 2220.66 229.395 Q2222.58 226.849 2222.58 222.242 M2226.84 232.289 Q2226.84 238.909 2223.9 242.127 Q2220.96 245.367 2214.9 245.367 Q2212.65 245.367 2210.66 245.02 Q2208.67 244.696 2206.8 244.002 L2206.8 239.858 Q2208.67 240.877 2210.5 241.363 Q2212.33 241.849 2214.23 241.849 Q2218.42 241.849 2220.5 239.65 Q2222.58 237.474 2222.58 233.053 L2222.58 230.946 Q2221.26 233.238 2219.2 234.372 Q2217.14 235.506 2214.27 235.506 Q2209.51 235.506 2206.59 231.872 Q2203.67 228.238 2203.67 222.242 Q2203.67 216.224 2206.59 212.59 Q2209.51 208.955 2214.27 208.955 Q2217.14 208.955 2219.2 210.09 Q2221.26 211.224 2222.58 213.516 L2222.58 209.58 L2226.84 209.58 L2226.84 232.289 Z" fill="#000000" fill-rule="evenodd" fill-opacity="1" /><polyline clip-path="url(#clip630)" style="stroke:#e26f46; stroke-linecap:butt; stroke-linejoin:round; stroke-width:4; stroke-opacity:1; fill:none" points="
  1982.38,270.066 2123.31,270.066 
  "/>
<path clip-path="url(#clip630)" d="M2162.82 255.958 Q2157.72 255.958 2154.71 259.754 Q2151.73 263.55 2151.73 270.101 Q2151.73 276.629 2154.71 280.425 Q2157.72 284.221 2162.82 284.221 Q2167.91 284.221 2170.87 280.425 Q2173.86 276.629 2173.86 270.101 Q2173.86 263.55 2170.87 259.754 Q2167.91 255.958 2162.82 255.958 M2162.82 252.161 Q2170.08 252.161 2174.44 257.046 Q2178.79 261.907 2178.79 270.101 Q2178.79 278.272 2174.44 283.156 Q2170.08 288.018 2162.82 288.018 Q2155.52 288.018 2151.15 283.156 Q2146.8 278.295 2146.8 270.101 Q2146.8 261.907 2151.15 257.046 Q2155.52 252.161 2162.82 252.161 Z" fill="#000000" fill-rule="evenodd" fill-opacity="1" /><path clip-path="url(#clip630)" d="M2186.1 252.786 L2190.78 252.786 L2190.78 283.411 L2207.61 283.411 L2207.61 287.346 L2186.1 287.346 L2186.1 252.786 Z" fill="#000000" fill-rule="evenodd" fill-opacity="1" /><path clip-path="url(#clip630)" d="M2233.23 253.921 L2233.23 258.481 Q2230.57 257.208 2228.21 256.583 Q2225.85 255.958 2223.65 255.958 Q2219.83 255.958 2217.75 257.439 Q2215.69 258.921 2215.69 261.652 Q2215.69 263.944 2217.05 265.124 Q2218.44 266.282 2222.28 266.999 L2225.11 267.578 Q2230.34 268.573 2232.82 271.096 Q2235.32 273.596 2235.32 277.809 Q2235.32 282.832 2231.94 285.425 Q2228.58 288.018 2222.07 288.018 Q2219.62 288.018 2216.84 287.462 Q2214.09 286.906 2211.13 285.819 L2211.13 281.004 Q2213.97 282.601 2216.7 283.411 Q2219.44 284.221 2222.07 284.221 Q2226.08 284.221 2228.26 282.647 Q2230.43 281.073 2230.43 278.157 Q2230.43 275.61 2228.86 274.175 Q2227.31 272.74 2223.74 272.022 L2220.89 271.467 Q2215.66 270.425 2213.33 268.203 Q2210.99 265.981 2210.99 262.022 Q2210.99 257.439 2214.2 254.8 Q2217.45 252.161 2223.12 252.161 Q2225.55 252.161 2228.07 252.601 Q2230.59 253.041 2233.23 253.921 Z" fill="#000000" fill-rule="evenodd" fill-opacity="1" /><polyline clip-path="url(#clip630)" style="stroke:#3da44d; stroke-linecap:butt; stroke-linejoin:round; stroke-width:4; stroke-opacity:1; fill:none" points="
  1982.38,321.906 2123.31,321.906 
  "/>
<path clip-path="url(#clip630)" d="M2151.47 308.469 L2151.47 321.455 L2157.35 321.455 Q2160.62 321.455 2162.4 319.765 Q2164.18 318.075 2164.18 314.95 Q2164.18 311.848 2162.4 310.159 Q2160.62 308.469 2157.35 308.469 L2151.47 308.469 M2146.8 304.626 L2157.35 304.626 Q2163.16 304.626 2166.13 307.265 Q2169.11 309.881 2169.11 314.95 Q2169.11 320.066 2166.13 322.682 Q2163.16 325.297 2157.35 325.297 L2151.47 325.297 L2151.47 339.186 L2146.8 339.186 L2146.8 304.626 Z" fill="#000000" fill-rule="evenodd" fill-opacity="1" /><path clip-path="url(#clip630)" d="M2175.39 304.626 L2180.06 304.626 L2180.06 335.251 L2196.89 335.251 L2196.89 339.186 L2175.39 339.186 L2175.39 304.626 Z" fill="#000000" fill-rule="evenodd" fill-opacity="1" /><path clip-path="url(#clip630)" d="M2222.51 305.761 L2222.51 310.321 Q2219.85 309.048 2217.49 308.423 Q2215.13 307.798 2212.93 307.798 Q2209.11 307.798 2207.03 309.279 Q2204.97 310.761 2204.97 313.492 Q2204.97 315.784 2206.33 316.964 Q2207.72 318.122 2211.57 318.839 L2214.39 319.418 Q2219.62 320.413 2222.1 322.936 Q2224.6 325.436 2224.6 329.649 Q2224.6 334.672 2221.22 337.265 Q2217.86 339.858 2211.36 339.858 Q2208.9 339.858 2206.13 339.302 Q2203.37 338.746 2200.41 337.659 L2200.41 332.844 Q2203.26 334.441 2205.99 335.251 Q2208.72 336.061 2211.36 336.061 Q2215.36 336.061 2217.54 334.487 Q2219.71 332.913 2219.71 329.997 Q2219.71 327.45 2218.14 326.015 Q2216.59 324.58 2213.02 323.862 L2210.18 323.307 Q2204.95 322.265 2202.61 320.043 Q2200.27 317.821 2200.27 313.862 Q2200.27 309.279 2203.49 306.64 Q2206.73 304.001 2212.4 304.001 Q2214.83 304.001 2217.35 304.441 Q2219.88 304.881 2222.51 305.761 Z" fill="#000000" fill-rule="evenodd" fill-opacity="1" /></svg>
